<svg id="Capa_1" enable-background="new 0 0 493.03 493.03"  viewBox="0 0 493.03 493.03"  xmlns="http://www.w3.org/2000/svg"><g><path d="m231.517 87.428v62.572l7.5 10 7.5-10v-60l-6.25-4.416z" fill="#ff6b6b"/><path d="m253.6 85.584-7.083 4.416v60l7.5 10 7.5-10v-62.572z" fill="#ff3d7d"/><path d="m201.517 45c0 24.813 20.186 45 45 45l10.998-44.485-10.998-45.515c-24.814 0-45 20.187-45 45z" fill="#fee05b"/><path d="m246.517 0v90c24.813 0 45-20.187 45-45s-20.187-45-45-45z" fill="#fec258"/><path d="m141.517 150-15 10-15-10v-47.572l15-6.511 15 6.511z" fill="#ff6b6b"/><path d="m381.517 150-15 10-15-10v-47.571l15-3.679 15 3.678z" fill="#ff3d7d"/><path d="m201.517 150-15 10-15-10v-37.5h30z" fill="#ff6b6b"/><path d="m321.517 150-15 10-15-10v-37.5h30z" fill="#ff3d7d"/><circle cx="126.517" cy="60" fill="#fee05b" r="45"/><circle cx="366.517" cy="60" fill="#fec258" r="45"/><path d="m246.517 150h-211.654l49.088 59.998 99.566 13.502 63-13.5 10-22.5z" fill="#7ed8f6"/><path d="m458.166 150-49.09 60-95.059 12-67.5-12v-60z" fill="#6aa9ff"/><path d="m108.497 239.998 78.02 95.357 35 10 25-10 10-50.354-10-45.001-76.25-9z" fill="#7ed8f6"/><path d="m384.536 240-78.019 95.35-30 10-30-10v-95.35l69.01-7.5z" fill="#6aa9ff"/><path d="m256.517 394.19-10 22.78-30 31.781-30 8.219v-121.62h60z" fill="#613d5c"/><path d="m306.517 335.35v41.62l-16.861 27.906-43.139 12.094v-81.62z" fill="#4b2746"/><path d="m83.956 210 24.54 30h138.021l15-15-15-15z" fill="#613d5c"/><path d="m246.517 210v30h138.019l12.271-15 12.269-15z" fill="#4b2746"/><path d="m186.517 456.97v36.06l60-40 10-26.779-10-9.281z" fill="#ff6b6b"/><path d="m306.517 376.97-53.091 35.401-6.909 4.599v36.06l60-40z" fill="#ff3d7d"/></g></svg>
