<svg id="Capa_1" enable-background="new 0 0 510.001 510.001" viewBox="0 0 510.001 510.001"  xmlns="http://www.w3.org/2000/svg"><g id="XMLID_1966_"><path id="XMLID_2052_" d="m210.001 450.001v60h45l10-30-10-30-17.5-10z" fill="#613d5c"/><path id="XMLID_2045_" d="m255.001 510.001h45v-60l-20.668-10-24.332 10z" fill="#4b2746"/><path id="XMLID_1989_" d="m214.892 383.316-49.892 5.034v61.65h90l10-29-10-31z" fill="#ff6b6b"/><path id="XMLID_1986_" d="m255.001 390.001v60h90v-63.465l-46.757-3.742z" fill="#ff3d7d"/><path id="XMLID_1983_" d="m111.941 344.561c-67.149-7.184-91.521-93.537-36.89-134.56-57.799-43.403-26.462-135 44.95-135l30-59.96c32.737-24.645 79.789-18.562 105 15.01l10 170.284-10 189.666c-80.866-.021-76.387.045-78.91-.05-16.76-.681-32.1-8.979-41.95-22.47l-3.14-31.48z" fill="#fedfd0"/><path id="XMLID_1980_" d="m390.001 75.001c71.44 0 102.732 91.607 44.95 135 51.352 38.562 33.529 119.168-28.4 133.16l-25.925-7.098-1.045 20.457c-10.235 19.847-31.121 33.48-55.08 33.48h-69.5v-359.95c25.198-33.555 72.248-39.667 105-15.01z" fill="#fecec1"/><path id="XMLID_1977_" d="m150.001 15.041v119.96h-30v-60c0-24.481 11.79-46.27 30-59.96z" fill="#fecec1"/><path id="XMLID_1974_" d="m390.001 75.001v60h-30v-119.96c18.21 13.69 30 35.479 30 59.96z" fill="#f7ad9e"/><path id="XMLID_1971_" d="m178.481 276.581-44.34 90.9c-4.761-6.491-8.19-14.184-9.81-22.48-3.137-.049-6.739.178-12.39-.44l39.58-81.141z" fill="#fecec1"/><path id="XMLID_1967_" d="m406.55 343.161c-10.922 2.457-18.623 1.701-22.3 1.84-1.16 3.95-2.72 7.81-4.67 11.52l-47.43-78.779 25.699-15.48z" fill="#f7ad9e"/></g></svg>
