<svg id="Capa_1" enable-background="new 0 0 506.211 506.211" viewBox="0 0 506.211 506.211"  xmlns="http://www.w3.org/2000/svg"><g><path d="m350.826 12.382 26.052 46.052 45.333 25.333 40.258-30.257 36.129-46.13c-5.61-.475-68.869-19.255-147.772 5.002z" fill="#ff6b6b"/><path d="m498.598 7.38-76.387 76.387 24.001 44.001 47.385 27.385c24.534-79.8 5.518-141.653 5.001-147.773z" fill="#ff3d7d"/><path d="m104.344 104.98 60.228 60.228 14.122-10.909 4.858-12.207-20.086-40.085-38.074-18.075z" fill="#ff3d7d"/><path d="m250.624 67.753-87.241-21.811-37.991 37.99 58.16 58.16 32.784-16.875z" fill="#ff6b6b"/><path d="m401.329 401.965 21.048-21.047-23.28-33.282-35.107-25.106-15.954 6.496-6.934 12.711z" fill="#c1126b"/><path d="m460.368 342.926-21.81-87.242-56.405 35.35-18.163 31.496 58.387 58.388z" fill="#ff3d7d"/><path d="m131.578 268.666 21.242-21.242-55.838 55.838 53.032 53.034 27.224-13.081 7.374-21.517-15.333-35.332z" fill="#613d5c"/><path d="m188.835 264.441-36.015-17.017-21.242 21.242 53.034 53.032 11.324-3.79 9.916-17.45z" fill="#ff6b6b"/><path d="m150.007 356.302 53.033 53.034 34.601-34.601-18.945-38.946-34.087-14.087z" fill="#4b2746"/><path d="m244.108 319.715-38.256-19.257-21.243 21.244 53.032 53.033 21.244-21.245z" fill="#ff3d7d"/><path d="m350.826 12.382c-53.962 16.594-101.703 48.997-137.058 93.145l-91.993 110.853 83.911 83.912 124.847-104.846 91.679-111.68z" fill="#f2f2fc"/><path d="m205.686 300.292 83.913 83.912 110.853-91.992c44.069-35.289 76.52-82.995 93.146-137.06l-71.386-71.386z" fill="#e2d9fb"/><g><path d="m-4.964 357.921h107.002v29.999h-107.002z" fill="#e2d9fb" transform="matrix(.707 -.707 .707 .707 -249.473 143.54)"/><path d="m79.888 442.773h107.002v30h-107.002z" fill="#c7c1dc" transform="matrix(.707 -.707 .707 .707 -284.626 228.399)"/><path d="m118.188 366.909-96.875 96.876 10.606 10.606 54.651-44.044 42.225-52.832z" fill="#e2d9fb"/><path d="m17.159 423.757h137.003v14.999h-137.003z" fill="#c7c1dc" transform="matrix(.707 -.707 .707 .707 -279.844 186.866)"/></g><path d="m273.72 147.406c-23.448 23.448-23.452 61.401-.001 84.852l55.066-35.066 29.787-49.786c-23.45-23.446-61.4-23.452-84.852 0z" fill="#613d5c"/><path d="m358.572 147.406-84.854 84.852.001.001c23.446 23.446 61.4 23.452 84.853 0 23.394-23.394 23.394-61.459 0-84.853z" fill="#613d5c"/><path d="m294.933 168.62c-11.725 11.725-11.726 30.7-.001 42.426l30.853-10.854 11.573-31.573c-11.727-11.725-30.701-11.725-42.425.001z" fill="#7ed8f6"/><path d="m337.359 168.619-42.427 42.427h.001c11.722 11.724 30.699 11.728 42.427 0v.001c11.696-11.697 11.696-30.729 0-42.427z" fill="#6aa9ff"/></g></svg>
