<svg id="Capa_1" enable-background="new 0 0 510 510"  viewBox="0 0 510 510" xmlns="http://www.w3.org/2000/svg"><g><path d="m413 44.322-4.927-14.322h-77.573v210h-44l-10 16.28 10 13.72h44v210h77.571l2.346-15-2.346-15h-47.571v-180h47.575l3.592-15.72-3.592-14.28h-47.575v-180h47.572z" fill="#e2d9fb"/><g fill="#ff3d7d"><circle cx="450.5" cy="45" r="45"/><circle cx="450.5" cy="255" r="45"/><circle cx="450.5" cy="465" r="45"/></g><path d="m150.5 150-60-30c-41.907 0-76 34.094-76 76v134h31l15-15 15 15 30 15 45-15 10-86.553z" fill="#7ed8f6"/><path d="m210.5 120-60 30v180l30 15 45-15 14.999-15 15.001 15h31v-134c0-41.906-34.093-76-76-76z" fill="#6aa9ff"/><path d="m45.5 204.947h30v125.053h-30z" fill="#6aa9ff"/><path d="m225.5 204.947h30v125.053h-30z" fill="#4987ea"/><path d="m75.5 75c0 41.354 33.645 75 75 75l10-72.803-10-77.197c-41.355 0-75 33.645-75 75z" fill="#fedfd0"/><path d="m150.5 0v150c41.355 0 75-33.646 75-75 0-41.355-33.645-75-75-75z" fill="#fecec1"/><g><path d="m75.5 330v30l45 10 30-10 15-15-15-15z" fill="#ff6b6b"/><path d="m225.5 330h-75v30l30 10 45-10z" fill="#ff3d7d"/><path d="m75.5 510h60l11-88-11-62h-60z" fill="#4b2746"/><path d="m165.5 510h60v-150h-60l-7.826 63.913z" fill="#351b33"/><path d="m135.5 360v150h15l7.5-90-7.5-60z" fill="#613d5c"/><path d="m150.5 360h15v150h-15z" fill="#4b2746"/></g></g></svg>
