<?xml version="1.0" encoding="utf-8"?>
<!-- Generator: Adobe Illustrator 25.0.0, SVG Export Plug-In . SVG Version: 6.00 Build 0)  -->
<svg version="1.1" xmlns="http://www.w3.org/2000/svg" x="0px" y="0px"
     viewBox="0 0 348.6 261.1" style="enable-background:new 0 0 348.6 261.1;" xml:space="preserve">
<style type="text/css">
	.st0{fill:#3B4AEC;}
	.st1{fill:#14181C;}
	.st2{fill-rule:evenodd;clip-rule:evenodd;fill:#EF932E;}
	.st3{fill-rule:evenodd;clip-rule:evenodd;fill:#00A1FF;}
	.st4{fill-rule:evenodd;clip-rule:evenodd;fill:#3B4AEC;}
	.st5{fill-rule:evenodd;clip-rule:evenodd;fill:#263156;}
	.st6{fill-rule:evenodd;clip-rule:evenodd;fill:#00FFB8;}
	.st7{fill:#263156;}
	.st8{fill:#00FFB8;}
	.st9{fill:#F4C37D;}
	.st10{fill:#222930;}
	.st11{fill:#00011B;}
	.st12{fill:#FFF8E5;}
	.st13{fill:#253057;}
	.st14{fill:#FFF7E4;}
	.st15{fill:none;stroke:#0FFFB8;stroke-width:35;stroke-linecap:round;stroke-miterlimit:10;}
	.st16{fill:#F3C377;}
</style>
  <g id="bag">
	<path class="st0" d="M288.5,195.3v-4.4c0-1.9,1.5-3.4,3.4-3.4h6c1.9,0,3.4,1.5,3.4,3.4v4.4c0,1.9-1.5,3.4-3.4,3.4h-6
		C290,198.7,288.5,197.1,288.5,195.3z M291.9,189.2c-0.9,0-1.6,0.7-1.6,1.6c0,0,0,0,0,0v4.4c0,0.9,0.7,1.6,1.6,1.6c0,0,0,0,0,0h6
		c0.9,0,1.6-0.7,1.6-1.6c0,0,0,0,0,0v-4.4c0-0.9-0.7-1.6-1.6-1.6c0,0,0,0,0,0H291.9z"/>
    <path class="st0" d="M264.8,195.5V191c0-1.9,1.5-3.4,3.4-3.4l0,0h6c1.9,0,3.4,1.5,3.4,3.4v4.4c0,1.9-1.5,3.4-3.4,3.4h-6
		C266.3,198.8,264.8,197.3,264.8,195.5z M268.2,189.4c-0.9,0-1.6,0.7-1.6,1.6v4.4c0,0.9,0.7,1.6,1.6,1.6h6c0.9,0,1.6-0.7,1.6-1.6v0
		V191c0-0.9-0.7-1.6-1.6-1.6l0,0L268.2,189.4z"/>
    <ellipse class="st1" cx="263.8" cy="243.9" rx="84.8" ry="15.4"/>
    <path class="st2" d="M252.1,181.8c-0.5,3-0.7,6-0.8,9.1c-0.2,9.2,0.4,22.9,2.3,28.7c3,9.2,13.9,14.3,13.9,14.3l1.2-4.3
		c-17.1-5-11.8-34.3-11.1-48L252.1,181.8z"/>
    <path class="st3" d="M275,138.6c0,0-2.5-0.7-6.7,7.1s-7.1,34.5-7.6,35.8s-3.7,7.7-3.7,7.7s-5.6,0.3-5.6-0.1s-3.2-6.8-3.4-8.9
		s7.3-30.3,7.4-30.8s2.1-7.2,4.7-9.4S274.7,138.6,275,138.6z"/>
    <path class="st0" d="M275,138.6c0,0-2.5-0.7-6.7,7.1s-7.1,34.5-7.6,35.8s-3.7,7.7-3.7,7.7s-5.6,0.3-5.6-0.1s-3.2-6.8-3.4-8.9
		s7.3-30.3,7.4-30.8s2.1-7.2,4.7-9.4S274.7,138.6,275,138.6z"/>
    <path class="st4" d="M276.2,145.4c-7.2-4.2-16.1-11.5-20.9,4.1c0.7-3.8,2.3-7.3,4.8-10.2c2-2.6,5.2-2.9,11.2-2.8s7.3-0.2,9.6,1.6
		s8.2,8.1,7.1,8.6S276.2,145.4,276.2,145.4z"/>
    <path class="st5" d="M222,189c-0.4,3.1-0.5,6.2-0.4,9.3c0.2,9.4,1.4,23.5,3.6,29.3c3.5,9.3,14.9,14.1,14.9,14.1l1-4.4
		c-17.8-4.5-13.5-34.7-13.4-48.8L222,189z"/>
    <path class="st4" d="M243.1,146.2c0,0-2.6-0.6-6.6,7.6s-5.8,35.6-6.3,37s-3.4,8.1-3.4,8.1s-5.7,0.5-5.8,0.1s-3.6-6.8-3.9-9
		s6.2-31.4,6.3-31.9s1.9-7.4,4.4-9.9S242.8,146.2,243.1,146.2z"/>
    <path class="st4" d="M245.3,152.4c-7.5-4.1-17-11.1-21.3,5c0.6-3.9,2.1-7.5,4.4-10.7c2-2.8,5.2-3.1,11.4-3.3s7.4-0.5,9.9,1.2
		s9.2,6.6,8,7.2S245.3,152.4,245.3,152.4z"/>
    <path class="st5" d="M251.8,146.3c-2.6,0.9-6.1,1.7-10.8,14.6s1.3,50.8,1.2,58.4s-3.4,12.2-3.5,18.2s4.7,9.3,8.2,10.3
		s39.2,1.4,44.8-3.4s6.4-11.9,6.4-15.9s2.6-51.3,0.3-63.9C293.6,139.2,272.8,145.4,251.8,146.3z"/>
    <path class="st6" d="M260.1,168.3c-2.9,0.4-6.2-0.3-6.6,13.2c-0.1,5.3-1.6,39.6-0.5,43.1s4.5,6.1,12.8,7c6.4,0.7,30.5-1.7,32.2-3.2
		s6.1-35.8,2-51.6c-1.2-4.6-15.8-9-21.8-8.8S260.1,168.3,260.1,168.3z"/>
    <path class="st4" d="M288.8,230.3c0.6-4.1,2.9-13.2,2.7-34.6c0.4,0,6.9-0.3,6.9-0.3c-0.8,11.2-0.2,23.4-2.9,33.9
		c-1,0.3-2,0.5-3.1,0.6C291.2,230.1,290,230.3,288.8,230.3z"/>
    <path class="st5" d="M289.8,179c1.9,8,1,13.6,2.2,19.9c0.5,2.5,3.5,5.2,3.8,5.1s2.4-5.5,2.5-5.9c0.3-3.3,0-10.4-1.5-19.8L289.8,179
		z"/>
    <path class="st4" d="M264.3,231.5c0.7-4.1,3-13,3.4-34.4c0.4,0,6.9-0.3,6.9-0.3c-1.1,11.2-1,24.4-4,35c-1,0.1-2,0.2-2.9,0.1
		C266.5,231.8,265.4,231.7,264.3,231.5z"/>
    <path class="st5" d="M266.4,180.4c1.6,8,0.6,13.6,1.6,19.9c0.4,2.5,3.4,5.2,3.7,5.1s2.6-5.5,2.6-5.9c0.4-3.3,0.2-10.4-0.9-19.8
		L266.4,180.4z"/>
    <path class="st5" d="M243.2,155.5c0.2,1.4,1.6-4,8-1s3.2,18,7.7,25.6c4.6,7.8,36.2,10.8,41.1-3.1c1.9-5.3-1.2-19.9-4.7-24.5
		s-5.3-5.9-14.5-7.1C271.2,144.1,241.4,140.3,243.2,155.5z"/>
</g>
  <g id="boy">
	<ellipse id="torso-shadow" class="st1" cx="113.8" cy="243.9" rx="94.3" ry="17.2"/>
    <g id="legs">
		<path id="leg-right" class="st7" d="M150.9,249.3L150.9,249.3c-16.3,0-29.5-13.2-29.5-29.5v-33.2c0-16.3,13.2-29.5,29.5-29.5l0,0
			c16.3,0,29.5,13.2,29.5,29.5v33.2C180.4,236.1,167.2,249.3,150.9,249.3z"/>
      <path id="left-left" class="st7" d="M77.1,250.2L77.1,250.2c-16.3,0-29.5-13.2-29.5-29.5v-33.2c0-16.3,13.2-29.5,29.5-29.5l0,0
			c16.3,0,29.5,13.2,29.5,29.5v33.2C106.7,237,93.5,250.2,77.1,250.2z"/>
	</g>
    <g id="without-legs">
		<g id="torso">
			<g id="hand-left">
				<path id="arm-left" class="st8" d="M19.6,197.2c9.5,0,17.2-7.7,17.2-17.2c0-1.8-0.3-3.6-0.8-5.3c-1.9-5.5-2.1-11.4-0.5-17
					c2-7.3,7.2-14.7,15.4-22c7-6.4,7.5-17.3,1.1-24.3c-6.3-6.9-17-7.5-24-1.4c-13.2,11.7-21.8,24.6-25.7,38.3
					c-3.4,12.1-3.1,24.9,0.9,36.8C5.5,192.4,12.1,197.2,19.6,197.2z"/>
        <path id="palm-left" class="st9" d="M7.1,196.1c-3.4-6.9-0.6-15.2,6.3-18.6c0.2-0.1,0.3-0.1,0.5-0.2c7.3-3.3,15.8-0.2,19.3,6.9
					c1.8,3.7,1.9,8,0.3,11.7c2.4-3.1,7.6,0.4,5.5,4c-4.7,8-14.7,9.7-23,5.5C12,203.5,8.8,200.2,7.1,196.1z"/>
			</g>
      <path id="body" class="st8" d="M196.7,114.8c0,0,13.6,29.7,3.9,63.5c-4.9,17.1-14.5,27.9-30.9,33.6
				c-31.2,10.8-69.7,12.8-98.2,3.5C55,210,46.6,199.4,40.6,185.5c-6.7-15.6-10.7-40.2,0.5-75.8L196.7,114.8z"/>
      <g id="buttons">
				<circle id="button-bottom" class="st7" cx="93.7" cy="157" r="1.8"/>
        <circle id="button-top" class="st7" cx="92.9" cy="180.9" r="1.8"/>
			</g>
		</g>
      <g id="face">
			<path id="face-shape" class="st9" d="M196.7,114.8c2.2-6.3,4.8-12.5,7.7-18.5c5.1-10.6,17.8-60.2-47.9-74.6s-119.6-2.2-115.4,88
				C41.1,109.7,93.8,159.7,196.7,114.8z"/>
        <path class="st0" d="M168.8,93.8l-0.2-27.1C108.6,81.3,64.8,43.5,64.8,43.5s-4.2,0.5-12.1,8.6c-1.6,1.7-3.5,3.7-5.3,5.7
				c1-3.6,2.1-5.6,4.4-9.8c17.1-30.8,55.5-45.2,102.4-35c65.8,14.4,59.2,71.3,54.1,81.9c-3.2,6.5-9.2,13.4-10.4,16.6l0,0L168.8,93.8
				z"/>
        <g id="haircreast">
				<path class="st0" d="M49.7,1.6c0,0-15.9,49.2,65.8,59.8h0.7c16.7-0.9,18-25.8,1.6-29C95.2,28,68,19.3,49.7,1.6z"/>
          <path class="st0" d="M73.2,0c0,0-15.1,46.6,42.3,53.7c19.7-0.7,41.4-24,41.4-24S103.5,29.2,73.2,0z"/>
			</g>
        <ellipse id="ear" class="st9" cx="176.5" cy="94.7" rx="9.8" ry="10.1"/>
        <g id="eyes">
				<ellipse class="st10" cx="64.8" cy="71.8" rx="2.7" ry="2.8"/>
          <ellipse class="st10" cx="121.9" cy="87.1" rx="2.7" ry="2.8"/>
			</g>
        <path id="nose" class="st11" d="M85.3,93c-0.3,0.1-0.5,0.1-0.8,0.2l-0.4,0.1H84l-0.2,0.1c-0.1,0.1-0.2,0.1-0.3,0.2l-0.1,0.1
				l-0.1,0.1l-0.1,0.1l0,0L83.1,94L83,94.2l0,0v0.1c0,0.1,0,0.1,0,0.2c0,0.1,0,0.1,0,0v0.3c0-0.1,0-0.1,0,0c0,0.1,0,0.2,0,0.3
				c0,0.1,0,0.1,0,0l0,0l0.1,0.1c0,0,0.1,0.2,0,0l0.1,0.1l0,0c0,0-0.1,0,0,0l0.1,0.1c-0.1-0.1,0,0,0,0h0.1c-0.1,0-0.1,0,0,0
				s-0.1,0,0,0h0.1c0.3-0.1,0.5,0.1,0.6,0.3c0,0,0,0,0,0c0.1,0.3-0.1,0.6-0.4,0.6c-1,0.4-1.8-0.5-2-1.4c-0.1-0.5,0-1,0.2-1.4
				c0.3-0.4,0.7-0.8,1.2-1c0.6-0.2,1.2-0.4,1.8-0.5c0.3-0.1,0.6,0.1,0.6,0.4C85.7,92.6,85.5,92.9,85.3,93L85.3,93z"/>
        <path id="mask" class="st12" d="M42.8,75.4l0.1-0.8c0,0,10,13.5,38.2,20.1c43.1,10.1,87.5-6,87.5-6l0,0c-0.2,1.4,0.1,2.5-9.2,6.8
				c-1.9,0.9-2.9,3-2.4,5c0.8,2.6,2.1,5.1,3.7,7.4c1.4,2.1,3.6,2,5.9,1.2c10.1-3.6,9.4-3.1,16.8-6.9c0.4-0.2,0.8,0,0.9,0.4
				c0,0.1,0.1,0.2,0.1,0.3l0,0c0,0.3-0.1,0.5-0.3,0.6c-12.5,8.2-26.1,16.5-37.6,19.7c-41.8,11.8-77.1-2.3-89.2-7.6
				c-6.1-2.9-11.7-6.8-16.5-11.6C40.2,94.5,40.8,84.8,42.8,75.4z"/>
        <g id="brows">
				<path id="right-brow" class="st10" d="M129,77c-3.4-1.1-7-1.9-10.5-2.5c-2.6-0.4-1.5-4.4,1.1-4c3.6,0.6,7.1,1.4,10.5,2.5
					C132.6,73.8,131.6,77.8,129,77z"/>
          <path id="left-brow" class="st10" d="M72,62.8c-2.6-1.5-5.5-2.4-8.5-2.7c-2.6-0.2-2.7-4.3,0-4.1c3.7,0.3,7.4,1.4,10.6,3.2
					C76.4,60.5,74.3,64.1,72,62.8z"/>
			</g>
		</g>
      <g id="scarf">
			<path class="st7" d="M179.9,114.7c-4.4,3.7-27.2,22.2-85.3,17.5c0,0.5,0.1,1.2,0.1,1.2c0.1,0.5,0.2,1.1,0.4,1.6
				c0.1,0.2,0.1,0.4,0.2,0.6c4.4,1.8,23.2,8.2,56-0.2c28.1-7.2,38.2-17.6,38.2-17.6l6-7.5C195.4,110.2,184.3,111,179.9,114.7z"/>
        <path class="st7" d="M103.7,136.6c-4-2.9-6.8-4.5-6.8-4.5s-41.7-9.8-55.8-23c-1.5,5-2.2,8.2-2.2,8.2c6.5,4.7,13.5,8.6,20.9,11.7
				c9.1,3.8,24.9,7.5,34.3,8C97.3,136.2,100.5,136.1,103.7,136.6z"/>
        <g id="scarf-ends">
				<path class="st13" d="M114.2,146c-4.8-4.4-10.1-8.4-15.7-11.8c-0.2,0.2-0.3,0.5-0.5,0.8c-1.6,2.8-2.1,6.2-1.3,9.4
					c2.4,10.2,9.8,23.8,28.1,22.3C124.9,166.7,122.3,153.5,114.2,146z"/>
          <path class="st14" d="M103.9,158.7c2.5-3.5,7.3-8.9,13-9.8c1.3,1.7,2.4,3.4,3.4,5.3c-3.8,1.2-9.7,3.5-13.4,7.2
					C105.9,160.6,104.8,159.7,103.9,158.7z"/>
          <path class="st14" d="M110.7,143.1c1,0.8,2,1.6,2.9,2.4c-3.3,2-9.6,6.1-12.5,9.9c-0.5-0.7-1-1.4-1.5-2.1
					C102.4,150.6,107.2,146.1,110.7,143.1z"/>
          <path class="st13" d="M97.7,134c-40.7,7.6-38.7,28.5-38.7,28.5s18.8,2.3,30.2-9.9S97.7,134,97.7,134z"/>
          <path class="st14" d="M66.8,147c3.2-2.7,6.7-4.9,10.4-6.6c3.7,2.7,9.5,7.6,11.4,12.8c-2.7,2.7-5.9,4.8-9.4,6.3
					C77.6,156,73.6,149,66.8,147z"/>
			</g>
		</g>
      <g id="hand-right_1_">
			<path id="arm-right" class="st15" d="M169.2,179.5c0,0,38.7-1.3,23.8-38.9">
        <animate accumulate="none" additive="replace" attributeName="d" begin="2s; myanim2.end+25" calcMode="spline" dur="0.7s"
                 fill="freeze" from="M 169.2, 179.46 s 38.65-1.29, 23.84-38.92" id="myanim" keySplines="0.42, 0.0, 0.58, 1.0"
                 keyTimes="0;1" restart="always" to="M 191.51, 47.75 s 40.69, 39.86, 9, 83.5">
					</animate>

        <animate accumulate="none" additive="replace" attributeName="d" begin="myanim.end+1.3" calcMode="spline"
                 dur="0.7s" fill="freeze" from="M 191.51, 47.75 s 40.69, 39.86, 9, 83.5" id="myanim2"
                 keySplines="0.42, 0.0, 0.58, 1.0" keyTimes="0;1" restart="always"
                 to="M 169.2, 179.46 s 38.65-1.29, 23.84-38.92">
					</animate>
			</path>
        <path id="palm-right" class="st16" d="M144,168.2c4.6-2.1,9.5-3.4,14.4-3.9c3.2-0.7,6.6-0.4,9.7,0.9c8.7,3.4,13,13.2,9.6,21.9
				c-3.4,8.7-13.2,13-21.9,9.6c-8.6-3.4-12.9-13-9.7-21.6c-0.9-0.9-1.8-1.7-2.8-2.6c-1.1-0.9-1.2-2.5-0.2-3.6
				C143.4,168.6,143.7,168.4,144,168.2z">
<animateTransform attributeName="transform"
                  begin="2s; myanim2.end+25"
                  attributeType="XML"
                  type="translate"
                  calcMode="spline"
                  from="0 0"
                  to="20 -140"
                  keySplines="0.42, 0.0, 0.58, 1.0" keyTimes="0;1"
                  fill="freeze"
                  dur="0.7s"
                  />
          <animateTransform attributeName="transform"
                            begin="myanim.end+1.3"
                            attributeType="XML"
                            type="translate"
                            calcMode="spline"
                            from="20 -140"
                            keySplines="0.42, 0.0, 0.58, 1.0" keyTimes="0;1"
                            to="0 0"
                            fill="freeze"
                            dur="0.7s"
          />
        </path>
		</g>
	</g>
</g>
</svg>
