<svg xmlns="http://www.w3.org/2000/svg" xmlns:xlink="http://www.w3.org/1999/xlink" viewBox="0 0 2095.74 1253.23">
  <defs>
    <style>
      .a {
        fill: none;
      }

      .b {
        clip-path: url(#a);
      }

      .c {
        fill: #fff;
      }

      .d {
        fill: #c98000;
      }

      .e {
        fill: #9a5f30;
      }

      .f {
        opacity: 0.2;
      }

      .g {
        fill: #442302;
      }

      .h {
        opacity: 0.5;
      }

      .i {
        fill: #366065;
      }

      .j {
        opacity: 0.1;
      }
    </style>
    <clipPath id="a" transform="translate(407.95 290.14)">
      <rect class="a" width="1495.25" height="499.41"/>
    </clipPath>
  </defs>
  <g class="b">
    <path class="c" d="M404.27-150.3h.33c2.79,0,5.63.1,8.44.29l-.11,1.74c-2.78-.19-5.58-.28-8.33-.28h-.33Zm-8.78.35.13,1.73-2,.17h-6.82v-1.74h6.74C394.17-149.85,394.83-149.91,395.49-149.95Zm-684.74.11h4.44v1.74h-2.42l.62,4.24-1.72.26Zm13.16,0h8.72v1.74h-8.72Zm17.44,0h8.73v1.75h-8.73Zm17.45,0h8.72v1.75h-8.72Zm17.45,0H-215v1.75h-8.72Zm17.44,0h8.72v1.75h-8.72Zm17.45,0h8.72v1.74h-8.72Zm17.44,0h8.73v1.74h-8.73Zm17.45,0h8.72v1.74H-154Zm17.44,0h8.73v1.75h-8.73Zm17.45,0h8.72v1.75h-8.72Zm17.44,0h8.73v1.75h-8.73Zm17.45,0h8.72v1.75h-8.72Zm17.45,0H-58v1.74h-8.72Zm17.44,0h8.72v1.74H-49.3Zm17.45,0h8.72v1.74h-8.72Zm17.44,0h8.73v1.74h-8.73Zm17.45,0h8.72v1.74H3Zm17.44,0h8.73v1.75H20.48Zm17.45,0h8.72v1.75H37.93Zm17.45,0H64.1v1.75H55.38Zm17.44,0h8.72v1.75H72.82Zm17.45,0H99v1.74H90.27Zm17.44,0h8.72v1.74h-8.72Zm17.45,0h8.72v1.74h-8.72Zm17.44,0h8.72v1.75H142.6Zm17.45,0h8.72v1.75h-8.72Zm17.44,0h8.73v1.75h-8.73Zm17.45,0h8.72v1.75h-8.72Zm17.44,0h8.73v1.74h-8.73Zm17.45,0h8.72v1.74h-8.72Zm17.45,0H256v1.74h-8.72Zm17.44,0h8.72v1.74h-8.72Zm17.45,0h8.72v1.74h-8.72Zm17.44,0h8.73V-148h-8.73Zm17.45,0h8.72V-148h-8.72Zm17.44,0h8.73V-148H334.5Zm17.45,0h8.72V-148H352Zm17.45,0h8.72V-148H369.4Zm52.38.68c2.88.4,5.79.91,8.65,1.5l-.36,1.71c-2.82-.59-5.69-1.08-8.53-1.48ZM439-145.54c2.81.77,5.63,1.65,8.38,2.61l-.57,1.65c-2.72-.95-5.5-1.82-8.28-2.58Zm16.58,5.75c2.68,1.12,5.37,2.34,8,3.63l-.77,1.57c-2.58-1.27-5.24-2.48-7.89-3.59Zm-740.88,4.56,1.27,8.64-1.72.25-1.27-8.63ZM471.28-132c2.53,1.45,5.05,3,7.48,4.57l-.95,1.46c-2.41-1.57-4.89-3.09-7.4-4.51ZM486-122.46c2.34,1.75,4.66,3.57,6.89,5.44l-1.13,1.34c-2.2-1.85-4.49-3.65-6.81-5.37ZM-282.8-118l1.27,8.63-1.72.25-1.27-8.63Zm782.21,6.77c2.13,2,4.21,4.11,6.19,6.22l-1.28,1.19c-1.95-2.08-4-4.15-6.11-6.14ZM-280.26-100.7l1.27,8.63-1.73.25-1.27-8.63Zm791.65,2.32c1.87,2.26,3.68,4.59,5.38,6.93l-1.41,1c-1.68-2.32-3.47-4.62-5.31-6.85Zm10.3,14.2c1.56,2.47,3.06,5,4.44,7.57l-1.53.83c-1.37-2.52-2.84-5-4.38-7.47Zm-799.41.73,1.27,8.63-1.73.26-1.27-8.63ZM530.05-68.76c1.22,2.66,2.35,5.39,3.38,8.11L531.8-60c-1-2.69-2.13-5.38-3.33-8Zm-805.23,2.57,1.27,8.63-1.73.26-1.27-8.63ZM536.23-52.32c.7,2.39,1.34,4.82,1.89,7.22.1.43.2.86.29,1.29l-1.71.37c-.09-.42-.18-.85-.28-1.27-.55-2.37-1.17-4.76-1.87-7.12Zm-808.88,3.4,1.27,8.63-1.72.25-1.27-8.63ZM540-35.16c.41,2.88.73,5.82.93,8.73l-1.74.13c-.2-2.88-.51-5.77-.91-8.62Zm-810.07,3.5,1.27,8.62-1.72.26-1.27-8.63Zm809.57,14h1.75v.16c0,2.85-.1,5.74-.29,8.61L539.18-9c.19-2.83.28-5.69.28-8.5Zm-807,3.24,1.27,8.63-1.72.26-1.27-8.63Zm805.89,14,1.73.23c-.38,2.87-.86,5.79-1.43,8.66l-1.71-.34C537.47,5.34,538,2.47,538.32-.37ZM-265,2.85l1.27,8.63-1.73.26-1.27-8.63ZM535,16.62l1.69.45c-.74,2.79-1.58,5.62-2.5,8.41l-1.66-.55C533.4,22.17,534.23,19.38,535,16.62Zm-797.44,3.49,1.27,8.64-1.73.25-1.27-8.63Zm792,13,1.62.64c-1.08,2.7-2.25,5.41-3.5,8.05L526.05,41C527.28,38.41,528.45,35.74,529.51,33.08Zm-789.46,4.3,1.27,8.62-1.73.26-1.27-8.63ZM522.13,48.76l1.53.83c-1.4,2.56-2.89,5.1-4.44,7.57l-1.48-.92C519.27,53.8,520.75,51.28,522.13,48.76Zm-779.55,5.87,1.27,8.63-1.72.26-1.27-8.63Zm770.35,8.81,1.42,1c-1.69,2.37-3.48,4.72-5.31,7l-1.36-1.09C509.49,68.11,511.26,65.79,512.93,63.44Zm-767.81,8.45,1.27,8.63-1.72.26-1.27-8.63Zm756.9,5,1.29,1.18c-2,2.15-4,4.26-6.13,6.28L496,83.12C498.05,81.12,500.09,79,502,76.91Zm-12.48,12,1.13,1.33c-2.23,1.88-4.55,3.72-6.89,5.44l-1-1.4C485.06,92.59,487.34,90.78,489.54,88.92Zm-741.88.23,1.27,8.63-1.73.26-1.26-8.63Zm728,10,.94,1.47c-2.47,1.57-5,3.07-7.57,4.46l-.83-1.53C470.67,102.23,473.18,100.75,475.61,99.2Zm-725.41,7.21,1.27,8.63-1.73.26-1.27-8.63Zm710.2,1,.72,1.59c-2.47,1.12-5,2.17-7.5,3.11l-.63.23-.6-1.63.61-.23C455.47,109.6,458,108.57,460.4,107.46Zm-16.23,6.05.51,1.67c-2.74.82-5.59,1.59-8.47,2.28l-.41-1.69C438.65,115.08,441.47,114.32,444.17,113.51Zm-16.86,4.06.33,1.72c-2.81.52-5.72,1-8.65,1.4l-.24-1.72C421.65,118.56,424.53,118.09,427.31,117.57ZM410.12,120l.17,1.73c-2.82.28-5.76.52-8.72.71l-.12-1.74C404.4,120.51,407.31,120.27,410.12,120Zm-88,.34h1v1.75h-.95c-2.59,0-5.17,0-7.76.06l0-1.74C316.89,120.36,319.48,120.34,322.08,120.34Zm9.69.08q4.37.08,8.73.19l-.05,1.74q-4.35-.1-8.71-.18Zm-26.22.24.08,1.74c-3,.13-5.92.29-8.69.49l-.12-1.74C299.61,121,302.54,120.79,305.55,120.66Zm43.67.18,8.71.25,0,1.74c-2.91-.07-5.82-.16-8.72-.24Zm43.55.3.06,1.74q-4.36.16-8.74.22l0-1.75Q388.42,121.29,392.77,121.14Zm-26.12.14q4.35.07,8.71.11v1.74c-2.91,0-5.82,0-8.73-.1Zm-78.55.64.19,1.73c-2.94.31-5.84.68-8.62,1.09l-.26-1.72C282.22,122.6,285.14,122.23,288.1,121.92Zm-535.36,1.75,1.27,8.63-1.73.26-1.27-8.63Zm518,.83.33,1.71c-2.88.56-5.72,1.2-8.47,1.89l-.42-1.69C265,125.71,267.87,125.07,270.78,124.5Zm-17,4.28.52,1.67c-2.77.86-5.52,1.82-8.19,2.84l-.62-1.63C248.19,130.63,251,129.66,253.78,128.78Zm-16.37,6.35.75,1.58c-2.6,1.24-5.18,2.6-7.66,4l-.87-1.51C232.15,137.77,234.77,136.4,237.41,135.13Zm-482.13,5.8,1.27,8.63-1.73.26-1.27-8.63Zm466.91,3,1,1.43c-2.38,1.64-4.71,3.39-6.93,5.19l-1.1-1.35C217.4,147.36,219.77,145.59,222.19,143.93ZM208.57,155l1.21,1.26c-2.09,2-4.1,4.11-6,6.25l-1.32-1.14C204.4,159.21,206.44,157.06,208.57,155Zm-450.76,3.17,1.27,8.63-1.72.26-1.27-8.63ZM197,168.28l1.42,1a85.5,85.5,0,0,0-4.67,7.25l-1.51-.87A84.11,84.11,0,0,1,197,168.28Zm-436.69,7.17,1.27,8.63-1.72.26-1.27-8.63Zm428,8.11,1.6.69a71.44,71.44,0,0,0-2.94,8.09l-1.68-.5A74.18,74.18,0,0,1,188.33,183.56Zm-425.44,9.15,1.27,8.63-1.73.26-1.27-8.63Zm420.46,7.74,1.72.27a65.2,65.2,0,0,0-.81,8.57l-1.75,0A66.69,66.69,0,0,1,183.35,200.45ZM-234.57,210l1.27,8.63-1.73.26-1.27-8.63Zm419.08,7.95c.18,2.48.43,5,.68,7.44l.12,1.22-1.74.18-.12-1.23c-.25-2.49-.5-5-.68-7.48ZM-232,227.23l1.27,8.63-1.73.26-1.27-8.63ZM186,235.32c.08,1.57.12,3,.12,4.36,0,1.59-.06,3-.16,4.46l-1.74-.13c.1-1.37.15-2.79.15-4.33,0-1.33,0-2.73-.11-4.27Zm-415.51,9.17,1.27,8.63-1.73.26-1.27-8.63Zm412.26,7.92,1.68.49c-.23.77-.48,1.54-.76,2.31a36.24,36.24,0,0,1-2.79,5.86l-1.5-.89a33.52,33.52,0,0,0,2.65-5.57C182.32,253.88,182.56,253.14,182.77,252.41ZM-227,261.75l1.27,8.63-1.72.26-1.27-8.63Zm401.15,5.11,1.23,1.24a42.91,42.91,0,0,1-6.92,5.57l-.95-1.46A40.88,40.88,0,0,0,174.19,266.86ZM160,276.26l.71,1.6a71.43,71.43,0,0,1-8.28,3.05l-.51-1.66A71.7,71.7,0,0,0,160,276.26ZM-224.42,279l1.27,8.63-1.73.26-1.26-8.63Zm368,2.37.36,1.71c-2.73.57-5.65,1.07-8.67,1.49l-.24-1.72C138,282.44,140.86,282,143.55,281.38Zm-17.18,2.43.15,1.74c-2.59.22-5.34.39-8.16.52l-.58,0-.08-1.74.59,0C121.08,284.2,123.81,284,126.37,283.81ZM109,284.89l.13,1.74c-3.09.24-5.92.52-8.64.85l-.22-1.73C103,285.41,105.84,285.13,109,284.89Zm-17.4,2.19.32,1.71c-3,.56-5.8,1.21-8.43,1.94L83,289.05C85.66,288.31,88.54,287.65,91.56,287.08Zm-16.93,4.8.66,1.62a54.31,54.31,0,0,0-7.67,3.83l-.91-1.49A56.8,56.8,0,0,1,74.63,291.88Zm-296.51,4.39,1.27,8.63-1.73.26-1.27-8.63Zm281.49,4.9,1.19,1.27a36.14,36.14,0,0,0-5.49,6.47l-1.46-1A37.76,37.76,0,0,1,59.61,301.17Zm-278.95,12.36,1.27,8.63-1.73.26-1.27-8.63Zm269.22,2.39,1.65.59a35.83,35.83,0,0,0-1.9,8.28l-1.73-.19A37.71,37.71,0,0,1,49.88,315.92ZM-216.8,330.79l1.27,8.63-1.73.26-1.27-8.63Zm266.45,2.52a57,57,0,0,0,1.56,8.44l-1.69.44a58.1,58.1,0,0,1-1.6-8.7Zm-263.91,14.74,1.26,8.63-1.72.26-1.27-8.63ZM53.83,350c.9,2.45,2,5.08,3.26,8l-1.6.7c-1.31-3-2.38-5.66-3.3-8.13Zm-265.56,15.34,1.27,8.63-1.72.26-1.27-8.63Zm272.41.63L62,368.7c.8,1.72,1.61,3.44,2.4,5.16l-1.59.73q-1.19-2.58-2.39-5.15l-1.28-2.77Zm7.23,15.92c1.24,2.95,2.28,5.62,3.17,8.18l-1.64.58c-.89-2.53-1.91-5.17-3.14-8.08Zm-277.1.71,1.27,8.63-1.73.26-1.27-8.63Zm282.81,15.9a65.58,65.58,0,0,1,1.55,8.69l-1.73.19a63.82,63.82,0,0,0-1.52-8.46Zm-280.27,1.36,1.27,8.63-1.73.26-1.27-8.63ZM73.68,415.92l1.74.09a56.92,56.92,0,0,1-1.14,8.77l-1.71-.36A55.89,55.89,0,0,0,73.68,415.92Zm-277.79,1.17,1.27,8.63-1.73.26-1.27-8.63ZM70.18,432.65l1.64.61a69.76,69.76,0,0,1-3.61,8.05l-1.55-.81A65.46,65.46,0,0,0,70.18,432.65Zm-271.75,1.7,1.27,8.63-1.73.26-1.27-8.63ZM62.22,447.88l1.44,1c-1.58,2.34-3.36,4.71-5.27,7.05L57,454.8C58.92,452.51,60.66,450.18,62.22,447.88ZM-199,451.61l1.26,8.63-1.72.26-1.27-8.63Zm250.32,9.66,1.26,1.2c-2,2-4.07,4.11-6.28,6.14l-1.18-1.28C47.27,465.32,49.36,463.28,51.29,461.27Zm-247.79,7.6,1.27,8.63-1.72.26-1.27-8.63ZM38.55,473l1.11,1.34c-2.16,1.79-4.48,3.62-6.88,5.44l-1.05-1.4C34.11,476.61,36.41,474.8,38.55,473ZM24.69,483.52l1,1.43c-2.3,1.61-4.74,3.26-7.25,4.9l-1-1.46C20,486.76,22.41,485.12,24.69,483.52ZM-194,486.13l1.27,8.63-1.73.26-1.27-8.63Zm204.1,6.93.92,1.49-1.49.91c-2,1.2-3.94,2.43-5.93,3.67l-.93-1.47q3-1.87,6-3.69Zm-14.79,9.31,1,1.46c-2.51,1.65-4.94,3.28-7.22,4.86l-1-1.44C-9.62,505.67-7.18,504-4.65,502.37Zm-186.77,1,1.27,8.63-1.73.26-1.27-8.63Zm172.39,9,1.05,1.4c-2.39,1.77-4.7,3.57-6.86,5.33l-1.1-1.35C-23.76,516-21.43,514.15-19,512.36Zm-169.85,8.29,1.27,8.63-1.73.26-1.27-8.63Zm156.28,2.79,1.17,1.29c-2.21,2-4.31,4-6.24,6l-1.25-1.22C-37,527.51-34.83,525.46-32.6,523.44Zm-12.2,12.63,1.34,1.11c-1.88,2.27-3.63,4.59-5.19,6.9l-1.44-1C-48.5,540.75-46.72,538.38-44.8,536.07Zm-141.54,1.84,1.27,8.63-1.73.26-1.27-8.63Zm131.71,12.74,1.55.81a65.2,65.2,0,0,0-3.49,7.85l-1.64-.59A68.1,68.1,0,0,1-54.63,550.65Zm-129.17,4.52,1.26,8.63-1.72.25-1.27-8.62Zm123.16,12,1.71.35a56.52,56.52,0,0,0-1.12,8.5L-61.8,576A59.85,59.85,0,0,1-60.64,567.21Zm-120.63,5.22,1.27,8.63-1.72.26-1.27-8.64Zm121.38,12.21a56.94,56.94,0,0,0,1.48,8.44l-1.69.43a57.62,57.62,0,0,1-1.52-8.7Zm-118.84,5.05,1.27,8.63-1.73.25-1.27-8.62Zm123,11.54A67.23,67.23,0,0,0-51.9,609l-1.52.87a69.21,69.21,0,0,1-3.9-7.93ZM-176.19,607l1.27,8.63-1.73.25-1.27-8.63Zm129,9.22c1.65,2.26,3.49,4.51,5.45,6.7L-43,624c-2-2.23-3.87-4.52-5.56-6.82Zm-126.46,8,1.27,8.63-1.73.25-1.27-8.62Zm138,4.83c2.07,1.93,4.27,3.84,6.55,5.67l-1.09,1.36c-2.31-1.85-4.55-3.79-6.65-5.76Zm13.5,10.85c2.34,1.63,4.79,3.21,7.28,4.71l-.9,1.5c-2.53-1.52-5-3.13-7.38-4.77Zm-148.92,1.58,1.26,8.63-1.72.25-1.27-8.63Zm163.75,7.38c2.54,1.33,5.16,2.61,7.8,3.79l-.72,1.59c-2.66-1.2-5.32-2.49-7.89-3.83Zm15.79,7.2c2.54,1,5.19,2.07,8.1,3.17l-.61,1.63c-2.93-1.1-5.59-2.15-8.15-3.18Zm-177,2.68,1.27,8.63-1.72.25L-170.3,659Zm193.29,3.49c2.74,1,5.48,1.95,8.22,2.92l-.58,1.64c-2.74-1-5.49-1.93-8.23-2.92ZM41.16,668q4.11,1.47,8.21,3l-.61,1.64q-4.08-1.51-8.19-3Zm16.37,6.1c2.88,1.15,5.52,2.24,8.08,3.36l-.7,1.6c-2.54-1.11-5.16-2.2-8-3.33ZM-166,676l1.27,8.63-1.73.25-1.26-8.63Zm239.6,5.17c2.7,1.32,5.32,2.68,7.78,4.05l-.85,1.53c-2.43-1.36-5-2.71-7.69-4Zm15.31,8.56c2.08,1.33,4.1,2.72,6,4.13l1.19.88-1,1.39-1.17-.86c-1.9-1.39-3.9-2.76-5.94-4.08Zm-252.37,3.53,1.27,8.63-1.73.25-1.27-8.63Zm266.37,7.07c2.16,1.93,4.28,4,6.3,6.13l-1.27,1.2c-2-2.1-4.07-4.13-6.19-6ZM-161,710.51l1.27,8.63-1.73.25-1.27-8.63ZM115,713.07c1.81,2.25,3.57,4.63,5.24,7.06l-1.44,1c-1.64-2.39-3.38-4.73-5.16-6.94Zm9.92,14.49c1.46,2.52,2.84,5.13,4.12,7.76l-1.57.77c-1.26-2.6-2.62-5.17-4.06-7.65Zm-283.29.21,1.27,8.63-1.73.25-1.27-8.63Zm291,15.59c1.07,2.7,2.07,5.48,3,8.27l-1.67.53c-.87-2.75-1.85-5.49-2.91-8.15ZM-155.89,745l1.27,8.63-1.72.25-1.27-8.63Zm293.74,15.06c.68,2.83,1.28,5.73,1.76,8.61l-1.72.29c-.47-2.84-1.06-5.7-1.73-8.49Zm-291.2,2.2,1.27,8.63-1.72.25-1.27-8.63ZM140.76,777.4c.28,2.92.46,5.87.53,8.77l-1.75,0c-.06-2.86-.24-5.76-.51-8.64Zm-291.57,2.15,1.27,8.63-1.73.25-1.26-8.63Zm290.24,15.32,1.74.08c-.15,2.93-.41,5.88-.77,8.76l-1.73-.22C139,800.65,139.28,797.75,139.43,794.87Zm-287.7,1.94,1.27,8.63-1.73.25-1.27-8.63ZM137.25,812l1.7.36c-.59,2.88-1.3,5.75-2.12,8.53l-1.67-.49C136,817.68,136.66,814.86,137.25,812Zm-283,2.05,1.27,8.63-1.73.25-1.27-8.63Zm278.12,14.54,1.63.63c-1.05,2.73-2.23,5.44-3.51,8.06l-.14.3L122.1,841l-.67-1.61,7.66-3.19C130.29,833.76,131.4,831.19,132.39,828.61Zm-275.58,2.72,1.27,8.63-1.73.25-1.27-8.63Zm256.57,11.46.67,1.61-8,3.35-.67-1.61Zm-254,5.8,1.27,8.63-1.72.25-1.27-8.63Zm237.94.9L98,851.1l-8.06,3.35-.67-1.61ZM81.17,856.2l.67,1.61-8,3.35-.67-1.61Zm-16.1,6.7.67,1.61-8.06,3.36L57,866.26Zm-203.19,3,1.27,8.63-1.72.25-1.27-8.63ZM49,869.61l.67,1.61-8.05,3.35L40.91,873Zm-16.1,6.71.67,1.61-8.06,3.35-.67-1.61ZM16.75,883l.67,1.61L9.37,888l-.67-1.61Zm-152.33.09,1.27,8.63L-136,892l-1.26-8.63ZM.65,889.73l.67,1.61-8.06,3.35-.67-1.61Zm-16.11,6.7.67,1.61-8,3.36-.67-1.61ZM-133,900.37l1.27,8.63-1.73.25-1.27-8.63Zm101.47,2.77.67,1.61-8.05,3.35-.67-1.61Zm-16.1,6.71.67,1.61-8,3.35-.67-1.61Zm-16.1,6.7.67,1.61-8.06,3.36-.67-1.61Zm-66.73,1.08,1.27,8.63-1.73.25-1.27-8.63Zm50.62,5.63.67,1.61-8.05,3.35-.67-1.61ZM-96,930l.67,1.61-8.05,3.36-.67-1.61Zm-32,4.93,1.27,8.63-1.73.25-1.27-8.63Zm15.87,1.78.67,1.61-8,3.35-.67-1.61Z" transform="translate(407.95 290.14)"/>
    <g>
      <path class="a" d="M1315.79,269.63l-15.36,5.55c4.26,12.29,6.32,24.08,1.64,35.33-8.28,19.89-31.85,22-53.83,21.43-29.45-.76-46.33,6.85-51.62,23.28-2.65,8.22-1.69,17.55-.77,26.57.47,4.53,1,9.22,1,13.75.21,34-24.63,58.29-49.35,67.27l-.14.05c-27.08,9.78-57.51,6.46-84.37,3.54-28.35-3.09-57.65-6.29-84.27,2.93-48.91,16.92-78.44,78.2-65.83,136.57s65.33,104.69,117.57,103.33l630.89-274.67-222.5-687-206.89,81.28C1214-129.6,1227.7-70.77,1262.5-39.94c14.8,13.11,32.39,21.36,49.4,29.33,9.1,4.27,18.52,8.68,27.44,13.8,24.66,14.16,51,40.68,51,72.64,0,33-26.93,54.18-56,72.1-23.72,14.62-54.89,38.21-51.69,74.07a65.3,65.3,0,0,0,1.4,8.66l15.62-5.65Z" transform="translate(407.95 290.14)"/>
      <path class="d" d="M1231.49-171.83l-.15.06-.06.15c-8.85,20.39-10.54,45.33-4.76,70.21s18.36,46.92,35.45,62.06c14.89,13.19,32.53,21.46,49.59,29.46,9.09,4.26,18.49,8.67,27.38,13.77,24.48,14.05,50.63,40.33,50.62,72,0,34.28-28.72,54.84-55.64,71.43-23.9,14.73-55.29,38.51-52.06,74.81a66.44,66.44,0,0,0,1.44,8.86l.75-.27a65.3,65.3,0,0,1-1.4-8.66c-3.2-35.86,28-59.45,51.69-74.07,29.08-17.92,56-39.07,56-72.1,0-32-26.35-58.48-51-72.64-8.92-5.12-18.34-9.53-27.44-13.8-17-8-34.6-16.22-49.4-29.33-34.8-30.83-48.49-89.66-30.56-131.22l206.89-81.28,222.5,687L1030.44,709.23c-52.24,1.36-105-45-117.57-103.33s16.92-119.65,65.83-136.57c26.62-9.22,55.92-6,84.27-2.93,26.86,2.92,57.29,6.24,84.37-3.54l.14-.05c24.72-9,49.56-33.26,49.35-67.27,0-4.53-.51-9.22-1-13.75-.92-9-1.88-18.35.77-26.57,5.29-16.43,22.17-24,51.62-23.28,22,.56,45.55-1.54,53.83-21.43,4.68-11.25,2.62-23-1.64-35.33l-.74.27c4.2,12.14,6.23,23.75,1.65,34.76-8.09,19.45-31.37,21.49-53.08,20.94-29.84-.77-47,7-52.39,23.83-2.7,8.38-1.74,17.79-.8,26.89.46,4.51.94,9.18,1,13.67.21,33.63-24.37,57.64-48.83,66.52l-.14.05c-26.9,9.72-57.24,6.42-84,3.5-28.43-3.1-57.82-6.3-84.61,3l-1.05.37c-23.22,8.39-42.8,27.13-55.22,52.86a131.19,131.19,0,0,0-10.08,84.25c6.09,28.22,21.84,54.63,44.33,74.38s48.82,30.26,74.12,29.58h.08L1662,435.14l.33-.14L1439.45-253.08l-.13-.4Z" transform="translate(407.95 290.14)"/>
    </g>
    <path class="c" d="M523.68-70.29l.05,1.74c-2.88.08-5.78.28-8.64.59l-.18-1.74C517.81-70,520.76-70.21,523.68-70.29Zm8.78.08c2.9.14,5.84.39,8.75.74L541-67.74c-2.87-.35-5.77-.59-8.62-.73Zm-26.18,1.39.1,1.75-8.71.52-.1-1.74Zm43.61.73c2.86.56,5.74,1.22,8.56,2L558-64.42c-2.78-.75-5.62-1.41-8.44-2Zm-61,.33L489-66l-8.71.52-.1-1.74Zm-17.41,1.05.1,1.74-8.7.52-.11-1.74Zm-17.41,1,.1,1.74-8.71.53-.1-1.75Zm-17.42,1,.11,1.74-8.71.53-.11-1.74Zm-17.41,1,.1,1.74-8.7.53L410.5-63Zm147.63,0c2.75.94,5.51,2,8.21,3.13l-.68,1.61c-2.66-1.12-5.38-2.16-8.09-3.09Zm-165,1,.11,1.75-8.71.52-.1-1.74Zm-17.41,1.06.1,1.74-8.7.52-.11-1.74ZM367-60.4l.1,1.74-8.71.53-.1-1.75Zm-17.42,1,.11,1.74-8.71.53-.1-1.74ZM332.14-58.3l.1,1.74-8.7.53-.11-1.74Zm-17.42,1,.11,1.74-8.71.53-.1-1.74Zm268.3.5c2.59,1.29,5.19,2.7,7.73,4.18l-.88,1.51c-2.5-1.46-5.07-2.85-7.62-4.13Zm-285.71.56.11,1.74-8.71.52-.11-1.74Zm-17.41,1,.1,1.74-8.71.52-.1-1.74Zm-17.42,1,.11,1.74-8.71.53-.1-1.75ZM245.07-53l.1,1.74-8.7.53-.11-1.75Zm-17.42,1,.11,1.74-8.71.53-.1-1.74Zm-17.41,1.05.11,1.74-8.71.53-.11-1.74Zm-17.41,1,.1,1.75-8.7.52-.11-1.74Zm-17.42,1.06.11,1.74-8.71.52-.1-1.74Zm422.77.93c2.42,1.63,4.82,3.36,7.12,5.14l-1.07,1.38c-2.27-1.76-4.63-3.46-7-5.08ZM158-47.78l.11,1.74-8.71.53-.11-1.75Zm-17.41,1.05.1,1.74-8.71.53-.1-1.74Zm-17.42,1,.11,1.74-8.71.53-.11-1.74Zm-17.41,1,.1,1.75-8.7.52-.11-1.74ZM88.34-43.57l.11,1.74-8.71.52L79.64-43Zm-17.41,1L71-40.78l-8.71.52L62.22-42ZM53.52-41.47l.1,1.74-8.7.53-.11-1.75Zm-17.42,1,.11,1.74-8.71.53-.1-1.74ZM18.69-39.37l.1,1.74-8.7.53L10-38.84Zm-17.41,1,.1,1.75L-7.33-36l-.1-1.74Zm-17.42,1,.11,1.75-8.71.52-.11-1.74Zm628.21.1c2.2,2,4.34,4,6.38,6l-1.24,1.22c-2-2-4.13-4-6.3-5.94Zm-645.62,1,.1,1.74-8.7.52-.11-1.74ZM-51-35.16l.11,1.74-8.71.53-.1-1.75Zm-17.41,1,.1,1.74-8.7.53-.11-1.74Zm-17.41,1,.1,1.74-8.71.53-.1-1.74ZM-103.21-32l.11,1.75-8.71.52-.1-1.74Zm-17.41,1.06.1,1.74-8.7.52-.11-1.74ZM-138-29.9l.11,1.74-8.71.52-.1-1.74Zm-17.41,1,.11,1.74-8.71.53-.11-1.74Zm-17.41,1.05.1,1.74-8.71.53-.1-1.74Zm-17.42,1.05.11,1.74-8.71.53-.1-1.74Zm-17.41,1.05.1,1.75-8.7.52-.11-1.74Zm832.1,1c1.91,2.21,3.76,4.51,5.51,6.84l-1.4,1c-1.72-2.29-3.54-4.56-5.43-6.74Zm-849.51.06.1,1.74-8.71.52-.1-1.74Zm-17.42,1.05.11,1.74-8.71.52-.11-1.74Zm-17.41,1.05.1,1.74-8.7.53-.11-1.75Zm-17.42,1.05.11,1.74-8.71.53L-286-21Zm-17.41,1,.1,1.74-8.7.53-.11-1.74Zm-17.41,1.05.1,1.75-8.71.52-.1-1.74Zm-17.42,1.06.11,1.74-8.71.52-.11-1.74Zm-17.41,1,.1,1.74-8.7.53-.11-1.75Zm-17.42,1.05.11,1.74L-373-14l-.1-1.74Zm-17.41,1.05.11,1.74-8.71.53-.11-1.74Zm-17.41,1,.1,1.74-8.71.53-.1-1.74ZM634.93-10.65c1.59,2.47,3.1,5,4.48,7.55l-1.53.84c-1.37-2.51-2.85-5-4.42-7.45ZM-405.89-6.95l4,7.76-1.55.8-4-7.76ZM643.31,4.78c1.2,2.67,2.31,5.41,3.29,8.15l-1.64.59c-1-2.7-2.06-5.4-3.24-8ZM-397.9,8.56l4,7.75-1.55.8-4-7.75ZM649.24,21.32c.76,2.8,1.42,5.69,2,8.57l-1.72.32c-.53-2.84-1.18-5.67-1.93-8.44ZM-389.91,24.07l4,7.75-1.55.8-4-7.75ZM652.49,38.58c.31,2.88.52,5.83.63,8.76l-1.75.06c-.1-2.89-.31-5.79-.62-8.64Zm-1034.41,1,4,7.75-1.55.8-4-7.75Zm8,15.5,4,7.76-1.55.8-4-7.76Zm1025.29,1,1.74.06c-.11,2.9-.33,5.85-.64,8.76l-1.74-.19C651,61.82,651.25,58.92,651.36,56.06ZM-365.94,70.59l4,7.75-1.55.8-4-7.75ZM649.49,73.27l1.72.3c-.52,2.86-1.13,5.75-1.84,8.59l-1.69-.42C648.38,78.93,649,76.08,649.49,73.27ZM-357.95,86.1l4,7.75-1.55.8-4-7.75Zm1003.26,4,1.66.53c-.89,2.77-1.88,5.56-3,8.27l-1.62-.64C643.45,95.55,644.43,92.81,645.31,90.07ZM-350,101.61l4,7.75-1.55.8-4-7.75ZM639,106.19l1.58.74c-1.24,2.64-2.58,5.27-4,7.82l-1.53-.84C636.41,111.39,637.74,108.8,639,106.19ZM-342,117.11l4,7.76-1.55.8-4-7.76Zm972.55,4.24,1.47.94c-1.58,2.46-3.26,4.9-5,7.23l-1.41-1C627.37,126.18,629,123.78,630.59,121.35ZM-334,132.62l4,7.76-1.55.8-4-7.76Zm954.26,2.65,1.34,1.13c-1.91,2.24-3.89,4.43-5.91,6.5l-1.25-1.22C616.46,139.64,618.42,137.48,620.29,135.27ZM608.2,147.66l1.16,1.3c-2.18,1.94-4.45,3.83-6.76,5.6l-1.07-1.38C603.81,151.43,606.06,149.57,608.2,147.66Zm-934.18.47,4,7.75-1.55.8-4-7.75Zm920.45,10.05,1,1.46c-2.45,1.61-5,3.13-7.54,4.52l-.84-1.53C589.56,161.26,592.06,159.76,594.47,158.18ZM-318,163.64l4,7.75-1.55.8-4-7.75Zm897.17,2.91.87,1.52-.17.07c-2.56,1.16-5.25,2.25-8,3.26l-.6-1.63C574,168.77,576.64,167.69,579.18,166.55Zm-16.1,6,.51,1.67c-2.74.83-5.58,1.6-8.47,2.3l-.41-1.69C557.56,174.1,560.38,173.34,563.08,172.52Zm-16.85,4.12.33,1.71c-2.8.54-5.7,1-8.64,1.47l-.25-1.72C540.57,177.66,543.45,177.17,546.23,176.64ZM-310,179.15l4,7.75-1.55.8-4-7.75Zm839.05.08.19,1.74c-2.78.32-5.71.61-8.7.86l-.15-1.74C523.36,179.84,526.27,179.55,529.05,179.23Zm-17.34,1.51.11,1.74c-2.91.19-5.82.34-8.73.48l-.08-1.74Q507.36,181,511.71,180.74Zm-17.41.84.07,1.75-8.72.3-.06-1.74Zm-17.43.61.07,1.74c-2.9.11-5.81.22-8.71.36l-.08-1.74C471.06,182.41,474,182.3,476.87,182.19Zm-17.45.83.11,1.74c-2.9.18-5.8.39-8.68.63l-.15-1.74Q455.05,183.29,459.42,183ZM442,184.5l.19,1.74c-3,.33-5.88.71-8.62,1.11l-.25-1.73C436.08,185.22,439,184.84,442,184.5Zm-17.32,2.57.33,1.72c-2.91.55-5.76,1.15-8.49,1.81l-.41-1.7C418.87,188.24,421.75,187.63,424.68,187.07Zm-17,4.09.5,1.67c-2.8.84-5.57,1.76-8.23,2.73l-.6-1.64C402,192.93,404.8,192,407.64,191.16ZM-302,194.65l4,7.76-1.55.8-4-7.76Zm693.18,2.55.71,1.6c-.63.27-1.25.56-1.88.85-2,.91-4,1.91-5.88,3l-.84-1.53c2-1.08,4-2.09,6-3Zm-15.43,8.44,1,1.45c-2.4,1.59-4.75,3.31-7,5.09l-1.09-1.36C370.91,209,373.31,207.26,375.74,205.64ZM-294,210.16l4,7.76-1.55.8-4-7.76Zm656,6.43,1.2,1.26c-2.1,2-4.11,4.08-6,6.22l-1.31-1.14C357.8,220.74,359.85,218.61,362,216.59Zm-648,9.08,4,7.75-1.55.8-4-7.75Zm636.44,4.15,1.42,1a83.16,83.16,0,0,0-4.65,7.26l-1.52-.86A83.65,83.65,0,0,1,350.41,229.82ZM-278,241.18l4,7.75-1.55.8-4-7.75Zm619.8,3.95,1.6.68a68.81,68.81,0,0,0-2.85,8.12l-1.68-.47A70.61,70.61,0,0,1,341.76,245.13ZM-270,256.69l4,7.75-1.55.8-4-7.75ZM337,262.1l1.73.24a59.34,59.34,0,0,0-.57,8.19v.37l-1.74,0v-.4A61.24,61.24,0,0,1,337,262.1Zm-599.09,10.09,4,7.76-1.55.8-4-7.76Zm600.88,7.31c.32,2.56.75,5.18,1.16,7.7l.14.89-1.72.28-.15-.89c-.41-2.54-.84-5.17-1.16-7.76Zm-592.88,8.2,4,7.76-1.55.8-4-7.76Zm595.43,9.07a66.67,66.67,0,0,1,.42,7.09c0,.58,0,1.16,0,1.75l-1.74-.07q0-.84,0-1.68a63.35,63.35,0,0,0-.42-6.9Zm-587.44,6.44,4,7.75-1.55.8-4-7.75Zm584.81,10.71,1.67.51-.1.35a32.22,32.22,0,0,1-3.5,7.8l-1.48-.92a31,31,0,0,0,3.31-7.38Zm-576.82,4.8,4,7.75-1.55.8-4-7.75Zm568,9.49,1.2,1.26a43,43,0,0,1-7.06,5.39l-.92-1.48A41.7,41.7,0,0,0,330,328.21Zm-560,6,4,7.76-1.55.8-4-7.76Zm545.64,3.1.69,1.6a79.3,79.3,0,0,1-8.29,3l-.51-1.66A80.51,80.51,0,0,0,315.55,337.32Zm-16.48,5.11.37,1.7c-2.71.6-5.61,1.13-8.63,1.6l-.27-1.72C293.52,343.55,296.39,343,299.07,342.43Zm-17.21,2.71.16.86.06.87c-3.18.35-6,.69-8.6,1.06l-.25-1.73C275.87,345.83,278.69,345.48,281.86,345.14Zm-17.28,2.49.33,1.71c-3,.57-5.81,1.21-8.45,1.92l-.45-1.69C258.69,348.86,261.57,348.2,264.58,347.63Zm-486.68,2.1,4,7.76-1.55.8-4-7.76Zm469.72,2.52.61,1.63a62.06,62.06,0,0,0-7.81,3.57l-.84-1.53A63.64,63.64,0,0,1,247.62,352.25Zm-15.4,8.63,1.11,1.34a34.8,34.8,0,0,0-5.83,6.15l-1.41-1A36.92,36.92,0,0,1,232.22,360.88Zm-446.33,4.36,4,7.75-1.55.8-4-7.75Zm435.91,9.92,1.63.63a33,33,0,0,0-2,8.22l-1.73-.19A35.05,35.05,0,0,1,221.8,375.16Zm-427.92,5.59,4,7.75-1.55.8-4-7.75ZM221.49,392.5a48,48,0,0,0,1.87,8.35l-1.67.52a51.44,51.44,0,0,1-1.93-8.65Zm-419.62,3.76,4,7.75-1.55.8-4-7.75Zm424.54,12.65c1,2.36,2.27,4.92,3.76,7.82l-1.55.8c-1.51-2.94-2.75-5.53-3.8-7.92Zm-416.55,2.85,4,7.76-1.55.8-4-7.76Zm424.4,12.65.65,1.19c1.18,2.16,2.35,4.32,3.51,6.5l-1.54.82c-1.15-2.17-2.33-4.33-3.5-6.48l-.65-1.19Zm-416.41,2.86,4,7.76-1.55.8-4-7.76Zm424.53,12.65c1.38,2.89,2.52,5.53,3.48,8.06l-1.63.62c-.95-2.48-2.07-5.08-3.43-7.93Zm-416.54,2.86,4,7.75-1.55.8-4-7.75Zm422.68,13.61c.43,1.75.77,3.48,1,5.16.18,1.2.31,2.4.4,3.58l-1.74.14c-.09-1.15-.22-2.31-.39-3.46a49.5,49.5,0,0,0-1-5Zm-414.69,1.9,4,7.75-1.55.8-4-7.75Zm8,15.51,4,7.75-1.55.8-4-7.75Zm406.31,0,1.73.17a54.2,54.2,0,0,1-1.56,8.71l-1.69-.45A53,53,0,0,0,248.13,473.82ZM-150.18,489.3l4,7.76-1.55.8-4-7.76Zm394,1.07,1.6.68a70.07,70.07,0,0,1-4,7.88l-1.51-.88A69.17,69.17,0,0,0,243.8,490.37Zm-386,14.44,4,7.76-1.55.8-4-7.76Zm377.4.47,1.41,1c-1.67,2.29-3.51,4.61-5.46,6.89l-1.33-1.13C231.76,509.81,233.57,507.53,235.21,505.28ZM224,518.43l1.24,1.23c-2,2-4.11,4.06-6.32,6.08l-1.18-1.28C219.9,522.46,222,520.43,224,518.43Zm-358.17,1.89,4,7.75-1.55.8-4-7.75Zm345.36,9.84,1.11,1.34c-2.17,1.81-4.47,3.65-6.83,5.48l-1.07-1.38C206.72,533.78,209,532,211.16,530.16Zm-337.37,5.67,4,7.75-1.55.8-4-7.75Zm323.62,5,1,1.41q-2.15,1.56-4.29,3l-2.83,2-1-1.43,2.84-2Q195.27,542.34,197.41,540.8ZM183.21,551l1,1.4c-2.48,1.83-4.75,3.55-6.94,5.26l-1.07-1.38C178.44,554.53,180.72,552.8,183.21,551Zm-301.43.38,4,7.75-1.55.8-4-7.76Zm287.64,10.41,1.12,1.33c-2.3,1.94-4.5,3.87-6.52,5.73l-1.19-1.28C164.88,565.65,167.1,563.7,169.42,561.75Zm-279.65,5.09,4,7.76-1.55.8-4-7.76Zm266.78,6.8,1.25,1.22c-2.08,2.14-4,4.31-5.8,6.42l-1.34-1.12C152.46,578,154.44,575.82,156.55,573.64Zm-258.79,8.71,4,7.76-1.55.79-4-7.75Zm247.55,4.79,1.43,1a79.78,79.78,0,0,0-4.55,7.33l-1.53-.84A81.1,81.1,0,0,1,145.31,587.14ZM-94.25,597.86l4,7.75-1.55.8-4-7.75Zm231.19,4.78,1.63.63a56.06,56.06,0,0,0-2.47,8.2l-1.71-.37A59.68,59.68,0,0,1,136.94,602.64Zm-223.2,10.73,4,7.75-1.55.8-4-7.75Zm219.45,6.5,1.74.09c-.05,1-.08,1.92-.08,2.89,0,.81,0,1.61.06,2.42.05,1.1.13,2.18.25,3.26l-1.73.18c-.13-1.1-.21-2.23-.26-3.36,0-.84-.06-1.67-.06-2.5C133.11,621.85,133.14,620.86,133.19,619.87Zm-211.46,9,4,7.75-1.55.8-4-7.76Zm215.07,8a54.94,54.94,0,0,0,3,8l-1.59.73a57.61,57.61,0,0,1-3.08-8.29Zm-207.08,7.45,4,7.76-1.55.8-4-7.76ZM144,652.47a71,71,0,0,0,5.13,6.92l-1.33,1.12a72.88,72.88,0,0,1-5.26-7.09Zm-206.23,7.42,4,7.75-1.55.8-4-7.75ZM155,665.69c2,1.94,4.2,3.85,6.5,5.69l-1.09,1.36c-2.34-1.87-4.56-3.82-6.62-5.8ZM-54.29,675.4l4,7.75-1.55.8-4-7.75Zm222.75,1.1c2.35,1.59,4.83,3.12,7.36,4.57l-.87,1.52c-2.57-1.47-5.08-3-7.47-4.64Zm15,8.62c2.57,1.25,5.23,2.43,7.91,3.53l-.66,1.61c-2.71-1.11-5.41-2.31-8-3.57ZM-46.3,690.91l4,7.75-1.55.8-4-7.75Zm245.82.78c2.58.9,5.28,1.79,8.26,2.73l-.53,1.67c-3-1-5.71-1.85-8.3-2.75Zm16.59,5.25q4.19,1.23,8.38,2.41L224,701c-2.8-.8-5.6-1.59-8.39-2.41Zm16.77,4.8c2.8.81,5.6,1.63,8.38,2.47l-.51,1.67c-2.77-.84-5.56-1.66-8.35-2.46Zm-271.19,4.67,4,7.76-1.55.8-4-7.76Zm287.91.44c2.94,1,5.65,1.93,8.25,2.91l-.61,1.63c-2.59-1-5.27-1.91-8.19-2.89ZM266,713c2.76,1.2,5.43,2.46,7.94,3.74l-.79,1.55c-2.48-1.26-5.11-2.5-7.84-3.69Zm15.61,8c.73.44,1.46.89,2.18,1.35,1.73,1.12,3.46,2.31,5.14,3.54l-1,1.41c-1.64-1.22-3.34-2.39-5.05-3.48-.7-.45-1.41-.89-2.13-1.33Zm-311.91.88,4,7.76-1.55.8-4-7.76Zm326.06,9.55c2.17,1.93,4.3,4,6.32,6.12l-1.27,1.2c-2-2.1-4.07-4.12-6.2-6Zm-318.07,6,4,7.75-1.55.8-4-7.75Zm330.15,6.81c1.8,2.27,3.55,4.65,5.18,7.09l-1.44,1c-1.62-2.41-3.33-4.76-5.11-7Zm-322.16,8.7,4,7.75-1.55.8-4-7.75Zm331.94,5.89c1.42,2.54,2.76,5.18,4,7.83l-1.59.73c-1.2-2.61-2.52-5.21-3.92-7.71Zm-324,9.62,4,7.75-1.55.8-4-7.75ZM325,774.78c1,2.74,1.93,5.55,2.73,8.35l-1.68.48c-.78-2.76-1.69-5.52-2.69-8.22ZM1.64,784l4,7.76-1.55.8-4-7.76Zm328.14,7.72c.58,2.87,1.06,5.78,1.42,8.67l-1.73.22c-.36-2.85-.83-5.72-1.4-8.54ZM9.63,799.46l4,7.76-1.55.79-4-7.75Zm322.3,9.64c.07,1.59.11,3.19.11,4.78,0,1.34,0,2.67-.08,4l-1.74-.07c0-1.31.07-2.62.07-3.94,0-1.57,0-3.14-.1-4.7ZM17.62,815l4,7.75-1.55.8-4-7.75Zm311.92,11.47,1.73.21c-.36,2.91-.84,5.83-1.44,8.68l-1.71-.36C328.71,832.17,329.19,829.3,329.54,826.44Zm-303.93,4,4,7.75-1.55.8-4-7.75ZM326,843.34l1.67.51c-.87,2.8-1.86,5.59-3,8.28l-.13.31-5.36,2.63-.77-1.56,4.77-2.35C324.21,848.62,325.15,846,326,843.34ZM33.6,846l4,7.75-1.55.8-4-7.76Zm277,11.36.77,1.57-7.83,3.84-.77-1.56Zm-269,4.14,4,7.76-1.55.8-4-7.76ZM294.91,865l.77,1.57-7.83,3.84-.77-1.56Zm-15.66,7.69.77,1.57-7.83,3.84-.77-1.56ZM49.59,877l4,7.76-1.55.79-4-7.75Zm214,3.42.76,1.57-7.83,3.84-.76-1.56Zm-15.66,7.69.77,1.57-7.83,3.85-.77-1.57Zm-190.36,4.4,4,7.75-1.55.8-4-7.75Zm174.7,3.3.77,1.56-7.83,3.85-.77-1.57Zm-15.66,7.69.77,1.56-7.83,3.85-.77-1.57ZM65.57,908l4,7.75-1.55.8-4-7.75ZM201,911.19l.77,1.56-7.83,3.85-.77-1.57Zm-15.66,7.69.77,1.56-7.83,3.85-.77-1.57ZM73.56,923.52l4,7.76-1.55.8-4-7.76Zm96.08,3.05.77,1.56L162.58,932l-.77-1.57ZM154,934.26l.77,1.56-7.83,3.85-.77-1.57ZM81.55,939l4,7.76-1.55.8-4-7.76ZM138.32,942l.77,1.56-7.83,3.85-.77-1.57Zm-15.65,7.69.76,1.57-7.82,3.84-.77-1.56Zm-33.13,4.9,4,7.75-1.55.8-4-7.75ZM107,957.33l.77,1.57L100,962.74l-.77-1.56Z" transform="translate(407.95 290.14)"/>
    <g>
      <path class="e" d="M1500.62,381.38l.11,1.74c-2.87.17-5.78.43-8.64.75l-.2-1.73C1494.78,381.81,1497.72,381.55,1500.62,381.38Zm-17.42,2,.29,1.72c-2.85.48-5.71,1-8.51,1.67l-.38-1.7C1477.43,384.41,1480.32,383.85,1483.2,383.36Zm-17.1,3.84.47,1.68c-2.8.8-5.58,1.68-8.27,2.62l-.57-1.65C1460.45,388.9,1463.26,388,1466.1,387.2ZM1449.54,393l.68,1.6c-2.76,1.18-5.39,2.42-7.82,3.7l-.81-1.54C1444.06,395.48,1446.73,394.21,1449.54,393ZM1434,401.29l1,1.44q-.95.64-1.8,1.29c.94.15,1.87.33,2.78.52l-.36,1.71c-1.4-.3-2.82-.55-4.27-.75a21.66,21.66,0,0,0-2.76,2.74l-1.35-1.11a19.38,19.38,0,0,1,1.8-1.9c-.64-.07-1.29-.12-1.94-.17l.13-1.74c1.2.09,2.4.2,3.59.35C1431.77,402.89,1432.84,402.09,1434,401.29Zm-15.62,2,.09,1.74a77.43,77.43,0,0,0-8.57.95l-.28-1.72A78.2,78.2,0,0,1,1418.39,403.27ZM1401,406.13l.47,1.68c-2.76.75-5.52,1.65-8.21,2.68l-.63-1.63C1395.4,407.81,1398.22,406.89,1401,406.13Zm43.44.92a52.39,52.39,0,0,1,8,3.89l-.9,1.5a48.91,48.91,0,0,0-7.69-3.76Zm-59.87,5.35.78,1.56-1.49.76c-2,1.07-4.08,2.22-6.07,3.43l-.91-1.49c2-1.23,4.1-2.4,6.17-3.48C1383.58,412.91,1384.08,412.65,1384.59,412.4Zm38.23,2.53,1.61.66a35.54,35.54,0,0,0-2.31,8.18l-1.73-.27A37.66,37.66,0,0,1,1422.82,414.93Zm36.74,1.28a37.76,37.76,0,0,1,5.9,6.68l-1.44,1a35.4,35.4,0,0,0-5.63-6.36Zm-90,5.3,1,1.42c-2.32,1.66-4.62,3.45-6.83,5.31l-1.12-1.34C1364.88,425,1367.21,423.2,1369.57,421.51Zm99.71,9.5a21.43,21.43,0,0,1,.74,5.16v.33a19.2,19.2,0,0,1-.33,3.54l-1.72-.33a16.55,16.55,0,0,0,.31-3.21v-.3a19.94,19.94,0,0,0-.68-4.74Zm-47.41,1.23a28.65,28.65,0,0,0,1.75,7.4c.1.26.2.52.31.77l-1.6.68c-.12-.27-.23-.55-.34-.83a31,31,0,0,1-1.86-7.84Zm-65.75.55,1.22,1.25c-2,2-4.07,4.1-6,6.26l-1.3-1.16C1352,437,1354,434.81,1356.12,432.79Zm-11.68,13.11,1.39,1.07c-1.76,2.27-3.45,4.64-5,7l-1.46-1C1341,450.61,1342.67,448.21,1344.44,445.9Zm120.22,1.4,1.42,1a24.53,24.53,0,0,1-6.49,6.23l-1-1.46A22.74,22.74,0,0,0,1464.66,447.3Zm-36.26.24a27.37,27.37,0,0,0,6.43,5.44l-.91,1.49a28.82,28.82,0,0,1-6.83-5.79Zm14.21,8.57a21.14,21.14,0,0,0,5.59.46,18,18,0,0,0,2.72-.33l.33,1.72a21.31,21.31,0,0,1-3,.36,23.61,23.61,0,0,1-6-.5Zm-107.87,4.42,1.51.86c-1.41,2.5-2.76,5.08-4,7.68l-1.57-.75C1331.93,465.68,1333.3,463.06,1334.74,460.53Zm-7.56,15.84,1.62.64c-1,2.66-2,5.41-2.89,8.16l-1.66-.52C1325.13,481.85,1326.12,479.07,1327.18,476.37Zm-5.3,16.73,1.69.42c-.68,2.78-1.28,5.64-1.78,8.48l-1.72-.31C1320.58,498.81,1321.19,495.93,1321.88,493.1Zm-3.06,17.28,1.74.19c-.32,2.86-.56,5.76-.7,8.64l-1.74-.08C1318.26,516.21,1318.5,513.27,1318.82,510.38Zm.89,17.5c0,2.87.16,5.78.37,8.66l-1.74.13c-.21-2.92-.34-5.87-.38-8.77Zm1.28,17.28c.38,2.85.86,5.73,1.42,8.55l-1.71.34c-.57-2.86-1-5.77-1.44-8.66Z" transform="translate(407.95 290.14)"/>
      <path class="e" d="M979.36-4.22C979-2.85,978.55-1.44,978.1,0L976.44-.5c.44-1.44.86-2.84,1.24-4.19Zm-4,12.56c-.94,2.67-2,5.44-3.06,8.2l-1.62-.63c1.08-2.75,2.1-5.49,3-8.16ZM969,24.65c-1.16,2.7-2.36,5.39-3.57,8l-1.58-.74c1.2-2.59,2.4-5.26,3.55-7.95Zm-7.4,15.88c-1.35,2.64-2.73,5.25-4.11,7.74l-1.52-.85c1.37-2.47,2.74-5.06,4.07-7.68ZM953,55.84c-1.58,2.58-3.19,5-4.79,7.35l-1.43-1c1.58-2.28,3.17-4.73,4.74-7.27ZM943,70.25a87.62,87.62,0,0,1-5.86,6.58l-1.24-1.23a82.1,82.1,0,0,0,5.74-6.45ZM930.42,82.61a30,30,0,0,1-7.9,4.18L922,85.14a28.64,28.64,0,0,0,7.44-3.94Zm-16.77,4,.05,1.74a32.73,32.73,0,0,1-8.88-1l.42-1.69A31.26,31.26,0,0,0,913.65,86.57Zm-16.33-3.95-.81,1.54a41.6,41.6,0,0,1-7.36-5l1.13-1.33A40.21,40.21,0,0,0,897.32,82.62ZM881.16-52.58c.14,1.64.25,3.3.33,5l-1.74.08c-.15-3-.37-5.85-.7-8.64l1.74-.2C880.93-55.11,881.06-53.85,881.16-52.58Zm.52,13.76c0,2.77-.06,5.72-.18,8.76l-1.74-.07c.11-3,.17-5.94.18-8.69ZM879.38-65l-1.71.37-.1-.48A74,74,0,0,0,875.36-73l1.64-.57a72.9,72.9,0,0,1,2.27,8ZM881-21.33q-.28,4.35-.66,8.72l-1.73-.15c.24-2.89.46-5.79.65-8.68Zm-7.48-60.33-1.55.78a56.33,56.33,0,0,0-4.44-7.34l1.42-1A56.44,56.44,0,0,1,873.56-81.66Zm6,77.76c-.29,2.92-.6,5.82-.9,8.69l-1.74-.19c.31-2.86.61-5.76.9-8.67Zm4.79,75.56L883,72.73a46.13,46.13,0,0,1-4.79-7.48l1.56-.79A44.17,44.17,0,0,0,884.37,71.66Zm-6.63-58.19c-.32,3-.63,5.85-.93,8.67L875.08,22c.29-2.83.6-5.73.92-8.68ZM876,30.81c-.28,3.23-.49,6.07-.63,8.68l-1.74-.09c.14-2.64.35-5.49.63-8.74Zm.67,25.7L875,57a41.18,41.18,0,0,1-1.49-8.76l1.74-.11A40.46,40.46,0,0,0,876.66,56.51ZM863.24-96,862-94.73c-1-1-2.08-2-3.16-2.82s-2.32-1.79-3.48-2.56l1-1.45c1.21.8,2.42,1.69,3.61,2.65S862.18-97,863.24-96Zm-7-43.39,0,.31c.24,2.83.41,5.66.53,8.43l-1.75.08c-.11-2.75-.28-5.56-.52-8.36l0-.31Zm-.93-8.71-1.73.22c-.36-2.82-.79-5.71-1.27-8.59l1.72-.29C854.48-153.84,854.91-150.92,855.27-148.08Zm1.63,26.22c0,3-.13,5.9-.3,8.76l-1.74-.11c.17-2.83.27-5.75.3-8.67Zm-4.51-43.49-1.71.35c-.57-2.79-1.21-5.64-1.89-8.48l1.7-.41C851.17-171,851.81-168.16,852.39-165.35Zm3.42,61c-.34,2.93-.78,5.85-1.3,8.68L852.8-96c.51-2.8.94-5.68,1.28-8.58Zm-7.51-78-1.68.46c-.76-2.77-1.58-5.57-2.44-8.35l1.67-.52C846.71-188,847.54-185.14,848.3-182.36Zm4.36,95.26c-.73,2.86-1.55,5.7-2.45,8.43l-1.66-.54c.89-2.7,1.7-5.49,2.42-8.32Zm-9.51-112-1.65.57c-.94-2.75-1.92-5.51-2.93-8.19l1.64-.61C841.22-204.62,842.21-201.85,843.15-199.09Zm5.23,93.52-.58,1.64a30.53,30.53,0,0,0-8.28-1.71l.11-1.74A32.4,32.4,0,0,1,848.38-105.57Zm-1.23,35.14-.47,1.1a55.11,55.11,0,0,1-3.5,6.8l-1.49-.9A51.7,51.7,0,0,0,845.07-70l.46-1.08Zm-9.25,15a40.39,40.39,0,0,1-6.6,6l-1-1.42a38.71,38.71,0,0,0,6.33-5.7ZM831.08-105a40.26,40.26,0,0,0-8.11,2.63l-.7-1.6a42.25,42.25,0,0,1,8.46-2.74ZM823.4-45.25a25.27,25.27,0,0,1-6.29,1.4,22.28,22.28,0,0,1-2.58.06l.06-1.74a20.9,20.9,0,0,0,2.37-.06,23.35,23.35,0,0,0,5.86-1.3Zm-7.87-53a41.34,41.34,0,0,0-6.35,5.68l-1.29-1.18a41.9,41.9,0,0,1,6.63-5.91ZM804.06-85.7A45,45,0,0,0,800.33-78l-1.64-.61a47.38,47.38,0,0,1,3.88-8Zm2.62,37.94-.87,1.51a19.3,19.3,0,0,1-4.19-3.29,18,18,0,0,1-2.32-3l1.48-.91a16.35,16.35,0,0,0,2.1,2.71A17.69,17.69,0,0,0,806.68-47.76Zm-8.49-22a30.32,30.32,0,0,0-.1,8.44l-1.73.24a31.91,31.91,0,0,1,.1-8.93Z" transform="translate(407.95 290.14)"/>
      <path class="e" d="M317.51-30.55c1,1,2.08,2,3.16,3.08l-1.23,1.24q-1.6-1.61-3.14-3.06Zm9.23,9.4c1.93,2.09,3.9,4.28,5.84,6.53l-1.32,1.15c-1.93-2.24-3.88-4.42-5.8-6.49ZM338.2-7.9c1.85,2.28,3.67,4.6,5.41,6.89L342.22,0c-1.72-2.27-3.53-4.57-5.37-6.84Zm10.6,14c1.72,2.42,3.38,4.86,4.94,7.24l-1.46,1c-1.55-2.36-3.2-4.78-4.9-7.18Zm9.58,14.68c1.54,2.6,3,5.18,4.27,7.66l-1.54.81c-1.28-2.46-2.71-5-4.23-7.58Zm8.07,15.6a84,84,0,0,1,3.09,8.25l-1.66.52a84.3,84.3,0,0,0-3-8.08Zm5.08,16.88a30,30,0,0,1,0,8.94l-1.72-.28a28.26,28.26,0,0,0,0-8.42Zm-4.32,16.68,1.57.77a33.08,33.08,0,0,1-5,7.41l-1.31-1.16A31.09,31.09,0,0,0,367.21,69.89ZM356.11,82.5l1,1.44a40.92,40.92,0,0,1-7.86,4.17l-.64-1.62A40,40,0,0,0,356.11,82.5ZM229,33.8c1.51.64,3,1.32,4.57,2l-.74,1.58c-2.69-1.26-5.35-2.41-8-3.42l.63-1.62C226.62,32.82,227.78,33.3,229,33.8Zm12.42,6c2.44,1.29,5,2.72,7.66,4.24l-.87,1.51c-2.62-1.51-5.18-2.92-7.61-4.21ZM217.11,29.58l-.46,1.68-.48-.13a69.94,69.94,0,0,0-7.95-1.69l.27-1.72a73.75,73.75,0,0,1,8.14,1.72Zm39.44,18.88C259,50,261.5,51.54,264,53.11L263,54.58q-3.67-2.36-7.38-4.63ZM199.69,27l0,1.74a56.16,56.16,0,0,0-8.57.5l-.24-1.73A58.43,58.43,0,0,1,199.69,27Zm71.6,30.91q3.68,2.43,7.27,4.85l-1,1.45c-2.39-1.61-4.82-3.23-7.26-4.84Zm69.09,31,.31,1.72a46.05,46.05,0,0,1-8.85.74l0-1.74A44.26,44.26,0,0,0,340.38,88.85ZM285.8,67.6c2.46,1.66,4.88,3.29,7.24,4.86l-1,1.45c-2.37-1.57-4.79-3.2-7.26-4.86Zm14.53,9.63c2.73,1.76,5.14,3.26,7.39,4.6l-.9,1.5c-2.26-1.35-4.69-2.87-7.43-4.63Zm23.05,11.39-.36,1.7a42,42,0,0,1-8.45-2.76l.71-1.59A40.85,40.85,0,0,0,323.38,88.62ZM182.21,29.43l.53,1.66c-1.36.44-2.69.94-4,1.49s-2.66,1.21-3.88,1.88l-.84-1.52c1.27-.7,2.63-1.36,4-2S180.8,29.88,182.21,29.43Zm-41.67-14,.28.12c2.61,1.11,5.21,2.27,7.71,3.46l-.75,1.58c-2.48-1.18-5.05-2.34-7.64-3.43l-.28-.13Zm-8.14-3.23-.61,1.63c-2.67-1-5.42-2-8.2-2.88l.55-1.66C126.93,10.22,129.71,11.2,132.4,12.21ZM156.35,23c2.6,1.4,5.16,2.86,7.62,4.35l-.91,1.49c-2.43-1.47-5-2.92-7.53-4.3ZM115.77,6.71l-.48,1.67c-2.74-.79-5.56-1.56-8.39-2.28l.43-1.69C110.18,5.13,113,5.91,115.77,6.71Zm55.56,25.38c2.43,1.68,4.81,3.43,7.07,5.2l-1.07,1.37c-2.24-1.75-4.59-3.48-7-5.13ZM98.81,2.4l-.37,1.7c-2.8-.62-5.67-1.2-8.52-1.74L90.24.65C93.11,1.19,96,1.77,98.81,2.4Zm86.32,40.53c2.2,2,4.33,4,6.32,6.1l-1.25,1.21c-2-2-4.07-4.06-6.24-6ZM81.62-.84,81.35.88C78.48.43,75.58,0,72.74-.34L73-2.08C75.82-1.71,78.73-1.29,81.62-.84Zm85.18,39L168,39.39a30.15,30.15,0,0,0-5.37,6.53L161.12,45A31.7,31.7,0,0,1,166.8,38.11Zm30.51,17.46.76.93a54.49,54.49,0,0,1,4.39,6.27l-1.5.89a51,51,0,0,0-4.25-6.06l-.74-.91Zm9,15.19a41,41,0,0,1,2.19,8.62l-1.73.24a39.15,39.15,0,0,0-2.1-8.26ZM159.23,53.68a40.67,40.67,0,0,0-1.45,8.4L156,62a43.63,43.63,0,0,1,1.52-8.76Zm49.3,34.64a24.78,24.78,0,0,1-1.7,6.22,21.53,21.53,0,0,1-1.14,2.31L204.17,96a20.11,20.11,0,0,0,1.06-2.13,23.16,23.16,0,0,0,1.57-5.79ZM158,70.6a40.52,40.52,0,0,0,2.06,8.27l-1.64.59a42.48,42.48,0,0,1-2.15-8.62Zm5.73,16a45.35,45.35,0,0,0,5.05,6.89l-1.3,1.16a47.65,47.65,0,0,1-5.25-7.15Zm34.79,15.36.93,1.48a19.45,19.45,0,0,1-4.87,2.17,17.33,17.33,0,0,1-3.74.65l-.12-1.74a15.15,15.15,0,0,0,3.37-.59A17.19,17.19,0,0,0,198.52,101.94ZM175.09,99.2a30.4,30.4,0,0,0,7.43,4l-.59,1.64a31.66,31.66,0,0,1-7.86-4.26Z" transform="translate(407.95 290.14)"/>
      <path class="e" d="M1204.23-212.18l8.49-2,.4,1.69-8.49,2Zm17-4,8.49-2,.4,1.7-8.49,2Zm17-4,8.49-2,.4,1.7-8.49,2Zm17-4,8.49-2,.4,1.7-8.49,2Zm17-4,8.49-2,.4,1.7-8.49,2Zm17-4,8.49-2,.4,1.7-8.49,2Zm17-4,8.49-2,.4,1.69-8.49,2Zm17-4,8.49-2,.4,1.7-8.49,2Zm17-4,8.49-2,.4,1.7-8.49,2Zm17-4,8.49-2,.4,1.7-8.49,2Zm17-4,8.5-2,.4,1.7-8.5,2Zm17-4,8.49-2,.4,1.7-8.49,2Zm17-4,8.49-2,.4,1.69-8.49,2Zm17-4,8.49-2,.4,1.7-8.49,2Zm17-4,8.49-2,.4,1.7-8.49,2Zm17-4,8.49-2,.4,1.7-8.49,2Zm17-4,8.49-2,.4,1.7-8.49,2Zm17-4,8.49-2,.4,1.7-8.49,2Zm17-4,8.49-2,.4,1.7-8.5,2Zm17-4,8.49-2,.4,1.7-8.49,2ZM1196.51-207.6l1,1.42c-2.37,1.7-4.7,3.45-6.93,5.22l-1.08-1.36C1191.76-204.11,1194.11-205.89,1196.51-207.6Zm343.87-78.92,1.7-.4,2,8.49-1.7.4Zm-357.6,89.84,1.16,1.3c-2.19,2-4.31,4-6.3,6l-1.24-1.23C1178.42-192.68,1180.56-194.7,1182.78-196.68Zm-12.35,12.46,1.32,1.14c-1.92,2.23-3.74,4.5-5.39,6.76l-1.41-1C1166.64-179.65,1168.48-182,1170.43-184.22Zm374-85.32,1.7-.4,2,8.49-1.69.4ZM1160.07-170l1.5.9a80.2,80.2,0,0,0-4.06,7.61l-1.58-.73A82.43,82.43,0,0,1,1160.07-170Zm388.3-82.52,1.7-.4,2,8.49-1.7.4Zm-395.69,98.49,1.66.54a64.86,64.86,0,0,0-2.13,8.33l-1.72-.32A68.35,68.35,0,0,1,1152.68-154.07Zm399.69-81.51,1.7-.4,2,8.49-1.7.4Zm-402.86,98.84,1.74.08c-.06,1.58-.06,3.19,0,4.78,0,1.27.14,2.54.27,3.8l-1.74.18c-.13-1.29-.22-2.61-.27-3.91C1149.44-133.45,1149.44-135.1,1149.51-136.74Zm406.86-81.85,1.7-.4,2,8.49-1.7.4Zm-403.37,99a66.49,66.49,0,0,0,2.62,8.19l-1.62.64a66.17,66.17,0,0,1-2.69-8.41Zm407.37-82,1.7-.4,2,8.49-1.7.4Zm-401.11,98a83.51,83.51,0,0,0,4.48,7.38l-1.44,1a84.64,84.64,0,0,1-4.58-7.53Zm405.11-81,1.7-.4,2,8.49-1.7.4ZM1168.9-89.31c1.75,2.15,3.67,4.35,5.7,6.52l-1.27,1.19c-2.06-2.2-4-4.43-5.78-6.61Zm11.81,12.67c2,1.92,4.18,3.88,6.44,5.83L1186-69.49c-2.28-2-4.47-4-6.5-5.89Zm387.66-91,1.69-.4,2,8.49-1.69.4ZM1193.84-65.24c2.15,1.72,4.46,3.52,6.87,5.33l-1,1.4c-2.42-1.83-4.75-3.64-6.92-5.37Zm378.52-85.43,1.7-.4,2,8.49-1.7.4ZM1207.71-54.74q3.57,2.57,7.1,5l-1,1.43q-3.55-2.47-7.13-5Zm368.65-78.95,1.7-.4,2,8.49-1.7.4ZM1222-44.66q3.52,2.53,7,5.19l-1,1.39q-3.5-2.64-7-5.17Zm358.41-72,1.7-.4,2,8.49-1.7.4ZM1235.89-34.09c2.35,1.9,4.61,3.79,6.72,5.62l-1.15,1.32c-2.09-1.82-4.33-3.7-6.66-5.58Zm13.19,11.53c2.17,2.08,4.24,4.18,6.16,6.24L1254-15.13c-1.89-2-3.94-4.11-6.09-6.17Zm335.28-77.17,1.7-.4,2,8.5-1.7.4ZM1261-9.69c1.88,2.34,3.64,4.72,5.23,7.07l-1.45,1c-1.56-2.31-3.29-4.65-5.14-6.95Zm327.36-73,1.7-.4,2,8.49-1.7.4ZM1270.79,4.91a75.35,75.35,0,0,1,3.72,8l-1.63.64a72.73,72.73,0,0,0-3.62-7.8Zm321.57-70.67,1.69-.4,2,8.49-1.69.4ZM1277.19,21.31l.16.63A64.25,64.25,0,0,1,1278.7,30l-1.74.17a60.36,60.36,0,0,0-1.31-7.85l-.15-.61Zm319.16-70.09,1.7-.4,2,8.49-1.7.4ZM1277.19,38.78l1.74.08a59.65,59.65,0,0,1-1.08,8.78l-1.71-.34A58.83,58.83,0,0,0,1277.19,38.78ZM1600.35-31.8l1.7-.4,2,8.49-1.7.4ZM1273.88,55.58l1.64.57a70.38,70.38,0,0,1-3.44,8.13l-1.56-.78A69.32,69.32,0,0,0,1273.88,55.58Zm330.47-70.4,1.7-.4,2,8.49-1.7.4ZM1266.22,71l1.46,1c-1.57,2.4-3.32,4.8-5.19,7.12l-1.36-1.1A84.25,84.25,0,0,0,1266.22,71ZM1255.4,84.42l1.25,1.22c-2,2.06-4.15,4.1-6.38,6.06l-1.15-1.32C1251.32,88.46,1253.43,86.46,1255.4,84.42ZM1608.35,2.16l1.7-.4,2,8.49-1.7.4Zm-366,93.67,1,1.4c-2.33,1.74-4.76,3.42-7.22,5l-.94-1.47C1237.7,99.21,1240.1,97.55,1242.39,95.83Zm-14.56,9.36.84,1.53-1.52.81c-2,1.07-4.13,2.13-6.3,3.17l-.75-1.58c2.15-1,4.24-2.08,6.24-3.13Zm-15.64,7.5.68,1.61c-2.58,1.1-5.23,2.17-8.11,3.29l-.63-1.63C1207,114.86,1209.62,113.79,1212.19,112.69Zm400.16-93.55,1.7-.4,2,8.49-1.69.4ZM1196,119l.58,1.64q-4.1,1.47-8.24,2.88l-.57-1.65C1190.5,120.93,1193.24,120,1196,119Zm-16.48,5.67.55,1.65-1,.34c-2.43.81-4.86,1.62-7.28,2.45l-.56-1.65c2.42-.83,4.85-1.64,7.28-2.46ZM1163,130.31l.58,1.64q-4.11,1.45-8.17,3l-.62-1.63C1157.48,132.27,1160.22,131.28,1163,130.31Zm-16.35,6.2.67,1.61q-2.94,1.22-5.85,2.51l-2.11,1-.74-1.58,2.14-1C1142.68,138.16,1144.65,137.32,1146.62,136.51Zm-15.89,7.41.82,1.54c-2.56,1.37-5.1,2.81-7.53,4.3l-.91-1.49C1125.57,146.77,1128.14,145.3,1130.73,143.92Zm-15,9.17,1,1.43c-2.39,1.68-4.71,3.44-6.9,5.23l-1.1-1.36C1111,156.58,1113.34,154.8,1115.77,153.09Zm500.58-117,1.69-.4,2,8.49-1.7.4Zm-514.16,128.1,1.21,1.26c-2.11,2-4.12,4.12-6,6.25l-1.32-1.15C1098,168.42,1100,166.28,1102.19,164.22Zm-11.5,13.29,1.43,1a75.35,75.35,0,0,0-4.54,7.31l-1.53-.83A79,79,0,0,1,1090.69,177.51ZM1620.34,53.1l1.7-.4,2,8.5-1.7.4ZM1082.34,193l1.62.63a64.94,64.94,0,0,0-2.56,8.21l-1.7-.41A65.25,65.25,0,0,1,1082.34,193Zm542-122.92,1.7-.4,2,8.49-1.7.4Zm-546.12,140,1.74.18a81.66,81.66,0,0,0-.43,8.62h-1.75A85,85,0,0,1,1078.22,210.14ZM1628.34,87.07l1.7-.4,2,8.49-1.7.4Zm-550.2,140.65,1.74-.14c.19,2.61.48,5.43.87,8.65l-1.73.21C1078.63,233.2,1078.34,230.34,1078.14,227.72Zm554.2-123.67,1.7-.4,2,8.49-1.7.4ZM1080.18,245.1l1.72-.24.21,1.45c.34,2.4.68,4.8,1,7.2l-1.73.23c-.31-2.4-.65-4.79-1-7.19ZM1636.34,121l1.7-.4,2,8.49-1.69.4Zm-554,141.34,1.73-.17c.31,3.17.5,6,.58,8.76L1083,271C1082.86,268.32,1082.68,265.5,1082.38,262.37ZM1640.33,138l1.7-.4,2,8.49-1.7.4ZM1082.84,279.65l1.74.1a74.46,74.46,0,0,1-.9,7.87l-.16.89-1.71-.32.15-.86A71.19,71.19,0,0,0,1082.84,279.65ZM1644.33,155l1.7-.4,2,8.49-1.7.4ZM1079.69,296.52l1.66.54a68.24,68.24,0,0,1-3.26,8.2l-1.57-.75A66.37,66.37,0,0,0,1079.69,296.52ZM1648.33,172l1.7-.4,2,8.49-1.7.4Zm-576,140.08,1.47.93a80.42,80.42,0,0,1-5.11,7.18l-1.37-1.09A77,77,0,0,0,1072.37,312.05Zm-10.74,13.49,1.25,1.22c-2,2.05-4.18,4.07-6.44,6l-1.13-1.33C1057.53,329.54,1059.66,327.55,1061.63,325.54ZM875.18,371.88c1.6-.38,3.2-.73,4.8-1.07l.36,1.71q-4.25.89-8.46,2l-.43-1.69C872.69,372.48,873.93,372.17,875.18,371.88ZM1652.33,189l1.7-.4,2,8.5-1.7.4ZM863,375.17l.51,1.67c-2.75.85-5.53,1.77-8.24,2.74l-.59-1.64C857.43,377,860.23,376,863,375.17Zm25.58-5.95c2.78-.46,5.69-.88,8.66-1.27l.23,1.73c-3,.38-5.85.81-8.61,1.26ZM905.94,367q4.35-.43,8.71-.78l.14,1.74c-2.9.23-5.79.48-8.67.78ZM846.52,381.1l.67,1.61c-2.68,1.11-5.35,2.3-7.94,3.52l-.74-1.57C841.12,383.42,843.81,382.22,846.52,381.1Zm76.84-15.55c2.9-.19,5.81-.36,8.71-.52l.1,1.74q-4.35.24-8.7.52Zm125.13-28.79,1,1.41c-2.34,1.68-4.8,3.31-7.33,4.86l-.91-1.49C1043.76,340,1046.19,338.41,1048.49,336.76Zm-217.8,51.86.82,1.54c-2.55,1.37-5.08,2.83-7.51,4.32l-.92-1.49C825.55,391.48,828.11,390,830.69,388.62Zm110.1-24.08c2.9-.16,5.8-.32,8.7-.5l.11,1.75-8.72.49Zm17.4-1.06c2.89-.21,5.79-.43,8.68-.69l.15,1.74q-4.35.38-8.71.69Zm75.52-17.69.81,1.55c-2.57,1.32-5.23,2.6-7.93,3.78l-.7-1.6C1028.55,348.35,1031.18,347.1,1033.71,345.79Zm-218,52,1,1.43c-2.39,1.66-4.73,3.39-7,5.15L808.68,403C811,401.21,813.32,399.46,815.74,397.78Zm159.79-35.86c3-.34,5.87-.71,8.62-1.11l.25,1.73c-2.77.4-5.69.78-8.68,1.11Zm42.31-9.18.6,1.64c-2.73,1-5.54,1.92-8.33,2.75l-.5-1.67C1012.37,354.64,1015.14,353.73,1017.84,352.74Zm-25.12,6.67c2.55-.46,5.08-1,7.52-1.52l1-.22.39,1.7-1,.22c-2.46.55-5,1.07-7.58,1.54Zm663.61-153.47,1.7-.4,2,8.49-1.7.4ZM802,408.63l1.16,1.3c-2.17,1.93-4.27,3.95-6.26,6l-1.25-1.22C797.63,412.63,799.76,410.59,802,408.63Zm-12.27,12.54L791,422.3c-1.88,2.2-3.68,4.49-5.37,6.79l-1.41-1C786,425.73,787.79,423.41,789.69,421.17Zm870.64-198.25,1.69-.4,2,8.49-1.69.4Zm-881,212.43,1.48.92c-1.52,2.44-3,5-4.28,7.52L775,443C776.32,440.4,777.78,437.83,779.33,435.35Zm885-195.45,1.7-.4,2,8.49-1.7.4ZM771.29,451l1.62.65c-1.07,2.64-2,5.38-2.87,8.15l-1.67-.5C769.22,456.46,770.2,453.66,771.29,451Zm-5.07,16.83,1.7.35c-.57,2.8-1,5.67-1.37,8.54l-1.73-.2C765.16,473.58,765.63,470.66,766.22,467.81Zm902.1-210.93,1.7-.4,2,8.49-1.7.4ZM764.16,485.26l1.74.06c-.09,2.87-.07,5.78.08,8.65l-1.74.09C764.09,491.14,764.06,488.18,764.16,485.26Zm908.16-211.4,1.7-.4,2,8.49-1.7.4Zm-907.26,229,1.72-.23c.39,2.86.91,5.72,1.53,8.51l-1.7.38C766,508.64,765.45,505.72,765.06,502.81Zm911.26-212,1.7-.4,2,8.49-1.7.4ZM770.58,519.42c.89,2.77,1.9,5.49,3,8.1l-1.6.69c-1.14-2.66-2.17-5.44-3.07-8.25Zm909.74-211.6,1.7-.4,2,8.49-1.7.4Zm-903,227.47a85.76,85.76,0,0,0,4.54,7.33l-1.43,1a83.25,83.25,0,0,1-4.63-7.5Zm907-210.49,1.69-.4,1.77,7.52-2.59.7-.46-1.69,1-.25Zm-8,8.38.45,1.69-8.43,2.25-.45-1.69Zm-16.86,4.5.45,1.69-8.42,2.25-.46-1.69Zm-16.85,4.5.45,1.69-8.43,2.25-.45-1.69Zm-16.86,4.5.45,1.69-8.43,2.25-.45-1.69Zm-16.85,4.5.45,1.69-8.43,2.25-.45-1.69ZM1592,355.69l.45,1.68-8.43,2.25-.45-1.68Zm-16.85,4.5.45,1.68-8.43,2.25-.45-1.68Zm-16.86,4.5.45,1.68-8.43,2.25-.45-1.68Zm-16.85,4.5.45,1.68-8.43,2.25-.45-1.68ZM787.2,549.42a71.64,71.64,0,0,0,6,6.15l-1.17,1.29a72,72,0,0,1-6.18-6.29ZM1019,508.69l.45,1.69-8.43,2.25-.45-1.69Zm-16.86,4.5.45,1.69-8.43,2.25-.44-1.69ZM800,560.94a69.74,69.74,0,0,0,7.34,4.51l-.82,1.54a71.48,71.48,0,0,1-7.52-4.62Zm185.29-43.25.45,1.69-8.43,2.25-.45-1.69Zm-16.86,4.5.45,1.69-8.42,2.25-.46-1.69Zm-16.85,4.5.45,1.69-8.43,2.25-.45-1.69Zm-16.86,4.5.45,1.69-8.43,2.25-.45-1.69Zm-16.85,4.5.45,1.69-8.43,2.25-.45-1.69ZM901,540.19l.45,1.69L893,544.13l-.45-1.68Zm-16.85,4.51.45,1.68-8.43,2.25-.45-1.68Zm-16.86,4.5.45,1.68-8.43,2.25-.45-1.68Zm-16.85,4.5.45,1.68-8.43,2.25L842,556Zm-16.86,4.5.45,1.68-8.43,2.25-.45-1.68Zm-16.85,4.5.45,1.68-8.43,2.25-.45-1.68Z" transform="translate(407.95 290.14)"/>
    </g>
    <g class="f">
      <g>
        <path class="g" d="M641.12,525.74a102.85,102.85,0,1,1,56.21-134.15A103,103,0,0,1,641.12,525.74ZM564.75,339.23a98.69,98.69,0,1,0,128.73,53.93A98.8,98.8,0,0,0,564.75,339.23Z" transform="translate(407.95 290.14)"/>
        <path class="g" d="M632.07,503.63a79,79,0,1,1,43.14-103A79.06,79.06,0,0,1,632.07,503.63ZM573.8,361.34a74.8,74.8,0,1,0,97.57,40.88A74.89,74.89,0,0,0,573.8,361.34Z" transform="translate(407.95 290.14)"/>
        <path class="g" d="M614.37,377.44a2.18,2.18,0,0,0-.44-.42l-.18-.09a1.62,1.62,0,0,0-.35-.17l-.24-.07a2.2,2.2,0,0,0-.37-.07l-.28,0-.26,0h-.15l-.22,0-.49.06-.2,0c-.23,0-.46.1-.7.16l0,0c-.22.06-.45.13-.67.21l-.22.08-.5.19-.23.09-.56.24-.12.06-.64.31-.18.08-.43.23-.19.1-.38.21-.13.07-.42.25-.08.05-.26.16-.1.06-.15.1,0,0-.07,0-12.85,8.93-6.07-2.6.6-1a1.51,1.51,0,0,0-.54-2.05,1.42,1.42,0,0,0-.69-.18l-.08,0-.12,0a1.63,1.63,0,0,0-.48.13l-.18.09a1.56,1.56,0,0,0-.5.49l-.78,1.34-3.31-1.42.43-.74a1.49,1.49,0,0,0-.53-2,1.46,1.46,0,0,0-.69-.19l-.08,0a.93.93,0,0,0-.13,0,1.31,1.31,0,0,0-.47.12l-.18.09a1.38,1.38,0,0,0-.5.49l-.62,1.06-8.24-3.53h0a3.28,3.28,0,0,0-.66-.19l-.22,0c-.11,0-.21,0-.32,0l-.11,0a2.53,2.53,0,0,0-.55.09l-.26.06a2.67,2.67,0,0,0-.74.36,3.06,3.06,0,0,0-.94,1.06,3.1,3.1,0,0,0-.34,1.3,3,3,0,0,0,1.15,2.43l3.18,2.47h0l.36.28,6.5,5.05,1,.76,2.73,2.13,1.67,1.3.22.16-12.78,11.15-5.64-1.87a2.24,2.24,0,0,0-.68-.1l-.08,0-.12,0a3.35,3.35,0,0,0-.44.07l-.18,0a2.51,2.51,0,0,0-.57.28,2.34,2.34,0,0,0-.15,3.73l3.73,2.6L562,413.34a1.1,1.1,0,0,0-.35,1.5l.09.14a1.09,1.09,0,0,0,1.5.35l2.86-1.78,1.37,4.49a2.46,2.46,0,0,0,.32.6.93.93,0,0,0,.13.15,1.94,1.94,0,0,0,.36.34.69.69,0,0,0,.13.11,2.36,2.36,0,0,0,.58.27l.1,0a2.34,2.34,0,0,0,.53.08h.2a3,3,0,0,0,.43-.07l.19-.05a2.42,2.42,0,0,0,.58-.29,2.35,2.35,0,0,0,.92-1.29,3.35,3.35,0,0,0,.08-.54l.11-3,.11-3,14.37-8.75,5.93,18.89h0a3,3,0,0,0,.41.8.9.9,0,0,0,.15.19,2.79,2.79,0,0,0,.46.45,1,1,0,0,0,.17.13,3,3,0,0,0,.74.37l.15,0a3,3,0,0,0,.67.1l.13,0,.13,0a3.38,3.38,0,0,0,.54-.09l.24-.06a2.7,2.7,0,0,0,.74-.37,3,3,0,0,0,1.28-2.58l-.48-9.92,1.44-.13a1.5,1.5,0,0,0,1.36-1.62,1.52,1.52,0,0,0-.17-.56c0-.06-.08-.1-.11-.15a1.61,1.61,0,0,0-.24-.29l-.18-.11a1.24,1.24,0,0,0-.3-.16,1.55,1.55,0,0,0-.23-.05,2.74,2.74,0,0,0-.28-.05H599l-1.33.12-.17-3.57,2.32-.21a1.48,1.48,0,0,0,1.35-1.62,1.34,1.34,0,0,0-.16-.56c0-.05-.08-.09-.11-.15a3.36,3.36,0,0,0-.24-.29l-.19-.11a1,1,0,0,0-.29-.16,2,2,0,0,0-.24,0,2.56,2.56,0,0,0-.27-.05h-.12l-2.2.19-.27-5.69,12.71-8.83S617.18,381,614.37,377.44Z" transform="translate(407.95 290.14)"/>
        <rect class="g" x="534.55" y="429.63" width="136.13" height="4.16" transform="translate(289.3 550.71) rotate(-22.27)"/>
        <rect class="g" x="547.86" y="450.61" width="126.69" height="4.16" transform="translate(281.99 555.53) rotate(-22.27)"/>
        <path class="g" d="M626.55,490.14a60.5,60.5,0,0,1-54-4.23L569,483.77l94.15-38.55-1,4A60.5,60.5,0,0,1,626.55,490.14Zm-48.17-5.73a56,56,0,0,0,78.49-32.14Z" transform="translate(407.95 290.14)"/>
      </g>
    </g>
    <g class="h">
      <path class="g" d="M1249.81,515l-78.76,5.79.16-1.11c.41-2.78,10.22-68.08,34.21-69.85h0c24-1.76,43.25,61.4,44.06,64.09Zm-76.64,3.83,74.25-5.46c-2.67-8.43-20.93-63.28-41.86-61.74S1174.59,510.07,1173.17,518.8Z" transform="translate(407.95 290.14)"/>
      <path class="g" d="M1302.6,511.09l-53.91,4-.14-1.8,51.82-3.81c-2.42-10.35-23.07-95.52-44.31-94-9.75.71-18.27,20.23-24.6,56.45l-1.77-.31c6.58-37.65,15.41-57.15,26.23-57.94,24-1.77,45.54,92.38,46.45,96.39Z" transform="translate(407.95 290.14)"/>
      <path class="g" d="M1205.6,479.48a10.92,10.92,0,0,1-8.54.55c-2.85-1.14-4.68-3.57-6.45-5.93a20.3,20.3,0,0,0-4.28-4.63l-.63-.45.22-.77c5.8-11.71,12.37-17.92,19.5-18.45,6.68-.49,13.61,4,20.58,13.43l.72,1-1.14.41a19.06,19.06,0,0,0-4.64,2.46,54,54,0,0,0-6,5.23c-1.41,1.37-2.88,2.79-4.44,4.08A21.15,21.15,0,0,1,1205.6,479.48Zm-17.73-11.1a24.29,24.29,0,0,1,4.18,4.64c1.69,2.25,3.3,4.38,5.68,5.34h0c4.59,1.84,9.68-1.74,11.65-3.37,1.5-1.23,2.94-2.63,4.33-4a54.4,54.4,0,0,1,6.18-5.41,23.4,23.4,0,0,1,3.95-2.24c-6.33-8.24-12.48-12.2-18.28-11.77C1199.23,452.06,1193.28,457.71,1187.87,468.38Z" transform="translate(407.95 290.14)"/>
      <path class="g" d="M1272.51,448.27a4.69,4.69,0,0,1-3.11.27,6.5,6.5,0,0,1-4-3.69L1265,444a6.18,6.18,0,0,0-1.6-2.43c-1.53-1.16-4-.27-5.29,1.31a15.46,15.46,0,0,0-2.32,4.46c-.26.65-.51,1.29-.8,1.92-1,2.19-2.77,4.92-5.73,5.47-2.48.46-5.23-.8-7.36-3.39a29.42,29.42,0,0,1-2.08-3,25.47,25.47,0,0,0-2.22-3.14h0a11.49,11.49,0,0,0-1.23-1.19l-.45-.38.16-.57c5.57-18.95,12.23-28.85,19.82-29.4s15.42,8,23.58,25.48l.22.47-.3.43c-.61.87-1.19,1.75-1.72,2.64C1276.36,444.93,1274.66,447.33,1272.51,448.27Zm-13.15-8.46a5,5,0,0,1,5.15.35,7.85,7.85,0,0,1,2.14,3.1c.12.26.24.52.37.78a5,5,0,0,0,2.82,2.75c2.54.64,4.71-2.34,6.31-5,.47-.78,1-1.55,1.49-2.32-7.73-16.39-15-24.46-21.58-24s-12.84,10-18.06,27.56a11.17,11.17,0,0,1,1,1h0a26.81,26.81,0,0,1,2.39,3.36,28.44,28.44,0,0,0,2,2.84c.63.77,2.92,3.26,5.62,2.76,2.2-.43,3.62-2.64,4.43-4.43.27-.61.52-1.23.76-1.85a17.27,17.27,0,0,1,2.62-5A7.2,7.2,0,0,1,1259.36,439.81Z" transform="translate(407.95 290.14)"/>
      <rect class="g" x="1166.55" y="514.05" width="142.44" height="1.8" transform="translate(373.51 382.32) rotate(-4.21)"/>
    </g>
    <g class="h">
      <path class="d" d="M704.36,68.08,594,124.34A10.46,10.46,0,0,1,580,119.78L548,57.18a10.46,10.46,0,0,1,4.57-14.06L662.94-13.14A10.48,10.48,0,0,1,677-8.58L708.92,54A10.47,10.47,0,0,1,704.36,68.08Zm-150-21.6a6.7,6.7,0,0,0-2.92,9l31.92,62.59a6.69,6.69,0,0,0,9,2.92L702.64,64.72a6.7,6.7,0,0,0,2.92-9L673.64-6.86a6.69,6.69,0,0,0-9-2.92Z" transform="translate(407.95 290.14)"/>
      <g>
        <path class="d" d="M624.56,8.59,594.88,23.72a1.89,1.89,0,0,1-1.61.05,1.93,1.93,0,0,1-1.06-1.21l-2-7a7.73,7.73,0,0,1,3.92-9l17-8.68A7.72,7.72,0,0,1,620.71,0l4.48,5.71a1.89,1.89,0,0,1,.36,1.57A1.92,1.92,0,0,1,624.56,8.59ZM595.21,19.32l25.6-13-3.07-3.92a4,4,0,0,0-4.88-1.08l-17,8.68a3.94,3.94,0,0,0-2,4.59Z" transform="translate(407.95 290.14)"/>
        <path class="d" d="M632.87,6.43,588.26,29.18a1.93,1.93,0,0,1-1.61.05A1.88,1.88,0,0,1,585.59,28L582.21,16.2a13.88,13.88,0,0,1,7-16.14l19.5-9.94a13.87,13.87,0,0,1,17.19,3.8l7.58,9.67a1.84,1.84,0,0,1,.35,1.57A1.86,1.86,0,0,1,632.87,6.43ZM588.59,24.78,629.11,4.11,623-3.76a10.11,10.11,0,0,0-12.51-2.76L591,3.42a10.1,10.1,0,0,0-5.11,11.75Z" transform="translate(407.95 290.14)"/>
      </g>
      <path class="d" d="M588.1,72.07l-8.6,4.39a1.89,1.89,0,0,1-2.54-.82l-17.32-34a1.88,1.88,0,0,1,.82-2.54l8.6-4.39a1.89,1.89,0,0,1,2.54.83l17.33,34A1.88,1.88,0,0,1,588.1,72.07Zm-8.63.17,5.24-2.67L569.1,39l-5.25,2.67Z" transform="translate(407.95 290.14)"/>
      <path class="d" d="M596.17,81.51l-13.77,7a1.88,1.88,0,0,1-2.53-.82L574.38,77a1.88,1.88,0,0,1,.83-2.53l13.76-7a1.88,1.88,0,0,1,2.54.82L597,79A1.89,1.89,0,0,1,596.17,81.51Zm-13.8,2.8,10.4-5.3L589,71.62l-10.4,5.3Z" transform="translate(407.95 290.14)"/>
      <path class="d" d="M670.52,30.05l-8.6,4.38a1.87,1.87,0,0,1-2.53-.82l-17.33-34a1.88,1.88,0,0,1,.82-2.54l8.6-4.39a1.89,1.89,0,0,1,2.54.83l17.33,34A1.89,1.89,0,0,1,670.52,30.05Zm-8.63.17,5.24-2.68L651.52-3.08,646.28-.4Z" transform="translate(407.95 290.14)"/>
      <path class="d" d="M678.59,39.48l-13.77,7a1.87,1.87,0,0,1-2.53-.82L656.8,34.93a1.89,1.89,0,0,1,.83-2.54l13.76-7a1.9,1.9,0,0,1,2.54.82L679.41,37A1.87,1.87,0,0,1,678.59,39.48Zm-13.8,2.81L675.2,37l-3.77-7.39L661,34.89Z" transform="translate(407.95 290.14)"/>
      <path class="d" d="M611.68,131.29a8.54,8.54,0,1,1,3.72-11.48A8.55,8.55,0,0,1,611.68,131.29Zm-6-11.85a4.77,4.77,0,1,0,6.41,2.08A4.77,4.77,0,0,0,605.63,119.44Z" transform="translate(407.95 290.14)"/>
      <path class="d" d="M696,88.29a8.54,8.54,0,1,1,3.73-11.48A8.55,8.55,0,0,1,696,88.29Zm-6-11.85a4.77,4.77,0,1,0,6.41,2.08A4.77,4.77,0,0,0,690,76.44Z" transform="translate(407.95 290.14)"/>
      <path class="d" d="M640.84,22.24,591.46,47.41a1.89,1.89,0,1,1-1.71-3.36l49.38-25.18a1.89,1.89,0,0,1,1.71,3.37Z" transform="translate(407.95 290.14)"/>
      <path class="d" d="M648.69,37.64,599.31,62.82a1.89,1.89,0,0,1-1.71-3.37L647,34.28a1.89,1.89,0,1,1,1.71,3.36Z" transform="translate(407.95 290.14)"/>
      <path class="c" d="M623.43,89.13a12.43,12.43,0,1,1,5.43-16.72A12.44,12.44,0,0,1,623.43,89.13Zm-9.58-18.79a8.66,8.66,0,1,0,11.65,3.78A8.67,8.67,0,0,0,613.85,70.34Z" transform="translate(407.95 290.14)"/>
      <path class="i" d="M667.72,72.55a1.79,1.79,0,0,1-1,.2l-26.29-2.57a1.89,1.89,0,0,1-1.27-.68,1.87,1.87,0,0,1-.42-1.38l1.41-14.4A1.88,1.88,0,0,1,642.17,52l26.29,2.57a1.89,1.89,0,0,1,1.69,2.06l-1.41,14.4a1.89,1.89,0,0,1-.68,1.27A1.52,1.52,0,0,1,667.72,72.55Zm-25.08-5.94,22.53,2.2,1-10.64L643.68,56Z" transform="translate(407.95 290.14)"/>
    </g>
    <g class="h">
      <g>
        <path class="i" d="M503.92,284.34H459.1a1.71,1.71,0,0,1-1.49-.86,1.73,1.73,0,0,1,0-1.72l12.13-20.24a1.73,1.73,0,0,1,1.47-.83h20.56a1.71,1.71,0,0,1,1.46.83l12.14,20.24a1.7,1.7,0,0,1-1.47,2.58Zm-41.81-3.41h38.8L490.82,264.1H472.19Z" transform="translate(407.95 290.14)"/>
        <path class="i" d="M497,263.49H466a1.72,1.72,0,0,1-1.49-.86,1.69,1.69,0,0,1,0-1.71L480,234.56a1.78,1.78,0,0,1,2.94,0l15.51,26.36a1.69,1.69,0,0,1,0,1.71A1.71,1.71,0,0,1,497,263.49Zm-28-3.41H494l-12.53-21.29Z" transform="translate(407.95 290.14)"/>
        <rect class="g" x="886.04" y="574.05" width="6.07" height="27.45"/>
      </g>
      <g>
        <path class="i" d="M950.27,438.8h-54.1a2.05,2.05,0,0,1-1.77-3.12L909,411.25a2.08,2.08,0,0,1,1.77-1h24.82a2.08,2.08,0,0,1,1.77,1L952,435.68a2.05,2.05,0,0,1-1.77,3.12Zm-50.47-4.12h46.84l-12.18-20.31H912Z" transform="translate(407.95 290.14)"/>
        <path class="i" d="M941.94,413.63H904.5a2.06,2.06,0,0,1-1.78-3.1l18.73-31.82a2.14,2.14,0,0,1,3.55,0l18.72,31.82a2.06,2.06,0,0,1-1.78,3.1Zm-33.84-4.11h30.24l-15.12-25.7Z" transform="translate(407.95 290.14)"/>
        <rect class="g" x="1327.05" y="728.43" width="7.32" height="33.14"/>
      </g>
      <g>
        <path class="i" d="M980,429.5h-23.5a.89.89,0,0,1-.78-.46.93.93,0,0,1,0-.9l6.36-10.6a.92.92,0,0,1,.77-.44h10.78a.92.92,0,0,1,.77.44l6.36,10.6a.9.9,0,0,1,0,.9A.89.89,0,0,1,980,429.5Zm-21.92-1.79h20.34l-5.29-8.82h-9.76Z" transform="translate(407.95 290.14)"/>
        <path class="i" d="M976.37,418.57H960.11a.89.89,0,0,1-.77-1.35l8.13-13.82a.93.93,0,0,1,1.54,0l8.13,13.82a.89.89,0,0,1-.77,1.35Zm-14.7-1.79h13.14l-6.57-11.16Z" transform="translate(407.95 290.14)"/>
        <rect class="g" x="1374.4" y="719.42" width="3.18" height="14.39"/>
      </g>
      <g>
        <path class="i" d="M550.07,255.84H524.58a1,1,0,0,1-.84-.49,1,1,0,0,1,0-1l6.9-11.51a1,1,0,0,1,.83-.47h11.69a1,1,0,0,1,.83.47l6.9,11.51a1,1,0,0,1-.83,1.46ZM526.3,253.9h22.06l-5.74-9.56H532Z" transform="translate(407.95 290.14)"/>
        <path class="i" d="M546.15,244H528.51a1,1,0,0,1-.84-1.46l8.82-15a1,1,0,0,1,1.67,0l8.82,15a1,1,0,0,1,0,1A1,1,0,0,1,546.15,244Zm-15.95-1.94h14.25L537.33,230Z" transform="translate(407.95 290.14)"/>
        <rect class="g" x="943.34" y="545.74" width="3.45" height="15.61"/>
      </g>
      <g>
        <path class="i" d="M510.88,223H496.59a.55.55,0,0,1-.48-.27.57.57,0,0,1,0-.55l3.87-6.45a.54.54,0,0,1,.46-.26H507a.53.53,0,0,1,.46.26l3.87,6.45a.57.57,0,0,1,0,.55A.55.55,0,0,1,510.88,223Zm-13.33-1.08h12.37l-3.22-5.37h-5.94Z" transform="translate(407.95 290.14)"/>
        <path class="i" d="M508.68,216.36h-9.89a.55.55,0,0,1-.47-.82l4.94-8.4a.57.57,0,0,1,.94,0l4.94,8.4a.54.54,0,0,1-.46.82Zm-8.94-1.09h8l-4-6.78Z" transform="translate(407.95 290.14)"/>
        <rect class="g" x="910.59" y="513.01" width="1.93" height="8.75"/>
      </g>
    </g>
    <g class="j">
      <path class="g" d="M906.69,232.4a5.08,5.08,0,0,1-.75-.64l-.27-.29a4.64,4.64,0,0,1,.16-6.54l3.57-3.39-7.18-3.09a7.6,7.6,0,0,1-2.11-12,7.24,7.24,0,0,1,1.62-1.27c.16-.1.32-.17.48-.25a7.61,7.61,0,0,1,1.31-.51,2.34,2.34,0,0,1,.49-.16l.4-.05a7.19,7.19,0,0,1,2.1-.07l13,1.53,22.38-29.38-40.27-19.87A9.13,9.13,0,0,1,899,141.89a8.86,8.86,0,0,1,2-1.57,5.55,5.55,0,0,1,.6-.29,11.45,11.45,0,0,1,1.59-.61,2.13,2.13,0,0,1,.45-.15,6.17,6.17,0,0,1,.82-.11l.39,2-.1-2a5.35,5.35,0,0,1,.55,0,8.84,8.84,0,0,1,2,.14l.25.06,19.11,3.92.37-1.1a5.49,5.49,0,0,1,1.45-2.2,5.08,5.08,0,0,1,.51-.41,5.71,5.71,0,0,1,1.51-.81,2.19,2.19,0,0,1,.67-.25,1.68,1.68,0,0,1,.51,0,5.24,5.24,0,0,1,2.45.21,5.61,5.61,0,0,1,3.58,6.87l4.44.91.62-1.83a5.49,5.49,0,0,1,1.45-2.2,4.06,4.06,0,0,1,.51-.42,6.09,6.09,0,0,1,1.5-.8,2.36,2.36,0,0,1,.68-.26,2.71,2.71,0,0,1,.51,0,5.25,5.25,0,0,1,2.45.21,5.61,5.61,0,0,1,3.51,7.1l-.17.51,12.11,2.49,25-26.28.18-.18.4-.39.2-.19.46-.43L993.2,125l-1.38-1.48,1-.91.2-.17.89-.76.32-.27,1-.83.38-.3c.46-.36.93-.72,1.41-1.07l.18-.13,1.33-.94.53-.35c.36-.24.74-.48,1.12-.71l.52-.31q.78-.47,1.56-.87c.7-.36,1.27-.62,1.84-.85l.36-.14c.57-.22,1-.36,1.41-.48l.58-.16.38-.11a5.49,5.49,0,0,1,.6-.09l.46,2-.24-2c.25,0,.5-.08.75-.1a8.83,8.83,0,0,1,1.15,0,5.88,5.88,0,0,1,2,.36,3.31,3.31,0,0,1,.65.21,7.11,7.11,0,0,1,1.73,1.06h0a9.08,9.08,0,0,1,3.24,6.5c.61,8.58-8.94,19.45-9.35,19.9l-24.8,26,2.59,10.08,3-.91.4-.1a3.73,3.73,0,0,1,1-.07,4.56,4.56,0,0,1,1,0,5,5,0,0,1,1.12.31,4.85,4.85,0,0,1,.86.35,4.73,4.73,0,0,1,1,.8,3.81,3.81,0,0,1,.58.54,5.48,5.48,0,0,1,1,1.92,5.61,5.61,0,0,1-3.76,7l-3.47,1,1.12,4.36,1-.31.43-.11a3.36,3.36,0,0,1,1-.06,4.57,4.57,0,0,1,1,0,4.42,4.42,0,0,1,1.11.31,4.37,4.37,0,0,1,.87.34,5,5,0,0,1,1,.78,4,4,0,0,1,.62.58,5.59,5.59,0,0,1-2.75,8.87l-1.46.44,5.42,21.12a9.07,9.07,0,0,1-4.23,10.13c-.18.1-.37.19-.55.27a10.91,10.91,0,0,1-1.61.63,2.8,2.8,0,0,1-.49.16,3.56,3.56,0,0,1-.52.06,9.33,9.33,0,0,1-2,.09,2.48,2.48,0,0,1-.47,0,9,9,0,0,1-2.45-.63l-.48-.23a9.16,9.16,0,0,1-1.79-1.14,6,6,0,0,1-.56-.48A8.92,8.92,0,0,1,981,232l-21.73-39.15-26.77,24.91,2.17,13a7.38,7.38,0,0,1,.09,1.76,7.58,7.58,0,0,1-2.09,4.74,7.31,7.31,0,0,1-1.66,1.3,3.45,3.45,0,0,1-.47.24,7.36,7.36,0,0,1-1.29.5,2.13,2.13,0,0,1-.45.15l-.44,0a7.35,7.35,0,0,1-1.62.09h-.36a8,8,0,0,1-2-.5,3.36,3.36,0,0,1-.44-.2,7.69,7.69,0,0,1-1.45-.89c-.2-.16-.34-.27-.47-.39a7.77,7.77,0,0,1-1.43-1.73l-4.14-7.59-3.93,3.73a4.53,4.53,0,0,1-3.3,1.26A4.65,4.65,0,0,1,906.69,232.4Zm7.46-13.17a2,2,0,0,1,.25,3.13l-5.78,5.5a.59.59,0,0,0,0,.82l.28.3a.57.57,0,0,0,.41.17.55.55,0,0,0,.42-.15l5.83-5.54a2,2,0,0,1,1.7-.54,2,2,0,0,1,1.46,1l5.38,9.85a3.81,3.81,0,0,0,.65.75l.15.11a3.37,3.37,0,0,0,.71.46l.18.09a3.44,3.44,0,0,0,1,.27s.07,0,.17,0a3.26,3.26,0,0,0,.82-.05l.13,0,.17-.05a2.82,2.82,0,0,0,.61-.23l1.2,1.67-.93-1.8a3.38,3.38,0,0,0,1.75-2.81,3.28,3.28,0,0,0,0-.83l-2.35-14a2,2,0,0,1,.62-1.82l29.45-27.4a2,2,0,0,1,1.7-.52,2,2,0,0,1,1.45,1l23,41.41a4.91,4.91,0,0,0,1,1.19,2.54,2.54,0,0,0,.24.2,5.09,5.09,0,0,0,1,.66l.24.12a4.91,4.91,0,0,0,1.44.4h.25a5.29,5.29,0,0,0,1.19-.07l.21,0,.21-.07a5.37,5.37,0,0,0,.87-.33l.24-.11a5.14,5.14,0,0,0,1.27-.93,5,5,0,0,0,1.24-4.77l-5.9-23a2,2,0,0,1,1.38-2.43l3.32-1a1.53,1.53,0,0,0,.92-.75,1.55,1.55,0,0,0,.13-1.19,1.59,1.59,0,0,0-.22-.43l-.25-.21A2.74,2.74,0,0,0,993,197s-.11,0-.22-.05l-.34-.13-.23,0h-.35l-3.1.92a2,2,0,0,1-1.57-.17,2,2,0,0,1-1-1.26l-2.13-8.28a2,2,0,0,1,1.38-2.44l5.33-1.59a1.58,1.58,0,0,0,1-1.94,1.72,1.72,0,0,0-.21-.43l-.23-.19c-.15-.14-.22-.22-.31-.29s-.11,0-.21,0l-.36-.13-.22,0c-.11,0-.23,0-.35,0l-5.11,1.52a2,2,0,0,1-1.57-.18,1.92,1.92,0,0,1-1-1.26l-3.39-13.2a2,2,0,0,1,.5-1.89l25.52-26.79c2.41-2.72,8.7-11.17,8.29-16.89a5.07,5.07,0,0,0-1.82-3.69h0a2.81,2.81,0,0,0-.73-.45l-.28-.06a3.58,3.58,0,0,0-.56-.16h-.42a4.68,4.68,0,0,0-.65,0l-.42.06-.63.09-.24.07-.41.11c-.33.1-.66.21-1,.34l-.39.14c-.48.2-.95.41-1.42.65s-1,.55-1.46.81l-.3.18c-.5.31-.84.52-1.18.75l-.47.31c-.39.27-.77.53-1.14.8l-1.45-1.45,1.2,1.63c-.45.33-.89.67-1.31,1l-.19.15-.16.13-.87.7-1.4,1.2-.86.77-1.53-1.34,1.38,1.48L994,127l-1.59-1.29,1.4,1.47-.29.28-1.62-1.25,1.46,1.4-25.81,27.09a2,2,0,0,1-1.87.58l-15.45-3.17a2,2,0,0,1-1.35-1,2.07,2.07,0,0,1-.16-1.65l.91-2.68a1.55,1.55,0,0,0-1-2,1.48,1.48,0,0,0-.72,0h0l-.14,0a1.44,1.44,0,0,0-.48.24l-1.44-1.45,1.23,1.6a1.49,1.49,0,0,0-.38.54l-1.19,3.52a2,2,0,0,1-2.32,1.34L934.72,149a2,2,0,0,1-1.35-1,2.07,2.07,0,0,1-.16-1.65l.66-1.94a1.57,1.57,0,0,0-1-2,1.48,1.48,0,0,0-.74,0h0a.58.58,0,0,1-.15.06,1.65,1.65,0,0,0-.46.23l-1.44-1.45,1.23,1.6a1.43,1.43,0,0,0-.38.55l-.94,2.78a2,2,0,0,1-2.32,1.34l-20.93-4.3-.09,0a4.78,4.78,0,0,0-1.17-.08l-.38,0-.3,0h-.13l-.28.09a5,5,0,0,0-.89.34l-.3.13a5.17,5.17,0,0,0-1.24.91,5.05,5.05,0,0,0-1.21,2.1,5.26,5.26,0,0,0-.12,2.3,5,5,0,0,0,2.76,3.67l42.47,20.95a2,2,0,0,1,1.07,1.35,2,2,0,0,1-.36,1.69L922,209a2,2,0,0,1-1.85.78L906,208.1a4,4,0,0,0-1,.06l-.13,0-.17.06a2.9,2.9,0,0,0-.62.23l-.28.13a3.68,3.68,0,0,0-.75.58,3.58,3.58,0,0,0,.92,5.63l9.85,4.23A1.63,1.63,0,0,1,914.15,219.23Zm14.3,20.17h0Zm-23.31-31.33Zm85.36,28.42h0Zm-57.9-94.32Zm15.73,2.45Z" transform="translate(407.95 290.14)"/>
    </g>
    <path class="d" d="M1299.11,270.17a.91.91,0,0,1-.22.11l-.09,0a1.12,1.12,0,0,1-1.43-.69l-.39-1.12-1.39,1.27a1.83,1.83,0,0,1-1.64.35,1.79,1.79,0,0,1-1.23-1.09,1.69,1.69,0,0,1-.12-.48.57.57,0,0,1,0-.13,1.78,1.78,0,0,1,0-.34.57.57,0,0,1,0-.12l0-.1a1.67,1.67,0,0,1,.2-.47l1.63-2.7-4.25-7.87-8.39,6.9a2.21,2.21,0,0,1-2.84,0,2.15,2.15,0,0,1-.61-.85,2,2,0,0,1-.15-.6v-.16a2.56,2.56,0,0,1,0-.42.54.54,0,0,1,0-.11l.06-.19.48.11-.46-.18a1.12,1.12,0,0,1,.05-.13,2,2,0,0,1,.23-.43l0-.05,2.77-3.82-.21-.19a1.35,1.35,0,0,1-.34-.54.83.83,0,0,1,0-.15,1.51,1.51,0,0,1,0-.42,1.16,1.16,0,0,1,0-.17l0-.12a1.42,1.42,0,0,1,.3-.52,1.37,1.37,0,0,1,1.87-.1l.64-.89-.34-.32a1.35,1.35,0,0,1-.34-.54.83.83,0,0,1,0-.15,1.47,1.47,0,0,1,0-.41.59.59,0,0,1,0-.18.76.76,0,0,1,0-.11,1.26,1.26,0,0,1,.29-.52,1.32,1.32,0,0,1,1-.43,1.39,1.39,0,0,1,1,.36l.09.09,1.76-2.42-3.3-8.14,0-.06,0-.13,0-.06-.05-.14.45-.21-.47.16c0-.12-.06-.21-.09-.32l0-.06c0-.1-.06-.18-.08-.27l0-.1c0-.11-.06-.21-.08-.3l0-.12c0-.13-.07-.27-.1-.42v-.05c0-.14-.05-.26-.07-.38l0-.16c0-.1,0-.21,0-.31l0-.15c0-.14,0-.29,0-.43s0-.34,0-.49v-.09c0-.15,0-.26,0-.36a.78.78,0,0,0,0-.14l0-.1a.47.47,0,0,1,0-.14l.48.09-.47-.14.06-.18a1.89,1.89,0,0,1,.11-.25,1.22,1.22,0,0,1,.09-.17,2.35,2.35,0,0,1,.19-.25l.11-.12a1.82,1.82,0,0,1,.41-.27h0a2.2,2.2,0,0,1,1.76-.07c2,.72,3.39,3.91,3.45,4l3.27,8.07,2.48.43.1-.76s0-.07,0-.1a.87.87,0,0,1,.08-.22,2.35,2.35,0,0,1,.1-.22,1.37,1.37,0,0,1,.18-.21c.06-.06.1-.11.16-.16a2,2,0,0,1,.28-.15,1.13,1.13,0,0,1,.18-.07,1.18,1.18,0,0,1,.53,0,1.31,1.31,0,0,1,.89.52,1.33,1.33,0,0,1,.27,1l-.12.87,1.07.19,0-.26a.43.43,0,0,1,0-.11.93.93,0,0,1,.08-.21.88.88,0,0,1,.1-.22,1.37,1.37,0,0,1,.18-.21,1.21,1.21,0,0,1,.16-.16,1.41,1.41,0,0,1,.27-.14.68.68,0,0,1,.19-.08,1.15,1.15,0,0,1,.52,0,1.31,1.31,0,0,1,.9.52,1.33,1.33,0,0,1,.26,1l0,.36,5.2.92a2.15,2.15,0,0,1,1.81,1.94.76.76,0,0,1,0,.15,2.37,2.37,0,0,1,0,.41.66.66,0,0,1,0,.13.34.34,0,0,1,0,.12,2.35,2.35,0,0,1-.17.44l0,.1a2,2,0,0,1-.38.48l-.1.08a2.41,2.41,0,0,1-.43.28l-.16.08a2.37,2.37,0,0,1-.65.16l-10.8.89,2.83,8.38,3.07.82a1.93,1.93,0,0,1,.4.15,1.88,1.88,0,0,1,.83.93,1.41,1.41,0,0,1,.12.5.53.53,0,0,1,0,.13,1.67,1.67,0,0,1,0,.33.57.57,0,0,1,0,.12s0,.07,0,.1a1.44,1.44,0,0,1-.15.36.16.16,0,0,1,0,.08,1.9,1.9,0,0,1-.31.39l-.09.08a1.85,1.85,0,0,1-.34.23l-.13.06a2,2,0,0,1-.52.15l-2.09.15.43,1.24a1.12,1.12,0,0,1,0,.86A1.17,1.17,0,0,1,1299.11,270.17Zm-2.17-2.95a.51.51,0,0,1,.38-.06.48.48,0,0,1,.34.32l.64,1.82a.11.11,0,0,0,.07.08.18.18,0,0,0,.11,0l.09,0a.11.11,0,0,0,.08-.07.18.18,0,0,0,0-.11l-.65-1.83a.5.5,0,0,1,.43-.65l2.71-.21a.92.92,0,0,0,.22-.06l.05,0,.17-.11,0,0a.77.77,0,0,0,.15-.19l0,0a1.34,1.34,0,0,0,.07-.18v-.08a.76.76,0,0,0,0-.15l.49-.1-.49,0a.78.78,0,0,0-.05-.23.91.91,0,0,0-.39-.43.77.77,0,0,0-.19-.08l-3.33-.88a.49.49,0,0,1-.33-.31l-3.11-9.23a.48.48,0,0,1,0-.42.49.49,0,0,1,.37-.22l11.42-.94a1.16,1.16,0,0,0,.36-.1l.07,0a1.11,1.11,0,0,0,.24-.16l0,0a1,1,0,0,0,.24-.28.11.11,0,0,1,0-.05,1.25,1.25,0,0,0,.1-.27s0,0,0-.05a.09.09,0,0,1,0-.05,1.77,1.77,0,0,0,0-.23v-.06a1.38,1.38,0,0,0-.08-.37,1.21,1.21,0,0,0-.93-.75l-5.66-1a.5.5,0,0,1-.4-.55l.11-.83a.35.35,0,0,0-.07-.28.41.41,0,0,0-.25-.15h-.12l-.07,0-.08,0,0,0s-.06.05-.07.07v0l0,.08-.1.77a.5.5,0,0,1-.2.33.49.49,0,0,1-.37.09l-2-.36a.49.49,0,0,1-.4-.55l.18-1.33a.36.36,0,0,0-.08-.28.35.35,0,0,0-.24-.14.24.24,0,0,0-.12,0l-.07,0-.09,0s0,0,0,0l-.06.07,0,0,0,.08-.18,1.27a.48.48,0,0,1-.19.33.52.52,0,0,1-.38.09l-3.24-.57a.48.48,0,0,1-.37-.3l-3.37-8.29c-.36-.8-1.59-3-2.89-3.51a1.24,1.24,0,0,0-1,0h0a.88.88,0,0,0-.17.12s0,0,0,.05a.87.87,0,0,0-.09.11l-.05.09-.06.14,0,.1,0,.15v.06l0,.1a2.11,2.11,0,0,0,0,.25v.48c0,.16,0,.28,0,.4v.09c0,.14,0,.24,0,.33l0,.14c0,.11,0,.22.07.33l-.47.17.48-.1.09.39v.06l0,0a2.68,2.68,0,0,0,.07.27l.12.42c0,.1.06.19.08.27l-.44.2.46-.15,0,.16-.44.22.47-.16,0,.09-.44.24.46-.19,3.4,8.39a.49.49,0,0,1-.06.47l-2.24,3.09a.46.46,0,0,1-.35.2.45.45,0,0,1-.38-.13l-.5-.46a.34.34,0,0,0-.27-.1.36.36,0,0,0-.26.11.56.56,0,0,0-.08.16h0v0a.28.28,0,0,0,0,.13l-.46.17.47-.11a.34.34,0,0,0,.09.14l.65.61a.49.49,0,0,1,.07.64l-1.23,1.69a.49.49,0,0,1-.34.2.52.52,0,0,1-.39-.13l-.36-.34a.43.43,0,0,0-.27-.1.42.42,0,0,0-.26.12.36.36,0,0,0-.08.16h0v0a.24.24,0,0,0,0,.12l-.46.18.48-.11a.24.24,0,0,0,.08.13l.52.49a.48.48,0,0,1,.06.64l-3,4.19,0,0a1.17,1.17,0,0,0-.13.25l0,.08,0,.07v0s0,0,0,.07a1,1,0,0,0,0,.24v.07a1.47,1.47,0,0,0,.08.37,1.17,1.17,0,0,0,.34.47,1.41,1.41,0,0,0,.5.26,1.2,1.2,0,0,0,1.08-.24l8.85-7.28a.5.5,0,0,1,.75.15l4.66,8.63a.48.48,0,0,1,0,.48l-1.78,2.95a1.23,1.23,0,0,0-.09.24v.07a.81.81,0,0,0,0,.16v.07a1.14,1.14,0,0,0,0,.23.89.89,0,0,0,.58.51.85.85,0,0,0,.75-.16l1.92-1.75Zm5.88-1.14Zm-9.23,2Zm14.77-16Zm-26.57,3.36Zm2.11-3.22Z" transform="translate(407.95 290.14)"/>
  </g>
</svg>
