<svg xmlns="http://www.w3.org/2000/svg" viewBox="0 0 238.94 304.07">
  <defs>
    <style>
      .a {
        fill: #eba200;
      }

      .b {
        fill: #3b4aec;
      }

      .c {
        fill: #5f66f8;
      }

      .d {
        fill: #2c42af;
      }

      .e {
        fill: #fff;
      }

      .f {
        fill: #222930;
      }
    </style>
  </defs>
  <g>
    <path class="a" d="M175.3,141.92,238.94,84h0a87.18,87.18,0,0,0-122.51-6.38Z"/>
    <path class="a" d="M195.85,122.84l8.45,32.84h0a34.39,34.39,0,0,0,25.07-41.39Z"/>
    <path class="b" d="M106.21,277.12,79,276.53l3.39-163.75,15.79,23.73c15.83.4,43.12-65.29,56.43-58.77a104.92,104.92,0,0,1,58.85,96.54h0a104.92,104.92,0,0,1-107,102.84h-.27Z"/>
    <path class="c" d="M162.21,81.84a79.37,79.37,0,0,0-84.95,134.1q1.5.93,3,1.8l-.8,58.77,27.17.58A105,105,0,0,0,213.91,174.54v-.29h0A104.9,104.9,0,0,0,162.21,81.84Z"/>
    <path class="d" d="M87.47,151.47h0L57,197.44a80,80,0,0,0,23.21,20.22l-.8,58.77a72.56,72.56,0,0,0,28.9-25.14h0A72.17,72.17,0,0,0,87.47,151.47Z"/>
    <path class="c" d="M.53,257,80,136.67h0a72.09,72.09,0,0,1,20.43,99.88h0A72.07,72.07,0,0,1,.57,257Z"/>
    <path class="c" d="M84,66.77,15.39,17.63h0A42.23,42.23,0,0,1,74.3,7.9h0A42.22,42.22,0,0,1,84,66.77Z"/>
    <path class="c" d="M83.93,66.7.52,79.84h0A42.23,42.23,0,0,1,35.64,31.55h0A42.23,42.23,0,0,1,83.93,66.67h0Z"/>
    <circle class="e" cx="150.04" cy="122.48" r="22.76" transform="translate(17.23 263.47) rotate(-85.93)"/>
    <circle class="f" cx="156.33" cy="116.67" r="12.35"/>
    <polygon class="c" points="133.12 249.08 143.21 248.9 144.05 303.89 133.96 304.07 133.12 249.08"/>
    <polygon class="c" points="157.09 248.64 167.18 248.46 168.02 303.45 157.93 303.63 157.09 248.64"/>
  </g>
</svg>
