<svg xmlns="http://www.w3.org/2000/svg" xmlns:xlink="http://www.w3.org/1999/xlink" viewBox="0 0 1113.3 736.6"><defs><style>.cls-1{isolation:isolate;}.cls-15,.cls-2{fill:#14181c;}.cls-14,.cls-2{opacity:0.43;}.cls-3{fill:#5f66f8;}.cls-4{fill:#fff;}.cls-5,.cls-9{fill:#d4d4de;}.cls-11,.cls-5,.cls-8{mix-blend-mode:multiply;}.cls-6{fill:#00ffb6;}.cls-7{fill:#c6c6d4;opacity:0.75;mix-blend-mode:screen;}.cls-10{fill:#0085ff;}.cls-11,.cls-12{fill:#182a20;}.cls-11{opacity:0.41;}.cls-12{mix-blend-mode:color-dodge;}.cls-13{fill:#1a2128;}.cls-16{fill:#253057;}.cls-17{fill:#1c273f;}.cls-18{fill:#f7f4f5;}.cls-19{fill:#a1a6a6;}.cls-20{fill:#f3c377;}.cls-21{fill:#33488c;}.cls-22{fill:#0d0e1b;}.cls-23{fill:#fff7e4;}.cls-24{fill:#222931;}.cls-25{fill:#141a1e;}.cls-26{fill:#13181c;}.cls-27{fill:none;stroke:#1c273f;stroke-miterlimit:10;stroke-width:3px;}.cls-28{fill:url(#_ÂÁ_Ï_ÌÌ_È_ËÂÌÚ_2);}.cls-29{fill:#7ec7fc;}.cls-30{fill:#92d6ff;}.cls-31{fill:url(#_ÂÁ_Ï_ÌÌ_È_ËÂÌÚ_2-2);}.cls-32{fill:url(#_ÂÁ_Ï_ÌÌ_È_ËÂÌÚ_2-3);}</style><linearGradient id="_ÂÁ_Ï_ÌÌ_È_ËÂÌÚ_2" x1="300.26" y1="507.15" x2="339.17" y2="554.89" gradientUnits="userSpaceOnUse"><stop offset="0" stop-color="#7b9596"/><stop offset="0.19" stop-color="#809a98"/><stop offset="0.43" stop-color="#90a99e"/><stop offset="0.7" stop-color="#aac1a7"/><stop offset="0.99" stop-color="#cee3b4"/><stop offset="1" stop-color="#cfe4b4"/></linearGradient><linearGradient id="_ÂÁ_Ï_ÌÌ_È_ËÂÌÚ_2-2" x1="208.08" y1="507.15" x2="246.99" y2="554.89" xlink:href="#_ÂÁ_Ï_ÌÌ_È_ËÂÌÚ_2"/><linearGradient id="_ÂÁ_Ï_ÌÌ_È_ËÂÌÚ_2-3" x1="106.55" y1="507.15" x2="145.46" y2="554.89" xlink:href="#_ÂÁ_Ï_ÌÌ_È_ËÂÌÚ_2"/></defs><title>Asset 1</title><g class="cls-1"><g id="Layer_2" data-name="Layer 2"><g id="Layer_1-2" data-name="Layer 1"><path class="cls-2" d="M519.72,621.56c0-6.45-27.9-11.67-62.31-11.67-24.38,0-45.48,2.62-55.72,6.44-39.87-2.65-87.44-4.19-138.54-4.19-140.66,0-254.68,11.68-254.68,26.09s114,26.1,254.68,26.1,254.69-11.68,254.69-26.1c0-3.07-5.19-6-14.7-8.75C513.43,627.4,519.72,624.62,519.72,621.56Z"/><rect class="cls-3" x="121.83" y="9.58" width="937.78" height="593.82"/><path class="cls-4" d="M523.32,223.12s97.52,28.2,103.39,30-33.77,17.62-63.44,15.28-97.81-19.68-97.81-19.68Z"/><path class="cls-5" d="M563.27,268.36c-29.67-2.35-97.81-19.68-97.81-19.68l57.86-25.56L538,227.37c-16.18,6.22-35.54,15.65-31.92,24.68,3.72,9.32,46.48,11.7,64.19,13.88s51.08-7.37,56.44-12.85C632.59,254.84,592.94,270.7,563.27,268.36Z"/><path class="cls-6" d="M234.87,264.83l53.46-18.32-11.17-8.43c-19.33-14.56-52.75-34.4-61.56-38.17-1.87-.8-3.56-1.52-5.09-2.15-5.64-2.35-9.11-3.5-11.86-3.16C195.15,195,234.87,264.83,234.87,264.83Z"/><path class="cls-5" d="M234.87,264.83l53.46-18.32-11.17-8.43c-1.88,10.09-24.24,18.79-44.65,6.73-17.53-10.36-25.75-37-22-47.05-5.64-2.35-9.11-3.5-11.86-3.16C195.15,195,234.87,264.83,234.87,264.83Z"/><path class="cls-4" d="M205.21,297.73l.19.06c2.83,1,9.43,2.08,18.67,2.92a383.87,383.87,0,0,0,72.73-.89,313.51,313.51,0,0,0,36-5.91c13.51-3.07,225.2-75.33,277.48-96.73l1.2-.49c50.13-20.76,58.75-47,52.87-57a5.39,5.39,0,0,0-.63-.86l-.14-.16c0-.05-.1-.11-.16-.16a9.73,9.73,0,0,0-.73-.68l-.21-.17-.12-.09a15.74,15.74,0,0,0-1.73-1.18l-.1-.06a5.39,5.39,0,0,0-.52-.3c-.32-.19-.65-.37-1-.54l-.28-.15-.22-.11c-.48-.24-1-.48-1.5-.71l-.33-.14c-.9-.4-1.86-.79-2.88-1.18l-1.16-.43c-.53-.19-1.07-.38-1.62-.56-2.72-.92-5.75-1.79-9-2.61a204.87,204.87,0,0,0-34.43-5.37c-10.8-.75-20.74-.45-27.26,1.36-18.64,5.18-284.92,108.45-360.24,137.72l-1.41.55-.06,0-1.83.72-1.06.41-.74.28-3.73,1.46c-.25.09-.49.18-.72.28l-.76.29-.64.25-.09,0-.63.25-1,.38-.81.32-.16.06-.49.19-.83.33-.41.16-1.88.73-.49.19-1.25.49C189.05,275.4,195.42,294.2,205.21,297.73Z"/><path class="cls-7" d="M558.78,142.61c15.53-5.9,32.61,16.57,14.9,27.65-9.55,6-240.82,105.71-261.94,112.33s-72.48,7.46-79.52.42,173.94-80.76,210.8-96.5S543.12,148.56,558.78,142.61Z"/><g class="cls-8"><circle class="cls-9" cx="372.71" cy="225.89" r="4.9"/><circle class="cls-9" cx="359.88" cy="230.98" r="4.9"/><circle class="cls-9" cx="347.94" cy="235.98" r="4.9"/><circle class="cls-9" cx="335.99" cy="240.48" r="4.9"/><circle class="cls-9" cx="323.46" cy="245.28" r="4.9"/></g><g class="cls-8"><circle class="cls-9" cx="518.5" cy="164.79" r="4.9"/><circle class="cls-9" cx="505.67" cy="169.89" r="4.9"/><circle class="cls-9" cx="493.73" cy="174.88" r="4.9"/><circle class="cls-9" cx="481.78" cy="179.38" r="4.9"/><circle class="cls-9" cx="469.25" cy="184.18" r="4.9"/></g><path class="cls-5" d="M575.92,132.39c1.71-.73,13.15-3.49,26.23-8.44,1.78.06,3.59.16,5.42.29a208.64,208.64,0,0,1,30.63,4.47l-13.52,5.45C600.59,143.85,573.86,133.27,575.92,132.39Z"/><circle class="cls-10" cx="373.81" cy="227.23" r="4.9"/><circle class="cls-10" cx="360.98" cy="232.32" r="4.9"/><circle class="cls-10" cx="349.04" cy="237.32" r="4.9"/><circle class="cls-10" cx="337.09" cy="241.82" r="4.9"/><circle class="cls-10" cx="324.56" cy="246.62" r="4.9"/><path class="cls-4" d="M277.61,193.26c65,23.33,122.55,45.64,122.55,45.64l46.91-24.73,20.27-10.69-5.7-1.29c-9-2-28.13-6.35-52.46-11.78-85.95-19.17-237.1-52.31-239.52-48.77C166.27,146.59,212.56,169.92,277.61,193.26Z"/><path class="cls-5" d="M277.61,193.26c65,23.33,122.55,45.64,122.55,45.64l46.91-24.73,14.57-12c-9-2-28.13-6.35-52.46-11.78,4.42,14.08-7.28,36.51-41.95,30.48-38.1-6.63-191.4-66.56-197.57-79.25C166.27,146.59,212.56,169.92,277.61,193.26Z"/><circle class="cls-10" cx="519.6" cy="166.14" r="4.9"/><circle class="cls-10" cx="506.77" cy="171.23" r="4.9"/><circle class="cls-10" cx="494.83" cy="176.22" r="4.9" transform="translate(97.8 520.14) rotate(-60.5)"/><circle class="cls-10" cx="482.88" cy="180.72" r="4.9"/><circle class="cls-10" cx="470.35" cy="185.52" r="4.9"/><path class="cls-10" d="M627.89,135.29,642,129.62a203.85,203.85,0,0,0-34.43-5.38c-14,5.49-26.64,8.52-28.44,9.29C577.07,134.41,603.8,145,627.89,135.29Z"/><path class="cls-6" d="M560.33,277.17c16.11-.34,37.95-15.55,37.95-15.55l-17.15-35.86s-2.84.38-7,1.39c-8.69,2.07-23.2,6.77-30.59,16.14a21.91,21.91,0,0,0-3.12,5.31A20.66,20.66,0,0,0,560.33,277.17Z"/><path class="cls-5" d="M560.33,277.17c16.11-.34,37.95-15.55,37.95-15.55l-9.64-23.26s.44-2.08-3.76-1.08c-2.81,4.5-3.26,2.47,3.23,12.66,7.24,11.39-18.57,23.54-30.16,23.13-10.59-.38-18.76-14.05-17.58-24.47A20.66,20.66,0,0,0,560.33,277.17Z"/><ellipse class="cls-4" cx="589.7" cy="243.69" rx="11.1" ry="19.88" transform="translate(-47.43 278.23) rotate(-25.56)"/><g class="cls-8"><ellipse class="cls-9" cx="590.29" cy="243.05" rx="8.63" ry="14.55" transform="translate(-48.08 244.05) rotate(-22.47)"/></g><path class="cls-11" d="M593.17,240.3c1,1.94,1,4.17-.1,5s-2.76-.12-3.78-2.06-1-4.17.09-5S592.15,238.35,593.17,240.3Z"/><path class="cls-12" d="M589.75,238.93c1-.75,2.55,0,3.58,1.73-.06-.12-.1-.24-.16-.36-1-2-2.72-2.87-3.79-2.07s-1.11,3-.09,5c.06.12.14.22.2.33C588.66,241.69,588.75,239.69,589.75,238.93Z"/><path class="cls-11" d="M597.33,237.77c-3.7-7.07-9.85-10.44-13.74-7.52a6.7,6.7,0,0,0-2.06,2.7c3.86-1.43,9.11,1.93,12.42,8.24,2.86,5.47,3.42,11.56,1.72,15.38a5.33,5.33,0,0,0,1.32-.72C600.88,252.93,601,244.83,597.33,237.77Z"/><path class="cls-5" d="M295.74,299.81c.31,0,.67,0,1.06,0a313.51,313.51,0,0,0,36-5.91c13.51-3.07,225.2-75.33,277.48-96.73l1.2-.49c50.13-20.76,58.75-47,52.87-57a1.74,1.74,0,0,0-.11-.18l-.11-.16a3.85,3.85,0,0,0-.26-.34,2.09,2.09,0,0,0-.14-.17,6.9,6.9,0,0,0-.66-.67,1.54,1.54,0,0,0-.19-.17l-.19-.17-.21-.17c-.38-.3-.8-.6-1.25-.9l-.2-.12c-.16-.11-.33-.21-.5-.31l-.71-.41-.26-.14-.26-.14-.57-.3-.54-.27c-8.9,1-15,10.08-18.83,17.89-5.58,11.39-9,15.22-50.93,33.54S373.76,276.9,350.77,286.22C336,292.22,315,296.47,295.74,299.81Z"/><path class="cls-6" d="M430.7,243.09c16.11-.34,37.94-15.54,37.94-15.54L451.5,191.68s-2.91.4-7.19,1.43c-8.71,2.09-23.1,6.79-30.45,16.11A22,22,0,0,0,411,214,20.66,20.66,0,0,0,430.7,243.09Z"/><path class="cls-5" d="M430.7,243.09c16.11-.34,37.94-15.54,37.94-15.54L455.9,202.82s1.33-.49-3,.54c-4.69,8.14,3.63,5.39,8.62,13.46,5.38,8.7-19.78,22.5-34.28,21.46C414.47,237.37,409.75,223,411,214A20.66,20.66,0,0,0,430.7,243.09Z"/><ellipse class="cls-4" cx="460.07" cy="209.62" rx="11.1" ry="19.88" transform="translate(-45.42 218.98) rotate(-25.56)"/><g class="cls-8"><ellipse class="cls-9" cx="460.3" cy="208.76" rx="8.63" ry="14.55" transform="translate(-44.84 191.77) rotate(-22.47)"/></g><path class="cls-11" d="M463.18,206c1,1.94,1,4.17-.1,5s-2.76-.13-3.78-2.07-1-4.17.1-5S462.16,204.07,463.18,206Z"/><path class="cls-12" d="M459.77,204.65c1-.76,2.54,0,3.57,1.73,0-.13-.1-.25-.16-.37-1-1.94-2.71-2.87-3.78-2.07s-1.11,3-.1,5l.21.34C458.67,207.4,458.76,205.4,459.77,204.65Z"/><path class="cls-11" d="M467.34,203.48c-3.7-7.07-9.85-10.43-13.74-7.51a6.72,6.72,0,0,0-2.06,2.7c3.86-1.44,9.12,1.92,12.42,8.23,2.87,5.47,3.42,11.56,1.72,15.38a5,5,0,0,0,1.32-.72C470.89,218.64,471,210.55,467.34,203.48Z"/><path class="cls-6" d="M140.3,262.48C140,263.66,223.51,284,231.94,286s15-20,15-20l-7-1c-20.81-3-81.11-11.44-84.36-10.95C151.64,254.65,140.59,261.31,140.3,262.48Z"/><path class="cls-5" d="M140.3,262.48C140,263.66,223.51,284,231.94,286s15-20,15-20l-7-1c1.65,7.13-12.53,14.12-39.52,9.72-30.43-5-55.24-12.35-44.84-20.67C151.64,254.65,140.59,261.31,140.3,262.48Z"/><path class="cls-9" d="M556.1,179l-15-30.64a.31.31,0,0,1,0-.23.25.25,0,0,1,.17-.16l17-6.42a.28.28,0,0,1,.35.13l15.95,29.06a.3.3,0,0,1,0,.23.33.33,0,0,1-.16.17l-17.95,8a.2.2,0,0,1-.11,0A.28.28,0,0,1,556.1,179Zm2.13-36.83-16.46,6.22,14.73,30.11,17.4-7.76Z"/><rect class="cls-9" x="488.01" y="250.85" width="27.34" height="6.66" rx="2.45" transform="translate(1064.07 256.3) rotate(153.35)"/><rect class="cls-9" x="321.98" y="201" width="27.34" height="6.66" rx="2.45" transform="translate(728.42 192.39) rotate(146.93)"/><rect class="cls-9" x="281.04" y="187.24" width="27.34" height="6.66" rx="2.45" transform="translate(645.67 189.44) rotate(146.93)"/><rect class="cls-13" x="579.3" y="-394.62" width="14.5" height="950.08" transform="translate(666.97 -506.13) rotate(90)"/><polyline class="cls-13" points="332.76 618.75 320 618.75 320 0 332.76 0"/><rect class="cls-13" x="893.76" width="12.76" height="618.75"/><g class="cls-14"><ellipse class="cls-15" cx="889.36" cy="699.08" rx="206.2" ry="37.51"/></g><path class="cls-16" d="M661.59,557c-.48-3.59-10.94-88.83,60.67-164.12a38.25,38.25,0,0,1,55.43,52.72c-45.56,47.89-40.46,99.51-40.22,101.69l-.06-.43Z"/><rect class="cls-16" x="894.47" y="508.69" width="129.05" height="201.62" rx="64.52" transform="translate(1917.99 1218.99) rotate(-180)"/><rect class="cls-16" x="755.57" y="501.37" width="129.05" height="201.62" rx="64.52" transform="translate(1640.19 1204.37) rotate(-180)"/><path class="cls-17" d="M1045.61,406.25a50.08,50.08,0,0,1,47.47,40.38c5.08,25.65,7.68,61.4-3.29,99.58-10.74,37.41-31.64,61-67.58,73.38-68.12,23.5-152.3,28-214.55,7.73-35.86-11.65-54.34-34.85-67.37-65.32-14.61-34.15-23.43-87.93,1-165.56l1.1-2.83Z"/><polygon class="cls-16" points="814.73 525.89 946.18 495.5 940.23 481.63 960.05 487.58 1018.18 424.16 948.16 422.18 815.39 511.36 814.73 525.89"/><polygon class="cls-16" points="740.09 393.12 748.67 455.21 765.19 458.51 752.63 468.42 814.73 525.89 825.96 404.35 740.09 393.12"/><path class="cls-18" d="M815.39,523.91s97.1-43.6,149.28-83.89c-98.42-42.28-197.49-28.74-197.49-28.74S784.34,486.92,815.39,523.91Z"/><path class="cls-4" d="M815.39,523.91s97.1-43.6,149.28-83.89c-98.42-42.28-197.49-28.74-197.49-28.74S784.34,486.92,815.39,523.91Z"/><path class="cls-19" d="M787.18,457.27a2.36,2.36,0,0,1-3-1.36l-17-43.64c9.81,33,16.35,49.1,18.19,53.4a1.2,1.2,0,0,0,1.68.59l47.72-25.36-28.45,9.36Z"/><path class="cls-19" d="M866,479.53,850.07,443l12.37,50a1.57,1.57,0,0,0,2.32,1c27.62-15.91,58.8-29.63,93.62-49.28l-89.34,36A2.36,2.36,0,0,1,866,479.53Z"/><polygon class="cls-13" points="806.47 450.01 816.71 475.03 837.52 481.63 860.3 467.43 849.41 437.05 838.51 435.39 806.47 450.01"/><path class="cls-20" d="M1083.56,407.41a349.27,349.27,0,0,1,16.84-40.36c11.23-23.05,39-131.55-104.71-163s-265.09.22-253.32,189.77C742.37,393.85,858.57,505.72,1083.56,407.41Z"/><path class="cls-21" d="M1020.14,350.49l-.37-48.14c-131,32-226.76-50.61-226.76-50.61s-9.08.94-26.32,18.72c-3.52,3.64-7.72,8.17-11.64,12.41,2.22-7.93,4.58-12.32,9.59-21.34,37.43-67.36,121.22-98.87,223.83-76.43,143.69,31.41,129.46,155.91,118.23,179-6.93,14.22-18.51,36.89-25.16,47,0,0-10.17,11.45-26.93,1.7C1067.67,357.59,1020.14,350.49,1020.14,350.49Z"/><path class="cls-22" d="M1082.73,403.51l.08-.21Z"/><path class="cls-22" d="M1081.51,407a.24.24,0,0,0,0-.09Z"/><path class="cls-23" d="M1081.38,407.41s0-.17.13-.41Z"/><polygon class="cls-23" points="744.17 326.79 744.17 326.79 744.17 326.79 744.17 326.79"/><path class="cls-23" d="M741.21,358.58c0,.37-.05.71-.07,1.07C741.16,359.29,741.19,359,741.21,358.58Z"/><path class="cls-21" d="M760,160.11S725.24,267.63,903.76,290.78c.52,0,1,0,1.55-.07,36.56-2,39.43-56.4,3.44-63.33C859.63,217.93,800.16,198.8,760,160.11Z"/><path class="cls-21" d="M811.56,156.62S778.65,258.53,904,274.08c.9,0,1.8-.09,2.7-.16,36.44-3,40.57-55.23,5.27-64.76C878.07,200,840.13,184.13,811.56,156.62Z"/><ellipse class="cls-20" cx="1037.15" cy="363.68" rx="21.42" ry="21.99"/><ellipse class="cls-24" cx="917.83" cy="346.97" rx="5.93" ry="6.09"/><ellipse class="cls-24" cx="793.01" cy="313.62" rx="5.93" ry="6.09"/><path class="cls-22" d="M837.83,359.79c-.57.13-1.13.27-1.68.43l-.83.28-.23.09-.39.18a5.2,5.2,0,0,0-.72.42s-.37.27-.2.13l-.31.27a4.12,4.12,0,0,0-.28.31c-.08.1-.09.1,0,0l-.12.17c-.08.12-.14.24-.22.35s-.05.1,0,0l-.06.16c0,.11,0,.22-.08.33s0,.11,0-.05a1.09,1.09,0,0,0,0,.18,1.93,1.93,0,0,0,0,.34,1.09,1.09,0,0,0,0,.18c0-.16,0-.17,0,0a3.9,3.9,0,0,0,.18.67c0,.12,0,.11,0,0l.08.15c0,.1.1.2.16.3s.27.32.07.1l.22.24.11.1c-.13-.1-.14-.11,0,0l.26.15c-.26-.15,0,0,.07,0l.14,0c-.18,0-.2,0-.08,0,.33,0-.12.06.08,0a2.8,2.8,0,0,0,.31-.09,1.14,1.14,0,0,1,1.39.78,1.16,1.16,0,0,1-.79,1.39c-2.08.79-3.93-1.17-4.3-3.07A4.21,4.21,0,0,1,831,361a6.26,6.26,0,0,1,2.57-2.24,16,16,0,0,1,3.62-1.18,1.13,1.13,0,1,1,.6,2.17Z"/><path class="cls-4" d="M744.94,321.43l.3-1.72s21.76,29.54,83.6,44c94.24,22,191.3-13.19,191.3-13.19h0c-.41,3.11.12,5.39-20.17,14.92a9.71,9.71,0,0,0-5.31,10.86c.92,4.21,4.43,10.82,8.07,16.13,3.09,4.52,8,4.32,13,2.53,22-7.76,20.44-6.85,36.6-15a1.57,1.57,0,0,1,2.27,1.45h0a1.65,1.65,0,0,1-.72,1.37c-27.4,18.15-57.09,36.25-82.18,43.31-91.46,25.77-168.54-5-194.9-16.51-16.35-7.14-29.5-19-34.17-23.53a6.75,6.75,0,0,1-2-4.39A232.24,232.24,0,0,1,744.94,321.43Z"/><path class="cls-24" d="M933.42,333.63a188.45,188.45,0,0,0-23-5.47c-5.71-1-3.29-9.68,2.4-8.7a188.49,188.49,0,0,1,23,5.48c5.53,1.69,3.17,10.4-2.4,8.69Z"/><path class="cls-24" d="M808.86,302.62a45.63,45.63,0,0,0-18.64-5.85c-5.74-.49-5.8-9.51,0-9a56.51,56.51,0,0,1,23.2,7.08c5.05,2.85.51,10.65-4.56,7.79Z"/><path class="cls-20" d="M671,585.2a30.32,30.32,0,0,1,14.69-41.14,32.31,32.31,0,0,1,42.2,15.18,30.43,30.43,0,0,1,.63,25.64c5.22-6.73,16.64.87,12,8.77-10.3,17.47-32.23,21.2-50.27,12.12C678.35,599.77,673.9,591.08,671,585.2Z"/><path class="cls-25" d="M999.09,652.38h-16v-20.9c0-7.4,6.86-13.71,15.95-14.68l36.55-3.92a21.5,21.5,0,0,1,14.44,3.48c4,2.77,6.29,6.79,6.35,11,.08,5.6.19,13.18.21,17.52l-16,.06c0-4.3-.13-11.85-.21-17.42a1.78,1.78,0,0,0-.82-1.42,2.7,2.7,0,0,0-1.86-.45l-36.55,3.92a2.11,2.11,0,0,0-2.06,1.89Z"/><path class="cls-20" d="M971.73,615a101.57,101.57,0,0,1,12.11-30.41,35.14,35.14,0,0,1,14.25-15.71c17.15-10,39.37-3.82,49.64,13.79s4.69,40-12.47,50c-16.69,9.73-38.19,4.13-48.79-12.41-2.71.43-5.42.9-8.12,1.44A5.59,5.59,0,0,1,971.73,615Z"/><path class="cls-16" d="M1066.19,605.93l-52.4-55.73s-.19.16-.51.49c.08-.08,8.18-8.43,13.23-23.25,6.62-19.44,5.25-41.31-4.08-65a38.25,38.25,0,1,1,71.18-28C1135,539.57,1069,603.27,1066.19,605.93Z"/><path class="cls-13" d="M815.08,525.12s12-5.16,26.18-12.5l-3.78-30.82-8.68-8.09-12.35,1.34-19.93,20.8C795.77,497.16,810.11,520.61,815.08,525.12Z"/><path class="cls-26" d="M860.3,467.43l-6.44-18c-1.32,3.92-6.62,18-15.68,22.42-7.93,3.84-19.2-1.15-24.34-3.88l2.87,7,20.81,6.6Z"/><path class="cls-25" d="M1085.22,642c-.1-2.11-1.63-3.21-3.31-4.49l-4.25-3.24a3.7,3.7,0,0,0-3-.85L959.2,652.19a3.71,3.71,0,0,0-3.12,3.66v70.43a3.69,3.69,0,0,0,1.52,3h0l8.53,5.67,10-7.55,99.74-16.23a3.71,3.71,0,0,0,3.12-3.66l6.27-54.12Z"/><path class="cls-16" d="M965.54,660.5v71.72a2.12,2.12,0,0,0,2.46,2.09l115.57-18.82a2.12,2.12,0,0,0,1.78-2.09V641.69a2.12,2.12,0,0,0-2.46-2.09L967.32,658.41A2.12,2.12,0,0,0,965.54,660.5Z"/><path class="cls-17" d="M964.67,699.28l-.66.52v31.76a3.71,3.71,0,0,0,4.31,3.66l115.44-18.79a3.71,3.71,0,0,0,3.11-3.66V679.49Z"/><path class="cls-19" d="M1032.7,695.68l-8,1.73a2.1,2.1,0,0,1-2.55-2V683.81a2.11,2.11,0,0,1,1.66-2.06l8-1.73a2.1,2.1,0,0,1,2.55,2.05v11.55A2.11,2.11,0,0,1,1032.7,695.68Z"/><path class="cls-27" d="M481.4,459.46s-25.13,62.08-23.75,151.11"/><path class="cls-27" d="M458.76,612.75c.59-40.06-3.44-147-59.46-196.78"/><path class="cls-27" d="M456.29,610.57c2.44-49.45,13.85-126.48,58.92-166.55"/><path class="cls-27" d="M463.23,416.25s-8,134.43-2.36,191.83"/><path class="cls-27" d="M435.69,433.85s30.28,74.82,22.53,178"/><path class="cls-27" d="M456.27,606.55s9.89-48.37-18.41-86.13"/><path class="cls-17" d="M541.69,359.76a117.88,117.88,0,0,1-8.25,46.35l-10.58-5.25,8.22,10.86A145.81,145.81,0,0,1,505.53,450l-3.31-12.72v16.25c-14.35,14.83-27.11,22.59-27.11,22.59C488.18,396.1,541.69,359.76,541.69,359.76Z"/><path class="cls-17" d="M293.51,393.05S419,366.54,435.69,469.77C435.69,469.77,371.84,402.38,293.51,393.05Z"/><path class="cls-17" d="M386.8,433.91l-3.12,13.34c5,3.08,10.23,6.12,15.6,8.95l2.64-3.11v4.49c10.61,5.4,21.86,9.9,33.77,12.19,0,0-17.47-86.06-142.18-76.72,0,0,11.27,19.74,34.93,26.19l7.54-6-5,6.6c.55.12,1.09.25,1.65.35,13.62,2.62,29.22,13.47,46.95,24.51Z"/><path class="cls-17" d="M621,421.1s-125.52-26.51-142.18,76.72C478.82,497.82,542.67,430.43,621,421.1Z"/><path class="cls-17" d="M527.72,462l3.11,13.34c-5,3.08-10.23,6.12-15.6,8.95l-2.64-3.11v4.49c-10.61,5.4-21.86,9.9-33.77,12.19,0,0,17.47-86.06,142.18-76.72,0,0-11.27,19.74-34.93,26.19l-7.54-6,5,6.6c-.55.12-1.09.25-1.64.36-13.62,2.61-29.23,13.46-46.95,24.5Z"/><path class="cls-17" d="M475.83,432.55l8.69,2.13a120.89,120.89,0,0,0,4.74-21.81L478,406.45l11.64,3.79c1.78-13.47,2.81-27.62,5.59-38.92a47.05,47.05,0,0,0,1.33-9.63l-11.14,5.85,11-11.47c-1.8-24.67-20.55-44.5-20.55-44.5C464.6,333.13,458,455.91,459.6,455.89c11.76-.14,18.7-6.72,23.1-16.55Z"/><path class="cls-17" d="M446.74,364.58l10.37-.25-10.39,2.89q0,2.28.18,4.65c.71,10.12.71,20,.57,29.18l8-.19-8.06,5.63c-.47,25.69-1.06,45.28,12.22,49.4l16.28-144.32S447.76,328.34,446.74,364.58Z"/><path class="cls-17" d="M375.4,334.15a117.79,117.79,0,0,0,8.25,46.36l10.58-5.26L386,386.11a146,146,0,0,0,25.55,38.3l3.31-12.73v16.25C429.22,442.76,442,450.52,442,450.52,428.91,370.5,375.4,334.15,375.4,334.15Z"/><path class="cls-17" d="M405.41,509.64l2.33,11.44c3.81,1.44,7.71,2.83,11.64,4l.54-3.07,1.39,3.63c7.7,2.18,15.5,3.49,23,2.88,0,0-34-76.9-102.2-43.55a250.79,250.79,0,0,0,27.39,22.36l2.68-12.51-1.05,12.49c.35,0,.7,0,1.05-.05,8.56-.7,18.95,7.34,32.44,12.61Z"/><path class="cls-17" d="M342.1,485S403,448.49,444.3,528.53C444.3,528.53,389.6,476.33,342.1,485Z"/><path class="cls-17" d="M417.26,562.23c-6.68,14.8-.8,48.71,10.84,56.61,0,0,11.92,5.2,34.29,5.2s30-5.2,30-5.2c11.43-8.15,15.15-41.09,9-56.54a7,7,0,0,0-6.58-4.3c-22.61,0-54.76.3-71.26.34A6.9,6.9,0,0,0,417.26,562.23Z"/><polygon class="cls-17" points="490.93 517.91 498.47 517.91 469.29 573 464.65 573 490.93 517.91"/><polygon class="cls-28" points="320.66 525.15 338.81 572.02 342.98 572.02 329.26 525.15 320.66 525.15"/><polygon class="cls-16" points="464.65 573 488.53 522.95 490.93 517.91 485.2 517.91 315.38 517.91 309.58 517.91 312.07 522.98 336.12 572.02 338.81 572.02 320.66 525.15 384.46 525.15 388.98 614.2 328.35 625.29 474.04 625.29 396.52 614.2 393.62 525.15 479.97 525.15 461.94 573 464.65 573"/><polygon class="cls-17" points="393.62 525.15 396.52 614.2 474.04 625.29 486.93 625.29 402.33 612.85 402.55 525.15 393.62 525.15"/><polygon class="cls-13" points="206.76 583.82 340.38 583.82 372.21 434.88 296.8 437.38 270.1 556.97 212.08 573 206.76 583.82"/><path class="cls-29" d="M304.34,434.06l89.35,1.08c8.26,43.35,22.15,84.07,40.19,116.25l48,11.56a15.12,15.12,0,0,1,10.24,17.53l-1.11,5.3H411.11l-9.39-9a30.55,30.55,0,0,0-11.8-7l-49.54-17.3C322.93,519,312.81,479.69,304.34,434.06Z"/><path class="cls-30" d="M401.72,576.78l9.39,9H491l1.11-5.3A15.12,15.12,0,0,0,481.91,563l-48-11.56-93.5,1.06,49.54,17.3A30.55,30.55,0,0,1,401.72,576.78Z"/><path class="cls-13" d="M389.92,569.75l-49.54-17.3c-17.45-33.5-27.57-72.76-36-118.39l-7.54,3.32c6.63,41.39,21.38,82.06,38.6,121.7l58.44,15.54c5,2.08,9.86,6.47,14.71,11.16h2.56l-9.39-9A30.55,30.55,0,0,0,389.92,569.75Z"/><path class="cls-13" d="M296.8,437.38l-7-2.6L263.47,554.26l-50.34,16.25a6.78,6.78,0,0,0-4.12,3.72l-4.21,9.59h2l5.48-7.31a6.85,6.85,0,0,1,3.39-2.4L270.1,557Z"/><polygon class="cls-17" points="398.75 517.91 406.29 517.91 377.1 573 372.46 573 398.75 517.91"/><polygon class="cls-31" points="228.48 525.15 246.63 572.02 250.8 572.02 237.07 525.15 228.48 525.15"/><polygon class="cls-16" points="372.46 573 396.34 522.95 398.75 517.91 393.01 517.91 223.2 517.91 217.4 517.91 219.88 522.98 243.94 572.02 246.63 572.02 228.48 525.15 387.79 525.15 369.76 573 372.46 573"/><polygon class="cls-13" points="105.23 583.82 238.85 583.82 270.68 434.88 195.27 437.38 168.57 556.97 110.55 573 105.23 583.82"/><path class="cls-29" d="M202.81,434.06l89.34,1.08c8.27,43.35,22.15,84.07,40.2,116.25l48,11.56a15.12,15.12,0,0,1,10.24,17.53l-1.11,5.3H309.58l-9.39-9a30.55,30.55,0,0,0-11.8-7l-49.54-17.3C221.4,519,211.28,479.69,202.81,434.06Z"/><path class="cls-30" d="M300.19,576.78l9.39,9h79.93l1.11-5.3A15.12,15.12,0,0,0,380.38,563l-48-11.56-93.5,1.06,49.54,17.3A30.55,30.55,0,0,1,300.19,576.78Z"/><path class="cls-13" d="M288.39,569.75l-49.54-17.3c-17.45-33.5-27.57-72.76-36-118.39l-7.54,3.32c6.62,41.39,21.38,82.06,38.6,121.7l58.44,15.54c5,2.08,9.86,6.47,14.71,11.16h2.56l-9.39-9A30.55,30.55,0,0,0,288.39,569.75Z"/><path class="cls-13" d="M195.27,437.38l-7-2.6L161.94,554.26,111.6,570.51a6.78,6.78,0,0,0-4.12,3.72l-4.21,9.59h2l5.48-7.31a6.8,6.8,0,0,1,3.39-2.4L168.57,557Z"/><polygon class="cls-17" points="297.22 517.91 304.75 517.91 275.57 573 270.93 573 297.22 517.91"/><polygon class="cls-32" points="126.95 525.15 145.1 572.02 149.27 572.02 135.54 525.15 126.95 525.15"/><polygon class="cls-16" points="270.93 573 294.81 522.95 297.22 517.91 291.48 517.91 121.67 517.91 115.87 517.91 118.36 522.98 142.41 572.02 145.1 572.02 126.95 525.15 286.25 525.15 268.23 573 270.93 573"/><polygon class="cls-17" points="1.96 583.82 160.76 583.82 167.41 434.88 92 437.38 65.3 556.97 7.28 573 1.96 583.82"/><path class="cls-29" d="M99.54,434.06l89.34,1.08c8.27,43.35,22.15,84.07,40.2,116.25l48,11.56a15.12,15.12,0,0,1,10.25,17.53l-1.11,5.3H206.31l-9.39-9a30.55,30.55,0,0,0-11.8-7l-49.54-17.3C118.12,519,108,479.69,99.54,434.06Z"/><path class="cls-30" d="M196.92,576.78l9.39,9h79.93l1.11-5.3A15.12,15.12,0,0,0,277.1,563l-48-11.56-93.5,1.06,49.54,17.3A30.55,30.55,0,0,1,196.92,576.78Z"/><path class="cls-13" d="M185.12,569.75l-49.54-17.3c-17.46-33.5-27.57-72.76-36-118.39L92,437.38c6.63,41.39,21.39,82.06,38.61,121.7L189,574.62c5,2.08,9.86,6.47,14.71,11.16h2.56l-9.39-9A30.55,30.55,0,0,0,185.12,569.75Z"/><path class="cls-13" d="M92,437.38l-7-2.6L58.67,554.26,8.32,570.51a6.76,6.76,0,0,0-4.11,3.72L0,583.82H2l5.48-7.31a6.82,6.82,0,0,1,3.38-2.4L65.3,557Z"/><polygon class="cls-17" points="193.95 517.91 201.48 517.91 172.3 573 167.66 573 193.95 517.91"/><polygon class="cls-17" points="23.68 525.15 41.83 572.02 46 572.02 32.27 525.15 23.68 525.15"/><polygon class="cls-16" points="167.66 573 191.54 522.95 193.95 517.91 188.21 517.91 18.4 517.91 12.6 517.91 15.08 522.98 39.14 572.02 41.83 572.02 23.68 525.15 87.47 525.15 92 614.2 31.37 625.29 177.05 625.29 99.53 614.2 96.63 525.15 182.98 525.15 164.96 573 167.66 573"/><polygon class="cls-17" points="96.63 525.15 99.53 614.2 177.05 625.29 189.95 625.29 105.34 612.85 105.57 525.15 96.63 525.15"/></g></g></g></svg>