<svg id="Capa_1" enable-background="new 0 0 512 512"  viewBox="0 0 512 512" xmlns="http://www.w3.org/2000/svg"><g><g><g><g><g><g><g><path d="m199.427 322.229h113.147v134.574h-113.147z" fill="#a096a3"/></g><g><g><g><path d="m332.121 361.009h-152.242c-38.621 0-69.93-31.309-69.93-69.93v-140.125c0-38.899 31.534-70.433 70.433-70.433h151.234c38.899 0 70.433 31.534 70.433 70.433v140.125c.001 38.621-31.307 69.93-69.928 69.93z" fill="#c9e0fd"/><path d="m331.617 80.52h-65.333c38.899 0 70.433 31.534 70.433 70.433v140.125c0 38.621-31.309 69.93-69.93 69.93h65.333c38.621 0 69.93-31.309 69.93-69.93v-140.124c0-38.899-31.534-70.434-70.433-70.434z" fill="#bcd6f9"/><g fill="#9bc4f9"><path d="m109.95 266.072h-36.874c-8.55 0-15.481-6.931-15.481-15.481v-56.766c0-8.55 6.931-15.481 15.481-15.481h36.874z"/><path d="m402.05 266.072h36.874c8.55 0 15.481-6.931 15.481-15.481v-56.766c0-8.55-6.931-15.481-15.481-15.481h-36.874z"/></g></g></g><path d="m397.294 337.137h-35.212c-9.633 0-17.441-7.809-17.441-17.441 0-9.633 7.809-17.441 17.441-17.441h35.212c9.633 0 17.441 7.809 17.441 17.441 0 9.632-7.809 17.441-17.441 17.441z" fill="#e07f84"/></g><path d="m350.183 272.897h-188.366c-12.578 0-22.774-10.196-22.774-22.774v-77.493c0-12.578 10.196-22.774 22.774-22.774h188.365c12.578 0 22.774 10.196 22.774 22.774v77.493c.001 12.578-10.196 22.774-22.773 22.774z" fill="#eaf2ff"/><path d="m336.717 150.954v121.944h13.466c12.578 0 22.774-10.197 22.774-22.774v-77.494c0-12.578-10.196-22.774-22.774-22.774h-13.493c.005.367.027.73.027 1.098z" fill="#dbe8f9"/><g fill="#9bc4f9"><circle cx="198.417" cy="211.377" r="21.906"/><circle cx="313.583" cy="211.377" r="21.906"/></g><path d="m331.617 80.521h-151.234c-2.838 0-5.631.187-8.381.513 1.13 19.983 17.688 35.84 37.953 35.84h92.089c20.266 0 36.823-15.857 37.953-35.84-2.749-.326-5.542-.513-8.38-.513z" fill="#a096a3"/><path d="m331.617 80.521h-65.329c23.672.002 44.6 11.693 57.369 29.604 9.348-6.475 15.658-17.028 16.34-29.091-2.749-.326-5.542-.513-8.38-.513z" fill="#89808c"/><circle cx="78.568" cy="27.003" fill="#b3e59f" r="19.503"/></g><g><path d="m409.26 404.257h-306.52c-16.851 0-30.511 13.66-30.511 30.511v69.732h367.54v-69.733c.001-16.85-13.659-30.51-30.509-30.51z" fill="#c9e0fd"/><path d="m409.26 404.257h-65.195c16.851 0 30.511 13.66 30.511 30.511v69.732h65.195v-69.733c-.001-16.85-13.661-30.51-30.511-30.51z" fill="#bcd6f9"/><g fill="#9bc4f9"><path d="m480.39 504.5h-40.62v-74.188c26.505 0 47.992 21.487 47.992 47.992v18.824c0 4.072-3.301 7.372-7.372 7.372z"/><path d="m31.61 504.5h40.62v-74.188c-26.505 0-47.992 21.487-47.992 47.992v18.824c0 4.072 3.301 7.372 7.372 7.372z"/></g></g></g></g><path d="m374.575 504.5v-31.766c0-6.292-5.1-11.392-11.392-11.392h-214.366c-6.292 0-11.392 5.1-11.392 11.392v31.766z" fill="#eaf2ff"/></g></g><g><g><path d="m292.787 299.67c-4.143 0-7.5 3.357-7.5 7.5 0 6.316-5.14 11.456-11.456 11.456h-35.663c-6.316 0-11.456-5.14-11.456-11.456 0-4.143-3.358-7.5-7.5-7.5s-7.5 3.357-7.5 7.5c0 14.588 11.868 26.456 26.456 26.456h35.663c14.588 0 26.456-11.868 26.456-26.456 0-4.143-3.357-7.5-7.5-7.5z"/><path d="m380.457 250.123v-77.492c0-16.693-13.581-30.274-30.274-30.274h-188.366c-16.693 0-30.274 13.581-30.274 30.274v77.492c0 16.693 13.581 30.274 30.274 30.274h188.365c16.694 0 30.275-13.581 30.275-30.274zm-233.914 0v-77.492c0-8.422 6.852-15.274 15.274-15.274h188.365c8.422 0 15.274 6.853 15.274 15.274v77.492c0 8.422-6.853 15.274-15.274 15.274h-188.365c-8.422 0-15.274-6.852-15.274-15.274z"/><path d="m198.417 181.971c-16.215 0-29.406 13.191-29.406 29.406s13.191 29.406 29.406 29.406 29.406-13.191 29.406-29.406-13.191-29.406-29.406-29.406zm0 43.812c-7.944 0-14.406-6.463-14.406-14.406s6.462-14.406 14.406-14.406 14.406 6.463 14.406 14.406-6.462 14.406-14.406 14.406z"/><path d="m313.583 181.971c-16.215 0-29.406 13.191-29.406 29.406s13.191 29.406 29.406 29.406 29.406-13.191 29.406-29.406-13.191-29.406-29.406-29.406zm0 43.812c-7.943 0-14.406-6.463-14.406-14.406s6.463-14.406 14.406-14.406 14.406 6.463 14.406 14.406-6.463 14.406-14.406 14.406z"/></g><path d="m445.431 423.099c-4.937-15.267-19.282-26.342-36.171-26.342h-89.187v-28.248h12.048c21.127 0 41.289-8.666 55.87-23.871h9.302c11.14 0 20.596-7.342 23.787-17.441h13.164c15.252 0 27.66-12.408 27.66-27.66v-105.713c0-11.995-9.239-21.867-20.974-22.887v-19.983c0-60.276-49.038-109.314-109.314-109.314h-151.233c-40.151 0-75.309 21.762-94.314 54.107v-42.809c11.251-3.259 19.503-13.648 19.503-25.935-.001-14.89-12.114-27.003-27.004-27.003-14.889 0-27.002 12.113-27.002 27.003 0 12.287 8.252 22.676 19.502 25.935v98.016 19.983c-11.735 1.021-20.974 10.892-20.974 22.887v56.767c0 12.672 10.31 22.981 22.981 22.981h29.374v17.507c0 42.695 34.735 77.43 77.43 77.43h12.047v28.248h-89.186c-16.889 0-31.234 11.075-36.17 26.342-27.95 2.844-49.831 26.518-49.831 55.205v18.824c0 8.2 6.671 14.872 14.872 14.872h448.78c8.2 0 14.872-6.672 14.872-14.872v-18.824c-.001-28.687-21.883-52.36-49.832-55.205zm-380.701 73.901h-32.992v-18.696c0-19.764 14.237-36.255 32.992-39.784zm332.564-167.362h-35.212c-5.481 0-9.941-4.46-9.941-9.941s4.46-9.941 9.941-9.941h35.212c5.481 0 9.941 4.46 9.941 9.941s-4.46 9.941-9.941 9.941zm36.951-17.442h-13.177c-1.953-6.173-6.235-11.321-11.824-14.385.501-5.675.226-7.688.306-24.239h29.374c2.805 0 5.493-.507 7.98-1.431v27.395c.001 6.981-5.678 12.66-12.659 12.66zm12.66-118.372v56.767c0 4.401-3.58 7.981-7.98 7.981h-29.374v-72.729h29.374c4.4.001 7.98 3.581 7.98 7.981zm-380.339-166.821c0-6.618 5.384-12.003 12.002-12.003 6.619 0 12.003 5.385 12.003 12.003s-5.384 12.003-12.003 12.003c-6.618 0-12.002-5.385-12.002-12.003zm35.884 231.569h-29.374c-4.401 0-7.981-3.58-7.981-7.981v-56.767c0-4.4 3.581-7.98 7.981-7.98h29.374zm77.429 94.937c-34.424 0-62.43-28.006-62.43-62.43v-140.125c0-29.668 20.641-54.59 48.313-61.201 4.902 19.962 22.926 34.621 44.193 34.621h92.09c21.276 0 39.307-14.672 44.199-34.648 8.658 2.05 16.78 5.926 23.969 11.517 3.271 2.54 7.982 1.953 10.525-1.316 2.542-3.271 1.953-7.982-1.316-10.525-13.78-10.716-30.311-16.38-47.805-16.38-158.101.221-151.493-.531-160.753.602-.02.003-.041.005-.061.008-38.467 4.74-68.354 37.596-68.354 77.324v19.89h-16.381v-19.89c0-52.005 42.309-94.314 94.314-94.314h151.234c52.005 0 94.314 42.31 94.314 94.314v19.89h-16.381v-19.89c0-10.605-2.096-20.893-6.229-30.574-1.624-3.809-6.03-5.58-9.842-3.953-3.81 1.626-5.58 6.032-3.953 9.842 3.333 7.81 5.023 16.115 5.023 24.686-.053 148.672.116 139.816-.125 143.801h-32.343c-13.753 0-24.941 11.188-24.941 24.941s11.188 24.941 24.941 24.941h2.063c-9.587 5.739-20.631 8.871-32.024 8.871h-152.24zm.962-265.488h150.317c-3.902 12.425-15.521 21.354-29.114 21.354h-92.09c-13.591-.001-25.211-8.929-29.113-21.354zm124.232 280.488v28.248h-98.146v-28.248zm127.198 128.491h-50.195v-24.266c0-10.417-8.475-18.893-18.892-18.893h-146.21c-4.142 0-7.5 3.357-7.5 7.5s3.358 7.5 7.5 7.5h146.21c2.146 0 3.892 1.746 3.892 3.893v24.266h-222.15v-24.266c0-2.146 1.746-3.893 3.892-3.893h33.094c4.142 0 7.5-3.357 7.5-7.5s-3.358-7.5-7.5-7.5h-33.094c-10.417 0-18.892 8.476-18.892 18.893v24.266h-50.196v-62.232c0-12.688 10.322-23.011 23.01-23.011h306.52c12.688 0 23.011 10.322 23.011 23.011zm47.991 0h-32.991v-58.48c18.754 3.528 32.991 20.02 32.991 39.784z"/></g></g></svg>
