<?xml version="1.0" encoding="utf-8"?>
<svg viewBox="37.29 117.944 129.54 75.056" xmlns="http://www.w3.org/2000/svg">
  <defs>
    <style>
      .b84c2087-c072-4f4d-8081-cd2631c65e2d {
        fill: #14181c;
      }

      .bf312ce0-57d9-4e07-b526-d7d98b604041, .bfe03054-ef10-4b28-865e-8098df43cd75, .e4805435-17e0-42ce-bbd3-5194b8b1b95e {
        fill: none;
      }

      .bfe03054-ef10-4b28-865e-8098df43cd75 {
        stroke: #f1f2f9;
        stroke-width: 35px;
      }

      .bfe03054-ef10-4b28-865e-8098df43cd75, .e4805435-17e0-42ce-bbd3-5194b8b1b95e {
        stroke-linecap: round;
        stroke-miterlimit: 10;
      }

      .be681a4e-def1-44d3-8127-d4c61b4cfd43 {
        fill: #253057;
      }

      .bc57f97d-ec43-4596-b4a9-0e5d93a5dec0 {
        fill: #222931;
      }

      .e4805435-17e0-42ce-bbd3-5194b8b1b95e {
        stroke: #222931;
        stroke-width: 2px;
      }

      .a8c98050-7dfd-4982-a8cb-4ad0dd050c52 {
        fill: #ef5123;
      }

      .b5247ec9-752f-4452-be5e-76aa5aa65f55 {
        fill: #fff;
      }

      .bb8928e5-6e30-4a77-a5ea-c37da5866bf7 {
        fill: #f3c377;
      }

      .e5b13629-9ec3-43fa-8366-0732687dbf7e {
        fill: #0d0e1b;
      }

      .a6127eb7-d6e5-4df8-89fb-dbf89284f889 {
        fill: #fff7e4;
      }

      .a0b290d7-5de0-4197-955f-c28aff77fc47 {
        fill: #131417;
      }

      .e3ed43fd-ff7e-44ca-aea9-1f831fbec853 {
        fill: #14171d;
      }

      .ae10a5fb-d8d8-4585-8ce0-ca82eda6edb6 {
        fill: #1f232e;
      }

      .ad0557bb-5d8a-4279-9d1b-d379bde83ffc {
        fill: #aa7da2;
      }
    </style>
  </defs>
  <g style="">
    <path class="a8c98050-7dfd-4982-a8cb-4ad0dd050c52" d="M45.73,118.68a1,1,0,0,0-1.23-.7l-5.85,1.63a1,1,0,0,0,.53,1.93L45,119.91A1,1,0,0,0,45.73,118.68Z"/>
    <path class="a8c98050-7dfd-4982-a8cb-4ad0dd050c52" d="M48.18,126c-.42-1.8-.83-3.59-1.25-5.39a1,1,0,0,0-1.23-.7,1,1,0,0,0-.7,1.23c.42,1.8.83,3.59,1.25,5.39a1,1,0,0,0,1.23.7A1,1,0,0,0,48.18,126Z"/>
    <path class="bc57f97d-ec43-4596-b4a9-0e5d93a5dec0" d="M55,124.26a1,1,0,0,0-1.23-.7l-4.31,1.29a1,1,0,0,0,.53,1.93l4.31-1.29A1,1,0,0,0,55,124.26Z"/>
    <path class="bc57f97d-ec43-4596-b4a9-0e5d93a5dec0" d="M57.22,130.63c-.43-1.42-.79-2.85-1.09-4.3a1,1,0,0,0-1.23-.7,1,1,0,0,0-.69,1.23c.29,1.45.66,2.88,1.09,4.3a1,1,0,1,0,1.92-.53Z"/>
    <path class="a8c98050-7dfd-4982-a8cb-4ad0dd050c52" d="M65.27,128.38A1,1,0,0,0,63.9,128l-.58.25-.72.29-1.39.53c-1,.35-1.92.68-2.89,1a1,1,0,1,0,.54,1.93,62.82,62.82,0,0,0,6-2.25A1,1,0,0,0,65.27,128.38Z"/>
    <path class="a8c98050-7dfd-4982-a8cb-4ad0dd050c52" d="M66.82,135.24a22.1,22.1,0,0,1-1-4.17,1,1,0,0,0-.46-.6,1,1,0,0,0-.77-.1,1,1,0,0,0-.59.46,1.14,1.14,0,0,0-.11.77,23.2,23.2,0,0,0,1,4.18,1,1,0,0,0,1.23.69A1,1,0,0,0,66.82,135.24Z"/>
    <path class="bc57f97d-ec43-4596-b4a9-0e5d93a5dec0" d="M74,132.5a1,1,0,0,0-1.36-.36c-.77.42-1.56.83-2.35,1.2l-1.17.53-.18.07-.25.11-.67.27a1,1,0,1,0,.53,1.93,42.91,42.91,0,0,0,5.09-2.39A1,1,0,0,0,74,132.5Z"/>
    <path class="bc57f97d-ec43-4596-b4a9-0e5d93a5dec0" d="M76.44,138.57l0-.06v0c-.06-.08-.12-.15-.17-.23s-.21-.32-.31-.48a9,9,0,0,1-.5-1l0-.06a2.77,2.77,0,0,0-.1-.26c-.06-.18-.12-.36-.17-.55a9.93,9.93,0,0,1-.24-1.11,1,1,0,0,0-.46-.6,1.08,1.08,0,0,0-.77-.1,1,1,0,0,0-.6.46,1.21,1.21,0,0,0-.1.77A9.83,9.83,0,0,0,75,140a1,1,0,0,0,1.42,0A1,1,0,0,0,76.44,138.57Z"/>
    <path class="a8c98050-7dfd-4982-a8cb-4ad0dd050c52" d="M82.83,134.24a1,1,0,0,0-.7-.29,1.18,1.18,0,0,0-.71.29l-4.26,3.35a1,1,0,0,0-.29.71,1.05,1.05,0,0,0,.29.71,1,1,0,0,0,.71.29,1.18,1.18,0,0,0,.71-.29l4.25-3.35a1,1,0,0,0,.3-.71A1,1,0,0,0,82.83,134.24Z"/>
    <path class="a8c98050-7dfd-4982-a8cb-4ad0dd050c52" d="M86.41,141.18c-.19-.4-.37-.79-.54-1.19l-.11-.26-.06-.14,0-.05c-.07-.19-.15-.38-.23-.57-.32-.79-.61-1.6-.89-2.41a1,1,0,0,0-1.93.54,49.7,49.7,0,0,0,2.06,5.09,1,1,0,0,0,1.37.36A1,1,0,0,0,86.41,141.18Z"/>
    <path class="bc57f97d-ec43-4596-b4a9-0e5d93a5dec0" d="M92.64,136.57a1,1,0,0,0-1.41,0L87,140.15a1,1,0,0,0,0,1.41,1,1,0,0,0,1.42,0L92.64,138A1,1,0,0,0,92.64,136.57Z"/>
    <path class="bc57f97d-ec43-4596-b4a9-0e5d93a5dec0" d="M96.76,143.16a42.65,42.65,0,0,1-2.32-4.51,1,1,0,0,0-1.37-.36,1,1,0,0,0-.36,1.37A44.61,44.61,0,0,0,95,144.17a1,1,0,1,0,1.73-1Z"/>
    <path class="a8c98050-7dfd-4982-a8cb-4ad0dd050c52" d="M103.14,138.3a1,1,0,0,0-1.37-.36,22.58,22.58,0,0,0-4.47,3.92,1,1,0,0,0,1.41,1.42,22,22,0,0,1,2-2c.34-.31.69-.6,1-.88l.15-.11.27-.2.62-.43A1,1,0,0,0,103.14,138.3Z"/>
    <g>
      <path class="a8c98050-7dfd-4982-a8cb-4ad0dd050c52" d="M107.31,143.47q-.42-.39-.81-.81c-.12-.14-.25-.28-.37-.43L106,142h0l0,0h0s-.06-.08-.07-.08a13,13,0,0,1-1.2-2,1,1,0,0,0-1.37-.36,1,1,0,0,0-.35,1.37,13.31,13.31,0,0,0,3,4,1,1,0,1,0,1.41-1.42Z"/>
      <path class="a8c98050-7dfd-4982-a8cb-4ad0dd050c52" d="M106,142s0,0,0,0l0,0Z"/>
    </g>
    <path class="bc57f97d-ec43-4596-b4a9-0e5d93a5dec0" d="M112.53,138.13a1,1,0,0,0-1.37.36c-.23.33-.46.65-.7,1l-.07.08h0a1.84,1.84,0,0,0-.17.22l-.39.47c-.51.61-1,1.2-1.6,1.77a1,1,0,0,0,1.41,1.41,30.46,30.46,0,0,0,3.25-3.92A1,1,0,0,0,112.53,138.13Z"/>
    <path class="bc57f97d-ec43-4596-b4a9-0e5d93a5dec0" d="M117.77,144.31q-1.59-2.28-3.29-4.47a1,1,0,0,0-.71-.29,1.05,1.05,0,0,0-.71.29,1,1,0,0,0-.29.71,1.2,1.2,0,0,0,.29.71l.1.12.2.26.4.53.77,1c.51.7,1,1.4,1.51,2.12a1,1,0,0,0,1.37.35A1,1,0,0,0,117.77,144.31Z"/>
    <path class="a8c98050-7dfd-4982-a8cb-4ad0dd050c52" d="M122.53,138.59a1,1,0,0,0-1.42,0,23.65,23.65,0,0,0-3.49,3.92,1,1,0,0,0,.36,1.37,1,1,0,0,0,1.37-.36l.35-.49.09-.11h0l.19-.24c.26-.32.52-.63.8-.94a20.41,20.41,0,0,1,1.75-1.73A1,1,0,0,0,122.53,138.59Z"/>
    <path class="a8c98050-7dfd-4982-a8cb-4ad0dd050c52" d="M127.47,143.8c-.58-.67-1.17-1.33-1.75-2-.29-.32-.57-.64-.86-.95a3.12,3.12,0,0,0-.58-.51,1.55,1.55,0,0,0-1.13-.2,1,1,0,0,0-.6.46,1,1,0,0,0,.36,1.37,1,1,0,0,0,.37.12l0,.05c.13.14.25.28.38.41l.79.89,1.56,1.76a1,1,0,0,0,1.41,0A1,1,0,0,0,127.47,143.8Z"/>
    <path class="bc57f97d-ec43-4596-b4a9-0e5d93a5dec0" d="M132.93,138.32a1,1,0,0,0-1.41,0c-1.27,1.27-2.48,2.59-3.63,4a1.08,1.08,0,0,0-.29.7,1,1,0,0,0,.29.71,1,1,0,0,0,1.42,0c1.14-1.38,2.35-2.71,3.62-4A1,1,0,0,0,132.93,138.32Z"/>
    <path class="bc57f97d-ec43-4596-b4a9-0e5d93a5dec0" d="M137.47,143.48a17,17,0,0,1-1.5-1.56l-.33-.41,0-.07-.16-.21c-.22-.3-.42-.6-.61-.91a1,1,0,1,0-1.73,1,16.88,16.88,0,0,0,3,3.56,1,1,0,0,0,1.41,0A1,1,0,0,0,137.47,143.48Z"/>
    <path class="a8c98050-7dfd-4982-a8cb-4ad0dd050c52" d="M142,137.71a1,1,0,0,0-.3-.71,1,1,0,0,0-1.41,0,35.73,35.73,0,0,0-3.12,4.5,1,1,0,1,0,1.72,1c.44-.74.89-1.47,1.38-2.17.24-.35.49-.7.74-1l.19-.26.09-.11c.13-.18.27-.35.41-.53A1,1,0,0,0,142,137.71Z"/>
    <path class="a8c98050-7dfd-4982-a8cb-4ad0dd050c52" d="M146.88,142.11l-3.46-3.59a1,1,0,0,0-1.41,0,1,1,0,0,0,0,1.42c1.15,1.19,2.3,2.39,3.46,3.58a1,1,0,0,0,1.41,0A1,1,0,0,0,146.88,142.11Z"/>
    <path class="bc57f97d-ec43-4596-b4a9-0e5d93a5dec0" d="M150.73,134.61a1,1,0,0,0-1.37.36q-1.49,2.59-3.2,5.06a1,1,0,0,0,.36,1.37,1,1,0,0,0,1.37-.36q1.71-2.46,3.19-5.06A1,1,0,0,0,150.73,134.61Z"/>
    <path class="bc57f97d-ec43-4596-b4a9-0e5d93a5dec0" d="M155.77,139.81c-1.09-1.11-2.19-2.21-3.28-3.31a1,1,0,1,0-1.42,1.41l3.29,3.31a1,1,0,0,0,1.41-1.41Z"/>
    <path class="a8c98050-7dfd-4982-a8cb-4ad0dd050c52" d="M159.12,133a1,1,0,0,0-1.37.36,44.61,44.61,0,0,0-2.3,4.52,1,1,0,0,0,.35,1.37,1,1,0,0,0,1.37-.36,46.86,46.86,0,0,1,2.31-4.52A1,1,0,0,0,159.12,133Z"/>
    <g>
      <path class="a8c98050-7dfd-4982-a8cb-4ad0dd050c52" d="M165.18,137.36a41.53,41.53,0,0,0-3.79-3.09,1,1,0,0,0-.77-.1,1.1,1.1,0,0,0-.6.46,1,1,0,0,0,.36,1.37l.9.67,0,0,0,0h0l0,0,0,0,.24.19.44.36c.59.48,1.16,1,1.72,1.49a1,1,0,0,0,1.42-1.41Z"/>
      <path class="a8c98050-7dfd-4982-a8cb-4ad0dd050c52" d="M161.28,136.67l.05,0,0,0Z"/>
    </g>
    <path class="a8c98050-7dfd-4982-a8cb-4ad0dd050c52" d="M41.51,123.06a1,1,0,0,0,0,2A1,1,0,0,0,41.51,123.06Z"/>
    <path class="a8c98050-7dfd-4982-a8cb-4ad0dd050c52" d="M51.42,128.35a1,1,0,0,0,0,2A1,1,0,0,0,51.42,128.35Z"/>
    <path class="a8c98050-7dfd-4982-a8cb-4ad0dd050c52" d="M62,133.87a.84.84,0,0,0-.17-.34.91.91,0,0,0-.29-.26l-.23-.1a1.23,1.23,0,0,0-.54,0l-.23.1a1,1,0,0,0-.36.36L60,134a.85.85,0,0,0-.12.38.74.74,0,0,0,0,.39,1.15,1.15,0,0,0,.46.6l.24.1a1,1,0,0,0,.53,0l.24-.1a1,1,0,0,0,.36-.36l.16-.33a.63.63,0,0,0,.12-.37A.69.69,0,0,0,62,133.87Z"/>
    <path class="a8c98050-7dfd-4982-a8cb-4ad0dd050c52" d="M71.49,138.21a.83.83,0,0,0-.2-.32.78.78,0,0,0-.33-.21.71.71,0,0,0-.38-.08l-.27,0a1.1,1.1,0,0,0-.44.26l-.16.2a1,1,0,0,0-.13.51v.16a1,1,0,0,0,1,1l.26,0a1.13,1.13,0,0,0,.45-.26l.15-.2a1,1,0,0,0,.14-.51v-.16A.86.86,0,0,0,71.49,138.21Z"/>
    <path class="a8c98050-7dfd-4982-a8cb-4ad0dd050c52" d="M80.82,140.24a1,1,0,0,0,0,2A1,1,0,0,0,80.82,140.24Z"/>
    <path class="a8c98050-7dfd-4982-a8cb-4ad0dd050c52" d="M91.06,141.89a1,1,0,0,0,0,2A1,1,0,0,0,91.06,141.89Z"/>
    <path class="a8c98050-7dfd-4982-a8cb-4ad0dd050c52" d="M101.46,143.71a1,1,0,0,0,0,2A1,1,0,0,0,101.46,143.71Z"/>
    <path class="a8c98050-7dfd-4982-a8cb-4ad0dd050c52" d="M111.7,144a1,1,0,0,0,0,2A1,1,0,0,0,111.7,144Z"/>
    <path class="a8c98050-7dfd-4982-a8cb-4ad0dd050c52" d="M121.77,144.2a1,1,0,0,0,0,2A1,1,0,0,0,121.77,144.2Z"/>
    <path class="a8c98050-7dfd-4982-a8cb-4ad0dd050c52" d="M132,144a1,1,0,0,0,0,2A1,1,0,0,0,132,144Z"/>
    <path class="a8c98050-7dfd-4982-a8cb-4ad0dd050c52" d="M141.75,142.88a1,1,0,0,0,0,2A1,1,0,0,0,141.75,142.88Z"/>
    <path class="a8c98050-7dfd-4982-a8cb-4ad0dd050c52" d="M151.63,141.8a.92.92,0,0,0-.25-.44l-.21-.16a1.07,1.07,0,0,0-.5-.14h-.17a.85.85,0,0,0-.38.09.94.94,0,0,0-.53.53.85.85,0,0,0-.09.38,2.51,2.51,0,0,1,0,.27.94.94,0,0,0,.26.44l.2.16a1,1,0,0,0,.5.13h.17a.69.69,0,0,0,.38-.08.72.72,0,0,0,.33-.21.83.83,0,0,0,.2-.32.75.75,0,0,0,.09-.39C151.66,142,151.65,141.89,151.63,141.8Z"/>
    <path class="a8c98050-7dfd-4982-a8cb-4ad0dd050c52" d="M160.72,139.32a1.1,1.1,0,0,0-.26-.44l-.2-.16a1,1,0,0,0-.51-.13h-.16a1,1,0,0,0-1,1l0,.26a1,1,0,0,0,.26.44l.2.16a1,1,0,0,0,.51.14h.16a.86.86,0,0,0,.39-.09.75.75,0,0,0,.32-.21.69.69,0,0,0,.21-.32.71.71,0,0,0,.08-.38Z"/>
    <path class="e4805435-17e0-42ce-bbd3-5194b8b1b95e" d="M37.29,124.06S45.7,136,77,143.89c0,0-8.9,36-9.16,40.46-.18,3.27,5.93,5.38,9.89,3.9,1.93-.73,9.1-41,9.1-41,47.71,7.11,80-5.81,80-5.81"/>
    <path class="a8c98050-7dfd-4982-a8cb-4ad0dd050c52" d="M67.86,144.9q-4.34,2.74-8.62,5.57a77.76,77.76,0,0,1-7.72-11.72c-.57-1.15-2.3-.14-1.73,1a77.67,77.67,0,0,0,7.79,11.8c-3.49,2.32-7,4.55-10.37,7.06-1.49,1.11-.41,2.44-.11,2.87Q51,167.33,55.21,173c-2,2.06-3.88,4.15-5.76,6.28-.85,1,.56,2.38,1.42,1.41,1.81-2.05,3.67-4.07,5.55-6.06,2,2.71,4,5.41,6.13,8.07.79,1,2.2-.41,1.41-1.42-2.09-2.67-4.13-5.38-6.15-8.11q4.38-4.57,9-8.94c.46-.43.7-.7,0-2.13a72.23,72.23,0,0,0-6.32-10q4.2-2.76,8.44-5.45C70,146,69,144.21,67.86,144.9ZM65,163.11l0,0q-4.32,4.1-8.44,8.39-4-5.44-7.77-11.05a1.27,1.27,0,0,0-.34-.32q5.1-3.56,10.28-7A61,61,0,0,1,65,163.11Z"/>
    <path class="a8c98050-7dfd-4982-a8cb-4ad0dd050c52" d="M109.67,153c-2.85,2.59-7.38,5.77-10.1,7.9-2.2-3.44-4.33-6.93-6.3-10.54-.67-1.21-2.26.15-1.6,1.36,2,3.58,4.07,7,6.26,10.46-3,2.4-10.16,7.83-10,8.73a12.56,12.56,0,0,0,2,4.79l3.31,5.4q-4.26,3.18-8.41,6.53c-1,.85.16,2.6,1.21,1.76q4.09-3.33,8.32-6.47,2.73,4.42,5.45,8.87c.72,1.18,2.32-.18,1.6-1.36q-2.7-4.38-5.39-8.77,5.17-3.83,10.5-7.4c.65-.43,1.07-.85,0-2.85-1.66-3.12-3.91-5.79-5.81-8.72,2.73-2.14,7.2-5.62,10.13-7.94C111.92,153.94,110.64,152.13,109.67,153ZM105,172.78h0q-5.07,3.42-10,7.07l-2.73-4.44a18.86,18.86,0,0,1-2-3.72q4.35-4,8.93-7.72Q102,168.42,105,172.78Z"/>
    <path class="a8c98050-7dfd-4982-a8cb-4ad0dd050c52" d="M61.2,161c-.22-.69-.46-1.38-.74-2-.16-.39-.32-.77-.49-1.14a2.64,2.64,0,0,0-.55-.91c-.89-.8-1.72.14-2.32.76q-1.65,1.71-3.31,3.4a.9.9,0,0,0-.25.84,1,1,0,0,0,0,.93L55.26,166a1,1,0,0,0,.57.44,1,1,0,0,0,1.5.16c1.16-1.08,2.33-2.16,3.49-3.26a1.6,1.6,0,0,0,.63-1.22A4.06,4.06,0,0,0,61.2,161Z"/>
    <path class="bc57f97d-ec43-4596-b4a9-0e5d93a5dec0" d="M69.73,148.53a16.31,16.31,0,0,0-5.1,3.77,1,1,0,0,0,0,1.41l.07,0a.9.9,0,0,0,.12.5l1.71,2.87a1,1,0,0,0,1.1.45s.06,0,.09,0a1,1,0,0,0,1.23-.69c.51-1.24,1-2.46,1.51-3.7a9.64,9.64,0,0,0,.78-3.85A1,1,0,0,0,69.73,148.53Z"/>
    <path class="bc57f97d-ec43-4596-b4a9-0e5d93a5dec0" d="M66.45,169.87c0-.16-.06-.31-.1-.46a1,1,0,0,0-1-.73,1,1,0,0,0-.94.68l-.06,0a18.05,18.05,0,0,1-1.53,1.5l-.4.34-.19.15-.07.05c-.29.22-.59.42-.89.62a1.09,1.09,0,0,0-.48.86c0,.05-.07.08-.08.14a.69.69,0,0,0-.09.38l0,.27a1,1,0,0,0,.25.44h0a.36.36,0,0,0,0,.09l1.87,2.82a1,1,0,0,0,1.83-.24c.48-1.93,1-3.84,1.53-5.76a.85.85,0,0,0,0-.32A1.06,1.06,0,0,0,66.45,169.87Z"/>
    <path class="a8c98050-7dfd-4982-a8cb-4ad0dd050c52" d="M63.81,144.09a1.59,1.59,0,0,0-.14-.26l0,0-.09-.1a.88.88,0,0,0-.5-.36,19.35,19.35,0,0,1-2.56-.78,6.44,6.44,0,0,1-.61-.24l-.13-.05h0l-.31-.13c-.41-.19-.82-.39-1.22-.61a1,1,0,0,0-1.37.36A1.07,1.07,0,0,0,56.9,143h0A29,29,0,0,1,59,146.81a1,1,0,0,0,.86.49,1,1,0,0,0,.86-.49l.11-.16,0-.05c.09-.11.19-.21.29-.31l.32-.29h0l.2-.13.33-.19.21-.11h.05a5.62,5.62,0,0,1,.83-.22A1,1,0,0,0,63.81,144.09Z"/>
    <path class="bc57f97d-ec43-4596-b4a9-0e5d93a5dec0" d="M53.59,149.22a15.17,15.17,0,0,1-2.87-3.48,1,1,0,0,0-1.37-.36,1,1,0,0,0-.44,1.12.69.69,0,0,0-.24.42c-.26,1.79-.44,3.59-.55,5.4a1,1,0,0,0,1.48,1.24.7.7,0,0,0,.3-.24,18,18,0,0,1,3.49-2.53A1,1,0,0,0,53.59,149.22Z"/>
    <path class="bc57f97d-ec43-4596-b4a9-0e5d93a5dec0" d="M52.44,171A14.1,14.1,0,0,1,49.15,168a1,1,0,0,0-1.41,0,.94.94,0,0,0-.19,1.1,1.07,1.07,0,0,0-.07.27,28.43,28.43,0,0,0-.13,5.61,1.18,1.18,0,0,0,.31.72,1.12,1.12,0,0,0,.45.59,1,1,0,0,0,1.37-.36,11.21,11.21,0,0,1,3-3.13A1,1,0,0,0,52.44,171Z"/>
    <path class="a8c98050-7dfd-4982-a8cb-4ad0dd050c52" d="M104.77,153.54s0,0,0-.06a1.06,1.06,0,0,0-.65-1.07l-5.57-1.22a1.09,1.09,0,0,0-.72.08.94.94,0,0,0-1,.19,1.18,1.18,0,0,0-.07,1.51l1.67,2.2a7.91,7.91,0,0,1,1.29,2,.91.91,0,0,0,1.5.29c1-1,2.31-1.61,3.31-2.77A1.18,1.18,0,0,0,104.77,153.54Z"/>
    <path class="bc57f97d-ec43-4596-b4a9-0e5d93a5dec0" d="M94.82,161.27a.82.82,0,0,0-.17-.39c-.38-.46-.75-.94-1.11-1.41l-.15-.23L92,157.13h0a.76.76,0,0,0-.2-.31.56.56,0,0,0-.27-.18.64.64,0,0,0-.41,0l-.11,0-.1,0-.15.12a.61.61,0,0,1-.07.1l-.07.14s0,0,0,.08q-.85,3.6-1.53,7.24v.06a.77.77,0,0,0,0,.66.72.72,0,0,0,1,.35l4-3.1a.48.48,0,0,0,.29-.09A.92.92,0,0,0,94.82,161.27Z"/>
    <path class="a8c98050-7dfd-4982-a8cb-4ad0dd050c52" d="M99.75,171.07a7.94,7.94,0,0,0-.87-1.72.64.64,0,0,0-.81-.16,25.71,25.71,0,0,0-3.34,2.16.69.69,0,0,0-.23.25.79.79,0,0,0-.29,1c.4.87.76,1.75,1.08,2.66a.72.72,0,0,0,.39.36h.07l0,0a.63.63,0,0,0,1,0l1.58-1.23c.27-.2.53-.41.79-.62a4.32,4.32,0,0,0,.82-.66C100.36,172.64,100,171.66,99.75,171.07Z"/>
    <g>
      <path class="bc57f97d-ec43-4596-b4a9-0e5d93a5dec0" d="M109.44,161.45a1.06,1.06,0,0,0-.09-.36.92.92,0,0,0-.12-.9.71.71,0,0,0-1-.05h0l-.1.08-.23.16-.48.29-1,.53a6.83,6.83,0,0,0-1.85,1.41.82.82,0,0,0-.31,1.29,15.27,15.27,0,0,1,1.74,2.45,4.72,4.72,0,0,0,1.84,2.12c.47.24.91-.28,1-.74q.36-2.85.58-5.71A2.75,2.75,0,0,0,109.44,161.45Z"/>
      <path class="a8c98050-7dfd-4982-a8cb-4ad0dd050c52" d="M106,162.93v0h0A0,0,0,0,0,106,162.93Z"/>
    </g>
    <path class="bc57f97d-ec43-4596-b4a9-0e5d93a5dec0" d="M90.66,180.07A5.53,5.53,0,0,0,89,177.44a11.69,11.69,0,0,1-1.85-2.57,1,1,0,0,0-1.34-.46,1.11,1.11,0,0,0-.38.42,1.24,1.24,0,0,0-.64,1c-.06.4-.17,1-.26,1.48s-.2,1.05-.31,1.57c-.22,1.07-.46,2.13-.71,3.19a1.34,1.34,0,0,0,0,.63,1.29,1.29,0,0,0-.17,1.28,1,1,0,0,0,1.35.47,11.44,11.44,0,0,0,2.65-1.93,3.5,3.5,0,0,1,2.27-1.06A1.11,1.11,0,0,0,90.66,180.07Z"/>
    <path class="a8c98050-7dfd-4982-a8cb-4ad0dd050c52" d="M60.42,182.82a19.35,19.35,0,0,0-3.29-4.69,1,1,0,0,0-.72-.28,1,1,0,0,0-1.19.66c-.06.13-.14.25-.21.37a13.56,13.56,0,0,0-1,1.45l-.36.54c0,.07-.1.15-.16.22a1,1,0,0,1-.08.11l0,.05a4.68,4.68,0,0,1-.43.46,1.12,1.12,0,0,1-.2.18c.16-.13-.13.09-.16.11a1,1,0,0,0-.46,1.13,1,1,0,0,0,1,.73l6.47.73a1,1,0,0,0,1-1,0,0,0,0,1,0,0A1.11,1.11,0,0,0,60.42,182.82Z"/>
    <path class="a8c98050-7dfd-4982-a8cb-4ad0dd050c52" d="M96.24,190.87c-.37-.62-.71-1.25-1-1.9-.15-.32-.3-.63-.44-.95-.06-.15-.13-.3-.18-.45,0,.09,0-.17,0-.16s0-.28,0-.15a1.11,1.11,0,0,0-.26-.67l-.08-.08a.87.87,0,0,0-.11-.09.88.88,0,0,0-.33-.12.33.33,0,0,0-.14,0h-.07a.69.69,0,0,0-.42.2l-.36.38c-.86.83-1.69,1.69-2.48,2.59a1.15,1.15,0,0,0-.21.43L90,190l-.07.07a.77.77,0,0,0-.17.27.78.78,0,0,0-.09.34.66.66,0,0,0,.06.34s0,0,0,0a.77.77,0,0,0,.72.82,6,6,0,0,1,.61.06h.07l.07,0,.25.06a11.72,11.72,0,0,1,1.14.38A9.45,9.45,0,0,0,95,193a.84.84,0,0,0,.83-.84v0A.91.91,0,0,0,96.24,190.87Z"/>
    <path class="bc57f97d-ec43-4596-b4a9-0e5d93a5dec0" d="M105.78,179.52a.74.74,0,0,0-1-.35c-1.43.76-2.82,1.6-4.19,2.49h0a1,1,0,0,0-.52,1.27.71.71,0,0,1,.07.09,2.5,2.5,0,0,0,.49.71l.93,1.5a11.35,11.35,0,0,0,1.48,2.06.73.73,0,0,0,1.07.05.59.59,0,0,0,.12-.22.84.84,0,0,0,.52-.75,14.34,14.34,0,0,1,.47-3.05,12.81,12.81,0,0,0,.56-3A.9.9,0,0,0,105.78,179.52Z"/>
    <path class="a8c98050-7dfd-4982-a8cb-4ad0dd050c52" d="M83.81,151.17q-1.69-2.78-3.38-5.57a1,1,0,0,0-1.73,1c1.13,1.86,2.25,3.72,3.38,5.57a1,1,0,1,0,1.73-1Z"/>
    <path class="bc57f97d-ec43-4596-b4a9-0e5d93a5dec0" d="M81.21,152.33a1,1,0,0,0-1.41,0l-3.57,3.26a1,1,0,0,0,0,1.42,1,1,0,0,0,1.42,0l3.56-3.26A1,1,0,0,0,81.21,152.33Z"/>
    <path class="a8c98050-7dfd-4982-a8cb-4ad0dd050c52" d="M81.72,161.47a17.23,17.23,0,0,0-2.54-3.83,1,1,0,0,0-1.42,0,1,1,0,0,0,0,1.41l.36.42.16.2,0,0,0,0c.21.29.42.58.62.89a16.29,16.29,0,0,1,1,1.87,1,1,0,0,0,1.37.35A1,1,0,0,0,81.72,161.47Z"/>
    <path class="bc57f97d-ec43-4596-b4a9-0e5d93a5dec0" d="M80.25,163.09a1,1,0,0,0-1.36-.35l-5.06,2.43a1,1,0,1,0,1,1.73l5.06-2.44A1,1,0,0,0,80.25,163.09Z"/>
    <path class="a8c98050-7dfd-4982-a8cb-4ad0dd050c52" d="M80.16,172.2a22.58,22.58,0,0,0-4.11-4.62,1,1,0,0,0-1.42,0,1,1,0,0,0,0,1.41,21.52,21.52,0,0,1,2.11,2q.48.54.93,1.11h0a1.71,1.71,0,0,1,.11.14l.21.28.44.64a1,1,0,0,0,1.73-1Z"/>
    <path class="bc57f97d-ec43-4596-b4a9-0e5d93a5dec0" d="M78.81,173.74a1,1,0,0,0-1.37-.36c-2,1-4,2-5.93,3.12a1,1,0,1,0,1,1.72c1.93-1.13,3.9-2.17,5.93-3.12A1,1,0,0,0,78.81,173.74Z"/>
    <path class="a8c98050-7dfd-4982-a8cb-4ad0dd050c52" d="M77.12,182.92c-.54-.63-1.06-1.27-1.57-1.92l-.07-.09h0l-.18-.24-.36-.48c-.26-.34-.5-.68-.75-1a1,1,0,0,0-1.73,1q1.53,2.16,3.25,4.16a1,1,0,0,0,1.41,0A1,1,0,0,0,77.12,182.92Z"/>
    <path class="bc57f97d-ec43-4596-b4a9-0e5d93a5dec0" d="M74.86,184.4a1,1,0,0,0-1.23-.7,12.43,12.43,0,0,0-2.58,1.35,1.06,1.06,0,0,0-.46.6,1,1,0,0,0,.1.77,1,1,0,0,0,.6.46,1,1,0,0,0,.77-.1,11.69,11.69,0,0,1,2-1.12l.09,0a1.08,1.08,0,0,0,.59-.46A1,1,0,0,0,74.86,184.4Z"/>
    <path class="bc57f97d-ec43-4596-b4a9-0e5d93a5dec0" d="M76.78,161.11a1,1,0,0,0-.92-.61l-.26,0a.94.94,0,0,0-.44.26L75,161a1,1,0,0,0-.14.51v.11A.85.85,0,0,0,75,162a.94.94,0,0,0,.53.53.82.82,0,0,0,.38.09l.27,0a1,1,0,0,0,.44-.26l.16-.2a1,1,0,0,0,.13-.5v-.11A.74.74,0,0,0,76.78,161.11Z"/>
    <path class="a8c98050-7dfd-4982-a8cb-4ad0dd050c52" d="M81.59,156.09a1,1,0,0,0,0,2A1,1,0,0,0,81.59,156.09Z"/>
    <path class="a8c98050-7dfd-4982-a8cb-4ad0dd050c52" d="M79.58,150.44a.94.94,0,0,0-.26-.44l-.2-.16a1,1,0,0,0-.51-.13h-.22a.73.73,0,0,0-.38.08.94.94,0,0,0-.53.53.86.86,0,0,0-.09.39l0,.26a.94.94,0,0,0,.26.44l.2.16a1,1,0,0,0,.5.14h.22a.86.86,0,0,0,.39-.09.75.75,0,0,0,.32-.21.69.69,0,0,0,.21-.32.73.73,0,0,0,.08-.38Z"/>
    <path class="bc57f97d-ec43-4596-b4a9-0e5d93a5dec0" d="M83.35,145.85a1,1,0,0,0,0,2A1,1,0,0,0,83.35,145.85Z"/>
    <path class="a8c98050-7dfd-4982-a8cb-4ad0dd050c52" d="M79.5,167.21a1,1,0,0,0,0,2A1,1,0,0,0,79.5,167.21Z"/>
    <path class="a8c98050-7dfd-4982-a8cb-4ad0dd050c52" d="M74.29,172.35a.92.92,0,0,0-.25-.44l-.21-.16a1.07,1.07,0,0,0-.5-.14h-.11a.86.86,0,0,0-.39.09.75.75,0,0,0-.32.21.83.83,0,0,0-.2.32.65.65,0,0,0-.09.38l0,.27a.92.92,0,0,0,.25.44l.21.16a1,1,0,0,0,.5.13h.11a1,1,0,0,0,.71-.29.83.83,0,0,0,.2-.32.66.66,0,0,0,.09-.39C74.32,172.53,74.31,172.44,74.29,172.35Z"/>
    <path class="bc57f97d-ec43-4596-b4a9-0e5d93a5dec0" d="M77,178a1,1,0,0,0,0,2A1,1,0,0,0,77,178Z"/>
    <path class="a8c98050-7dfd-4982-a8cb-4ad0dd050c52" d="M71.71,181.92a.76.76,0,0,0-.2-.32.78.78,0,0,0-.33-.21.82.82,0,0,0-.38-.09l-.27,0a1,1,0,0,0-.44.26l-.16.2a1,1,0,0,0-.13.5v.11a1,1,0,0,0,1,1l.26,0a1.13,1.13,0,0,0,.45-.26l.15-.2a1,1,0,0,0,.14-.51v-.11A.85.85,0,0,0,71.71,181.92Z"/>
  </g>
</svg>