<svg xmlns="http://www.w3.org/2000/svg" viewBox="0 0 341.99 263.29">
  <defs>
    <style>
      .a {
        fill: #2b3640;
      }

      .b {
        fill: #202932;
      }

      .c {
        fill: #182129;
      }

      .d {
        fill: #1d2a4b;
      }

      .e {
        fill: #34404a;
      }

      .f {
        fill: #ac4f46;
      }

      .g {
        fill: #2f4790;
      }

      .h, .j {
        fill: #13181c;
      }

      .h {
        opacity: 0.37;
      }

      .i {
        fill: none;
        stroke: #2f4790;
        stroke-miterlimit: 10;
        stroke-width: 2px;
      }

      .k {
        fill: #3355a2;
      }

      .l {
        fill: #30af8e;
      }

      .m {
        fill: #4cd8b6;
      }
    </style>
  </defs>
  <g>
    <g>
      <rect class="a" x="57.76" width="237.33" height="83.04"/>
      <rect class="b" x="137.99" y="-74.06" width="76.88" height="231.17" transform="translate(217.95 -134.91) rotate(90)"/>
      <path class="c" d="M60.51,80l54.11-35.68,12.79-5.7,13.13,13.23,33.53-35.92L186,12l37.85,48s22.61-18.8,26.24-20.75,11.42-10.37,11.42-10.37,10.33,15.88,11.65,17.83,19,12.64,19,12.64L291.68,80Z"/>
      <circle class="c" cx="99.45" cy="27.39" r="9.85"/>
    </g>
    <g>
      <polygon class="d" points="258.52 220.45 154.33 220.45 50.14 220.45 0 260.64 154.33 260.64 308.66 260.64 258.52 220.45"/>
      <g>
        <g>
          <path class="e" d="M75.6,259.88a19.23,19.23,0,0,1-2,3c-.08.11.1.24.19.14a11.13,11.13,0,0,0,2.07-3c.09-.19-.19-.35-.28-.16Z"/>
          <path class="e" d="M79.34,260.41c-.44.88-.89,1.75-1.3,2.65-.08.18.17.34.27.16.46-.88.88-1.77,1.31-2.65.09-.19-.18-.35-.28-.16Z"/>
          <path class="e" d="M84.13,260.21l-.55,1.27a11.64,11.64,0,0,0-.49,1.28.12.12,0,0,0,.21.09,11.33,11.33,0,0,0,.58-1.22l.53-1.26a.16.16,0,0,0-.06-.22.16.16,0,0,0-.22.06Z"/>
          <path class="e" d="M89,260.45c-.23.84-.54,1.65-.81,2.47,0,.13.17.22.23.09a16.56,16.56,0,0,0,.87-2.48c.06-.19-.23-.26-.29-.08Z"/>
          <path class="e" d="M93.45,260.44a9.75,9.75,0,0,1-.33,1.26c-.13.41-.31.8-.44,1.22-.05.14.16.22.23.1a5.94,5.94,0,0,0,.51-1.22,11,11,0,0,0,.34-1.28c0-.2-.27-.28-.31-.08Z"/>
          <path class="e" d="M98.11,260.14a7.61,7.61,0,0,1,0,1.35c0,.45-.12.89-.17,1.34,0,.1.14.1.17,0a4.6,4.6,0,0,0,.25-1.33,8,8,0,0,0,0-1.38c0-.14-.23-.15-.22,0Z"/>
          <path class="e" d="M103,260.25a8.68,8.68,0,0,0,.14,2.92c0,.1.2.09.19,0a21.66,21.66,0,0,1-.14-2.9.1.1,0,0,0-.19,0Z"/>
          <path class="e" d="M107.94,260.4a8.83,8.83,0,0,0,.28,2.61.09.09,0,0,0,.18-.05,13.76,13.76,0,0,1-.3-2.56.08.08,0,0,0-.16,0Z"/>
          <path class="e" d="M113.18,260.3c0,.92.06,1.85.2,2.77,0,.11.19.08.19,0,0-.91-.11-1.83-.18-2.74,0-.13-.22-.14-.21,0Z"/>
          <path class="e" d="M118.15,260.35a8.79,8.79,0,0,0,.07,2.56c0,.11.2.09.2,0a15.25,15.25,0,0,1-.06-2.53c0-.14-.2-.13-.21,0Z"/>
          <path class="e" d="M122.29,260.38c.17.91.3,1.84.52,2.74,0,.14.23.08.21-.06-.13-.92-.36-1.82-.55-2.73,0-.12-.2-.07-.18.05Z"/>
          <path class="e" d="M125.72,260.32c.27.8.45,1.61.66,2.42,0,.1.15.06.14,0a12.17,12.17,0,0,0-.64-2.42c0-.1-.19-.06-.16,0Z"/>
          <path class="e" d="M130,260.25a9,9,0,0,0,.54,2.66.11.11,0,0,0,.21-.06,17.62,17.62,0,0,1-.53-2.6c0-.14-.23-.15-.22,0Z"/>
          <path class="e" d="M133.91,260.32c.21.81.38,1.63.65,2.42a.08.08,0,0,0,.16,0c-.16-.82-.42-1.62-.64-2.43a.09.09,0,0,0-.17.05Z"/>
          <path class="e" d="M136.8,260.48c.31.74.56,1.5.81,2.26,0,.09.16.05.14,0a14.86,14.86,0,0,0-.86-2.28c0-.06-.11,0-.09.05Z"/>
          <path class="e" d="M140.88,260.42a11.23,11.23,0,0,0,.57,2.06c.05.11.22.07.18-.05a14.57,14.57,0,0,1-.63-2c0-.07-.13,0-.12,0Z"/>
          <path class="e" d="M144.59,260.44a10.46,10.46,0,0,1,.49.94l.21.48c.08.16.14.33.23.49a.08.08,0,0,0,.15-.07,2.86,2.86,0,0,0-.2-.48c-.08-.16-.16-.32-.25-.48-.16-.32-.34-.64-.52-.95,0-.06-.15,0-.11.07Z"/>
          <path class="e" d="M148.18,260.49a10.67,10.67,0,0,1,.62,2c0,.07.14.06.13,0a6.15,6.15,0,0,0-.61-2c0-.1-.19,0-.14.08Z"/>
          <path class="e" d="M151.75,260.42a11.42,11.42,0,0,1,.56,2.06c0,.1.19.08.18,0a7.82,7.82,0,0,0-.57-2.08c0-.11-.21-.06-.17,0Z"/>
          <path class="e" d="M71.57,260.45a15.14,15.14,0,0,1-1.17,1.88c-.06.09.08.2.15.12a9.32,9.32,0,0,0,1.17-1.91c0-.1-.1-.19-.15-.09Z"/>
          <path class="e" d="M66.81,260.42c-.52.81-1.11,1.58-1.68,2.35-.09.11.1.25.2.15a18.88,18.88,0,0,0,1.72-2.35.14.14,0,0,0-.24-.15Z"/>
          <path class="e" d="M61.06,260.36a32.35,32.35,0,0,1-1.91,2.72c-.08.11.09.24.18.14a16,16,0,0,0,2-2.71c.1-.16-.16-.31-.26-.15Z"/>
          <path class="e" d="M47.27,220.54l1.38.17a10.85,10.85,0,0,0,1.4.09.08.08,0,0,0,0-.15c-.45-.08-.9-.12-1.34-.17l-1.39-.17c-.15,0-.22.21-.07.23Z"/>
          <path class="e" d="M45.1,222.38a20.6,20.6,0,0,0,2.47.32c.08,0,.11-.14,0-.15-.81-.12-1.63-.2-2.44-.34-.11,0-.15.15,0,.17Z"/>
          <path class="e" d="M43,224.48c.6.14,1.2.29,1.81.4a.07.07,0,1,0,0-.14c-.6-.16-1.21-.28-1.81-.41-.1,0-.14.13,0,.15Z"/>
          <path class="e" d="M40.81,226.44a4.67,4.67,0,0,0,1.49.45c.07,0,.08-.1,0-.12a6,6,0,0,1-1.43-.47c-.09,0-.17.09-.08.14Z"/>
          <path class="e" d="M38.6,228.09a9.67,9.67,0,0,0,1.69.4c.09,0,.11-.15,0-.17a13.91,13.91,0,0,1-1.66-.42c-.12,0-.17.15,0,.19Z"/>
          <path class="e" d="M35.53,230.35c.61.19,1.19.43,1.78.65a.07.07,0,0,0,.06-.13,8.31,8.31,0,0,0-1.79-.7.09.09,0,1,0,0,.18Z"/>
          <path class="e" d="M33.58,232.33c.45.13.91.27,1.37.39a.07.07,0,0,0,0-.14c-.45-.15-.91-.28-1.37-.41a.08.08,0,0,0,0,.16Z"/>
          <path class="e" d="M31.63,234.15c.51.16,1,.34,1.56.47.09,0,.12-.11,0-.15-.51-.19-1-.33-1.56-.49-.11,0-.15.14,0,.17Z"/>
          <path class="e" d="M29.2,236.2c.52.23,1,.48,1.58.69.08,0,.14-.11.06-.15-.51-.25-1-.46-1.56-.69-.09,0-.18.1-.08.15Z"/>
          <path class="e" d="M54.68,262.59a9.71,9.71,0,0,0,1.5-2.25c.06-.13-.14-.25-.2-.11a10.74,10.74,0,0,1-1.48,2.18c-.1.12.07.29.18.18Z"/>
          <path class="e" d="M49.57,262.68a5.54,5.54,0,0,0,1.09-2.36.11.11,0,1,0-.22-.06,6.81,6.81,0,0,1-1.09,2.29c-.1.13.12.26.22.13Z"/>
        </g>
        <g>
          <polygon class="e" points="76.81 220.45 39.23 260.64 17.83 260.64 62.26 220.45 76.81 220.45"/>
          <polygon class="e" points="95.8 220.45 67.16 260.64 48.58 260.64 83.17 220.45 95.8 220.45"/>
        </g>
      </g>
      <g>
        <g>
          <path class="e" d="M232.78,260a11.33,11.33,0,0,0,2.06,3c.1.09.28,0,.19-.14a20.75,20.75,0,0,1-2-3c-.09-.19-.36,0-.27.16Z"/>
          <path class="e" d="M229,260.57c.43.88.85,1.77,1.31,2.65.1.17.35,0,.27-.16-.41-.9-.86-1.77-1.31-2.65-.09-.19-.36,0-.27.16Z"/>
          <path class="e" d="M224.25,260.37l.53,1.26a11.33,11.33,0,0,0,.58,1.22.11.11,0,0,0,.2-.09,9.92,9.92,0,0,0-.49-1.28l-.54-1.27a.16.16,0,0,0-.22-.06.15.15,0,0,0-.06.22Z"/>
          <path class="e" d="M219.34,260.53a16.6,16.6,0,0,0,.88,2.48c.06.13.27,0,.23-.09-.28-.82-.58-1.63-.82-2.47a.15.15,0,0,0-.29.08Z"/>
          <path class="e" d="M214.9,260.52a11,11,0,0,0,.34,1.28,5.9,5.9,0,0,0,.5,1.22c.08.12.29,0,.24-.1-.13-.42-.31-.81-.44-1.22a11.77,11.77,0,0,1-.34-1.26c0-.2-.34-.12-.3.08Z"/>
          <path class="e" d="M210.32,260.14a8,8,0,0,0,0,1.38,4.3,4.3,0,0,0,.26,1.33c0,.08.18.08.17,0-.05-.45-.14-.89-.18-1.34a8.69,8.69,0,0,1,0-1.35c0-.15-.21-.14-.23,0Z"/>
          <path class="e" d="M205.52,260.25a21.66,21.66,0,0,1-.14,2.9c0,.11.16.13.19,0a9,9,0,0,0,.14-2.92.1.1,0,0,0-.19,0Z"/>
          <path class="e" d="M200.56,260.4a13.76,13.76,0,0,1-.3,2.56.09.09,0,0,0,.18.05,8.83,8.83,0,0,0,.28-2.61.08.08,0,0,0-.16,0Z"/>
          <path class="e" d="M195.27,260.3c-.07.91-.19,1.83-.18,2.74,0,.11.18.14.19,0,.13-.92.15-1.85.2-2.77,0-.14-.2-.13-.21,0Z"/>
          <path class="e" d="M190.3,260.35a15.25,15.25,0,0,1-.06,2.53.1.1,0,0,0,.2,0,8.79,8.79,0,0,0,.07-2.56c0-.13-.22-.14-.21,0Z"/>
          <path class="e" d="M186.19,260.33c-.19.91-.42,1.81-.55,2.73,0,.14.17.2.2.06.23-.9.36-1.83.53-2.74,0-.12-.16-.17-.18-.05Z"/>
          <path class="e" d="M182.77,260.28a12.87,12.87,0,0,0-.63,2.42c0,.1.12.14.14,0,.21-.81.39-1.62.65-2.42,0-.1-.12-.14-.16,0Z"/>
          <path class="e" d="M178.47,260.25a19,19,0,0,1-.53,2.6.11.11,0,0,0,.21.06,9.33,9.33,0,0,0,.54-2.66c0-.15-.21-.14-.22,0Z"/>
          <path class="e" d="M174.58,260.27c-.22.81-.49,1.61-.65,2.43a.09.09,0,0,0,.17,0c.27-.79.44-1.61.64-2.42a.08.08,0,0,0-.16-.05Z"/>
          <path class="e" d="M171.77,260.43a14.86,14.86,0,0,0-.86,2.28c0,.08.11.12.14,0,.25-.76.49-1.52.81-2.26,0-.06-.06-.11-.09-.05Z"/>
          <path class="e" d="M167.66,260.39a16,16,0,0,1-.63,2c-.05.11.13.16.17.05a9.84,9.84,0,0,0,.57-2.06.06.06,0,0,0-.11,0Z"/>
          <path class="e" d="M164,260.37c-.18.31-.36.63-.53.95l-.24.48a2.22,2.22,0,0,0-.2.48.08.08,0,0,0,.15.07,5.27,5.27,0,0,0,.22-.49l.22-.48a10.46,10.46,0,0,1,.49-.94c0-.07-.07-.13-.11-.07Z"/>
          <path class="e" d="M160.34,260.41a6.4,6.4,0,0,0-.62,2,.07.07,0,0,0,.14,0,10.67,10.67,0,0,1,.62-2c.05-.1-.1-.18-.14-.08Z"/>
          <path class="e" d="M156.74,260.38a7.47,7.47,0,0,0-.57,2.08c0,.1.16.12.18,0a10.65,10.65,0,0,1,.56-2.06c0-.1-.12-.15-.17,0Z"/>
          <path class="e" d="M236.94,260.54a9.32,9.32,0,0,0,1.17,1.91c.07.08.21,0,.15-.12a15.14,15.14,0,0,1-1.17-1.88c-.05-.1-.2,0-.15.09Z"/>
          <path class="e" d="M241.61,260.57a17.92,17.92,0,0,0,1.72,2.35c.1.1.29,0,.2-.15-.58-.77-1.16-1.54-1.68-2.35a.14.14,0,0,0-.24.15Z"/>
          <path class="e" d="M247.34,260.51a16,16,0,0,0,2,2.71c.08.1.26,0,.18-.14-.67-.88-1.33-1.77-1.92-2.72a.15.15,0,0,0-.25.15Z"/>
          <path class="e" d="M261.32,220.31l-1.39.17c-.45.05-.9.09-1.34.17-.09,0-.06.15,0,.15a10.85,10.85,0,0,0,1.4-.09l1.37-.17c.15,0,.09-.25-.06-.23Z"/>
          <path class="e" d="M263.51,222.21c-.81.14-1.63.22-2.44.34-.09,0-.07.15,0,.15a20.44,20.44,0,0,0,2.46-.32c.11,0,.07-.18,0-.17Z"/>
          <path class="e" d="M265.65,224.33c-.61.13-1.22.25-1.81.41a.07.07,0,1,0,0,.14c.6-.11,1.21-.26,1.81-.4.1,0,.06-.17,0-.15Z"/>
          <path class="e" d="M267.77,226.3a6.15,6.15,0,0,1-1.43.47c-.07,0,0,.13,0,.12a4.65,4.65,0,0,0,1.5-.45c.09-.05,0-.18-.08-.14Z"/>
          <path class="e" d="M270,227.9a14.07,14.07,0,0,1-1.67.42.09.09,0,0,0,0,.17,9.88,9.88,0,0,0,1.69-.4c.12,0,.07-.23-.05-.19Z"/>
          <path class="e" d="M273.08,230.17a7.93,7.93,0,0,0-1.79.7c-.07,0,0,.16,0,.13.6-.22,1.18-.46,1.79-.65.11,0,.06-.22-.05-.18Z"/>
          <path class="e" d="M275,232.17c-.46.13-.92.26-1.37.41a.07.07,0,0,0,0,.14c.46-.12.92-.26,1.37-.39a.08.08,0,0,0,0-.16Z"/>
          <path class="e" d="M277,234c-.51.16-1,.3-1.55.49a.08.08,0,0,0,0,.15c.53-.13,1-.31,1.56-.47.11,0,.07-.21,0-.17Z"/>
          <path class="e" d="M279.37,236.05c-.52.23-1,.44-1.55.69-.08,0,0,.18.06.15.54-.21,1.05-.46,1.58-.69.1,0,0-.19-.09-.15Z"/>
          <path class="e" d="M254.15,262.41a11.12,11.12,0,0,1-1.47-2.18c-.07-.14-.26,0-.2.11a9.4,9.4,0,0,0,1.5,2.25c.11.11.28-.06.17-.18Z"/>
          <path class="e" d="M259.31,262.55a6.62,6.62,0,0,1-1.09-2.29.11.11,0,1,0-.22.06,5.54,5.54,0,0,0,1.09,2.36c.1.13.32,0,.22-.13Z"/>
        </g>
        <g>
          <polygon class="e" points="231.85 220.45 269.43 260.64 290.83 260.64 246.4 220.45 231.85 220.45"/>
          <polygon class="e" points="212.85 220.45 241.5 260.64 260.08 260.64 225.49 220.45 212.85 220.45"/>
        </g>
      </g>
    </g>
    <g>
      <polygon class="a" points="225.28 173.71 328.93 174.53 328.93 203.03 17.72 203.03 17.66 202.92 17.15 201.93 12.17 192.36 4.6 177.8 8.51 176.45 17.29 173.41 17.72 173.27 18.02 173.16 25.41 170.62 118.77 172.06 119.88 172.08 224.16 173.69 225.28 173.71"/>
      <path class="b" d="M72.49,142H67v39.3H327.18l.24-.12.05,0,8.89-4.59,1.05-.55v-11L331,152.29l-3.54-4.3-.56-.68-3.43-4.18-.34,0-4.15-.24-.75,0-8-.47H310l-.63,0-3-.17-4.63-.27-.72,0-16.5-1-3.26,0-62-.8h-1l-22.08-.28-36.28-1.52c-23.44-1-30.4-.69-32.38-.37l-.23,0-.27.07c-.44.14-.19.26-.19.26l-.47,0Z"/>
      <path class="b" d="M120.79,180.11c0-8.52-1-17.3,2.14-25.38,1.44-3.71,2.87-7.37,3.23-11.36.08-.92.14-1.84.19-2.76h-.69l-62,.79-3.26,0-16.49,1-.73,0-4.63.27-3,.18-.63,0-.23,0-8,.46-.75,0-4.15.25-.34,0L18,147.89l-.56.69-3.53,4.29L7.45,165.64v11l1.06.55,8.88,4.59.06,0,.23.13H121.12A5.22,5.22,0,0,1,120.79,180.11Z"/>
      <path class="c" d="M125.7,151.41l-4.55,6.21a11.67,11.67,0,0,0-2.34,6.42c-.11,2.5,0,5,0,7.53,0,2.13,0,4.25.07,6.38a.51.51,0,0,0,1,0c0-4.27,0-8.54,0-12.82a12,12,0,0,1,.57-4.07,10.93,10.93,0,0,1,1.48-2.78l2.33-3.21,2.29-3.16c.37-.52-.49-1-.86-.5Z"/>
      <path class="c" d="M51.34,161q9.31-.28,18.64-.16c6.22.08,12.43.32,18.64.66q5.25.3,10.5.67c.44,0,.43-.64,0-.68-6.19-.6-12.39-1-18.61-1.22s-12.43-.33-18.64-.29q-5.26,0-10.53.21c-.53,0-.53.83,0,.81Z"/>
      <path class="b" d="M24,203.73c-.29,5.9-.44,12.63-.73,18.54a.77.77,0,0,0,.12.56.75.75,0,0,0,.53.16,4,4,0,0,0,2.1-.28,4.27,4.27,0,0,0,1.73-2.5c1.53-4.13,4.41-12.26,5.62-16.48Z"/>
      <path class="c" d="M115,181.89s3.63-.22,3.87-4.93c0-.66.85-.89,1-.09,0,2.8,1.08,5,3.76,5Z"/>
      <path class="c" d="M221.05,181.89s3.62-.22,3.87-4.93c0-.66.85-.89,1-.09,0,2.8,1.07,5,3.76,5Z"/>
      <path class="c" d="M17.41,181.89c0,5.56-.22,11.12-.29,16.68,0,1.58,0,3.17.05,4.75a.34.34,0,0,0,.67,0c.15-2.82.12-5.64.16-8.46s.06-5.71,0-8.57c0-1.46,0-2.93-.09-4.4a.27.27,0,0,0-.53,0Z"/>
      <g>
        <g>
          <path class="a" d="M309.82,122.59a13,13,0,0,1,8.55-.82c4.38,1.27,22.21,6.89,23.18,11.29s0,70.08,0,70.08h-14.4V162.26l-19.67-13.51-2.56-15,2-9.83Z"/>
          <path class="a" d="M220.54,98.12c22.3-.33,44.64-.65,66.86-2.64,13.14-1.18,19.05-2.51,19.86,4.16s3.22,37.86,2.95,42.66-.27,7.47-7,6.41-73.56.26-80.54,1.6c-3.49.8-4.57-1.07-4.3-5.07s-1.88-39.2-1.61-42.67S217.58,98.16,220.54,98.12Z"/>
          <path class="a" d="M216.94,101.42a4.89,4.89,0,0,0-2.85-4.71,11.28,11.28,0,0,0-5.73-.88c-9.33.46-55.17.89-68.22,0s-12.69,2.3-13.22,5.62.18,43,0,45.82-.71,5.64,4.41,4.94,62.06-2.5,73.87-1.69,13.76.64,13.78-3.6S216.94,101.42,216.94,101.42Z"/>
          <path class="c" d="M313.11,126.48a73.84,73.84,0,0,1,12.95,7.82c.25.19,0,.63-.26.43a83.39,83.39,0,0,0-12.93-7.84c-.27-.13,0-.54.24-.41Z"/>
          <path class="c" d="M340.17,133.21a17.07,17.07,0,0,0-6.09,0,19.4,19.4,0,0,0-2.71.64c-.43.13-.85.27-1.27.43a9,9,0,0,1-1.22.46.32.32,0,0,1-.25-.58,8,8,0,0,1,2.48-1,20.33,20.33,0,0,1,3-.67,17.92,17.92,0,0,1,6.24.12c.42.08.24.73-.18.64Z"/>
          <path class="c" d="M327.41,136.14c0,5.51,0,11,.08,16.54,0,6.91.1,13.83.08,20.75,0,2.62,0,5.25-.1,7.87a.29.29,0,0,1-.58,0c-.06-5.51-.06-11-.05-16.53q0-10.38.07-20.75c0-2.63,0-5.25,0-7.88a.23.23,0,0,1,.45,0Z"/>
          <path class="c" d="M219.16,150.83l4.56,6.2a11.8,11.8,0,0,1,2.33,6.43c.11,2.5,0,5,0,7.52,0,2.13,0,4.26-.07,6.38a.51.51,0,0,1-1,0c0-4.27,0-8.54,0-12.81a12.2,12.2,0,0,0-.58-4.07,11,11,0,0,0-1.48-2.79l-2.33-3.2-2.28-3.16c-.38-.52.48-1,.85-.5Z"/>
          <path class="c" d="M293.53,160.39q-9.33-.3-18.65-.17c-6.22.09-12.43.33-18.64.67-3.5.19-7,.42-10.5.66-.44,0-.43-.63,0-.68,6.19-.59,12.4-1,18.61-1.22s12.43-.33,18.65-.28q5.26,0,10.53.2a.41.41,0,0,1,0,.82Z"/>
          <path class="c" d="M193.28,161.2q-10.23-.22-20.46-.12t-20.45.54l-5.78.26c-1.93.1-3.85.23-5.78.25a.26.26,0,0,1,0-.51c3.4-.39,6.85-.49,10.26-.63s6.79-.27,10.18-.36q10.23-.27,20.46-.17c3.86,0,7.71.1,11.57.21.34,0,.34.54,0,.53Z"/>
          <path class="b" d="M320.89,203.14c.29,5.91.45,12.64.73,18.55a.74.74,0,0,1-.12.55.75.75,0,0,1-.53.17,3.2,3.2,0,0,1-3.83-2.79c-1.53-4.12-4.41-12.25-5.62-16.48Z"/>
          <path class="c" d="M217.55,103.94c.24,5.19.52,10.38.75,15.57.29,6.4.59,12.8.85,19.2.13,3,.22,6,.21,9a.42.42,0,0,1-.84,0c-.36-5.8-.5-11.6-.69-17.41-.21-6.22-.43-12.45-.58-18.68-.06-2.57-.11-5.14-.13-7.72a.22.22,0,0,1,.43,0Z"/>
          <path class="c" d="M309.39,122.91c.29,6.51.84,13,.58,19.56a42.51,42.51,0,0,1-.5,5.16c-.05.26-.51.2-.47-.07a79.8,79.8,0,0,0,.37-9.78c0-3.43-.17-6.86-.31-10.29-.06-1.53-.13-3.06-.17-4.58,0-.33.49-.32.5,0Z"/>
          <path class="c" d="M327.45,181.3c0,5.56.22,11.12.3,16.68,0,1.59,0,3.17-.06,4.75a.34.34,0,0,1-.67,0c-.14-2.81-.12-5.63-.16-8.45s-.06-5.71,0-8.57c0-1.47,0-2.94.09-4.41a.27.27,0,0,1,.53,0Z"/>
        </g>
        <path class="a" d="M35,123.17a13,13,0,0,0-8.54-.82c-4.39,1.28-22.21,6.89-23.19,11.29s0,70.09,0,70.09H17.72V162.84l19.66-13.5,2.56-15L38,124.55Z"/>
        <path class="a" d="M124.33,98.7c-22.31-.33-44.65-.64-66.86-2.63-13.15-1.18-19.06-2.52-19.86,4.15s-3.23,37.87-3,42.67.27,7.47,7,6.4,73.56.27,80.54,1.6c3.49.8,4.57-1.07,4.3-5.07s1.88-39.2,1.61-42.67S127.29,98.74,124.33,98.7Z"/>
        <path class="f" d="M31.75,127.06a74,74,0,0,0-12.94,7.82c-.26.2,0,.63.25.44A84.71,84.71,0,0,1,32,127.47c.27-.13,0-.54-.24-.41Z"/>
        <path class="c" d="M4.69,133.8a17.07,17.07,0,0,1,6.09,0,21,21,0,0,1,2.72.63c.42.13.84.28,1.26.43a8.22,8.22,0,0,0,1.22.46.32.32,0,0,0,.25-.58,8.33,8.33,0,0,0-2.47-1,20.72,20.72,0,0,0-3-.66,17.68,17.68,0,0,0-6.24.11c-.42.09-.24.73.18.65Z"/>
        <path class="c" d="M17.46,136.72c0,5.52-.05,11-.08,16.54-.05,6.92-.1,13.84-.08,20.75,0,2.63,0,5.25.09,7.88a.29.29,0,0,0,.58,0c.06-5.51.06-11,.05-16.54Q18,155,18,144.6c0-2.62,0-5.25-.06-7.88a.22.22,0,0,0-.44,0Z"/>
        <path class="c" d="M127.31,104.53c-.24,5.19-.52,10.38-.75,15.57q-.44,9.6-.85,19.19c-.13,3-.22,6-.21,9a.42.42,0,0,0,.84,0c.36-5.79.51-11.6.7-17.4.2-6.23.43-12.45.57-18.68.07-2.57.12-5.15.13-7.72,0-.28-.41-.28-.43,0Z"/>
        <path class="f" d="M35.47,123.49c-.29,6.52-.84,13-.58,19.57a40.64,40.64,0,0,0,.51,5.15c0,.26.5.2.47-.06a77.94,77.94,0,0,1-.38-9.78c0-3.44.17-6.87.31-10.3.06-1.52.13-3,.17-4.58,0-.32-.48-.32-.5,0Z"/>
        <g>
          <path class="e" d="M51.9,114c-8.11,2.31-14.34,2.17-22.77,2.09-2.83,0-5.67.17-8.48-.08-5.69-.52-9.18-1.55-9,.13s5.15,15,9.47,25.95,2.83,14.13,3.66,15.62,5.32-.49,11.47-1.16S59,154,64,154.34s4.82-.83,3-3-5.65-20.18-8.64-27.79-1.67-9.45-2.33-10.77S53.5,113.49,51.9,114Z"/>
          <path class="c" d="M18.2,121.27A70.66,70.66,0,0,1,22.94,133c1.47,4.56,2.71,9.19,3.75,13.86.52,2.35,1,4.71,1.44,7.07.08.43.71.24.64-.18a102.91,102.91,0,0,0-2.9-13.2,125,125,0,0,0-4.5-13.46,55.13,55.13,0,0,0-2.8-6c-.13-.25-.5,0-.37.21Z"/>
          <path class="c" d="M49.75,126.3a40.38,40.38,0,0,1-6.17,11.9c-.17.25.21.54.42.32a29.34,29.34,0,0,0,6.43-12,.35.35,0,0,0-.68-.19Z"/>
          <path class="c" d="M51,129.24a31.89,31.89,0,0,1-1.38,4.88c-.11.32.42.55.55.23a21.82,21.82,0,0,0,1.39-4.95c.07-.37-.49-.53-.56-.16Z"/>
        </g>
        <g>
          <path class="g" d="M67.52,123.41a21,21,0,0,0-16.6,15.28,16.08,16.08,0,0,0,.1,9.12c2.51,7.57,11,12.1,18.65,12.24,8.36.15,18.92-4.39,23-12.09,3.13-6,1.5-13.85-3.2-18.72C84.12,123.75,75.33,121.84,67.52,123.41Z"/>
          <path class="c" d="M64.06,131.57a34.24,34.24,0,0,1,2.25,3.71c.34.64.66,1.29,1,2,.16.34.27.67.43,1s.38.62.56.93a.94.94,0,0,0,1.71-.72,8.83,8.83,0,0,0-.28-1,9.46,9.46,0,0,0-.52-1.12c-.34-.66-.69-1.32-1.07-2a36.08,36.08,0,0,0-2.47-3.66.93.93,0,0,0-1.23-.32.9.9,0,0,0-.33,1.23Z"/>
          <path class="c" d="M82.08,131.82a24.76,24.76,0,0,0-3.71,2.36,22.65,22.65,0,0,0-1.85,1.55,6.64,6.64,0,0,0-.89,1c-.21.32-.4.64-.58,1a1.21,1.21,0,0,0,1.65,1.65l.83-.56a8.66,8.66,0,0,0,1-.85c.26-.23.52-.47.79-.69a4.73,4.73,0,0,1,.85-.7c-.1.05-.18.13,0,0l.24-.18.42-.3.86-.59c.62-.39,1.25-.76,1.9-1.1a1.51,1.51,0,0,0-1.52-2.61Z"/>
          <path class="c" d="M66.9,142.33a15,15,0,0,0-3.71,2.2,8.75,8.75,0,0,0-1.39,1.33,5.42,5.42,0,0,0-.7,1c-.17.35-.32.7-.47,1a.88.88,0,0,0,1.47.85c.43-.42.89-.82,1.32-1.25s.87-.9,1.34-1.31l.36-.29s.21-.16,0,0l.19-.14c.24-.18.5-.35.75-.52a15.52,15.52,0,0,1,1.66-.88,1.09,1.09,0,0,0-.84-2Z"/>
          <path class="c" d="M74.54,144.8l.27.32s.09.13,0,0l.15.21c.17.22.32.44.48.67.33.49.63,1,.91,1.51s.5,1,.76,1.53.53,1,.79,1.56a1,1,0,0,0,1.24.41,1,1,0,0,0,.58-1.18,10.26,10.26,0,0,0-.56-1.81,13,13,0,0,0-.9-1.69,20.38,20.38,0,0,0-2.31-3,1,1,0,0,0-1.44,0,1.05,1.05,0,0,0,0,1.44Z"/>
          <path class="c" d="M72.4,140.06a1,1,0,0,0-.26-.11,1.33,1.33,0,0,0-.28,0,1.23,1.23,0,0,0-.56.15l0,0-.2.15,0,0a1.32,1.32,0,0,0-.18.22l0,.05c0,.09-.08.18-.11.27a1.81,1.81,0,0,0,0,.31,1.1,1.1,0,0,0,0,.18,1.13,1.13,0,0,0,0,.18,1.31,1.31,0,0,0,.12.28A1.37,1.37,0,0,0,71,142a1.24,1.24,0,0,0,.52.3c.1,0,.27,0,.31,0h.06a1.65,1.65,0,0,0,.32,0h.06l.14-.07a.47.47,0,0,0,.15-.06.58.58,0,0,0,.15-.11l.13-.1.18-.23,0,0a1.49,1.49,0,0,0,.12-.29,1.33,1.33,0,0,0,0-.34c0-.1,0-.21,0-.31v0a1.55,1.55,0,0,0-.14-.32v0l-.17-.22,0,0a1.09,1.09,0,0,0-.27-.21,1.25,1.25,0,0,0-.6-.16h0l-.15,0-.15,0h0a1.48,1.48,0,0,0-.29.12h0l-.22.17h0l-.17.23,0,0a1.12,1.12,0,0,0-.16.61,1.19,1.19,0,0,0,.17.61.59.59,0,0,0,.09.11l.09.13a1.37,1.37,0,0,0,.24.18l0,0a2.53,2.53,0,0,0,.29.12,1.22,1.22,0,0,0,.63,0,1.07,1.07,0,0,0,.49-.29,1.37,1.37,0,0,0,.19-.23l.11-.26,0-.29,0-.28a.8.8,0,0,0-.2-.36.46.46,0,0,0-.19-.2.53.53,0,0,0-.23-.13.57.57,0,0,0-.28-.08.86.86,0,0,0-.42,0h0l.28,0h0l.29,0a1.18,1.18,0,0,0-.59,0l.29,0h0l.29,0h0l.26.11,0,0,.22.17,0,0,.17.22,0,0,.11.26s0,0,0,0l0,.29v0l0,.29s0,0,0,0l-.11.26s0,0,0,0l-.17.22,0,0-.22.17,0,0-.26.11,0,0-.29,0h0l-.29,0,0,0-.26-.11,0,0-.22-.16s0,0,0,0l-.17-.22,0,.06-.11-.25s0,0,0,.05l0-.28v.06l0-.29s0,0,0,.06l.11-.25,0,.06.17-.22-.19.25.17-.22-.06.06.21-.16-.08,0,.24-.11-.07,0,.26,0h-.07l.27,0H72l.24.1,0,0,.2.15a.08.08,0,0,1,0,0l.15.2,0,0,.1.23,0-.06,0,.25a.06.06,0,0,1,0-.06l0,.24a2,2,0,0,0,0-.26l0,.25,0-.07-.1.22a.56.56,0,0,1,0-.08l-.14.18a.12.12,0,0,1,0-.05l-.18.14.06,0-.22.09h.06l-.23,0h0l-.23,0h0a.69.69,0,0,0,.35,0,.6.6,0,0,0,.32-.1l.18-.13a.84.84,0,0,0,.18-.28.46.46,0,0,0,.06-.22.69.69,0,0,0,0-.35l-.08-.21a1,1,0,0,0-.32-.31Z"/>
          <path class="c" d="M56.82,131.38A15.17,15.17,0,0,0,53.39,136a14.19,14.19,0,0,0-1.28,5.84c0,3.84,1.69,8.24,5.08,10.33.6.36,1.42-.39,1-1a25.4,25.4,0,0,1-2.72-4.38,13.7,13.7,0,0,1-1.22-4.95,13.54,13.54,0,0,1,3.36-9.65c.5-.52-.28-1.31-.79-.8Z"/>
        </g>
      </g>
    </g>
    <ellipse class="h" cx="85.66" cy="234.3" rx="37.1" ry="9.65"/>
    <g>
      <g>
        <g>
          <ellipse class="i" cx="85.65" cy="232.9" rx="29.76" ry="6.24"/>
          <line class="i" x1="85.51" y1="206.07" x2="85.65" y2="239.15"/>
          <line class="i" x1="108.67" y1="203.15" x2="115.36" y2="232.23"/>
          <line class="i" x1="55.89" y1="232.16" x2="61.22" y2="202.97"/>
        </g>
        <g>
          <path class="j" d="M119.85,194.76c-3.06-4.43-17.35-7.78-34.53-7.78-16.26,0-29.93,3-33.94,7.08h-1.2s0,2.23,0,2.48c0,5.27,15.73,9.55,35.14,9.55,19.2,0,34.8-4.18,35.13-9.38h0v-2.29Z"/>
          <ellipse class="k" cx="85.32" cy="194.42" rx="35.14" ry="9.55"/>
        </g>
      </g>
      <g>
        <g>
          <g>
            <path class="l" d="M81.23,183.36s0-9.18-5.5-12.58c4.3-.8,8.61,5,10.87,13.31"/>
            <path class="l" d="M85.37,181.39s.3-11.83,9.92-9.52c-2.67.31-6.41,3.77-6.14,9.52"/>
            <path class="m" d="M79.18,184.32s-2.9-9.78-8.51-7.71c3.81-3.33,11.32,1.57,12.22,6.75"/>
            <path class="m" d="M90.3,184.32s2.91-9.78,8.51-7.71c-3.8-3.33-11.31,1.57-12.21,6.75"/>
            <path class="m" d="M83,184.09s-3.6-14.46,5.56-17c-1,1.31-4.59,9.5,0,17"/>
          </g>
          <path class="k" d="M86.37,168.39a1.31,1.31,0,0,0-.27.19l-.11.12-.1.13a.08.08,0,0,0,0,.1.07.07,0,0,0,.1,0l.1-.12a.52.52,0,0,0,.1-.11l.11-.1.06,0h0v0l0,0a.07.07,0,0,0,0-.1.07.07,0,0,0-.09,0Z"/>
          <path class="k" d="M86.56,169.07l-.11.26-.07.15,0,.13a.08.08,0,0,0,.15.07c0-.05.05-.09.07-.13s0-.1,0-.15l.11-.26a.07.07,0,0,0,0-.1.08.08,0,0,0-.11,0Z"/>
          <path class="k" d="M87,169.48l-.13.38-.06.18a1.77,1.77,0,0,0,0,.2.08.08,0,1,0,.15,0l.07-.18a1.17,1.17,0,0,0,0-.2l.11-.38a.08.08,0,1,0-.15,0Z"/>
          <path class="k" d="M85.12,169.79c-.15.25-.31.5-.45.75a.11.11,0,1,0,.19.12c.16-.25.3-.51.44-.77a.1.1,0,0,0,0-.14.11.11,0,0,0-.15,0Z"/>
          <path class="k" d="M85.55,170.66l-.18.34-.09.16-.08.18a.11.11,0,0,0,0,.13.1.1,0,0,0,.13,0l.1-.15.09-.17.18-.34a.11.11,0,0,0,0-.14.11.11,0,0,0-.14,0Z"/>
          <path class="k" d="M85.81,171.76l-.09.44a1.55,1.55,0,0,0,0,.23c0,.07,0,.14,0,.21s0,.09.08.1a.11.11,0,0,0,.11-.07l.06-.21,0-.21.07-.43a.11.11,0,0,0-.07-.13.1.1,0,0,0-.12.07Z"/>
          <path class="k" d="M84.73,172.74c0,.22-.11.45-.15.69a.11.11,0,0,0,.07.13.11.11,0,0,0,.13-.08l.12-.7a.09.09,0,0,0-.06-.11.09.09,0,0,0-.11.07Z"/>
          <path class="k" d="M84.13,172.11c-.07.24-.16.49-.22.73a.09.09,0,0,0,.18,0c.07-.24.13-.49.19-.74a.08.08,0,0,0-.15,0Z"/>
          <path class="k" d="M83.46,171.66c0,.25-.11.51-.17.76a.09.09,0,0,0,.06.1.08.08,0,0,0,.1-.06l.15-.76c0-.09-.12-.13-.14,0Z"/>
          <path class="k" d="M85.64,173.74c0,.28,0,.56,0,.84a.14.14,0,0,0,.13.13.15.15,0,0,0,.13-.13c0-.28,0-.56,0-.84a.12.12,0,0,0-.13-.12.13.13,0,0,0-.13.12Z"/>
          <path class="k" d="M84.67,174.78l0,.58a.09.09,0,0,0,.18,0c0-.19,0-.39,0-.58a.08.08,0,1,0-.15,0Z"/>
          <path class="k" d="M83.79,173.88c-.06.35-.11.7-.14,1.05a.11.11,0,0,0,.1.11.1.1,0,0,0,.1-.11c.05-.34.07-.68.09-1,0-.09-.14-.11-.15,0Z"/>
          <path class="k" d="M82.81,174.87c0,.3,0,.59-.07.9a.1.1,0,0,0,.09.09.09.09,0,0,0,.09-.09q0-.45.06-.9a.08.08,0,0,0-.08-.09c-.05,0-.08,0-.09.09Z"/>
          <path class="k" d="M83.6,176.26c0,.28,0,.57,0,.85a.12.12,0,0,0,.11.11.1.1,0,0,0,.1-.11c0-.28,0-.57,0-.85a.12.12,0,0,0-.12-.11.11.11,0,0,0-.11.11Z"/>
          <path class="k" d="M84.89,176.64a1.29,1.29,0,0,0,0,.39c0,.06,0,.13,0,.19a1.51,1.51,0,0,0,.09.18c0,.08.19,0,.15-.06s0-.12,0-.18l-.06-.17a2,2,0,0,1,0-.35.08.08,0,0,0-.16,0Z"/>
          <path class="k" d="M85.61,175.6c0,.27.11.54.16.81,0,.09.16.05.14,0-.06-.26-.13-.53-.19-.8a.06.06,0,1,0-.11,0Z"/>
          <path class="k" d="M83,177.4c0,.29,0,.57,0,.86a.11.11,0,0,0,.22,0c0-.29,0-.57,0-.86a.07.07,0,0,0-.14,0Z"/>
          <path class="k" d="M83.83,178.38l.09.45a.8.8,0,0,0,0,.21,1.43,1.43,0,0,0,.08.22.08.08,0,0,0,.15,0,3.75,3.75,0,0,0,0-.47c0-.15-.07-.3-.1-.46a.12.12,0,0,0-.14-.08.13.13,0,0,0-.08.15Z"/>
          <path class="k" d="M84.62,178.12c0,.14.08.28.11.43a.1.1,0,0,0,.11.06.09.09,0,0,0,.06-.11c-.05-.14-.09-.28-.13-.42a.09.09,0,0,0-.1-.06.09.09,0,0,0,0,.1Z"/>
          <path class="k" d="M85.65,177.87c.07.31.12.63.19.95,0,.1.18.05.16,0-.06-.31-.14-.62-.22-.94,0-.08-.15-.05-.13,0Z"/>
          <path class="k" d="M85.32,179.43c0,.13,0,.26.06.39s.05.27.07.4a.11.11,0,0,0,.13.07.11.11,0,0,0,.08-.13c0-.13-.06-.26-.1-.39s-.07-.25-.1-.38-.16,0-.14,0Z"/>
          <path class="k" d="M84.41,180.33a3,3,0,0,0,.21.83.13.13,0,0,0,.23-.13,1.22,1.22,0,0,1-.07-.17l-.06-.17c0-.06,0-.12,0-.18s0-.07,0-.1,0-.06,0-.08a.13.13,0,0,0-.12-.12c-.06,0-.13.06-.12.12Z"/>
          <path class="k" d="M83.27,179.59l.09.76a.09.09,0,0,0,.09.09.1.1,0,0,0,.08-.11l-.12-.75c0-.08-.15-.06-.14,0Z"/>
          <path class="k" d="M82.41,179.84c0,.2.07.4.1.59a.07.07,0,0,0,.09.06.08.08,0,0,0,.05-.1l-.11-.59s-.05-.05-.08,0,0,0,0,.08Z"/>
          <path class="k" d="M83.05,181.56a3.7,3.7,0,0,0,0,.47,2.33,2.33,0,0,0,.08.46.12.12,0,0,0,.14.08.11.11,0,0,0,.07-.13c0-.29-.08-.58-.1-.88,0-.13-.21-.13-.21,0Z"/>
          <path class="k" d="M84.21,182a3.1,3.1,0,0,1,.17.79.11.11,0,0,0,.11.11.12.12,0,0,0,.11-.11,3.43,3.43,0,0,0-.2-.84.11.11,0,0,0-.12-.07.1.1,0,0,0-.07.12Z"/>
          <path class="k" d="M85.56,181.14c0,.14.09.29.15.43a2.32,2.32,0,0,0,.22.41.09.09,0,0,0,.11,0s.07-.06,0-.1-.12-.28-.18-.42-.11-.27-.16-.4a.1.1,0,0,0-.19,0Z"/>
          <path class="k" d="M86.36,180c.12.39.24.78.38,1.17a.09.09,0,0,0,.18-.05c-.12-.4-.27-.78-.4-1.17,0-.1-.2-.06-.16,0Z"/>
          <path class="k" d="M86.59,182.37h0l.11.28"/>
          <path class="k" d="M95.2,175.73a1.6,1.6,0,0,0-.74.19.07.07,0,0,0,.05.12,2.8,2.8,0,0,1,.69-.13.09.09,0,1,0,0-.18Z"/>
          <path class="k" d="M95.82,176.27l-.71.26c-.06,0,0,.12,0,.1l.71-.25c.07,0,0-.14,0-.11Z"/>
          <path class="k" d="M94.45,176.43c-.26.12-.52.23-.77.37a.07.07,0,0,0,0,.13c.28-.1.54-.23.81-.35a.09.09,0,0,0,0-.12.1.1,0,0,0-.12,0Z"/>
          <path class="k" d="M93.48,176.17l-.86.48a.06.06,0,1,0,.06.1l.86-.48c.06,0,0-.13-.06-.1Z"/>
          <path class="k" d="M92.76,177.14c-.32.2-.64.4-1,.62a.06.06,0,0,0,.06.11c.33-.19.65-.4,1-.6.08-.05,0-.18-.08-.13Z"/>
          <path class="k" d="M93.83,177.48c-.25.17-.5.35-.73.53a.07.07,0,1,0,.06.12c.26-.18.51-.35.75-.54.06-.05,0-.16-.08-.11Z"/>
          <path class="k" d="M92,178.35l-.46.42s0,.12.07.07l.45-.44s0-.08-.06-.05Z"/>
          <path class="k" d="M92.63,178.86a3.7,3.7,0,0,0-.69.68.08.08,0,0,0,0,.1.08.08,0,0,0,.11,0,4.71,4.71,0,0,1,.67-.67c.06-.05,0-.16-.09-.11Z"/>
          <path class="k" d="M91.5,177.13l-.9.58c-.07,0,0,.15.06.11l.9-.59a.06.06,0,1,0-.06-.1Z"/>
          <path class="k" d="M90.73,178.35l-.38.35-.37.36c-.06.06,0,.14.08.09l.39-.35.38-.36c.06-.06,0-.15-.1-.09Z"/>
          <path class="k" d="M89.48,178.74a2.54,2.54,0,0,0-.66.76c0,.08.09.16.14.08a2.23,2.23,0,0,1,.61-.72c.07-.05,0-.17-.09-.12Z"/>
          <path class="k" d="M90.5,179.61l-.45.55s0,.08,0,.11a.07.07,0,0,0,.11,0l.45-.55a.08.08,0,0,0-.11-.11Z"/>
          <path class="k" d="M89.46,179.93a1.89,1.89,0,0,0-.25.31,1.48,1.48,0,0,0-.19.35s.06.07.08,0a3,3,0,0,1,.42-.63,0,0,0,1,0-.06-.06Z"/>
          <path class="k" d="M88.31,180.42a1.94,1.94,0,0,0-.54.7.07.07,0,0,0,0,.09.08.08,0,0,0,.1,0,2.24,2.24,0,0,1,.52-.67.07.07,0,0,0-.1-.1Z"/>
          <path class="k" d="M88.73,181.45c-.15.24-.31.48-.45.73a.06.06,0,0,0,.1.06c.16-.24.31-.48.46-.73,0-.07-.07-.13-.11-.06Z"/>
          <path class="k" d="M90.07,180.94a1.47,1.47,0,0,0-.32.68,0,0,0,0,0,0,.06,0,0,0,0,0,.06,0,3.13,3.13,0,0,1,.35-.65.07.07,0,0,0,0-.09.07.07,0,0,0-.09,0Z"/>
          <path class="k" d="M91.45,180.13c-.13.25-.27.5-.39.76,0,.06,0,.12.09.06.14-.25.27-.51.4-.76,0-.06-.06-.12-.1-.06Z"/>
          <path class="k" d="M90.27,182.39l-.12.48a.08.08,0,0,0,.06.1"/>
          <path class="k" d="M89,182.42l-.18.51"/>
          <path class="k" d="M72.48,176.1a1.79,1.79,0,0,1,.61,0,.06.06,0,0,0,0-.11,1.73,1.73,0,0,0-.68,0,.07.07,0,0,0,0,.08s0,.05.08,0Z"/>
          <path class="k" d="M73.57,175.83a1.28,1.28,0,0,1,.55.06c.06,0,.1-.08,0-.11a1.32,1.32,0,0,0-.3-.09,1,1,0,0,0-.3,0,.05.05,0,0,0,0,.07s0,.07.06.06Z"/>
          <path class="k" d="M75.07,176l.62.26s.08-.06,0-.09l-.61-.26s-.08.07,0,.09Z"/>
          <path class="k" d="M74.12,176.33l.62.29c.05,0,.08-.05,0-.07l-.63-.28s-.07,0,0,.06Z"/>
          <path class="k" d="M75.24,176.63l.6.35c.07,0,.14-.07.06-.11s-.4-.23-.6-.34a.06.06,0,1,0-.06.1Z"/>
          <path class="k" d="M75.32,177.31c.23.14.45.29.69.42a.06.06,0,0,0,.06-.11c-.22-.15-.45-.29-.68-.43a.07.07,0,1,0-.07.12Z"/>
          <path class="k" d="M76.53,176.47l.77.46c.06,0,.12-.06.06-.09l-.78-.45s-.1.05,0,.08Z"/>
          <path class="k" d="M76.68,177.22c.16.12.32.24.49.35s.12,0,.07-.08a6,6,0,0,0-.5-.38s-.07,0-.09,0a.07.07,0,0,0,0,.09Z"/>
          <path class="k" d="M76.73,178l.51.47a.07.07,0,0,0,.1,0s0-.07,0-.09-.34-.32-.52-.48c0,0-.07,0-.09,0a.07.07,0,0,0,0,.1Z"/>
          <path class="k" d="M76.72,178.78l.26.3.14.14a.64.64,0,0,0,.15.13.06.06,0,0,0,.08-.08l-.13-.15-.14-.14-.29-.27c-.05,0-.12,0-.07.07Z"/>
          <path class="k" d="M77.92,178.06l.4.45a.06.06,0,0,0,.08-.08L78,178a0,0,0,0,0-.07,0,.06.06,0,0,0,0,.08Z"/>
          <path class="k" d="M78.07,177.41l.49.37a.07.07,0,0,0,.09,0,.08.08,0,0,0,0-.09l-.49-.38a.07.07,0,0,0-.09,0,.08.08,0,0,0,0,.1Z"/>
          <path class="k" d="M79.51,178.44l.45.41s.11,0,.07-.07l-.46-.41s-.1,0-.06.07Z"/>
          <path class="k" d="M79.19,178.89c.13.17.26.35.4.51a.08.08,0,0,0,.12-.09c-.13-.18-.28-.35-.42-.52a.07.07,0,1,0-.1.1Z"/>
          <path class="k" d="M77.88,179l.25.29a.81.81,0,0,0,.12.14l.13.14a.08.08,0,0,0,.08,0s0-.06,0-.08l-.11-.15c0-.06-.09-.11-.13-.16l-.26-.29a.07.07,0,0,0-.1,0,.08.08,0,0,0,0,.1Z"/>
          <path class="k" d="M79,179.75c.1.16.21.32.32.47a.07.07,0,0,0,.1,0,.08.08,0,0,0,0-.1l-.33-.47a.07.07,0,0,0-.1,0,.07.07,0,0,0,0,.1Z"/>
          <path class="k" d="M77.79,179.72,78,180l.22.29a.07.07,0,0,0,.08,0,.08.08,0,0,0,0-.09l-.21-.3-.22-.3a.07.07,0,0,0-.09,0s0,.06,0,.08Z"/>
          <path class="k" d="M78.8,180.6l.21.26.1.14a.69.69,0,0,1,.11.13c0,.05.15,0,.1-.08l-.09-.13a.76.76,0,0,0-.11-.14l-.21-.26a.06.06,0,0,0-.09,0,.08.08,0,0,0,0,.09Z"/>
          <path class="k" d="M78.54,181.29c.15.25.3.5.47.73a.07.07,0,1,0,.12-.07c-.14-.25-.31-.49-.47-.73,0-.07-.17,0-.12.07Z"/>
          <path class="k" d="M79.62,181.83a6.15,6.15,0,0,0,.45.68.07.07,0,0,0,.08,0,.07.07,0,0,0,0-.09,8,8,0,0,0-.45-.68.06.06,0,0,0-.1.06Z"/>
          <path class="k" d="M80.13,180.83l.14.18.15.19s.07,0,0,0-.09-.13-.13-.19l-.14-.18a0,0,0,0,0-.06,0,0,0,0,0,0,0,.05Z"/>
          <path class="k" d="M80.16,179.82l.45.54s.07,0,.09,0a.06.06,0,0,0,0-.09l-.45-.53s-.06,0-.09,0a.06.06,0,0,0,0,.08Z"/>
          <path class="k" d="M81.26,180.35l.24.33a3.92,3.92,0,0,0,.25.32c0,.06.14,0,.1-.07a2.75,2.75,0,0,0-.23-.33l-.23-.32s-.07-.05-.1,0a.07.07,0,0,0,0,.1Z"/>
          <path class="k" d="M81,181.24l.37.45s.06,0,.09,0a.07.07,0,0,0,0-.09l-.37-.45s-.07,0-.09,0a.08.08,0,0,0,0,.09Z"/>
          <path class="k" d="M82.06,182.33l.11.24.06.13"/>
          <path class="k" d="M80.78,182.12l.3.47a.07.07,0,0,0,.11,0,.08.08,0,0,0,0-.12l-.3-.47a.09.09,0,0,0-.11,0,.09.09,0,0,0,0,.12Z"/>
          <path class="k" d="M79.33,182.94a.36.36,0,0,0,0-.09.3.3,0,0,0,0-.1"/>
          <path class="k" d="M92.44,171.89l-.37.11a1.78,1.78,0,0,0-.36.14,0,0,0,0,0,0,.06,0,0,0,0,0,.06,0,2.49,2.49,0,0,0,.37-.09l.36-.11a.07.07,0,1,0,0-.14Z"/>
          <path class="k" d="M93.75,172l-.76.26c-.07,0,0,.14,0,.11.25-.08.5-.18.75-.27.07,0,0-.13,0-.1Z"/>
          <path class="k" d="M92.16,172.68l-.66.44a.08.08,0,0,0,0,.1.07.07,0,0,0,.1,0l.66-.43a.08.08,0,0,0,0-.11.07.07,0,0,0-.11,0Z"/>
          <path class="k" d="M90.83,172.72l-.69.47c-.06,0,0,.14.06.09l.69-.46s0-.14-.06-.1Z"/>
          <path class="k" d="M90.33,172.34a2.25,2.25,0,0,0-.81.46.06.06,0,0,0,.09.09,2.66,2.66,0,0,1,.75-.43c.08,0,0-.15,0-.12Z"/>
          <path class="k" d="M89.33,173.67l-.27.32a1.76,1.76,0,0,0-.25.34.05.05,0,0,0,.08.06,1.58,1.58,0,0,0,.28-.3l.27-.32a.08.08,0,0,0,0-.1.08.08,0,0,0-.11,0Z"/>
          <path class="k" d="M90.8,173.71l-.61.49a.09.09,0,0,0,0,.12.09.09,0,0,0,.11,0l.62-.49a.08.08,0,0,0-.12-.12Z"/>
          <path class="k" d="M90.12,175a6,6,0,0,0-.39.7.06.06,0,0,0,0,.08.06.06,0,0,0,.09,0q.12-.15.24-.33l.21-.35c.06-.1-.1-.19-.16-.09Z"/>
          <path class="k" d="M89.24,174.79c-.16.2-.32.4-.47.61,0,.06.06.13.1.07s.32-.39.48-.6c0,0,0-.07,0-.09a.06.06,0,0,0-.09,0Z"/>
          <path class="k" d="M88.58,173.64a2.52,2.52,0,0,0-.35.3,2.48,2.48,0,0,0-.28.36.06.06,0,0,0,.11.06,2.8,2.8,0,0,1,.58-.61.07.07,0,0,0,0-.09.05.05,0,0,0-.08,0Z"/>
          <path class="k" d="M88,175.1c-.11.23-.23.47-.33.71a.07.07,0,0,0,0,.1.07.07,0,0,0,.1,0c.12-.23.24-.47.35-.7a.08.08,0,0,0,0-.11.08.08,0,0,0-.11,0Z"/>
          <path class="k" d="M87.07,175.68c-.07.18-.15.35-.22.52s0,.08,0,.09.07,0,.09,0l.21-.54s0-.06,0-.07a.06.06,0,0,0-.07,0Z"/>
          <path class="k" d="M87.49,177a1.46,1.46,0,0,0-.3.8c0,.09.15.11.16,0a1.63,1.63,0,0,1,.28-.74.07.07,0,0,0,0-.11s-.08,0-.11,0Z"/>
          <path class="k" d="M88.7,176.2a2.28,2.28,0,0,0-.3.7c0,.09.11.12.13,0a2.67,2.67,0,0,1,.29-.67.07.07,0,1,0-.12-.07Z"/>
          <path class="k" d="M89.25,177a1.88,1.88,0,0,0-.21.77.08.08,0,0,0,.09.08s.07,0,.08-.08a2.14,2.14,0,0,1,.18-.69s0-.09,0-.11a.07.07,0,0,0-.11,0Z"/>
          <path class="k" d="M88.07,178.56a6.53,6.53,0,0,0-.13.87c0,.08.11.09.13,0a8.46,8.46,0,0,0,.16-.85.08.08,0,0,0-.16,0Z"/>
          <path class="k" d="M87,178.82a2.66,2.66,0,0,0-.1.49.07.07,0,0,0,.13,0,1.57,1.57,0,0,0,.09-.23l.06-.24a.09.09,0,0,0-.06-.11.1.1,0,0,0-.12.06Z"/>
          <path class="k" d="M76.87,171.15l.22.16.1.08.12.07a.05.05,0,0,0,.08,0,.06.06,0,0,0,0-.08.94.94,0,0,0-.12-.09l-.11-.08-.22-.16a.07.07,0,0,0-.1,0,.07.07,0,0,0,0,.1Z"/>
          <path class="k" d="M77.83,171.19l.22.17.24.17s.13-.05.07-.1l-.21-.17-.22-.17s-.07,0-.1,0a.07.07,0,0,0,0,.1Z"/>
          <path class="k" d="M78,171.86l.18.22.09.11.1.11s.05,0,.07,0a.07.07,0,0,0,0-.07l-.09-.13-.09-.11-.19-.22a.06.06,0,1,0-.09.09Z"/>
          <path class="k" d="M79.11,171.89l.21.23.22.23a.06.06,0,0,0,.08,0,.05.05,0,0,0,0-.08,2.25,2.25,0,0,0-.21-.24l-.22-.23a.05.05,0,0,0-.08,0,.06.06,0,0,0,0,.09Z"/>
          <path class="k" d="M79.14,172.83c.1.12.19.25.3.36a.06.06,0,0,0,.09,0,.07.07,0,0,0,0-.1q-.14-.19-.3-.39a.08.08,0,0,0-.11,0,.09.09,0,0,0,0,.12Z"/>
          <path class="k" d="M78.41,172.91a7.59,7.59,0,0,0,.46.65c0,.05.12,0,.08-.06a7.52,7.52,0,0,0-.47-.64s-.1,0-.07,0Z"/>
          <path class="k" d="M79.62,174.06a1,1,0,0,0,.26.47.07.07,0,0,0,.09,0,.07.07,0,0,0,0-.1,1,1,0,0,1-.23-.41s0-.05-.07,0,0,0,0,.08Z"/>
          <path class="k" d="M80,173.12l.21.32a3.46,3.46,0,0,0,.22.31.05.05,0,0,0,.08,0,.07.07,0,0,0,0-.08c-.07-.11-.13-.22-.2-.32l-.21-.31c0-.07-.16,0-.12.06Z"/>
          <path class="k" d="M80.74,173.18l.41.49a.07.07,0,0,0,.09,0s0-.06,0-.09l-.41-.49a.07.07,0,0,0-.09,0,.06.06,0,0,0,0,.09Z"/>
          <path class="k" d="M81,174.43l.2.29a1.56,1.56,0,0,0,.23.28,0,0,0,0,0,.07-.05l-.09-.16-.11-.13-.21-.28s0,0-.07,0a0,0,0,0,0,0,.07Z"/>
          <path class="k" d="M81.73,174.48l.41.42a.09.09,0,0,0,.1,0,.07.07,0,0,0,0-.1l-.41-.41a.07.07,0,0,0-.1,0,.07.07,0,0,0,0,.09Z"/>
          <path class="k" d="M80.53,174.84c.14.19.27.39.41.59,0,0,.11,0,.08-.05s-.29-.38-.43-.58c0,0-.08,0-.06,0Z"/>
          <path class="k" d="M79.71,175c.11.23.22.46.34.68s.13,0,.1,0c-.11-.23-.23-.46-.35-.69,0-.06-.12,0-.09.06Z"/>
          <path class="k" d="M80.51,175.77l.11.29c0,.09.08.19.13.28s.14,0,.11-.05-.07-.18-.1-.28l-.12-.28a.06.06,0,0,0-.08,0,.07.07,0,0,0,0,.08Z"/>
          <path class="k" d="M80.52,177.11l.2.48a.07.07,0,0,0,.13-.05c-.06-.17-.13-.33-.2-.49a.07.07,0,0,0-.09,0,.07.07,0,0,0,0,.08Z"/>
          <path class="k" d="M81.4,176.77c.1.19.19.38.29.56s.11,0,.09-.05l-.3-.55a0,0,0,0,0-.08,0Z"/>
          <path class="k" d="M81.69,175.75c.11.17.22.35.34.51a0,0,0,0,0,.07,0,0,0,0,0,0,0-.07l-.35-.51s-.12,0-.08.05Z"/>
          <path class="k" d="M81.28,177.86c.11.23.22.46.35.68a.08.08,0,0,0,.08,0,.06.06,0,0,0,0-.08c-.1-.24-.22-.46-.33-.69,0-.08-.15,0-.12.07Z"/>
          <path class="k" d="M81.12,178.54c.07.24.14.48.23.71a.05.05,0,0,0,.1,0c-.06-.24-.14-.47-.22-.71a.06.06,0,0,0-.11,0Z"/>
          <path class="k" d="M82,179.67c0,.12.06.25.1.37a2.31,2.31,0,0,0,.18.35.06.06,0,0,0,.1-.06,4.54,4.54,0,0,1-.26-.7c0-.07-.13,0-.12,0Z"/>
        </g>
        <path class="d" d="M75.78,183.11c-1.43,3.25-.17,10.7,2.33,12.44a19.58,19.58,0,0,0,7.36,1.14c4.8,0,6.44-1.14,6.44-1.14,2.45-1.8,3.25-9,1.94-12.43a1.53,1.53,0,0,0-1.42-.94c-4.85,0-11.75.06-15.29.07A1.51,1.51,0,0,0,75.78,183.11Z"/>
      </g>
    </g>
  </g>
</svg>
