<svg xmlns="http://www.w3.org/2000/svg" viewBox="0 0 112.2 70.48">
  <defs>
    <style>.cls-1{fill:#222930;}.cls-2{fill:#eba200;}.cls-3{fill:#3b4aec;}.cls-4{fill:#0d2499;}.cls-5{fill:#fff;}
    </style>
  </defs>
  <title>logo</title>
  <g id="Layer_2" data-name="Layer 2">
    <g id="Layer_1-2" data-name="Layer 1">
      <path class="cls-1"
            d="M10,28.67c0,1.67,0,2.85-.12,3.55a4,4,0,0,1-.74,1.9,3.92,3.92,0,0,1-1.68,1.33A6.2,6.2,0,0,1,5,35.91a6.3,6.3,0,0,1-2.4-.44A3.94,3.94,0,0,1,.89,34.16a4,4,0,0,1-.77-1.9A35.9,35.9,0,0,1,0,28.67V25.83c0-1.67,0-2.85.12-3.55a4,4,0,0,1,2.42-3.23A6.2,6.2,0,0,1,5,18.59,6.3,6.3,0,0,1,7.4,19a4,4,0,0,1,1.7,1.31,3.81,3.81,0,0,1,.77,1.9A32.29,32.29,0,0,1,10,25.83ZM5.68,23.21a5.3,5.3,0,0,0-.13-1.48A.51.51,0,0,0,5,21.41a.58.58,0,0,0-.52.26,3.68,3.68,0,0,0-.18,1.54V31a7.55,7.55,0,0,0,.12,1.79A.52.52,0,0,0,5,33.1a.53.53,0,0,0,.56-.39,8.21,8.21,0,0,0,.13-1.86Z"/>
      <path class="cls-1"
            d="M11.61,18.94H16a10,10,0,0,1,2.72.28,3,3,0,0,1,1.42.8,2.7,2.7,0,0,1,.65,1.27,11.47,11.47,0,0,1,.17,2.3V25a6,6,0,0,1-.33,2.32,2.27,2.27,0,0,1-1.21,1.12,5.68,5.68,0,0,1-2.29.39H15.93v6.69H11.61Zm4.32,2.84V26h.32a1,1,0,0,0,.82-.29,2.06,2.06,0,0,0,.24-1.21V23.15A1.59,1.59,0,0,0,17,22,1.69,1.69,0,0,0,15.93,21.78Z"/>
      <path class="cls-1" d="M22.16,18.94h7.21v3.33H26.48v3.15h2.7v3.16h-2.7v3.65h3.17v3.33H22.16Z"/>
      <path class="cls-1" d="M40.54,18.94V35.56H36.76L34.51,28v7.56H30.89V18.94h3.62l2.42,7.48V18.94Z"/>
      <path class="cls-1" d="M46,18.94H53.3v3.33h-3v3.15H53v3.16H50.3v7H46Z"/>
      <path class="cls-1"
            d="M64.22,28.67c0,1.67,0,2.85-.12,3.55a4,4,0,0,1-2.41,3.23,6.29,6.29,0,0,1-2.47.46,6.21,6.21,0,0,1-2.39-.44,4,4,0,0,1-2.48-3.21,35,35,0,0,1-.13-3.59V25.83c0-1.67,0-2.85.12-3.55a4,4,0,0,1,2.42-3.23,6.79,6.79,0,0,1,4.86,0,4,4,0,0,1,2.48,3.21,35.9,35.9,0,0,1,.12,3.59ZM59.9,23.21a4.93,4.93,0,0,0-.13-1.48.5.5,0,0,0-.53-.32.56.56,0,0,0-.51.26,3.68,3.68,0,0,0-.18,1.54V31a7.78,7.78,0,0,0,.11,1.79.61.61,0,0,0,1.12,0,8.45,8.45,0,0,0,.12-1.86Z"/>
      <path class="cls-1"
            d="M65.83,18.94h3.06a23,23,0,0,1,4.14.24,2.91,2.91,0,0,1,1.77,1.2,5.54,5.54,0,0,1,.68,3.1A4.89,4.89,0,0,1,75,26.09a2.56,2.56,0,0,1-1.9.8,3.19,3.19,0,0,1,1.72.85,2.4,2.4,0,0,1,.55,1,15.66,15.66,0,0,1,.11,2.46v4.38h-4V30a3.88,3.88,0,0,0-.21-1.66c-.14-.21-.51-.31-1.11-.31v7.49H65.83Zm4.32,2.84v3.7a2,2,0,0,0,1-.2c.19-.13.29-.57.29-1.3v-.91a1.44,1.44,0,0,0-.28-1A1.66,1.66,0,0,0,70.15,21.78Z"/>
      <path class="cls-1" d="M18.06,38.69v6.36h-4.9V70.48H4.89V45.05H0V38.69Z"/>
      <path class="cls-1"
            d="M20,38.69H25.8a44.85,44.85,0,0,1,7.92.45,5.49,5.49,0,0,1,3.38,2.31q1.3,1.86,1.31,5.92c0,2.48-.31,4.14-.93,5s-1.82,1.36-3.63,1.53a6.22,6.22,0,0,1,3.3,1.63A4.94,4.94,0,0,1,38.2,57.4a28.92,28.92,0,0,1,.21,4.7v8.38H30.73V59.92a7.42,7.42,0,0,0-.4-3.16c-.27-.41-1-.61-2.11-.61V70.48H20Zm8.27,5.44V51.2a3.67,3.67,0,0,0,2-.38c.37-.26.56-1.09.56-2.49V46.59a2.68,2.68,0,0,0-.54-2A3.1,3.1,0,0,0,28.22,44.13Z"/>
      <path class="cls-1"
            d="M55.9,38.69l4.72,31.79H52.18l-.45-5.71H48.78l-.5,5.71H39.73L44,38.69ZM51.52,59.13q-.63-5.4-1.26-13.35c-.85,6.09-1.37,10.54-1.59,13.35Z"/>
      <path class="cls-1"
            d="M80.8,38.69,76.59,70.48H64L59.26,38.69H68q1.51,13.14,2.17,22.23c.42-6.13.88-11.56,1.36-16.32l.57-5.91Z"/>
      <path class="cls-1" d="M82.19,38.69H96v6.36H90.46v6h5.16v6.05H90.46v7h6.07v6.36H82.19Z"/>
      <path class="cls-1" d="M107.17,38.69V64.12h5v6.36H98.9V38.69Z"/>
      <path class="cls-2" d="M101.86,22.26l10.34-2.6h0a10.8,10.8,0,0,0-13-7.87Z"/>
      <path class="cls-2" d="M105.22,21.38l-1,4.08h0a4.26,4.26,0,0,0,5.16-3.05Z"/>
      <path class="cls-3"
            d="M88.59,35.12l-3.23-.95L91.07,14.7l1.12,3.35c1.88.56,7.27-6.41,8.65-5.2a13,13,0,0,1,3.91,13.45h0A13,13,0,0,1,88.59,35.12Z"/>
      <path class="cls-3"
            d="M101.61,13.59a9.83,9.83,0,1,0-14.2,13.59l-2,7,3.23.95a13,13,0,0,0,16.16-8.82h0A13,13,0,0,0,101.61,13.59Z"/>
      <path class="cls-4"
            d="M90.42,19.49h0L85.29,24a9.91,9.91,0,0,0,2.12,3.17l-2,7a9,9,0,0,0,4.27-2.07h0A8.94,8.94,0,0,0,90.42,19.49Z"/>
      <path class="cls-3"
            d="M77.33,22.26H95.19a0,0,0,0,1,0,0v0a8.93,8.93,0,0,1-8.93,8.93h0a8.93,8.93,0,0,1-8.93-8.93v0a0,0,0,0,1,0,0Z"
            transform="translate(3.88 63.73) rotate(-41.4)"/>
      <path class="cls-3"
            d="M86.21,1H96.66a0,0,0,0,1,0,0V1a5.23,5.23,0,0,1-5.23,5.23h0A5.23,5.23,0,0,1,86.21,1V1a0,0,0,0,1,0,0Z"
            transform="translate(146.48 76.67) rotate(-129.22)"/>
      <path class="cls-3"
            d="M82.59,3.46H93.05a0,0,0,0,1,0,0v0a5.23,5.23,0,0,1-5.23,5.23h0a5.23,5.23,0,0,1-5.23-5.23v0a0,0,0,0,1,0,0Z"
            transform="translate(174.48 21.57) rotate(-173.82)"/>
      <circle class="cls-5" cx="98.84" cy="18.05" r="2.82"/>
      <circle class="cls-1" cx="99.78" cy="17.56" r="1.53"/>
      <rect class="cls-3" x="91.76" y="34.72" width="1.25" height="3.97"/>
      <rect class="cls-3" x="94.73" y="34.72" width="1.25" height="3.97"/>
    </g>
  </g>
</svg>
