<svg xmlns="http://www.w3.org/2000/svg" viewBox="0 0 149.63 86.98">
  <defs>
    <style>.cls-1{fill:#00ffb8;}.cls-2{fill:#222930;}</style>
  </defs>
  <g id="Layer_2" data-name="Layer 2">
    <g id="Layer_1-2" data-name="Layer 1">
      <rect class="cls-1" width="149.63" height="86.98"/>
      <path class="cls-2"
            d="M20,42A9,9,0,0,1,25.8,33.5a11.09,11.09,0,0,1,7.81,0,9.28,9.28,0,0,1,3.07,2,9.35,9.35,0,0,1,2,10.2,8.9,8.9,0,0,1-2,2.93,9.12,9.12,0,0,1-3.07,2,11.09,11.09,0,0,1-7.81,0A9,9,0,0,1,20,42Zm4.76,0A4.67,4.67,0,0,0,25.18,44a4.9,4.9,0,0,0,1.07,1.53,4.71,4.71,0,0,0,1.57,1,5,5,0,0,0,1.89.36,5,5,0,0,0,1.89-.36,5,5,0,0,0,1.58-1A4.74,4.74,0,0,0,34.25,44a4.52,4.52,0,0,0,.4-1.92,4.57,4.57,0,0,0-.4-1.93,4.74,4.74,0,0,0-1.07-1.53,5.14,5.14,0,0,0-1.58-1,5,5,0,0,0-1.89-.36,5,5,0,0,0-1.89.36,4.83,4.83,0,0,0-2.64,2.54A4.72,4.72,0,0,0,24.79,42Z"/>
      <path class="cls-2"
            d="M46.83,57.1H42.28V33.28h7.24A6.17,6.17,0,0,1,54,34.81a5.74,5.74,0,0,1,1.57,4.32A5.73,5.73,0,0,1,54,43.44,6.17,6.17,0,0,1,49.52,45H46.83Zm0-15.79h1.51c1.67,0,2.5-.73,2.5-2.18S50,37,48.34,37H46.83Z"/>
      <path class="cls-2" d="M68,37.13h-5.4v2.93h5.1v3.85h-5.1v3H68v3.85H58V33.28H68Z"/>
      <path class="cls-2" d="M71.24,50.77V33.28h4.54l9,16.34V33.28h4.52V57.62H84.77l-9-17.54V50.77Z"/>
      <path class="cls-2"
            d="M26.72,63v7.71H22.87V63H20.28V59.76h2.59V58.12A7.46,7.46,0,0,1,23.12,56a3.91,3.91,0,0,1,.68-1.27,5,5,0,0,1,1.1-1A5.64,5.64,0,0,1,26.25,53a4.54,4.54,0,0,1,1.43-.23,3.73,3.73,0,0,1,.91.1,5.33,5.33,0,0,1,.84.3v3.37a4,4,0,0,0-.72-.29,2.61,2.61,0,0,0-.69-.1,1.66,1.66,0,0,0-.48.08,1.07,1.07,0,0,0-.46.31,1.3,1.3,0,0,0-.28.67,7.16,7.16,0,0,0-.08,1.18v1.36h2.71V63Z"/>
      <path class="cls-2"
            d="M30.64,65.13a5.29,5.29,0,0,1,.49-2.27A5.68,5.68,0,0,1,32.49,61a6.42,6.42,0,0,1,2.08-1.22,7.45,7.45,0,0,1,2.63-.45,7.37,7.37,0,0,1,2.61.44A6.34,6.34,0,0,1,41.9,61a5.57,5.57,0,0,1,1.38,1.85,5.78,5.78,0,0,1,.48,2.38,5.55,5.55,0,0,1-.49,2.37,5.79,5.79,0,0,1-1.38,1.86,6,6,0,0,1-2.1,1.2,7.88,7.88,0,0,1-2.65.43,7.55,7.55,0,0,1-2.6-.43,6,6,0,0,1-2.06-1.21,5.74,5.74,0,0,1-1.84-4.33Zm4.07.05a2.6,2.6,0,0,0,.2,1,2.75,2.75,0,0,0,.54.8,2.5,2.5,0,0,0,.78.53,2.47,2.47,0,0,0,1,.19A2.46,2.46,0,0,0,39,67a2.72,2.72,0,0,0,.53-.8,2.38,2.38,0,0,0,.21-1,2.29,2.29,0,0,0-.21-1,2.6,2.6,0,0,0-.53-.8,2.16,2.16,0,0,0-.79-.53,2.44,2.44,0,0,0-1-.2,2.48,2.48,0,0,0-1,.2,2.21,2.21,0,0,0-.78.53,2.7,2.7,0,0,0-.54.79A2.32,2.32,0,0,0,34.71,65.18Z"/>
      <path class="cls-2"
            d="M46,59.76h3.86v1.79a4.42,4.42,0,0,1,1.51-1.5,4.05,4.05,0,0,1,2.09-.52h.33a2.1,2.1,0,0,1,.41,0v3.69a3.59,3.59,0,0,0-1.66-.39,2.49,2.49,0,0,0-2,.8A3.55,3.55,0,0,0,49.84,66v4.68H46Z"/>
      <path class="cls-2" d="M62.34,57V70.69H58.17V57H54.74V53.42H75.41V57Z"/>
      <path class="cls-2"
            d="M66.82,59.76h3.85v1.79a4.44,4.44,0,0,1,1.52-1.5,4,4,0,0,1,2.08-.52h.33a2.27,2.27,0,0,1,.42,0v3.69a3.62,3.62,0,0,0-1.66-.39,2.5,2.5,0,0,0-2,.8A3.61,3.61,0,0,0,70.67,66v4.68H66.82Z"/>
      <path class="cls-2"
            d="M85.31,59.76h3.88V70.69H85.31V69.48A4,4,0,0,1,82,71a5.45,5.45,0,0,1-2.19-.43A5.24,5.24,0,0,1,78,69.37a5.75,5.75,0,0,1-1.16-1.85,6.29,6.29,0,0,1-.41-2.32,6.16,6.16,0,0,1,.4-2.23A5.74,5.74,0,0,1,78,61.13a5.26,5.26,0,0,1,3.94-1.71,4.46,4.46,0,0,1,3.39,1.43ZM80.45,65.2a2.72,2.72,0,0,0,.19,1,2.9,2.9,0,0,0,.52.8,2.67,2.67,0,0,0,.79.53,2.53,2.53,0,0,0,1,.19,2.4,2.4,0,0,0,1-.19A2.44,2.44,0,0,0,84.7,67a2.67,2.67,0,0,0,.53-.79,2.24,2.24,0,0,0,.21-1,2.32,2.32,0,0,0-.21-1,2.6,2.6,0,0,0-.53-.8,2.29,2.29,0,0,0-.79-.53,2.4,2.4,0,0,0-1-.19,2.53,2.53,0,0,0-1,.19,2.49,2.49,0,0,0-.79.53,3,3,0,0,0-.52.78A2.48,2.48,0,0,0,80.45,65.2Z"/>
      <path class="cls-2" d="M95,59.76l2.6,5.61,2.65-5.61h4.3L98.9,70.69H96.32L90.7,59.76Z"/>
      <path class="cls-2"
            d="M108.87,65.88c0,1.66.78,2.49,2.35,2.49a2.09,2.09,0,0,0,1.89-1h3.73q-1.12,3.75-5.65,3.75a7.34,7.34,0,0,1-2.53-.42,5.57,5.57,0,0,1-2-1.18,5.24,5.24,0,0,1-1.27-1.83,6.1,6.1,0,0,1-.45-2.39,6.82,6.82,0,0,1,.43-2.46A5.17,5.17,0,0,1,106.61,61a5.57,5.57,0,0,1,1.91-1.19,7.42,7.42,0,0,1,2.53-.41,7.22,7.22,0,0,1,2.49.41A5,5,0,0,1,115.41,61a5.08,5.08,0,0,1,1.17,1.93,7.6,7.6,0,0,1,.41,2.56v.41Zm4.52-2.24a2.33,2.33,0,0,0-.79-1.3,2.45,2.45,0,0,0-2.91,0,2.14,2.14,0,0,0-.71,1.32Z"/>
      <path class="cls-2" d="M123,53.76V70.69h-3.86V53.76Z"/>
      <path class="cls-2"
            d="M111.08,55.12l1.3-1.3a1.64,1.64,0,0,0,.47-1.41L111,40.56l4-3.83c2-1.87.88-3.58.88-3.58s-1.7-1.08-3.58.88c-.58.61-2.46,2.54-3.83,4L96.55,36.11a1.64,1.64,0,0,0-1.41.47l-1.3,1.3,10.42,4.41-2.46,2.56a1.7,1.7,0,0,1-1.16.51l-3.72.12a.47.47,0,0,0-.38.2l-.38.54,4.5,1.8,2.08,4.78.54-.38a.47.47,0,0,0,.2-.38l.12-3.72a1.7,1.7,0,0,1,.51-1.16l2.56-2.46Z"/>
      <circle class="cls-2" cx="127.9" cy="68.61" r="2.49"/>
    </g>
  </g>
</svg>
