<svg xmlns="http://www.w3.org/2000/svg" viewBox="0 0 721.05 350.62">
  <defs>
    <style>
      path {
          fill: #39579D
      }
    </style>
  </defs>
  <path class="cls-1" d="M451.09,174.47h0l.13.05c0-.06,0-.12,0-.17Z"/>
  <path class="cls-1" d="M550.53,240.21l-.1,0a1,1,0,0,1,0,.17Z"/>
  <path class="cls-1" d="M451,174.46l.15-.11a10.2,10.2,0,0,0-1.1,0l.27,0Z"/>
  <path class="cls-1" d="M450.35,174.41c.23,0,.45.05.68.05h0Z"/>
  <path class="cls-1"
        d="M689.91,57.67c-1.85-.25-4.33-1.05-5.5-.2-6.51,4.74-13.53-.12-20.11,1.48-1.74.42-3.3.2-4.1-1.49-2-4.31-5.61-4.47-9.49-3.62s-7-.83-10.52-2.3c-7.41-3.07-14.81-7.62-23.27-.65-4.38,3.61-11.53-.43-17,2.57-.12.06-2-2-2-3.07-.16-9.15-7.88-7.18-11.38-5.77-9.24,3.71-16.3-2.91-25.09-1.77,1.54-3.83,6.19-3.72,4.93-7.3s-5-3-7.91-4.09C550,28.3,542.27,27,534.75,33.62c-1.27,1.11-4.17.21-6.25.59-5.51,1-13,.7-15.6,4.81-2.83,4.52-5.94,4.82-9.37,4.48-4.75-.47-2.77,6.32-8.14,6.15-2.24-.06-6.85-2.64-9.21,1.35-1.64,5.67,4.86,12-2.26,17.33,3.55-5.78-2.92-11.44.65-17.21h0c-.25-4.66-3.48-5.73-6.57-3.76-5.09,3.25-8.42,7.87-3.6,14.81-5.46-1.87-10.9-6.36-14.26-3.17-3.5,3.34-7.18,3.44-10.2,3.07-6-.74-10.76,1.14-15.57,3.9-1.31.76-3.35,3.26-3.52-.34-.13-2.82-1.61-3.31-3.31-3.06-2.88.42-1.54,2.77-1.39,4.47.12,1.28.74,2.85-1.37,2.95-1.41.06-3.09,1.06-4.1-1C415.37,57.85,403.11,58,394,55c-7.67-2.52-17.74,1.83-24.57,8.81C363,70.41,358.23,78.51,349.5,83c-4.28,2.23-2.28,7.44-.77,11,1.83,4.27,5.1,2.54,7.93.59,2.22-1.52,3.23-.22,4.29,1.63,5.43,9.45,5.19,9.26,11.17-.19,2.08-3.28,4.7-5.29.87-9.14-1.19-1.19.64-4.1,2.42-5.36,2.62-1.86,5.21-3.54,6.49-6.76.68-1.71,2.37-3.53,4.27-1.64s-.29,3.46-1.63,4.47c-5.7,4.29-6.52,8.37-.73,13.51,1.67,1.48,4.53,5.53-1.41,6.43-1.63.25-1.84,1.55-2.47,2.71-2.76,5.1-15.17,8.79-19.9,6.08-1.66-.95-2.21-2.09-1.39-3.9,3-6-5.73-5.57-4.56.26.38,1.76,1.7,4.44-.29,5.08-9.4,3.06-14.32,13.32-25.18,14.4a14.16,14.16,0,0,0,1.82,2.41c2.6,1.94,5.6,3.81,4.21,7.67s-5,2.46-7.64,2.14c-5.6-.67-8.45.62-7.74,7.07.4,3.59-1.44,7.53,3.65,9.28,1.64.56,2.67,2.89,1.32,3.87-5.15,3.7-5.5,10.65-10.06,14.44-10.1,8.49-15.61,24.43-8.67,35.9,7.52,11.75,17.58,17.54,31.61,12.55,5.32-1.88,9.46.91,14.2,1.68,9.7,1.59,3.6,7.17,4.11,11.24.23,1.82,2.35,3.37,3.47,5.13,4.24,6.63,8.16,13.27,3.09,21.35a9.13,9.13,0,0,0-.62,7.79c4.12,11.35,8.53,22.6,12.91,33.86.63,1.61,2.13,2.23,3.85,2.41,12.17,1.31,31.62-14.69,30.77-26.61-.43-5.94,2-8.56,6-10.66,5.45-2.89,6.61-7.94,4.47-12.19-6.43-12.8.78-20,9.62-26.91a34.64,34.64,0,0,0,11-15.39c1.61-4.23.42-5-3.89-4.5-3.32.37-7.2,4-11.07-.88,9-2.82,16.81-6.74,24.56-10.81a16,16,0,0,0,7.9-9.7c1.09-3.71-4.19-3.41-5.41-6a17.59,17.59,0,0,1-.87-2.78l-.13-.05H451c-7.54,5.77-10.68,4.28-16.74-9.75,6,4.63,10.07,9.07,15.79,9.68a10.2,10.2,0,0,1,1.1,0c0,.05,0,.11,0,.17a30.64,30.64,0,0,0,14.58,2.24c4.64-.51,17.21,8.53,18,13,1,5.6,3.27,10.66,5.68,15.68,1.07,2.22.83,6.25,4.14,5.95s5.1-3.81,5.44-7.1c1.23-11.89,10.85-15.72,19.44-20.56,1-.58,2.22-1.76,3.4-.05,3.65,5.3,7.83,10.21,11.88,15.11,4.38,5.3,2,14.7,6.51,22-4.46-.33-6.27-4.73-10.46-1.95,3.76,3.77,7.08,7.56,9.38,12.07a17,17,0,0,0,11.22,9.3c.2-2.21,2.4-4.52.21-6.58-6.8-6.38-2.5-18-11.4-23.56-2-1.28-2.1-5.49.4-7.1,2.34-1.52,4,1.48,5.58,3,2.21,2.06,3.14,6.7,7.79,2.51,4-3.54,7-6.79,3.43-12.12-1.17-1.75-3.11-3.06-4-4.91-2-4,.12-6.86,3.94-6.28,7.13,1.09,12.44-2.94,17.94-5.65,6.54-3.24,10.75-13.95,7.55-19.11-3-4.84-2.17-7.78,1.76-10.67-2.35-2.26-6.37.92-7.19-2.81-.44-2,2.58-3.66,3.78-3.31,4.74,1.37,10.69,1.49,11.72,8.26.34,2.22-.21,5.59,3.79,4,3-1.18,3.36-3.63,2.29-6.64-2.18-6.15.9-11.81,7.3-12.59,3.07-.38,4.77-1.85,6.6-3.81,4.63-4.94,8.63-10.26,10.17-17.88,2,5-.52,9.68,2.66,14.53,2-3.8,1.76-7.28,2.56-10.16.88-3.16.65-9.63-3-10.55-2.61-.66-5.56-3-9.13-1.76-1.67.59-4.53-1.22-1.53-3.86,6.07-5.36,11.24-12.18,21.09-10.51,7.1,1.2,14.48,2,19.18-5.88.85-1.45,3.46-3.05,5.26-.15s1.64,5.3-1.44,7.89c-8.4,7.08-8.85,10.48-3.73,20.74,4.48-4.95,11.88-9.06,11.48-15.58-.61-9.78,5.31-10.09,11.15-9.87,8,.3,12.88-7.73,20.94-6.86,1.57.17.54-2.13.54-3.33,0-5,4.62-8.54,8.19-5.61,6.52,5.36,9.55.65,14.83-3.73C709.27,67.29,701.05,59.18,689.91,57.67ZM411.15,70.54c2.05,1.7,6.14-.29,6.06,2.74-.09,3.65-4.71,1-6.92,3.1-1.07,1-2.48-2-2.62-3.79C407.36,68.86,410.11,71.34,411.15,70.54Zm-12.47,59.38c1-1.36,3.14-2.62,3.94-1,2.57,5.31,7.58,2.44,11.12,4,2.64,1.18,6.58,2.17,6.4,6-.09,2.08-3.22,2.55-5.34,1.74-5.1-2-10.61-2.81-16.48-1a2.55,2.55,0,0,1-3.51-2.23C394.39,134.16,397,132.22,398.68,129.92Zm-12.87,31c-2-.8-4.7-2.54-5.9-.73-3.73,5.63-7.16,3.86-11.65,1.07-3.81-2.37-9.51-2.11-8.81-9.1.24-2.38-2.78-2-4.49-1.89-6.59.27-13.33-.62-19.51,2.92-1.95,1.12-4.42,2.05-7.15-.82,9.52-.24,9.22-10.27,15.53-14.14,5-3,12.12-4.46,16.4-.19,2.93,2.93,7.62,3.46,9.53,8.08.78,1.9,1.86-1.37,3-2h0c1.45-3.23-1.18-4-3.14-5a14.93,14.93,0,0,1-6.24-6.88c7,1.06,11.56,5.1,13.57,11.93,1.11,1.49,2.26,2.94,3.32,4.47.87,1.24,1.43,3.1,3.47,2.17a2.77,2.77,0,0,0,1.48-3.37c-.62-2.24-1-4.37,2-4.94,2.59-.51,3.15,1.74,3.47,3.47,1.34,7.3,7.41,5.26,12,6.43,2.27.58,6.69-2.71,6.53,2.52-.12,4-1.57,7.71-6.95,8.09C396.56,163.31,391.09,163.06,385.81,160.9Zm21.1,11.42c5.9,3.82,15,18.63,16.71,27.82C416.21,194.59,412.52,188.3,406.91,172.32Zm37.95-23.17c.36,1.5-2.44,1.75-3.95,1.25-2.24-.75-5.09-1.65-4-4.82.92-2.67,0-4.47-1.18-6.65-4.53-8.15-3.12-10.46,7.94-11.17-6.38,3.9-3.94,7.39-.48,10.54S444,145.56,444.86,149.15Z"/>
  <path class="cls-1"
        d="M168.66,197.11c-1.44-3.51-10.94,1.56-7.57-7.13.7-1.81,2.61-4.21-.07-5.6-2.43-1.25-4.65.36-6.15,2.45-5.28,7.92-13.63,2.22-13.6-5.75-.71-10.58,2.09-13.57,12.53-13.28a13.87,13.87,0,0,0,4.49-.81c15.87-5,10.45,10,17.11,8.76,6.12-3.18-8.66-9.93,4.77-17.86,2.22-1.38,4.44-2.88,4.75-6,.87-9,9.75-11.87,14.17-18.18.72-1,3.62-2,4.21-1.46,4.43,3.85,7,0,11-2.57-9.31.58-5.42-7.92-10-11.13,6.07-.53,11.6.87,16.78-2.42-.08,3.57-3.32,5.26-2.28,8.23a54.22,54.22,0,0,0,6.92,1.57c1.7.18,4,1.57,5.12-.44,1-1.82-.37-4.12-2-4.7-4-1.43-4.08-4.37-3.77-7.67.23-2.6-.37-5-2.82-6.14-6-2.76-8.8-8.14-11.74-13.47-1.65-3-3-5-6-.78-2.42,3.43-5.68,2.08-6.68-1.24-2-6.64-6.88-7.87-12.69-8.58-3.84-.46-4.58.15-4.84,4.48-.37,6.31,6,13.57-2,19.13-.54.37-.21,2-.23,3.09,0,1.54.46,3.52-1.79,3.73a3.17,3.17,0,0,1-3.27-3c-.3-5.33-4.11-6.33-8.16-7.64-3.77-1.22-7.69-2.58-10.9-4.81s-8.51-4.51-5.72-9.84c4.21-8,12.17-12.61,19.55-17,3.36-2,5.6-2.62,5.4-6.93-.29-6.48,3.53-6.94,8.06-4.28a65.27,65.27,0,0,0,6.31,3.17c3,1.35,2.91,3.18,1.61,6.33-1.78,4.32-7.36,2.64-9.67,7.84,7.56-2.14,12,2.08,16.88,5.43,4.22,2.86,8.55,2.12,10.78-2.76,1.8-3.91-4.84-4.6-4.26-8.57a4.73,4.73,0,0,1,1.49.35c2.56,1.73,5,4.64,7.83.29,3.11-4.75-2.15-4.61-3.84-5.88-2.82-2.14-6.66-2.82-6.46-7.69.08-1.78-2.05-3-3.81-3.77-10.49-4.69-21.12-8.86-32.5-11-4.6-.88-7.48.45-8.84,4.46-1.55,4.55.62,8.07,5.07,9.11,4.75,1.11,4.23,3.7,2.18,6.23-4.75,5.87-3.22-1.87-4.72-2.74-11.2-6.52-11.44-8.24-4.08-16.91-3.47-1.5-8.77-4.11-9.45.21-.75,4.83-6.68,10.77.31,15.87,1.72,1.24.66,4.91-.57,4.39-5.88-2.5-12.26,4.78-17.77-1.07,2.14-2,7.24-3.72,3.93-6.66a21.91,21.91,0,0,1-6-9c-2.52-6.34-6.7-.46-8.5-.13C108.6,49,103.61,40.26,95.64,41c-3.16.31-7.19-2.41-8.71,2.52-.78,2.55-3.64,5.44-.48,8S92.91,54,95.79,51c2.38-2.43,2.44.48,3.06,1.36,1.56,2.22,4.3,4.27,2.92,7.4-.87,2-2.69.4-4.14.13-10.77-2-21.56-4.59-32.3.08a7,7,0,0,1-5.43.38c-8.36-3.2-17.3-3.13-25.92-4.8-16.5-3.2-17.3-3.14-30.85,8.23l8.2,6.7c-5.23-1-8.82-1-11.33,2,2.35,6.28,8.68,3.1,13,4.94-1.67,3.36-4.67,2.33-6.58,3.77C-1.81,87,8.61,91.73,13.71,94.27c1.79.75,4.91-.32,5.17,2.38.2,2.15-2.54,3.11-4.24,4.36-1.1.8-3.11.54-3.3,2.86,4.23.41,6.89-2.67,10.23-4,5.11-2,7.4-7.19,14-8.86a28.18,28.18,0,0,1,16,.32c7,2.18,14.81,3.24,19.76,10.05C76.14,108,79,116.53,87.65,119.91c.92.36,2.13,1.43,1.33,2.47-3.74,4.87-1.16,10.46-1.89,15.65-1,7.53,3.26,13.65,8.63,18a28.17,28.17,0,0,1,8,9.45,45.92,45.92,0,0,0,12.61,15.89c-.12-4.62-3.6-6.23-3.11-10.73,4.22,4.82,9.59,8.4,10.9,13.11,1.62,5.81,5.3,7.83,9.59,9.4,8.83,3.23,17.91,5.78,26.88,8.6C162.74,199.22,167.84,201.88,168.66,197.11Zm-6-57.88c-2.59-5.07-1.94-7.44,2.2-9.2Zm1.72-15.86c1.1.63,1.27,2.19.58,2.58-2.62,1.48-5.31.11-9.47.2C159,122.42,161.48,121.69,164.38,123.37ZM116.51,65.65c-2.87-.62-6.26,1.41-8.62-1.57-.29-.37-.13-1.27,1-1.6,2.58-.77,9.26,1.06,11.13,3.32C118.81,67,117.62,65.88,116.51,65.65Z"/>
  <path class="cls-1"
        d="M263.47,237.49A57.71,57.71,0,0,0,235.06,230c2.76-5.69.93-11.82-4.12-12.43-11.19-1.35-17.24-13.31-29.93-12.13-5.42.51-10.84-1.87-15.81,2.56-3.84,3.43-8.74,2.12-12.8.86-3.73-1.15-2.66-5.25-2.41-8.43.11-1.27.27-2.7-1.33-3.35.34,6.77-4.23,5-8,4.63,3.84,4.76,7.26,10.48,13.9,11.24,6.94.79,9.5,3.81,5.26,9.17-7.12,9-7.05,16.94-.32,26,3.42,4.6,4.39,11.29,10.28,13.75,6.42,2.67,6.73,7.16,5.95,13a321.24,321.24,0,0,1-6.49,36c-1.08,4.33,3.52,8.78.42,12.09-4.64,4.94-2.12,10.33-2.36,15.43-.43,8.95,7.37,14.24,16.45,11.45-5.49-4.72-6.58-9.63-.75-14.79,1.15-1,2.91-2.42,1.8-4-5-6.95,3.74-9.76,4.86-15.09,1.27-6.07,14.32-4.1,14.29-14.18,0-.18,1.45-.29,2.17-.58,7.13-2.87,10.68-9.31,13.13-15.63,1.86-4.78,4-8.43,8.74-9.21,7.27-1.21,9.7-6.28,10.59-12.2a29.33,29.33,0,0,1,7-15.67C269.19,244.36,268.85,240.46,263.47,237.49Z"/>
  <path class="cls-1" d="M168.66,197.11c-.82,4.77-5.92,2.11-8,4.63C164.43,202.15,169,203.88,168.66,197.11Z"/>
  <path class="cls-1"
        d="M297.81,36c-3-4.8,2.94-4.21,1.4-7.11-6.69-13,8.65-11.77,14.81-18.63-5.45-4.24-10.92.34-16.31-.38-1.5-.2-7-2.49-7-3.19.15-3.16.1-3-1.76-3.74-12.54-4.8-25.24-2.53-38-1.25-4.22.43-6.06,1.59-3.56,6.28-14.16-3.55-27.94-2.75-40.24,4.91-.88,1.32-3.57,2-1.53,4.36h0c.61,3.16-1.71,3.07-3.77,3.79-3.35,1.18-7.35.94-9.91,3.71.31,2.77,3.56,2.24,3.93,4,1.48,6.84,5.77,6.58,11.34,5.58,9.22-1.66,16.88,4.45,18.76,14.31.23,1.21-.66,2.52.4,3.76,4.89,5.68,4.81,5.68,3.19,14a8.21,8.21,0,0,0,.32,4.72c3.5,7.66,6.37,15.68,15.68,18.9,3.71,1.29,5.18,1.17,6.55-2.49,1.75-4.65,3.35-12.55,6.11-13,8.56-1.56,12.83-10.2,21.83-10.72C288.52,63.19,302.09,42.78,297.81,36Z"/>
  <path class="cls-1"
        d="M623.28,251.34a58,58,0,0,1-1.21,6c-.62,2,.61,5.57-3.21,5.31a7.92,7.92,0,0,1-6.72-5.05c-2.74-6.73-7.13-7.94-12.62-3.1-1.11,1-1.58,3.77-3.3,2.76-5.74-3.37-7.84,1.7-10.4,4.47-3.67,4-7.23,7.2-12.9,8.38-6.1,1.27-8.51,5.54-7,12.1,1.33,5.65,4.64,10.8,4,17-.26,2.39,2.12,2.85,4.08,2.39,4.62-1.08,9.42-1.83,13.75-3.67,13.17-5.61,22.16-3.51,31,7.88,5.9,7.63,18.45,6.08,22.31-2.73,4.12-9.19,10-16.82,2.3-25.9C636.26,269.08,629.87,260.57,623.28,251.34Z"/>
  <path class="cls-2"
        d="M207.19,12.86c-2.14-5.85,6.42-2.2,5.69-7.26-1.16-.55-2.69-1.72-4.38-2-17.41-2.93-34.35.28-51.22,4.18-1.29.29-2.73.51-2,2.48,1.58,4.5.17,3.74-2.73,1.74s-5.61-.45-7.79,1.78c-1.12,1.15-2.53,3.2-1.11,4.15,4.14,2.78,6.39,8.88,13,7.61,1.52-.3,3.93-2.39,4.74.46.65,2.31-1.88,3.34-3.45,4.71-2.49,2.17-5,1-7.54.55-2.34-.45-4.73-2.49-7,.53,1.63,3.3,7.1.46,7.69,4.4.77,5.07,4.52,4.58,7.81,4.87a72.06,72.06,0,0,0,10.39.14c2.89-.16,7.84,1.21,7.13-3.55-.52-3.52-5.23-2.87-8.34-2.21-3.48.74-6.87,2.15-10.38-.87.95-.58,1.33-1,1.73-1,4.79-.1,9.58-.19,14.38-.16,1.82,0,5,.77,5-.94.13-6.09,7.75-5.22,9-11,.87-4.14,14.41-6.38,17.93-4.2h0C201.21,14,205,13.73,207.19,12.86Z"/>
  <path class="cls-2" d="M207.19,12.86c-2.19.87-6,1.17-1.53,4.36C203.62,14.88,206.31,14.18,207.19,12.86Z"/>
  <path class="cls-3"
        d="M605.52,235.6c9.49-.39,12.19,16.72,24.24,9.25.46-.28,2.12,1.32,3.19,2.09,1.93,1.4,3.75,3.06,7.35,2-1.6-1.69-2.93-2.69-3.73-4-5.92-9.68-13.69-15.08-25.57-11.51-1.58.47-2.38-.51-3.06-1.79-1.29-2.44-3.67-4.26-5.49-1.62C601.21,231.77,604,235.66,605.52,235.6Z"/>
  <path class="cls-4"
        d="M574.27,213.61c-5.44,3.64-8.73,7.56-14.24,10.35-5.24,2.36-3.39,5.31-1.35,8.08,4.08,5.55,11.63,4.11,15.32-1.68,2.79-4.37-.63-9.27,2.39-13.32C576.67,216.67,575.12,214.94,574.27,213.61Z"/>
  <path class="cls-5"
        d="M424.64,273.41c.1,2.58-.39,5.65,2.85,6.76,2.53.86,5.08.16,5.89-2.6,2.27-7.77,6-15.29,4.75-24.72C429.88,258.29,424.3,264,424.64,273.41Z"/>
  <path class="cls-6"
        d="M449,55.87c.87-.58,2.5.57,2.75-1.66,1.33-11.71,4.11-14.73,15.81-17.85,1.94-.76,8.38-1.63,7.59-4.47a1.8,1.8,0,0,0-2.45-1.33c-10.42,3.68-23.28,3-28.56,15.9-.73,1.77-3.95,3.13-1.76,5.31C444.14,53.52,446,55.83,449,55.87Z"/>
  <path class="cls-7"
        d="M328.3,118.05c5.71-1.32,17,0,10.33-9.14-2.23-3.24-6.5-5.61-5.64-10.82.14-.9-2-3.91-4.71-3.23-4,1.15-2.09,6.06-2.28,9.12C333.29,107.64,325.7,113.55,328.3,118.05Z"/>
  <path class="cls-7" d="M326,104v0l-.13-.07.06.06Z"/>
  <path class="cls-8"
        d="M309.44,74.4c-1.85-8.81-9.56-2-14.33-2.9-5.54,0-6.09.25-5.31,1.89,1.72,3.65,3.87,7.18,8.87,6.57C303.11,79.42,310.36,78.78,309.44,74.4Z"/>
  <path class="cls-9"
        d="M104.26,39.22c5.37,1.49,10.62,1.93,16,.11,1.67-.56,4-.19,4.34-2.64.2-1.25-1-2-2-2-2.28-.07-4.12-4.88-5.86-1.86-2,3.4-3.1,2.32-5.33,1.08a9.93,9.93,0,0,0-8.44-.36C101.43,35.85,99.75,38,104.26,39.22Z"/>
  <path class="cls-9" d="M102.84,33.57h0l.08,0,0-.09-.13.11Z"/>
  <path class="cls-10"
        d="M607.57,153.26c-1.91.74-4.24.46-5.21,2.86,14.56,2,20.46-1.18,21.08-11.3.09-1.61.15-3.45-1.66-4-2.24-.68-2.51,1.43-2.83,2.85C617.57,149.76,612.4,151.39,607.57,153.26Z"/>
  <path class="cls-11"
        d="M686.89,315.15c-.91-.2-2.56-.24-2.82.23-2.26,4.1-6.52,6.06-9.55,9.28a4.51,4.51,0,0,0-.79,3.55c.34,1.46,1.95,1.48,3.3,1.45,2.26-.07,11.27-9.75,11.4-12.14A2,2,0,0,0,686.89,315.15Z"/>
  <path class="cls-12"
        d="M131.84,47.4c-.11,3.25,4.22,3.9,6.75,5.49,3.11,0,4.39-1.72,4.23-4.49s-.47-5-4.16-5.45C134.79,42.5,131.92,45.14,131.84,47.4Z"/>
  <path class="cls-9"
        d="M320.36,114.26c5.95-1,5.86-5.78,5.51-10.23-5.22-.42-8.63,1.54-8.86,7.21C316.92,113.26,317.71,114.72,320.36,114.26Z"/>
  <path class="cls-9" d="M325.93,104l-.06-.06V104H326Z"/>
  <path class="cls-12"
        d="M686.93,301.69c-.29,3,2.61,5,1.44,7.83-1.28,3.06,1.24,4.7,2.71,6.78C696.77,310.5,696.77,310.5,686.93,301.69Z"/>
  <path class="cls-9" d="M103,33.46l-.06,0a.83.83,0,0,1-.07.13Z"/>
  <path class="cls-9"
        d="M102.91,33.44c1.9-3.28,3-6.2-2.94-5a12.51,12.51,0,0,0-8.43,5.3C95.81,37.36,99.21,32.1,102.91,33.44Z"/>
  <polygon class="cls-9" points="102.84 33.57 102.97 33.46 102.84 33.57 102.84 33.57"/>
  <path class="cls-13" d="M168.19,183c7.05-2.82,11.38,6.07,20.51,3.82C180.74,183.57,175.52,177.9,168.19,183Z"/>
  <path class="cls-14"
        d="M134,26.4a3,3,0,0,0,3.86-.26,8.54,8.54,0,0,0-1.29-2.64,12.32,12.32,0,0,0-9.28-3.25c-1.06.05-1.23.94-.92,2.28C127.46,27.07,131.72,24.71,134,26.4Z"/>
  <path class="cls-15" d="M550.41,240.35l.23,0-.11-.16h0Z"/>
  <path class="cls-15" d="M566.53,244.69c-4.65-4.21-10.4-3.72-15.89-4.32C554.68,247,561,244.09,566.53,244.69Z"/>
  <path class="cls-15" d="M550.53,240.21h0l-.12.14Z"/>
  <path class="cls-16" d="M484.9,55.74a15.44,15.44,0,0,0,.34,1.9C485.12,57,485,56.38,484.9,55.74Z"/>
  <path class="cls-17" d="M199.6,189.67c-4.32-2.48-7.91-4.44-11.27,2.16C192.61,192,196.22,193.15,199.6,189.67Z"/>
  <path class="cls-4"
        d="M629,135.05c.64-2.1-2.37-3.3-3.63-3.37-4.39-.28-4,4.07-5.58,6.91C622.68,136.55,627.53,139.79,629,135.05Z"/>
  <path class="cls-13"
        d="M633,315.14c-1.68,0-3.87-.57-4,2.33.39,2.19,1.37,4,3.86,4.09,2.14.05,3.25-1.56,3.56-3.49C636.87,315.4,634.88,315.12,633,315.14Z"/>
  <path class="cls-18" d="M451,174.46h.06l.09-.12Z"/>
  <path class="cls-18" d="M451,174.46h0Z"/>
  <path class="cls-18" d="M450.35,174.41l-.27,0h.27Z"/>
</svg>
