<?xml version="1.0" encoding="utf-8"?>
<!-- Generator: Adobe Illustrator 25.0.0, SVG Export Plug-In . SVG Version: 6.00 Build 0)  -->
<svg version="1.1" id="Layer_1" xmlns="http://www.w3.org/2000/svg" xmlns:xlink="http://www.w3.org/1999/xlink" x="0px" y="0px"
	 viewBox="0 0 512 512" style="enable-background:new 0 0 512 512;" xml:space="preserve">
<style type="text/css">
	.st0{fill:#0995A3;}
	.st1{fill:#013F69;}
	.st2{fill:#015081;}
	.st3{fill:#0CABB9;}
	.st4{fill:#2ABBC7;}
	.st5{fill:#84DEEA;}
	.st6{fill:#D3F1F5;}
</style>
<path class="st0" d="M296,270c0,22.1-17.9,40-40,40s-40-17.9-40-40s17.9-40,40-40S296,247.9,296,270z"/>
<path class="st1" d="M350,20c0,11-9,20-20,20c-6.6,0-12.4-3.2-16.1-8.1c-30.9,7.3-53.9,35-53.9,68.1h-20c0-43.4,30.8-79.7,71.7-88.1
	C314.9,4.9,321.9,0,330,0C341,0,350,9,350,20z"/>
<path class="st2" d="M333,5c5.5,0,10,4.5,10,10s-4.5,10-10,10s-10-4.5-10-10S327.5,5,333,5z"/>
<path class="st3" d="M350,275.3H160c-55.2,0-100-44.8-100-100v-10c0-55.2,44.8-100,100-100h190c55.2,0,100,44.8,100,100v10
	C450,230.6,405.2,275.3,350,275.3z M488,364.3c-13.1,27.9-31,53.1-52.8,74.5l-33.9-33.9c-0.4-0.4-0.7-0.7-1-1.1V450
	c0,6.4-0.6,12.6-1.8,18.7C357.8,496,308.8,512,256,512c-53.6,0-103.4-16.5-144.5-44.7c-1-5.6-1.5-11.4-1.5-17.3v-44.4l-33.2,33.2
	c-21.8-21.3-39.7-46.5-52.8-74.5l23.1-23.1c9-9,21.2-12.8,33-11.4c1.1-21.1,18.6-37.8,39.9-37.8c16.2,0,30.1,9.6,36.4,23.5
	c15.5-9.8,33.9-15.5,53.6-15.5h90.3c23.1,0,44.4,7.8,61.3,21c4.8-16.7,20.2-28.9,38.4-28.9c21.3,0,38.7,16.7,39.9,37.7
	c9.1,0.7,18,4.6,25,11.6L488,364.3z"/>
<path class="st4" d="M199,275.3c-55.2,0-100-44.8-100-100v-10c0-55.2,44.8-100,100-100h151c55.2,0,100,44.8,100,100v10
	c0,55.2-44.8,100-100,100H199z M120,372.1c-14.7,0-27.5-7.9-34.5-19.7c-6.3,1.8-12.3,5.2-17.2,10.2L39,391.8
	c10.8,17.1,23.5,32.9,37.8,47l33.9-33.9c9-9,12.8-21.2,11.4-32.9C121.4,372,120.7,372.1,120,372.1z M464.9,341.3
	c-7-7-15.9-10.8-25-11.6c0,0.8,0.1,1.6,0.1,2.3c0,17.4-11.1,32.2-26.6,37.7c1.9,5.1,5,9.9,9.1,14l32.9,32.9
	c12.9-15.9,23.8-33.5,32.6-52.2L464.9,341.3z M360,332.1c0-4,0.6-7.9,1.7-11.5C344.9,307.7,323.8,300,301,300h-51
	c-55.2,0-100,44.8-100,100v50c0,15.5,3.5,30.2,9.8,43.3c29.7,12,62.1,18.7,96.2,18.7c53.1,0,102.5-16.2,143.4-43.9
	c1.1-5.9,1.6-11.9,1.6-18.1v-50c0-9.7-1.4-19.2-4-28.1C376.3,370.4,360,353.1,360,332.1z"/>
<path class="st1" d="M342,195.3H170c-24.9,0-45-20.1-45-45c0-24.9,20.1-45,45-45h172c24.9,0,45,20.1,45,45
	C387,175.2,366.9,195.3,342,195.3z"/>
<path class="st2" d="M342,195.3H195c-24.9,0-45-20.1-45-45c0-24.9,20.1-45,45-45h147c24.9,0,45,20.1,45,45
	C387,175.2,366.9,195.3,342,195.3z"/>
<path class="st5" d="M195,125.3c-13.8,0-25,11.2-25,25c0,13.8,11.2,25,25,25s25-11.2,25-25C220,136.5,208.8,125.3,195,125.3z
	 M195,160.3c-5.5,0-10-4.5-10-10s4.5-10,10-10s10,4.5,10,10S200.5,160.3,195,160.3z M315,125.3c-13.8,0-25,11.2-25,25
	c0,13.8,11.2,25,25,25s25-11.2,25-25C340,136.5,328.8,125.3,315,125.3z M315,160.3c-5.5,0-10-4.5-10-10s4.5-10,10-10s10,4.5,10,10
	S320.5,160.3,315,160.3z"/>
<path class="st5" d="M140,332.1c0,11-9,20-20,20s-20-9-20-20c0-11,9-20,20-20S140,321,140,332.1z M400,312.1c-11,0-20,9-20,20
	c0,11,9,20,20,20s20-9,20-20C420,321,411,312.1,400,312.1z"/>
<path class="st6" d="M140,332.1c0,8.4-5.2,15.6-12.5,18.5c-3.6-1.5-6.7-4-8.9-7.1c-0.8-1.1,0-2.5,1.4-2.5h0c5.2,0,9.4-4.4,8.9-9.7
	c-0.3-3.7-3.1-6.9-6.7-7.8c-0.8-0.2-1.5-0.3-2.2-0.3c-1.3,0-2.1-1.4-1.3-2.5c2.2-3.2,5.3-5.6,8.9-7.1
	C134.8,316.5,140,323.7,140,332.1z M407.5,313.5c-3.6,1.5-6.7,4-8.9,7.1c-0.8,1.1,0,2.5,1.3,2.5c0.7,0,1.5,0.1,2.2,0.3
	c3.6,0.9,6.4,4.1,6.7,7.8c0.5,5.3-3.7,9.7-8.9,9.7c0,0,0,0,0,0c-1.3,0-2.1,1.4-1.4,2.5c2.2,3.2,5.3,5.6,8.9,7.1
	c7.3-3,12.5-10.1,12.5-18.5S414.8,316.5,407.5,313.5z"/>
<path class="st0" d="M330,330c5.5,0,10,4.5,10,10s-4.5,10-10,10s-10-4.5-10-10S324.5,330,330,330z M290,340c0,5.5,4.5,10,10,10
	s10-4.5,10-10s-4.5-10-10-10S290,334.5,290,340z"/>
<path class="st5" d="M270,330c5.5,0,10,4.5,10,10s-4.5,10-10,10s-10-4.5-10-10S264.5,330,270,330z"/>
</svg>
