<svg xmlns="http://www.w3.org/2000/svg" xmlns:xlink="http://www.w3.org/1999/xlink" viewBox="0 0 931.41 321.3">
  <defs>
    <style>
      .a {
        opacity: 0.87;
      }

      .b {
        fill: url(#a);
      }

      .c {
        fill: url(#b);
      }

      .d {
        fill: url(#c);
      }

      .e {
        fill: url(#d);
      }

      .f {
        fill: url(#e);
      }

      .g {
        fill: url(#f);
      }

      .h {
        fill: url(#g);
      }

      .i {
        fill: url(#h);
      }

      .j {
        fill: url(#i);
      }

      .k {
        fill: url(#j);
      }

      .l {
        fill: url(#k);
      }

      .m {
        fill: url(#l);
      }

      .n {
        fill: url(#m);
      }

      .o {
        fill: url(#n);
      }

      .p {
        fill: url(#o);
      }

      .q {
        fill: url(#p);
      }

      .r {
        fill: #415cb9;
      }
    </style>
    <linearGradient id="a" x1="29" y1="346.93" x2="29" y2="167.64" gradientUnits="userSpaceOnUse">
      <stop offset="0" stop-color="#1d2a4b"/>
      <stop offset="1" stop-color="#2f4790"/>
    </linearGradient>
    <linearGradient id="b" x1="205.02" y1="73.43" x2="202.1" y2="348.7" gradientUnits="userSpaceOnUse">
      <stop offset="0" stop-color="#2c3c7a"/>
      <stop offset="1" stop-color="#1d2a4b"/>
    </linearGradient>
    <linearGradient id="c" x1="376.25" y1="346.93" x2="376.25" y2="167.64" xlink:href="#a"/>
    <linearGradient id="d" x1="260.5" y1="346.93" x2="260.5" y2="167.64" xlink:href="#a"/>
    <linearGradient id="e" x1="320.01" y1="74.65" x2="317.09" y2="349.92" xlink:href="#b"/>
    <linearGradient id="f" x1="88.67" y1="72.2" x2="85.75" y2="347.46" xlink:href="#b"/>
    <linearGradient id="g" x1="144.76" y1="346.93" x2="144.76" y2="167.64" xlink:href="#a"/>
    <linearGradient id="h" x1="667.37" y1="78.34" x2="664.45" y2="353.6" xlink:href="#b"/>
    <linearGradient id="i" x1="435.28" y1="75.88" x2="432.36" y2="351.14" xlink:href="#b"/>
    <linearGradient id="j" x1="607.76" y1="346.93" x2="607.76" y2="167.64" xlink:href="#a"/>
    <linearGradient id="k" x1="723.51" y1="346.93" x2="723.51" y2="167.64" xlink:href="#a"/>
    <linearGradient id="l" x1="492.01" y1="346.93" x2="492.01" y2="167.64" xlink:href="#a"/>
    <linearGradient id="m" x1="551.74" y1="77.11" x2="548.82" y2="352.37" xlink:href="#b"/>
    <linearGradient id="n" x1="904.11" y1="80.85" x2="901.2" y2="356.11" xlink:href="#b"/>
    <linearGradient id="o" x1="844.54" y1="346.93" x2="844.54" y2="167.64" xlink:href="#a"/>
    <linearGradient id="p" x1="785.83" y1="79.59" x2="782.91" y2="354.85" xlink:href="#b"/>
  </defs>
  <g>
    <g class="a">
      <path class="b" d="M57.94,321.3V161.68c-28.95,0-28.95-47-57.88-47V321.3Z"/>
      <path class="c" d="M231.56,321.3V88h0c-28.93,0-28.93,189.55-57.85,189.59V321.3Z"/>
      <path class="d" d="M405.19,321.3V46.51h0c-28.93,0-28.93,40.73-57.86,40.74V321.3Z"/>
      <path class="e" d="M289.44,321.3V135h0c-28.92,0-28.93-47-57.86-47V321.3Z"/>
      <path class="f" d="M347.32,321.3v-234h0c-28.93,0-28.93,47.77-57.86,47.79V321.3Z"/>
      <path class="g" d="M115.81,321.3v-244h0c-17.68,0-23.93,28-32.13,51.74-6,17.5-13.46,32.69-25.73,32.69h0V321.3Z"/>
      <path class="h" d="M173.72,277.84c-31.45-3.93-27.83-200.54-57.91-200.59V321.3h57.91Z"/>
      <path class="i" d="M694.57,321.3v-187h0c-28.93,0-28.94,27.41-57.86,27.42V321.3Z"/>
      <path class="j" d="M463.07,321.3V1.08h0c-28.92,0-28.93,45.43-57.85,45.44V321.3Z"/>
      <path class="k" d="M636.7,321.3V161.68h0c-28.93,0-28.94-82.22-57.86-82.26V321.3Z"/>
      <path class="l" d="M752.45,321.3V178.72c-28.94,0-29-44.45-57.88-44.46v187Z"/>
      <path class="m" d="M521,321.3V183.62h0C492,183.62,492,1.19,463.07,1.08V321.3Z"/>
      <path class="n" d="M578.82,321.3V79.42h0c-28.92,0-28.93,104.13-57.85,104.2V321.3Z"/>
      <path class="o" d="M873.48,321.3V160.89c28.94,0,28.94-47,57.87-47V321.3Z"/>
      <path class="p" d="M815.6,321.3V77.06h0c28.93,0,28.93,83.83,57.87,83.83h0V321.3Z"/>
      <path class="q" d="M752.45,321.3V178.72c42.72,2.21,31.6-101.55,63.15-101.6V321.3Z"/>
    </g>
    <path class="r" d="M173.78,278.1c-17.09,0-25.53-63.61-33-119.72-1.36-10.29-2.65-20-3.95-28.89-5.43-37.39-13.27-47.89-17.46-50.83-2-1.42-3.35-1.17-3.36-1.17l-.15,0c-12.12,0-20,12.07-29.17,44.54-7.38,26.2-17,39.62-28.69,39.89a21,21,0,0,1-14.09-4.47c-5.42-4.05-11-11.3-17.16-22.14-6.66-11.8-13.53-16.72-18.12-18.77-5-2.2-8.37-1.64-8.41-1.64L0,113.62c.15,0,3.78-.65,9.07,1.68,4.8,2.12,12,7.2,18.84,19.37,6,10.69,11.53,17.8,16.8,21.74A19.79,19.79,0,0,0,58,160.61c11-.25,20.24-13.35,27.44-38.92C90.14,105,94.24,94.36,98.74,87.32c4.83-7.57,10.26-11.11,17.06-11.14A5.94,5.94,0,0,1,120,77.47c5.38,3.63,12.91,15.57,18.18,51.82,1.29,8.89,2.58,18.62,4,28.91,3.53,26.59,7.53,56.74,12.65,79.75,5.73,25.76,12.13,38.82,19,38.82,16.44,0,24.92-67.14,28.11-92.41.53-4.14.94-7.4,1.25-9.4.24-1.56.54-3.68.92-6.36,1.57-11.11,4.49-31.79,8.89-49.24C218.45,97.57,224.54,87,231.57,87h.06C246.2,87.09,253,98,259,107.6c1.27,2.05,2.48,4,3.73,5.78.44.62.87,1.25,1.3,1.87,6.65,9.62,13.53,19.55,25.44,18.73,12.73-.89,18.55-6.13,31.16-28.07,6-10.52,13-15.32,17.71-17.49a21.68,21.68,0,0,1,9.09-2.24h.06A20.13,20.13,0,0,0,357,84.34c5.12-2.17,12.67-7.3,19.6-19.39,5.8-10.11,13.26-14.88,18.51-17.09a28.26,28.26,0,0,1,10.17-2.42h.1s3.74.54,9-1.81c4.85-2.18,12-7.37,18.68-19.67C446.06-.12,457.8,0,462.8,0h.3c2.65,0,6.19,1,10.18,8.28,4.66,8.54,9.15,24.39,13.34,47.09,2.08,11.21,4.05,23.75,6,35.88,3.52,22.31,7.16,45.38,11.7,62.63,5,19.13,10.51,28.51,16.73,28.66h.24c15.24,0,24-35,28.21-51.82.76-3,1.41-5.61,1.94-7.39.35-1.19.74-2.56,1.18-4.15,4-14.25,11.43-40.77,26.26-40.84h.09c6.49,0,11.9,3.54,16.54,10.81,4.09,6.42,7.12,14.78,10.33,23.64.85,2.36,1.74,4.79,2.63,7.16.77,2,1.54,4.12,2.28,6.14,6.46,17.6,12.56,34.22,26,34.51h.76c14.51,0,23.62-9.11,31.67-17.16l.57-.56c8.69-8.67,17.85-9.75,24.87-9.71,6.77,0,16.13,2.46,28.51,21,12.68,19.05,18.16,23.42,29.36,23.42,14.15,0,24.27-11.77,30.93-36,1.33-4.82,2.61-9.91,3.84-14.83,3.13-12.43,6.36-25.29,10.63-34.76,4.87-10.76,10.65-16,17.68-16,.64-.13,4.48-.68,9.53,3.09,7.07,5.28,13,16.19,17.75,32.43,11.76,40.55,19.85,48.24,30.67,48.24A23.05,23.05,0,0,0,889,153.87c4.17-3.54,8.2-8.86,12.32-16.26,6.84-12.26,15.76-24.8,30.1-24.8v1.33c-13.65,0-22.29,12.19-28.94,24.11-8.83,15.84-17.75,22.9-28.93,22.9-6.78,0-11.9-3.18-16.63-10.29C852,143.4,847.24,131.4,841.6,112c-5.72-19.73-12.47-28.09-17.13-31.63-5-3.77-8.62-3-8.65-3l-.08,0h-.13c-6.55,0-11.79,4.85-16.49,15.24-4.23,9.36-7.44,22.16-10.55,34.53-1.24,4.93-2.51,10-3.85,14.86-6.84,24.88-17.38,37-32.21,37-6.2,0-10.45-1.34-14.67-4.64S729,165.36,722,155c-12-18.06-21-20.42-27.41-20.45-6.74,0-15.58,1-23.93,9.32l-.56.56c-8.38,8.38-17.89,17.87-33.4,17.54-6.5-.14-12-3.85-16.69-11.32-4.16-6.57-7.42-15.46-10.58-24.06-.74-2-1.5-4.1-2.27-6.13-.9-2.37-1.78-4.82-2.64-7.18C598.31,96,592.4,79.68,578.94,79.68h-.08c-13.83.06-21.09,26-25,39.86-.45,1.6-.83,3-1.19,4.18-.52,1.75-1.17,4.34-1.92,7.34-4.63,18.49-13.23,52.81-29.49,52.82H521c-7-.16-12.71-9.58-18-29.64-4.56-17.32-8.2-40.42-11.72-62.76-1.92-12.13-3.89-24.66-6-35.85-9-48.61-17-54.26-22.22-54.29h-.31c-4.77,0-16-.12-28.61,23.27-6.87,12.69-14.35,18-19.41,20.3-5.26,2.34-9,1.94-9.56,1.87a27.91,27.91,0,0,0-9.67,2.34c-5,2.14-12.21,6.74-17.81,16.5-7.14,12.46-15,17.75-20.33,20-5.6,2.36-9.61,2-10.08,1.9a20.73,20.73,0,0,0-8.52,2.15c-4.55,2.1-11.2,6.74-17,16.91-12.75,22.18-19.07,27.82-32.21,28.73-12.68.88-19.77-9.37-26.63-19.29-.43-.63-.86-1.25-1.3-1.87-1.27-1.83-2.48-3.78-3.77-5.84C252,99,245.46,88.41,231.62,88.3h-.05c-6.16,0-12.15,10.85-17.33,31.39-4.39,17.38-7.3,38-8.86,49.1-.38,2.69-.68,4.81-.93,6.37-.31,2-.72,5.24-1.24,9.37-1.74,13.8-4.66,36.89-9.3,56.77C188.12,266.06,181.54,278.1,173.78,278.1Z"/>
  </g>
</svg>
