<?xml version="1.0" encoding="utf-8"?>
<!-- Generator: Adobe Illustrator 25.0.0, SVG Export Plug-In . SVG Version: 6.00 Build 0)  -->
<svg version="1.1" id="Layer_1" xmlns="http://www.w3.org/2000/svg" xmlns:xlink="http://www.w3.org/1999/xlink" x="0px" y="0px"
	 viewBox="0 0 802.2 878.8" style="enable-background:new 0 0 802.2 878.8;" xml:space="preserve">
<style type="text/css">
	.st0{fill-rule:evenodd;clip-rule:evenodd;fill:#FFB495;}
	.st1{fill-rule:evenodd;clip-rule:evenodd;fill:#637D82;}
	.st2{fill:#FFFFFF;}
	.st3{fill-rule:evenodd;clip-rule:evenodd;fill:#CCCCCC;}
	.st4{fill-rule:evenodd;clip-rule:evenodd;fill:#93BDC4;}
	.st5{fill:#637D82;}
	.st6{fill-rule:evenodd;clip-rule:evenodd;fill:#81D6D3;}
	.st7{fill-rule:evenodd;clip-rule:evenodd;fill:#599997;}
	.st8{fill-rule:evenodd;clip-rule:evenodd;fill:#78C4C1;}
	.st9{fill-rule:evenodd;clip-rule:evenodd;fill:#DB9C81;}
	.st10{fill-rule:evenodd;clip-rule:evenodd;fill:#D1957B;}
	.st11{fill-rule:evenodd;clip-rule:evenodd;fill:#88654F;}
	.st12{fill-rule:evenodd;clip-rule:evenodd;fill:#FFFFFF;}
	.st13{fill-rule:evenodd;clip-rule:evenodd;fill:#FF917D;}
	.st14{fill-rule:evenodd;clip-rule:evenodd;fill:#4E8785;}
	.st15{fill-rule:evenodd;clip-rule:evenodd;fill:#E6E6E6;}
</style>
<g>
	<g>
		<path class="st0" d="M743,655.2l-6.7,23.2l-24.3-3.8l-7.4-1.2l-2.1,10.2l-7,34.3c-40.8,11.5-76.5-16-96-64.2
			c-5.1-12.6-4.8-25.7-3.7-39.9c-3,6.6-5,10.7-5,10.7l-85.9,53.6l-2.6-1.5c3.1,10.6,6.9,20.8,11.4,30.8
			c30.8,156.2,116.1,178.2,215,85.7l71.1-37.6l2.4-87.3l-43.7-16.9L743,655.2z"/>
		<path class="st1" d="M775.5,567.2L598,519.7c-11.4-3.1-23.1,3.7-26.2,15.1l-71.7,267.4c-3.1,11.4,3.7,23.1,15.1,26.2L692.8,876
			c11.4,3,23.1-3.7,26.2-15.2l71.7-267.4C793.7,582,786.9,570.3,775.5,567.2z"/>
		
			<rect x="506.1" y="610.9" transform="matrix(0.2588 -0.9659 0.9659 0.2588 -195.7114 1140.7306)" class="st2" width="278.8" height="174"/>
		<path class="st3" d="M739.1,561.3l-106.7-28.6c-5.6-1.4-11.4,1.9-12.9,7.5l-4.6,17.3c-1.4,5.6,1.9,11.4,7.5,12.9L729,599
			c5.6,1.5,11.4-1.9,12.9-7.5l4.7-17.3C748,568.6,744.7,562.8,739.1,561.3L739.1,561.3z M740.1,572.5l-4.7,17.4
			c-0.3,0.9-0.9,1.8-1.8,2.3c-0.8,0.5-1.9,0.7-2.9,0.4l-106.6-28.5c-2.1-0.6-3.4-2.7-2.8-4.8l4.6-17.4c0.6-2,2.7-3.3,4.8-2.7
			l106.7,28.6c0.9,0.3,1.8,0.9,2.3,1.8C740.2,570.4,740.4,571.5,740.1,572.5L740.1,572.5z"/>
		<path class="st4" d="M732.9,546.7l-87.6-23.5c-3.8-1-7.8,1.3-8.8,5.1l-4.7,17.3c-1,3.8,1.3,7.8,5.1,8.8l87.6,23.5
			c3.8,1,7.8-1.3,8.8-5.1l4.6-17.4C739,551.5,736.7,547.6,732.9,546.7z"/>
		
			<rect x="651.1" y="569.3" transform="matrix(0.2588 -0.9659 0.9659 0.2588 -119.233 1096.4722)" class="st5" width="7.5" height="113.2"/>
		
			<rect x="643.8" y="603.6" transform="matrix(0.2588 -0.9659 0.9659 0.2588 -159.1744 1113.0244)" class="st5" width="3.7" height="113.2"/>
		
			<rect x="641.5" y="612.3" transform="matrix(0.2588 -0.9659 0.9659 0.2588 -169.2891 1117.267)" class="st5" width="3.7" height="113.2"/>
		
			<rect x="639.2" y="621.1" transform="matrix(0.2588 -0.9659 0.9659 0.2588 -179.5034 1121.5629)" class="st5" width="3.7" height="113.2"/>
		
			<rect x="636.8" y="629.8" transform="matrix(0.2588 -0.9659 0.9659 0.2588 -189.6724 1125.6863)" class="st5" width="3.7" height="113.2"/>
		
			<rect x="634.5" y="638.5" transform="matrix(0.2588 -0.9659 0.9659 0.2588 -199.7874 1129.9313)" class="st5" width="3.7" height="113.2"/>
		
			<rect x="632.1" y="647.2" transform="matrix(0.2588 -0.9659 0.9659 0.2588 -209.952 1134.056)" class="st5" width="3.7" height="113.2"/>
		
			<rect x="629.8" y="656" transform="matrix(0.2588 -0.9659 0.9659 0.2588 -220.1661 1138.355)" class="st5" width="3.7" height="113.2"/>
		
			<rect x="627.4" y="664.7" transform="matrix(0.2588 -0.9659 0.9659 0.2588 -230.3335 1142.4781)" class="st5" width="3.7" height="113.2"/>
		
			<rect x="625.1" y="673.5" transform="matrix(0.2588 -0.9659 0.9659 0.2588 -240.5623 1146.7677)" class="st5" width="3.7" height="113.2"/>
		<path class="st6" d="M536.2,387.5c-45.6-41.9-79.4-58.8-79.4-58.8l-185.6-1.9C115.5,352,49.3,433.7,35.3,511.5l151.4,125.7
			c9,1.4,19.4-1.8,28.9-11.2c14.2,23.7,22.5,30.1,41.4,43.3c3.4,66-7.6,137.4-20.8,209.6h310.5c8.1-289.2,90.2-227,40.8-402.2
			C581.5,443.9,561.2,410.4,536.2,387.5z"/>
		<path class="st7" d="M35.4,511.4l151.4,125.7c7.2,1.2,15.1-0.6,22.8-6L45.9,474.6C41.1,486.5,37.6,498.8,35.4,511.4z"/>
		<path class="st8" d="M528.9,558.9l-5.9,1.4c4.7-51.7,1.1-103.8-10.8-154.4c-3-12.7-12.1-36.9-19-53.9c-6.2-4.5-11.8-8.4-16.6-11.5
			c9.5,21.2,21,50.5,25.1,67.9c11.5,49.1,15.1,99.9,10.6,150.2C461.2,505.5,406.1,458.8,348,417c-38.2-27.5-83.1-56.2-124.1-80.1
			c-4.9,1.3-9.7,2.7-14.4,4.1c43.9,25.2,91.5,55.5,132.2,84.7c57.2,41.1,111.4,87.1,161.8,139.2l-18.9,4.5c-4.1,1.2-7,4.9-7.1,9.2
			v102.2c0,4.1,3.2,6.7,7.1,5.8l44.3-10.5c4.1-1.2,7-4.9,7.1-9.2V564.7C535.9,560.5,532.8,557.9,528.9,558.9z"/>
		<path class="st8" d="M394.2,639.5c-47.1,12.8-123-12.6-132.2-67.4c-10.8,31.5-36,47.9-46.3,53.8c14.1,23.7,22.5,30.1,41.4,43.3
			c3.4,66-7.6,137.4-20.8,209.6h82.9C318.4,771.3,403.1,637.1,394.2,639.5z"/>
		<polygon class="st0" points="743.1,655.3 719.3,743.9 799.7,755.5 802.1,668.2 758.4,651.3 		"/>
		<path class="st7" d="M456.8,328.7l-185.6-1.9l-25.7,4.8C469,486.3,536.4,396,456.8,328.7z"/>
		<path class="st9" d="M448.2,202.3l-134.7-36.9l-42.3,161.3c178.2,121.1,239.3,61.1,186.5,2.9L448.2,202.3z"/>
		<path class="st10" d="M271.2,326.8c50.9,34.6,92.2,54.4,124.1,63.7c-44.2-47.7-74.8-73.7-96.4-169.5L271.2,326.8z"/>
		<path class="st0" d="M289.8,109.1l88.2,210l99.9-8.9c18.9-67.1,37.7-171.5,5-237.3L289.8,109.1z"/>
		<path class="st11" d="M375.2,109.8l-85.4-0.6c-0.9,6.6-5,26.1-4.2,30.5c-58.2,30.5,9.8,75.9,4,116.9l47.6-34.6
			C399.8,182.1,313.8,136.2,375.2,109.8z"/>
		<path class="st12" d="M375.9,248.6l17.8,34.8c0,0,58.5-0.1,65.8-2s5.6-31.9,5.6-31.9L375.9,248.6z"/>
		<path class="st11" d="M470.4,150.9c-4.7,0-8.5,8.3-8.5,18.6c0,2.3,0.2,4.6,0.6,6.9c5.3-0.8,10.6-1.1,16-1.1c0.3-2,0.4-3.9,0.4-5.9
			C478.9,159.2,475.1,150.9,470.4,150.9z"/>
		<path class="st11" d="M409.4,150.4c-4.7,0-8.5,8.3-8.5,18.6c0,2,0.1,4,0.4,5.9c5.4,0,10.7,0.4,16,1.1c0.4-2.3,0.6-4.6,0.6-6.9
			C417.9,158.8,414.1,150.5,409.4,150.4z"/>
		<path class="st11" d="M456.1,127.9c-2.2,0-0.2,13.1-0.2,13.1l48.7,3.7l-2.2-11.2C502.4,133.5,458.3,127.9,456.1,127.9z"/>
		<path class="st11" d="M429.3,125.7c-2.2,0-46.3,5.6-46.3,5.6l-2.2,11.2l48.7-3.6C429.5,138.9,431.5,125.7,429.3,125.7z"/>
		<path class="st0" d="M329.1,171.4c-16.6,0-30.1,13.5-30.1,30.1s13.5,30.1,30.1,30.1s30.1-13.5,30.1-30.1l0,0
			C359.2,184.9,345.7,171.4,329.1,171.4L329.1,171.4z"/>
		<polygon class="st13" points="437.4,214.8 466.7,213.4 442.8,166.1 		"/>
		<path class="st11" d="M490.7,0.6c-7.3-6.4-128.8,42.6-189.4,93.2c-34.9,29.1-56.8,6.5-56.8,6.5c5,24.1,15.8,40.9,41.1,39.3
			l89.6-29.9l107.7-36.8C482.9,72.9,502.4,10.7,490.7,0.6z"/>
		<path class="st8" d="M35.3,511.4l42,34.9c16.2-63.9,49.7-148,114.9-199.6C92.4,382.7,46.6,448.3,35.3,511.4z"/>
		<path class="st14" d="M35.4,511.4l42,34.9c2.6-10.4,5.8-21.4,9.4-32.7l-40.8-39C41.1,486.5,37.6,498.8,35.4,511.4z"/>
		<g>
			<path class="st0" d="M186.8,637.1L35.3,511.4C-38.8,630,7.6,764.2,137.2,878.8h148.2C201.3,806.3,169,709.9,186.8,637.1z"/>
			<path class="st9" d="M74.6,544l-39.3-32.6C-38.8,630,7.6,764.2,137.2,878.8h20.9C77.1,791,17,678.7,74.6,544z"/>
		</g>
		<path class="st7" d="M497.7,353.7c-6.6-5-12.5-9.3-17.8-12.9c10,20.2,18,40.6,23,61.9c11.6,49.1,15.2,99.9,10.7,150.2
			c-51.1-53.1-106.2-99.8-164.4-141.6c-39.7-28.6-80.9-54.9-123.1-79.3c-5,1.3-9.8,2.6-14.6,4c45.3,25.7,89.2,53.7,131.5,84
			c60.7,43.7,118,92.7,171,148.8l8,8.5l1.3-11.6c6.1-55.4,3.3-110.5-9.7-165.5C509.8,384.3,504.5,368.7,497.7,353.7z"/>
		<path class="st7" d="M538.5,545.2l-44.3,10.5c-4.1,1.2-7,4.9-7.1,9.2V667c0,4.1,3.2,6.7,7.1,5.8l44.3-10.5c4.1-1.2,7-4.9,7.1-9.2
			V551C545.6,546.9,542.4,544.2,538.5,545.2z"/>
		<path class="st15" d="M530,563.3l-25.8,6.1c-2.4,0.7-4.1,2.9-4.2,5.4v35.9c-0.2,1.8,1.2,3.4,3,3.5c0.3,0,0.7,0,1.1-0.1l25.8-6.1
			c2.4-0.7,4.1-2.9,4.2-5.4v-35.9c0.2-1.8-1.2-3.4-3-3.5C530.7,563.2,530.3,563.2,530,563.3z"/>
		<g>
			<polygon class="st8" points="332.4,619.3 421.1,599.5 421.1,576.7 332.4,596.5 			"/>
			<polygon class="st7" points="337.3,611.8 426,591.9 426,569.1 337.3,589 			"/>
			<polygon class="st12" points="353.1,600.3 410.2,587.5 410.2,580.8 353.1,593.5 			"/>
		</g>
	</g>
	<path class="st10" d="M313.1,197.5l14.8,2.8c-6.1,3.1,2.3,19.8,10.9,18c5.7-1.1,5.4-10.9,1.6-18
		C335.1,190.3,318.2,179.7,313.1,197.5z"/>
</g>
</svg>
