<?xml version="1.0" encoding="utf-8"?>
<!-- Generator: Adobe Illustrator 25.0.0, SVG Export Plug-In . SVG Version: 6.00 Build 0)  -->
<svg version="1.1" id="Layer_1" xmlns="http://www.w3.org/2000/svg" xmlns:xlink="http://www.w3.org/1999/xlink" x="0px" y="0px"
	 viewBox="0 0 802.2 878.8" style="enable-background:new 0 0 802.2 878.8;" xml:space="preserve">
<style type="text/css">
	.st0{fill-rule:evenodd;clip-rule:evenodd;fill:#FFB495;}
	.st1{fill-rule:evenodd;clip-rule:evenodd;fill:#637D82;}
	.st2{fill:#FFFFFF;}
	.st3{fill-rule:evenodd;clip-rule:evenodd;fill:#CCCCCC;}
	.st4{fill-rule:evenodd;clip-rule:evenodd;fill:#93BDC4;}
	.st5{fill:#637D82;}
	.st6{fill-rule:evenodd;clip-rule:evenodd;fill:#81D6D3;}
	.st7{fill-rule:evenodd;clip-rule:evenodd;fill:#599997;}
	.st8{fill-rule:evenodd;clip-rule:evenodd;fill:#78C4C1;}
	.st9{fill-rule:evenodd;clip-rule:evenodd;fill:#DB9C81;}
	.st10{fill-rule:evenodd;clip-rule:evenodd;fill:#D1957B;}
	.st11{fill-rule:evenodd;clip-rule:evenodd;fill:#88654F;}
	.st12{fill-rule:evenodd;clip-rule:evenodd;fill:#FFFFFF;}
	.st13{fill-rule:evenodd;clip-rule:evenodd;fill:#FF917D;}
	.st14{fill-rule:evenodd;clip-rule:evenodd;fill:#4E8785;}
	.st15{fill-rule:evenodd;clip-rule:evenodd;fill:#E6E6E6;}
</style>
<g>
	<g>
		<path class="st0" d="M43.7,651.3L0,668.2l2.4,87.3l71.1,37.6c98.9,92.5,184.2,70.5,215-85.7c4.5-10,8.3-20.2,11.4-30.8l-2.6,1.5
			l-85.9-53.6c0,0-2-4.1-5-10.7c1.1,14.2,1.4,27.3-3.7,39.9c-19.5,48.2-55.2,75.7-96,64.2l-7-34.3l-2.1-10.2l-7.4,1.2l-24.3,3.8
			l-6.7-23.2L43.7,651.3z"/>
		<path class="st1" d="M11.5,593.4l71.7,267.4C86.3,872.3,98,879,109.4,876L287,828.4c11.4-3.1,18.2-14.8,15.1-26.2l-71.7-267.4
			c-3.1-11.4-14.8-18.2-26.2-15.1L26.7,567.2C15.3,570.3,8.5,582,11.5,593.4z"/>
		
			<rect x="69.8" y="558.5" transform="matrix(0.9659 -0.2588 0.2588 0.9659 -175.2744 64.37)" class="st2" width="174" height="278.8"/>
		<path class="st3" d="M63.1,561.3c-5.6,1.5-8.9,7.3-7.5,12.9l4.7,17.3c1.5,5.6,7.3,9,12.9,7.5l106.6-28.6c5.6-1.5,8.9-7.3,7.5-12.9
			l-4.6-17.3c-1.5-5.6-7.3-8.9-12.9-7.5L63.1,561.3L63.1,561.3z M62.1,572.5c-0.3-1-0.1-2.1,0.4-2.9c0.5-0.9,1.4-1.5,2.3-1.8
			l106.7-28.6c2.1-0.6,4.2,0.7,4.8,2.7l4.6,17.4c0.6,2.1-0.7,4.2-2.8,4.8L71.5,592.6c-1,0.3-2.1,0.1-2.9-0.4
			c-0.9-0.5-1.5-1.4-1.8-2.3L62.1,572.5L62.1,572.5z"/>
		<path class="st4" d="M64.3,555.4l4.6,17.4c1,3.8,5,6.1,8.8,5.1l87.6-23.5c3.8-1,6.1-5,5.1-8.8l-4.7-17.3c-1-3.8-5-6.1-8.8-5.1
			l-87.6,23.5C65.5,547.6,63.2,551.5,64.3,555.4z"/>
		
			<rect x="90.8" y="622.2" transform="matrix(0.9659 -0.2588 0.2588 0.9659 -156.9745 59.4709)" class="st5" width="113.2" height="7.5"/>
		
			<rect x="100" y="658.4" transform="matrix(0.9659 -0.2588 0.2588 0.9659 -165.5524 63.0236)" class="st5" width="113.2" height="3.7"/>
		
			<rect x="102.3" y="667.1" transform="matrix(0.9659 -0.2588 0.2588 0.9659 -167.7326 63.9276)" class="st5" width="113.2" height="3.7"/>
		
			<rect x="104.6" y="675.9" transform="matrix(0.9659 -0.2588 0.2588 0.9659 -169.9237 64.8265)" class="st5" width="113.2" height="3.7"/>
		
			<rect x="107" y="684.6" transform="matrix(0.9659 -0.2588 0.2588 0.9659 -172.0958 65.7322)" class="st5" width="113.2" height="3.7"/>
		
			<rect x="109.3" y="693.3" transform="matrix(0.9659 -0.2588 0.2588 0.9659 -174.2775 66.6376)" class="st5" width="113.2" height="3.7"/>
		
			<rect x="111.7" y="702" transform="matrix(0.9659 -0.2588 0.2588 0.9659 -176.4526 67.541)" class="st5" width="113.2" height="3.7"/>
		
			<rect x="114" y="710.8" transform="matrix(0.9659 -0.2588 0.2588 0.9659 -178.6458 68.4414)" class="st5" width="113.2" height="3.7"/>
		
			<rect x="116.4" y="719.5" transform="matrix(0.9659 -0.2588 0.2588 0.9659 -180.8185 69.3459)" class="st5" width="113.2" height="3.7"/>
		
			<rect x="118.7" y="728.3" transform="matrix(0.9659 -0.2588 0.2588 0.9659 -182.9982 70.2512)" class="st5" width="113.2" height="3.7"/>
		<path class="st6" d="M214.7,476.7c-49.4,175.2,32.7,113,40.8,402.2h310.5c-13.2-72.2-24.2-143.6-20.8-209.6
			c18.9-13.2,27.2-19.6,41.4-43.3c9.5,9.4,19.9,12.6,28.9,11.2l151.4-125.7c-14-77.8-80.2-159.5-235.9-184.7l-185.6,1.9
			c0,0-33.8,16.9-79.4,58.8C241,410.4,220.7,443.9,214.7,476.7z"/>
		<path class="st7" d="M756.3,474.6L592.6,631.1c7.7,5.4,15.6,7.2,22.8,6l151.4-125.7C764.6,498.8,761.1,486.5,756.3,474.6z"/>
		<path class="st8" d="M266.2,564.7v102.2c0.1,4.3,3,8,7.1,9.2l44.3,10.5c3.9,0.9,7.1-1.7,7.1-5.8V578.6c-0.1-4.3-3-8-7.1-9.2
			l-18.9-4.5c50.4-52.1,104.6-98.1,161.8-139.2c40.7-29.2,88.3-59.5,132.2-84.7c-4.7-1.4-9.5-2.8-14.4-4.1
			c-41,23.9-85.9,52.6-124.1,80.1c-58.1,41.8-113.2,88.5-164.3,141.6c-4.5-50.3-0.9-101.1,10.6-150.2c4.1-17.4,15.6-46.7,25.1-67.9
			c-4.8,3.1-10.4,7-16.6,11.5c-6.9,17-16,41.2-19,53.9c-11.9,50.6-15.5,102.7-10.8,154.4l-5.9-1.4
			C269.4,557.9,266.3,560.5,266.2,564.7z"/>
		<path class="st8" d="M483,878.8h82.9c-13.2-72.2-24.2-143.6-20.8-209.6c18.9-13.2,27.3-19.6,41.4-43.3
			c-10.3-5.9-35.5-22.3-46.3-53.8c-9.2,54.8-85.1,80.2-132.2,67.4C399.1,637.1,483.8,771.3,483,878.8z"/>
		<polygon class="st0" points="43.8,651.3 0.1,668.2 2.5,755.5 82.9,743.9 59.1,655.3 		"/>
		<path class="st7" d="M556.7,331.6l-25.7-4.8l-185.6,1.9C265.8,396,333.2,486.3,556.7,331.6z"/>
		<path class="st9" d="M344.5,329.6c-52.8,58.2,8.3,118.2,186.5-2.9l-42.3-161.3L354,202.3L344.5,329.6z"/>
		<path class="st10" d="M503.3,221c-21.6,95.8-52.2,121.8-96.4,169.5c31.9-9.3,73.2-29.1,124.1-63.7L503.3,221z"/>
		<path class="st0" d="M319.3,72.9c-32.7,65.8-13.9,170.2,5,237.3l99.9,8.9l88.2-210L319.3,72.9z"/>
		<path class="st11" d="M465,222l47.6,34.6c-5.8-41,62.2-86.4,4-116.9c0.8-4.4-3.3-23.9-4.2-30.5l-85.4,0.6
			C488.4,136.2,402.4,182.1,465,222z"/>
		<path class="st12" d="M337.1,249.5c0,0-1.7,30,5.6,31.9s65.8,2,65.8,2l17.8-34.8L337.1,249.5z"/>
		<path class="st11" d="M323.3,169.4c0,2,0.1,3.9,0.4,5.9c5.4,0,10.7,0.3,16,1.1c0.4-2.3,0.6-4.6,0.6-6.9c0-10.3-3.8-18.6-8.5-18.6
			S323.3,159.2,323.3,169.4z"/>
		<path class="st11" d="M384.3,169.1c0,2.3,0.2,4.6,0.6,6.9c5.3-0.7,10.6-1.1,16-1.1c0.3-1.9,0.4-3.9,0.4-5.9
			c0-10.3-3.8-18.6-8.5-18.6C388.1,150.5,384.3,158.8,384.3,169.1z"/>
		<path class="st11" d="M299.8,133.5l-2.2,11.2l48.7-3.7c0,0,2-13.1-0.2-13.1C343.9,127.9,299.8,133.5,299.8,133.5z"/>
		<path class="st11" d="M372.7,138.9l48.7,3.6l-2.2-11.2c0,0-44.1-5.6-46.3-5.6S372.7,138.9,372.7,138.9z"/>
		<path class="st0" d="M473.1,171.4c-16.6,0-30.1,13.5-30.1,30.1c0,0,0,0,0,0c0,16.6,13.5,30.1,30.1,30.1s30.1-13.5,30.1-30.1
			S489.7,171.4,473.1,171.4C473.1,171.4,473.1,171.4,473.1,171.4z"/>
		<polygon class="st13" points="359.4,166.1 335.5,213.4 364.8,214.8 		"/>
		<path class="st11" d="M319.3,72.9l107.7,36.8l89.6,29.9c25.3,1.6,36.1-15.2,41.1-39.3c0,0-21.9,22.6-56.8-6.5
			C440.3,43.2,318.8-5.8,311.5,0.6C299.8,10.7,319.3,72.9,319.3,72.9z"/>
		<path class="st8" d="M610,346.7c65.2,51.6,98.7,135.7,114.9,199.6l42-34.9C755.6,448.3,709.8,382.7,610,346.7z"/>
		<path class="st14" d="M756.2,474.6l-40.8,39c3.6,11.3,6.8,22.3,9.4,32.7l42-34.9C764.6,498.8,761.1,486.5,756.2,474.6z"/>
		<g>
			<path class="st0" d="M516.8,878.8H665C794.6,764.2,841,630,766.9,511.4L615.4,637.1C633.2,709.9,600.9,806.3,516.8,878.8z"/>
			<path class="st9" d="M644.1,878.8H665C794.6,764.2,841,630,766.9,511.4L727.6,544C785.2,678.7,725.1,791,644.1,878.8z"/>
		</g>
		<path class="st7" d="M288.6,400.2c-13,55-15.8,110.1-9.7,165.5l1.3,11.6l8-8.5c53-56.1,110.3-105.1,171-148.8
			c42.3-30.3,86.2-58.3,131.5-84c-4.8-1.4-9.6-2.7-14.6-4c-42.2,24.4-83.4,50.7-123.1,79.3c-58.2,41.8-113.3,88.5-164.4,141.6
			c-4.5-50.3-0.9-101.1,10.7-150.2c5-21.3,13-41.7,23-61.9c-5.3,3.6-11.2,7.9-17.8,12.9C297.7,368.7,292.4,384.3,288.6,400.2z"/>
		<path class="st7" d="M256.6,551v102.1c0.1,4.3,3,8,7.1,9.2l44.3,10.5c3.9,0.9,7.1-1.7,7.1-5.8V564.9c-0.1-4.3-3-8-7.1-9.2
			l-44.3-10.5C259.8,544.2,256.6,546.9,256.6,551z"/>
		<path class="st15" d="M271.1,563.2c-1.8,0.1-3.2,1.7-3,3.5v35.9c0.1,2.5,1.8,4.7,4.2,5.4l25.8,6.1c0.4,0.1,0.8,0.1,1.1,0.1
			c1.8-0.1,3.2-1.7,3-3.5v-35.9c-0.1-2.5-1.8-4.7-4.2-5.4l-25.8-6.1C271.9,563.2,271.5,563.2,271.1,563.2z"/>
		<g>
			<polygon class="st8" points="469.8,596.5 381.1,576.7 381.1,599.5 469.8,619.3 			"/>
			<polygon class="st7" points="464.9,589 376.2,569.1 376.2,591.9 464.9,611.8 			"/>
			<polygon class="st12" points="449.1,593.5 392,580.8 392,587.5 449.1,600.3 			"/>
		</g>
	</g>
	<path class="st10" d="M461.8,200.3c-3.8,7.1-4.1,16.9,1.6,18c8.6,1.8,17-14.9,10.9-18l14.8-2.8C484,179.7,467.1,190.3,461.8,200.3z
		"/>
</g>
</svg>
