<svg xmlns="http://www.w3.org/2000/svg" viewBox="0 0 561.52 501.23"><defs><style>.cls-1,.cls-6{fill:#363f62;}.cls-1,.cls-3,.cls-5,.cls-7{fill-rule:evenodd;}.cls-2{fill:#fff;}.cls-3{fill:#cbcbcb;}.cls-4,.cls-5{fill:#272f57;}.cls-7{fill:#00ffb6;}.cls-8{fill:#eba200;}.cls-9{fill:#3b4aec;}.cls-10{fill:#5f66f8;}.cls-11{fill:#2c42af;}.cls-12{fill:#222930;}</style></defs><title>Asset 1</title><g id="Layer_2" data-name="Layer 2"><g id="Layer_1-2" data-name="Layer 1"><path class="cls-1" d="M527.3,8.77l-279.75,1a32.68,32.68,0,0,0-32.46,32.7l1.52,421.25a32.66,32.66,0,0,0,32.69,32.46l279.76-1a32.68,32.68,0,0,0,32.46-32.7L560,41.23A32.67,32.67,0,0,0,527.3,8.77Z"/><rect class="cls-2" x="246.21" y="40.37" width="284.2" height="424.21" transform="translate(-0.85 1.31) rotate(-0.19)"/><path class="cls-3" d="M469.16,19.18l-168,.6a16.06,16.06,0,0,0-16,16.1l.09,27.33a16.06,16.06,0,0,0,16.1,16l168-.6a16.06,16.06,0,0,0,16-16.09l-.1-27.33a16,16,0,0,0-16.09-16Zm6,16,.1,27.32a5.94,5.94,0,0,1-5.89,5.94l-168,.6a5.92,5.92,0,0,1-5.93-5.89l-.1-27.33A5.91,5.91,0,0,1,297,31.66a5.82,5.82,0,0,1,4.16-1.75l168-.61a5.94,5.94,0,0,1,5.93,5.9Z"/><path class="cls-1" d="M454.09,0l-138,.5a11,11,0,0,0-10.94,11l.1,27.33a11,11,0,0,0,11,10.93l138-.5a11,11,0,0,0,10.94-11l-.1-27.33A11,11,0,0,0,454.09,0Z"/><rect class="cls-4" x="330.27" y="184.47" width="172.25" height="11.39" rx="5.69" transform="translate(-0.68 1.5) rotate(-0.21)"/><rect class="cls-4" x="274.91" y="115.41" width="172.25" height="11.39" rx="5.69" transform="translate(-0.43 1.3) rotate(-0.21)"/><path class="cls-5" d="M381.23,140.06l-100.41.36a5.85,5.85,0,0,0-5.91,5.54,5.69,5.69,0,0,0,5.71,5.84l100.66-.36a5.69,5.69,0,0,0,5.67-5.69h0A5.69,5.69,0,0,0,381.23,140.06Z"/><rect class="cls-6" x="330.56" y="214.26" width="172.25" height="11.39" rx="5.69" transform="translate(-0.79 1.5) rotate(-0.21)"/><rect class="cls-4" x="330.86" y="244.05" width="172.25" height="11.39" rx="5.69" transform="translate(-0.89 1.5) rotate(-0.21)"/><rect class="cls-4" x="331.15" y="273.85" width="172.25" height="11.39" rx="5.69" transform="translate(-1 1.5) rotate(-0.21)"/><rect class="cls-6" x="331.44" y="303.64" width="172.25" height="11.39" rx="5.69" transform="translate(-1.11 1.5) rotate(-0.21)"/><rect class="cls-6" x="331.73" y="333.43" width="172.25" height="11.39" rx="5.69" transform="translate(-1.21 1.5) rotate(-0.21)"/><rect class="cls-6" x="332.03" y="363.23" width="172.25" height="11.39" rx="5.69" transform="translate(-1.32 1.5) rotate(-0.21)"/><polygon class="cls-5" points="274.91 180.29 274.91 200.11 299.29 200.03 299.29 180.21 274.91 180.29"/><polygon class="cls-1" points="274.91 210.09 274.91 229.91 299.29 229.82 299.29 210 274.91 210.09"/><polygon class="cls-5" points="275.3 239.88 275.3 259.7 299.68 259.61 299.68 239.79 275.3 239.88"/><polygon class="cls-5" points="275.3 269.67 275.3 289.49 299.68 289.4 299.68 269.58 275.3 269.67"/><polygon class="cls-1" points="274.91 299.46 274.91 319.29 299.29 319.2 299.29 299.38 274.91 299.46"/><polygon class="cls-1" points="274.91 329.26 274.91 349.08 299.29 348.99 299.29 329.17 274.91 329.26"/><polygon class="cls-1" points="274.91 359.05 274.91 378.87 299.29 378.78 299.29 358.96 274.91 359.05"/><path class="cls-7" d="M291.32,173.14a62.67,62.67,0,0,0-4.45,11.48,37,37,0,0,0-4-5.4c-2.48-2.8-6.3,1.61-3.84,4.38a27.29,27.29,0,0,1,6,12c.68,2.82,5.29,2.39,5.62-.42a57.7,57.7,0,0,1,5.85-19.46C298.25,172.34,293,169.79,291.32,173.14Z"/><path class="cls-7" d="M290.85,232.38a62.67,62.67,0,0,0-4.45,11.48,36.49,36.49,0,0,0-4-5.4c-2.48-2.8-6.3,1.61-3.84,4.38a27.36,27.36,0,0,1,6.06,12c.67,2.82,5.28,2.38,5.61-.43a57.84,57.84,0,0,1,5.85-19.46C297.78,231.57,292.54,229,290.85,232.38Z"/><path class="cls-7" d="M290.85,262.17a62.67,62.67,0,0,0-4.45,11.48,37,37,0,0,0-4-5.4c-2.48-2.8-6.3,1.61-3.84,4.38a27.41,27.41,0,0,1,6.06,12c.67,2.82,5.28,2.39,5.61-.42a57.7,57.7,0,0,1,5.85-19.46C297.78,261.37,292.54,258.82,290.85,262.17Z"/><path class="cls-8" d="M175.3,339.08l63.64-57.95h0a87.18,87.18,0,0,0-122.51-6.38Z"/><path class="cls-8" d="M195.85,320l8.45,32.84h0a34.39,34.39,0,0,0,25.07-41.39Z"/><path class="cls-9" d="M106.21,474.28,79,473.69l3.39-163.75,15.79,23.73c15.83.4,43.12-65.29,56.43-58.77a104.92,104.92,0,0,1,58.85,96.54h0a104.93,104.93,0,0,1-107,102.84Z"/><path class="cls-10" d="M162.21,279A79.35,79.35,0,1,0,77.26,413.1c1,.62,2,1.22,3,1.8l-.8,58.77,27.17.58A105,105,0,0,0,213.91,371.7v-.29h0A104.92,104.92,0,0,0,162.21,279Z"/><path class="cls-11" d="M87.47,348.63h0L57,394.6a80,80,0,0,0,23.21,20.22l-.8,58.77a72.72,72.72,0,0,0,28.9-25.14h0A72.18,72.18,0,0,0,87.47,348.63Z"/><path class="cls-10" d="M.53,454.13,80,333.83h0a72.09,72.09,0,0,1,20.43,99.88h0A72.08,72.08,0,0,1,.53,454.13Z"/><path class="cls-10" d="M84,263.93,15.39,214.79h0a42.22,42.22,0,0,1,58.91-9.73h0A42.23,42.23,0,0,1,84,263.93Z"/><path class="cls-10" d="M83.93,263.86.52,277h0a42.22,42.22,0,0,1,35.12-48.29h0a42.22,42.22,0,0,1,48.29,35.12Z"/><circle class="cls-2" cx="150.04" cy="319.64" r="22.76"/><circle class="cls-12" cx="156.33" cy="313.83" r="12.35" transform="translate(-76.63 51.8) rotate(-15.16)"/><polygon class="cls-10" points="133.12 446.24 143.21 446.06 144.05 501.05 133.96 501.23 133.12 446.24"/><polygon class="cls-10" points="157.09 445.8 167.18 445.62 168.02 500.61 157.93 500.79 157.09 445.8"/></g></g></svg>