<?xml version="1.0"?>
<svg xmlns="http://www.w3.org/2000/svg" fill="black" opacity="0.5" version="1.2" baseProfile="tiny" width="800" height="308" viewBox="0 0 800 308" stroke-linecap="round" stroke-linejoin="round">
<g id="worldLow">
<g/>
<g/>
<g/>
<g/>
<g/>
<g/>
<g/>
<g/>
<g/>
<g/>
<g/>
<g/>
<path d="M 409.09 71.09 415.75 66.87 413.09 72.42 409.09 71.09 Z" id="NL"/>
<path d="M 469.2 234.77 464.98 234.32 455.89 224.56 467.2 219.68 472.75 222.12 469.2 234.77 Z" id="ZW"/>
<path d="M 472.75 205.93 473.41 216.14 467.2 219.68 455.89 224.56 451.68 224.12 448.57 213.92 453.01 209.26 462.77 212.81 468.09 203.27 472.75 205.93 Z" id="ZM"/>
<path d="M 469.2 234.77 470.53 242.75 470.97 244.53 472.75 244.53 461.66 258.5 443.25 262.27 436.15 248.52 444.14 248.3 444.14 240.09 447.68 244.75 464.98 234.32 469.2 234.77 Z" id="ZA"/>
<path d="M 517.55 148.27 507.79 153.81 496.26 156.7 494.7 148.71 504.91 147.16 515.11 142.95 517.55 148.27 Z" id="YE"/>
<g/>
<g/>
<path d="M 475.63 115.89 475.63 115.67 476.3 115 475.63 115.89 Z" id="PS"/>
<g/>
<path d="M 639.31 137.4 633.99 142.95 641.09 150.93 641.97 159.14 631.33 162.02 638.2 152.48 626.23 135.4 633.32 133.41 639.31 137.4 Z" id="VN"/>
<g/>
<g/>
<path d="M 266.7 166.23 265.15 173.55 251.4 182.42 249.18 175.11 239.87 169.34 241.64 158.69 249.18 161.8 258.05 161.35 266.7 166.23 Z" id="VE"/>
<g/>
<g/>
<path d="M 557.03 91.49 557.25 95.93 550.15 102.58 547.27 102.36 529.75 90.16 523.98 93.49 523.98 85.28 543.72 88.16 547.93 93.93 557.03 91.49 Z" id="UZ"/>
<path d="M 87.05 30.5 87.05 51.35 99.25 52.46 111.45 61.11 102.36 56 73.97 49.79 50.46 55.56 31.39 48.02 38.7 42.25 30.72 33.38 52.01 26.95 87.05 30.5 Z M 234.1 85.28 250.96 84.84 235.21 95.04 229.67 107.68 214.14 118.77 191.96 118.99 184.42 127.42 170.67 120.77 163.57 114.56 153.59 115.67 140.06 113 132.52 108.57 125.42 98.81 123.43 77.74 127.42 76.41 156.03 76.41 173.11 76.41 203.72 77.96 216.58 84.61 219.46 91.49 234.1 85.28 Z" id="US"/>
<path d="M 281.34 259.83 270.7 257.17 272.03 252.07 281.34 259.83 Z" id="UY"/>
<path d="M 484.5 80.62 465.65 84.61 462.32 84.17 458.77 77.96 450.57 78.85 448.79 77.74 449.68 76.19 452.12 70.86 470.31 69.53 488.05 75.08 484.5 80.62 Z" id="UA"/>
<path d="M 474.97 187.3 467.42 187.53 465.43 188.19 468.09 177.32 475.19 175.77 474.97 187.3 Z" id="UG"/>
<path d="M 474.97 187.3 486.72 195.51 489.6 208.37 477.4 210.81 472.75 205.93 468.09 203.27 464.98 194.84 467.65 190.41 467.42 187.53 474.97 187.3 Z" id="TZ"/>
<g/>
<path d="M 491.82 93.04 496.04 93.93 499.14 97.04 499.14 102.8 493.82 102.8 479.4 105.46 465.65 104.8 457.67 97.48 476.96 91.93 491.82 93.04 Z M 461.88 91.93 457.44 94.82 458.11 92.6 461.88 91.93 Z" id="TR"/>
<path d="M 425.28 111.45 420.85 118.11 416.41 109.46 418.85 103.25 425.28 111.45 Z" id="TN"/>
<g/>
<g/>
<g/>
<path d="M 547.27 102.36 535.74 106.13 524.87 100.36 519.32 102.36 516.22 92.38 523.98 93.49 529.75 90.16 547.27 102.36 Z" id="TM"/>
<g/>
<path d="M 557.25 95.93 563.02 97.7 565.9 102.58 550.15 102.58 557.25 95.93 Z" id="TJ"/>
<path d="M 621.79 140.06 630.22 144.5 633.1 153.37 628 159.14 619.79 163.57 626.23 171.33 621.79 170.89 618.68 162.46 616.69 141.84 621.79 140.06 Z" id="TH"/>
<path d="M 401.77 160.69 403.33 171.33 402.44 171.56 399.56 160.47 401.77 160.69 Z" id="TG"/>
<path d="M 450.57 160.91 440.81 167.34 434.16 168.45 431.05 156.03 429.94 154.7 434.16 147.6 433.05 134.07 453.01 141.84 450.57 160.91 Z" id="TD"/>
<g/>
<path d="M 493.82 102.8 485.83 111.01 479.18 112.56 479.4 111.01 479.62 108.35 479.4 105.46 493.82 102.8 Z" id="SY"/>
<g/>
<g/>
<g/>
<path d="M 453.45 39.15 425.06 54.23 426.39 44.69 445.47 32.05 453.45 39.15 Z" id="SE"/>
<path d="M 436.37 81.95 429.94 84.17 430.16 83.95 430.16 81.95 435.49 81.07 436.37 81.95 Z" id="SI"/>
<path d="M 449.68 76.19 448.79 77.74 437.7 78.63 437.48 77.3 441.47 75.3 449.68 76.19 Z" id="SK"/>
<path d="M 279.57 173.11 278.68 179.98 274.47 180.87 272.91 172.89 279.57 173.11 Z" id="SR"/>
<g/>
<path d="M 444.58 82.84 450.12 87.05 449.24 91.27 447.68 91.49 444.8 90.16 442.36 88.61 441.92 85.5 441.7 83.28 444.58 82.84 Z" id="RS"/>
<g/>
<path d="M 491.82 188.86 492.71 176.21 499.36 174.22 504.02 167.34 494.93 160.69 495.59 159.58 498.25 162.02 513.11 160.02 506.24 175.11 491.82 188.86 Z" id="SO"/>
<g/>
<path d="M 201.5 153.15 205.05 155.37 199.95 154.7 201.5 153.15 Z" id="SV"/>
<path d="M 376.93 166.23 374.27 169.78 370.28 165.12 376.93 166.23 Z" id="SL"/>
<g/>
<g/>
<g/>
<g/>
<path d="M 372.5 152.26 374.49 157.58 369.39 156.92 362.74 157.58 362.52 156.03 362.96 154.92 363.18 150.04 372.5 152.26 Z" id="SN"/>
<path d="M 475.41 164.02 478.07 172.89 475.19 175.77 468.09 177.32 460.55 173.77 453.23 165.79 463.65 164.46 471.64 160.47 475.41 164.02 Z" id="SS"/>
<path d="M 481.62 136.29 485.39 145.16 480.73 153.37 475.41 164.02 471.64 160.47 463.65 164.46 453.23 165.79 450.57 160.91 453.01 141.84 455.23 136.29 481.62 136.29 Z" id="SD"/>
<path d="M 502.91 120.54 507.12 121.88 512.45 130.08 513.56 130.53 514.22 131.19 522.21 134.74 515.11 142.95 504.91 147.16 494.7 148.71 487.61 139.62 477.4 119.88 486.5 113.89 502.91 120.54 Z" id="SA"/>
<path d="M 380.48 123.65 380.48 124.54 373.16 127.42 370.95 137.84 362.07 138.95 370.5 123.65 380.48 123.65 Z" id="EH"/>
<path d="M 467.42 187.53 467.65 190.41 464.1 191.07 465.43 188.19 467.42 187.53 Z" id="RW"/>
<path d="M 446.8 62.44 450.35 64.43 443.25 64.21 446.8 62.44 Z M 689.66 91.27 689.21 90.82 694.54 85.28 673.91 66.43 658.61 74.63 640.64 75.74 618.91 69.53 594.51 75.97 593.4 76.19 577.21 72.42 569 64.65 556.58 62.44 537.07 65.54 535.96 72.19 512.45 70.42 503.35 77.74 508.9 82.4 507.57 92.38 502.69 92.16 488.49 88.83 484.5 80.62 488.05 75.08 470.31 69.53 462.1 60.66 460.55 57.56 461.88 53.12 461.44 50.9 469.2 46.25 464.1 32.05 468.31 30.28 491.16 36.93 548.6 30.5 578.54 21.85 630.44 12.75 651.73 18.08 685.67 22.74 687.66 27.39 731.35 24.95 769.72 30.94 799 32.05 799 40.7 793.23 46.25 776.82 51.79 763.07 52.01 761.96 60.44 747.32 71.97 745.77 59.33 759.08 51.12 749.1 48.02 738.89 54.45 717.38 53.34 703.19 63.99 713.39 67.09 710.73 77.52 699.42 88.61 689.66 91.27 Z" id="RU"/>
<path d="M 462.32 84.17 465.65 84.61 463.21 88.16 450.12 87.05 444.58 82.84 450.57 78.85 458.77 77.96 462.32 84.17 Z" id="RO"/>
<g/>
<g/>
<g/>
<path d="M 270.7 229.89 278.68 241.86 260.72 234.32 262.71 228.56 270.7 229.89 Z" id="PY"/>
<g/>
<path d="M 689.21 90.82 689.66 91.27 684.56 99.47 680.56 101.25 675.68 96.37 689.21 90.82 Z" id="KP"/>
<g/>
<path d="M 443.25 64.21 450.35 64.43 451.9 65.54 452.12 70.86 449.68 76.19 441.47 75.3 432.6 72.19 431.49 65.98 443.25 64.21 Z" id="PL"/>
<path d="M 712.5 205.27 712.5 190.85 720.26 193.51 726.25 201.5 712.5 205.27 Z" id="PG"/>
<g/>
<g/>
<path d="M 244.53 194.4 235.65 201.94 245.41 209.48 245.63 223.9 243.64 225.67 233.21 219.24 220.57 199.06 221.68 192.63 232.77 185.31 244.53 194.4 Z" id="PE"/>
<g/>
<path d="M 228.11 165.79 227 169.12 215.91 167.12 216.58 163.79 228.11 165.79 Z" id="PA"/>
<path d="M 572.33 106.35 563.9 108.12 565.23 116.33 557.25 130.3 551.04 132.08 547.05 128.31 536.4 129.19 534.63 118.77 546.6 118.99 565.01 103.02 572.33 106.35 Z" id="PK"/>
<path d="M 524.87 129.64 532.41 135.85 527.97 142.95 517.55 148.27 515.11 142.95 522.21 134.74 524.87 129.64 Z" id="OM"/>
<g/>
<g/>
<g/>
<path d="M 595.18 123.21 588.97 125.87 579.43 118.11 595.18 123.21 Z" id="NP"/>
<path d="M 468.31 30.28 464.1 32.05 445.47 32.05 426.39 44.69 425.06 54.23 410.65 48.24 426.84 40.48 440.37 30.94 468.31 30.28 Z" id="NO"/>
<g/>
<path d="M 215.25 151.82 214.36 160.91 209.7 160.47 206.16 156.25 215.25 151.82 Z" id="NI"/>
<path d="M 429.94 154.7 431.05 156.03 425.51 170.23 418.85 174.44 413.31 175.55 405.77 170.89 407.76 159.14 408.87 155.14 421.07 156.7 429.94 154.7 Z" id="NG"/>
<g/>
<path d="M 433.05 134.07 434.16 147.6 429.94 154.7 421.07 156.7 408.87 155.14 407.76 159.14 405.1 158.69 400.22 152.04 407.54 150.93 409.09 142.72 426.39 132.97 433.05 134.07 Z" id="NE"/>
<g/>
<path d="M 451.68 224.12 455.89 224.56 446.35 225.67 444.14 240.09 444.14 248.3 436.15 248.52 431.94 235.43 425.73 223.23 451.68 224.12 Z" id="NA"/>
<g/>
<path d="M 660.6 175.77 653.73 181.76 642.86 180.65 652.84 174.88 654.84 174.22 655.06 174.22 660.6 175.77 Z" id="MY"/>
<path d="M 477.4 210.81 473.41 216.14 472.75 205.93 477.4 210.81 Z" id="MW"/>
<g/>
<g/>
<g/>
<path d="M 372.5 152.26 363.18 150.04 362.07 138.95 370.95 137.84 373.16 127.42 380.48 124.54 389.13 129.64 385.14 129.64 387.58 150.71 372.5 152.26 Z" id="MR"/>
<path d="M 472.75 244.53 470.97 244.53 470.53 242.75 469.2 234.77 472.75 222.12 467.2 219.68 473.41 216.14 477.4 210.81 489.6 208.37 489.82 219.46 476.74 230.33 477.85 239.42 472.75 244.53 Z" id="MZ"/>
<g/>
<path d="M 658.61 74.63 658.39 82.4 642.42 90.82 633.1 92.6 613.58 90.38 601.39 84.84 594.51 75.97 618.91 69.53 640.64 75.74 658.61 74.63 Z" id="MN"/>
<path d="M 442.36 88.61 444.8 90.16 444.36 90.82 442.58 92.16 440.81 91.05 440.59 90.6 442.36 88.61 Z" id="ME"/>
<path d="M 624.01 137.18 621.79 140.06 616.69 141.84 618.68 162.46 615.36 147.16 604.49 138.95 605.16 136.29 615.58 122.54 619.79 136.07 624.01 137.18 Z" id="MM"/>
<g/>
<path d="M 409.09 142.72 407.54 150.93 400.22 152.04 394.23 153.37 387.58 162.02 382.04 162.46 374.49 157.58 372.5 152.26 387.58 150.71 385.14 129.64 389.13 129.64 409.09 142.72 Z" id="ML"/>
<path d="M 449.24 91.27 450.57 93.49 446.35 94.6 445.47 92.16 447.68 91.49 449.24 91.27 Z" id="MK"/>
<g/>
<path d="M 184.42 127.42 182.65 134.96 187.3 143.39 203.94 144.05 201.94 145.61 195.29 152.93 182.87 149.6 170.45 144.5 162.68 132.08 144.72 123.65 140.06 113 153.59 115.67 163.57 114.56 170.67 120.77 184.42 127.42 Z" id="MX"/>
<g/>
<path d="M 509.56 212.59 511.78 219.24 504.46 240.09 497.37 240.53 497.37 223.68 509.56 212.59 Z" id="MG"/>
<g/>
<path d="M 394.9 107.24 396.89 113.89 380.48 123.65 370.5 123.65 378.26 118.33 386.69 105.68 394.9 107.24 Z" id="MA"/>
<g/>
<g/>
<path d="M 460.55 57.56 462.1 60.66 458.77 61.55 446.35 60.66 453.67 56.67 460.55 57.56 Z" id="LV"/>
<path d="M 413.31 73.97 413.75 75.3 412.64 75.3 413.31 73.97 Z" id="LU"/>
<path d="M 458.77 61.55 451.9 65.54 450.35 64.43 446.8 62.44 446.35 60.66 458.77 61.55 Z" id="LT"/>
<g/>
<g/>
<g/>
<g/>
<path d="M 455.67 114.78 455.23 136.29 453.01 141.84 433.05 134.07 426.39 132.97 422.62 130.53 420.85 118.11 425.28 111.45 441.7 117.88 447.68 112.12 455.67 114.78 Z" id="LY"/>
<path d="M 380.93 168.23 383.14 175.33 374.27 169.78 376.93 166.23 380.93 168.23 Z" id="LR"/>
<path d="M 479.4 111.01 477.63 111.67 479.62 108.35 479.4 111.01 Z" id="LB"/>
<path d="M 626.23 135.4 638.2 152.48 633.1 153.37 630.22 144.5 621.79 140.06 624.01 137.18 626.23 135.4 Z" id="LA"/>
<path d="M 507.12 121.88 502.91 120.54 506.24 118.55 507.12 121.88 Z" id="KW"/>
<path d="M 447.68 91.49 445.47 92.16 444.36 90.82 444.8 90.16 447.68 91.49 Z" id="XK"/>
<g/>
<g/>
<g/>
<path d="M 631.33 162.02 628 159.14 633.1 153.37 638.2 152.48 631.33 162.02 Z" id="KH"/>
<path d="M 577.65 91.49 563.02 97.7 557.25 95.93 557.03 91.49 577.65 91.49 Z" id="KG"/>
<path d="M 492.71 176.21 491.82 188.86 486.72 195.51 474.97 187.3 475.19 175.77 478.07 172.89 487.39 177.32 492.71 176.21 Z" id="KE"/>
<path d="M 593.4 76.19 577.43 85.28 577.65 91.49 557.03 91.49 547.93 93.93 543.72 88.16 523.98 85.28 523.98 93.49 516.22 92.38 508.9 82.4 503.35 77.74 512.45 70.42 535.96 72.19 537.07 65.54 556.58 62.44 569 64.65 577.21 72.42 593.4 76.19 Z" id="KZ"/>
<g/>
<path d="M 486.5 113.89 477.4 119.88 477.4 119.44 478.51 115.22 478.74 113.23 479.18 112.56 485.83 111.01 486.5 113.89 Z" id="JO"/>
<g/>
<g/>
<path d="M 430.16 81.95 430.16 83.95 416.41 87.94 415.3 83.28 423.07 81.07 430.16 81.95 Z" id="IT"/>
<path d="M 479.18 112.56 478.74 113.23 478.51 115.22 477.4 119.44 477.18 119.66 475.63 115.89 476.3 115 477.63 111.67 479.4 111.01 479.18 112.56 Z" id="IL"/>
<g/>
<path d="M 499.14 102.8 500.47 109.68 507.35 118.55 506.24 118.55 502.91 120.54 486.5 113.89 485.83 111.01 493.82 102.8 499.14 102.8 Z" id="IQ"/>
<path d="M 502.02 98.81 502.91 98.81 508.23 99.92 519.32 102.36 524.87 100.36 535.74 106.13 534.63 118.77 536.4 129.19 518.88 125.87 507.35 118.55 500.47 109.68 499.14 102.8 499.14 97.04 502.02 98.81 Z" id="IR"/>
<g/>
<g/>
<path d="M 579.43 118.11 588.97 125.87 595.18 123.21 596.95 124.54 602.94 123.43 615.58 122.54 605.16 136.29 597.39 136.07 577.88 150.26 576.77 162.24 569 164.02 561.02 141.17 551.04 132.08 557.25 130.3 565.23 116.33 563.9 108.12 572.33 106.35 574.55 115.67 579.43 118.11 Z" id="IN"/>
<g/>
<path d="M 613.81 173.55 629.33 183.98 623.34 189.74 613.81 173.55 Z M 712.5 190.85 712.5 205.27 700.3 192.4 705.4 188.41 712.5 190.85 Z M 660.6 175.77 660.82 183.53 657.05 193.07 644.19 191.52 642.86 180.65 653.73 181.76 660.6 175.77 Z" id="ID"/>
<path d="M 448.79 77.74 450.57 78.85 444.58 82.84 441.7 83.28 436.37 81.95 435.49 81.07 437.7 78.63 448.79 77.74 Z" id="HU"/>
<g/>
<path d="M 441.7 83.28 441.92 85.5 438.81 89.94 429.94 84.17 436.37 81.95 441.7 83.28 Z M 439.04 89.94 440.59 90.6 440.81 91.05 439.04 89.94 Z" id="HR"/>
<path d="M 215.25 151.82 206.16 156.25 205.05 155.37 201.5 153.15 204.16 150.26 215.25 151.82 Z" id="HN"/>
<g/>
<g/>
<path d="M 272.91 172.89 274.47 180.87 269.14 182.42 265.15 173.55 266.7 166.23 272.91 172.89 Z" id="GY"/>
<g/>
<path d="M 285.11 175.99 278.68 179.98 279.57 173.11 285.11 175.99 Z" id="GF"/>
<path d="M 201.94 145.61 202.61 149.82 204.16 150.26 201.5 153.15 199.95 154.7 195.29 152.93 201.94 145.61 Z" id="GT"/>
<g/>
<path d="M 457.44 94.82 444.14 97.04 446.35 94.6 450.57 93.49 458.11 92.6 457.44 94.82 Z" id="GR"/>
<path d="M 421.07 182.87 421.51 179.98 424.84 180.21 421.07 182.87 Z" id="GQ"/>
<path d="M 366.51 160.91 362.74 157.58 369.39 156.92 366.51 160.91 Z" id="GW"/>
<g/>
<g/>
<path d="M 374.49 157.58 382.04 162.46 380.93 168.23 376.93 166.23 370.28 165.12 366.51 160.91 369.39 156.92 374.49 157.58 Z" id="GN"/>
<path d="M 399.56 160.47 402.44 171.56 393.12 173.77 393.79 164.02 399.56 160.47 Z" id="GH"/>
<g/>
<path d="M 502.69 92.16 499.58 93.49 496.04 93.93 491.82 93.04 488.49 88.83 502.69 92.16 Z" id="GE"/>
<path d="M 429.28 180.21 431.05 190.63 424.4 193.74 421.07 182.87 424.84 180.21 429.28 180.21 Z" id="GA"/>
<path d="M 412.64 75.3 413.75 75.3 416.63 79.51 415.3 83.28 416.41 87.94 406.88 91.05 403.55 90.82 402.88 90.6 395.79 88.83 396.67 77.3 405.32 71.75 412.64 75.3 Z" id="FR"/>
<g/>
<g/>
<g/>
<g/>
<path d="M 464.1 32.05 469.2 46.25 461.44 50.9 447.24 50.68 453.45 39.15 445.47 32.05 464.1 32.05 Z" id="FI"/>
<path d="M 493.82 157.36 494.93 160.69 504.02 167.34 499.36 174.22 492.71 176.21 487.39 177.32 478.07 172.89 475.41 164.02 480.73 153.37 493.82 157.36 Z" id="ET"/>
<path d="M 461.88 53.12 460.55 57.56 453.67 56.67 461.88 53.12 Z" id="EE"/>
<path d="M 395.79 88.83 402.88 90.6 403.55 90.82 406.88 91.05 395.12 103.47 383.37 102.58 380.26 92.16 395.79 88.83 Z" id="ES"/>
<path d="M 485.39 145.16 487.39 150.71 495.37 156.92 493.82 157.36 480.73 153.37 485.39 145.16 Z" id="ER"/>
<g/>
<path d="M 475.63 115.67 475.63 115.89 477.18 119.66 475.19 126.09 481.62 136.29 455.23 136.29 455.67 114.78 464.32 116.77 475.63 115.67 Z" id="EG"/>
<path d="M 232.77 185.31 221.68 192.63 224.79 181.76 232.77 185.31 Z" id="EC"/>
<path d="M 418.85 103.25 416.41 109.46 420.85 118.11 422.62 130.53 426.39 132.97 409.09 142.72 389.13 129.64 380.48 124.54 380.48 123.65 396.89 113.89 394.9 107.24 418.85 103.25 Z" id="DZ"/>
<g/>
<g/>
<g/>
<path d="M 495.59 159.58 494.93 160.69 493.82 157.36 495.37 156.92 495.59 159.58 Z" id="DJ"/>
<path d="M 421.29 63.54 431.49 65.98 432.6 72.19 430.39 76.85 420.85 79.74 416.63 79.51 413.75 75.3 413.31 73.97 413.09 72.42 415.75 66.87 419.07 63.32 421.29 63.54 Z" id="DE"/>
<path d="M 432.6 72.19 441.47 75.3 437.48 77.3 430.39 76.85 432.6 72.19 Z" id="CZ"/>
<g/>
<g/>
<g/>
<g/>
<g/>
<path d="M 214.36 160.91 216.58 163.79 215.91 167.12 209.7 160.47 214.36 160.91 Z" id="CR"/>
<g/>
<g/>
<path d="M 241.64 158.69 239.87 169.34 249.18 175.11 251.4 182.42 244.97 181.32 244.53 194.4 232.77 185.31 224.79 181.76 228.56 176.44 227 169.12 228.11 165.79 241.64 158.69 Z" id="CO"/>
<g/>
<path d="M 441.03 177.32 439.26 186.19 432.6 195.73 428.83 195.29 426.39 196.18 424.4 193.74 431.05 190.63 429.28 180.21 435.71 179.98 441.03 177.32 Z" id="CG"/>
<path d="M 460.55 173.77 468.09 177.32 465.43 188.19 464.1 191.07 464.98 194.84 468.09 203.27 462.77 212.81 453.01 209.26 448.13 201.28 438.59 203.05 428.83 198.17 426.84 197.95 428.83 195.29 432.6 195.73 439.26 186.19 441.03 177.32 460.55 173.77 Z" id="CD"/>
<path d="M 434.16 168.45 435.71 179.98 429.28 180.21 424.84 180.21 421.51 179.98 418.85 174.44 425.51 170.23 431.05 156.03 434.16 168.45 Z" id="CM"/>
<path d="M 387.58 162.02 393.79 164.02 393.12 173.77 383.14 175.33 380.93 168.23 382.04 162.46 387.58 162.02 Z" id="CI"/>
<path d="M 689.21 90.82 675.68 96.37 663.49 98.14 664.15 107.46 670.14 116.55 664.82 128.31 653.28 135.18 652.62 135.18 639.31 137.4 633.32 133.41 626.23 135.4 624.01 137.18 619.79 136.07 615.58 122.54 602.94 123.43 596.95 124.54 595.18 123.21 579.43 118.11 574.55 115.67 572.33 106.35 565.01 103.02 565.9 102.58 563.02 97.7 577.65 91.49 577.43 85.28 593.4 76.19 594.51 75.97 601.39 84.84 613.58 90.38 633.1 92.6 642.42 90.82 658.39 82.4 658.61 74.63 673.91 66.43 694.54 85.28 689.21 90.82 Z" id="CN"/>
<path d="M 250.74 235.65 243.19 255.17 239.87 280.46 240.31 300.42 248.07 301.3 235.65 301.75 234.1 290.88 238.32 278.9 236.32 268.7 241.2 257.61 243.64 240.98 243.64 225.67 245.63 223.9 250.74 235.65 Z" id="CL"/>
<path d="M 420.85 79.74 420.85 80.18 421.07 80.62 423.07 81.07 415.3 83.28 416.63 79.51 420.85 79.74 Z" id="CH"/>
<g/>
<path d="M 207.71 27.61 211.26 22.51 246.3 28.06 263.82 37.37 252.73 47.8 234.54 41.59 239.65 35.82 207.71 27.61 Z M 245.63 1 226.12 15.19 204.38 12.75 199.06 3.44 245.63 1 Z M 234.1 85.28 241.64 81.29 250.96 84.84 234.1 85.28 Z M 276.68 70.86 282.89 79.74 268.7 79.51 276.68 70.86 Z M 234.1 85.28 219.46 91.49 216.58 84.61 203.72 77.96 173.11 76.41 156.03 76.41 127.42 76.41 116.55 71.53 111.45 61.11 99.25 52.46 87.05 51.35 87.05 30.5 155.81 34.27 181.54 34.71 193.74 26.95 219.46 35.38 189.52 52.01 195.29 58.67 223.01 63.77 229.67 60.66 226.56 47.35 256.72 51.35 263.38 60 276.24 69.53 266.48 73.53 252.29 73.75 241.64 81.29 234.1 85.28 Z M 145.83 24.07 166.01 23.62 173.11 30.28 152.93 33.16 145.83 24.07 Z" id="CA"/>
<path d="M 450.57 160.91 453.23 165.79 460.55 173.77 441.03 177.32 435.71 179.98 434.16 168.45 440.81 167.34 450.57 160.91 Z" id="CF"/>
<path d="M 413.09 72.42 413.31 73.97 412.64 75.3 405.32 71.75 409.09 71.09 413.09 72.42 Z" id="BE"/>
<path d="M 455.89 224.56 464.98 234.32 447.68 244.75 444.14 240.09 446.35 225.67 455.89 224.56 Z" id="BW"/>
<g/>
<g/>
<g/>
<path d="M 274.47 180.87 278.68 179.98 285.11 175.99 289.11 182.42 301.53 190.63 311.06 191.52 321.04 196.4 322.6 202.83 313.06 215.25 311.73 227.89 306.63 235.88 292.21 242.31 291.54 248.52 281.34 259.83 272.03 252.07 278.68 241.86 270.7 229.89 265.6 215.69 256.95 212.59 254.73 206.6 245.41 209.48 235.65 201.94 244.53 194.4 244.97 181.32 251.4 182.42 265.15 173.55 269.14 182.42 274.47 180.87 Z" id="BR"/>
<path d="M 270.7 229.89 262.71 228.56 260.72 234.32 250.74 235.65 245.63 223.9 245.41 209.48 254.73 206.6 256.95 212.59 265.6 215.69 270.7 229.89 Z" id="BO"/>
<g/>
<path d="M 202.61 149.82 201.94 145.61 203.94 144.05 202.61 149.82 Z" id="BZ"/>
<path d="M 462.1 60.66 470.31 69.53 452.12 70.86 451.9 65.54 458.77 61.55 462.1 60.66 Z" id="BY"/>
<g/>
<g/>
<g/>
<path d="M 441.92 85.5 442.36 88.61 440.59 90.6 439.04 89.94 438.81 89.94 441.92 85.5 Z" id="BA"/>
<path d="M 463.21 88.16 461.88 91.93 458.11 92.6 450.57 93.49 449.24 91.27 450.12 87.05 463.21 88.16 Z" id="BG"/>
<path d="M 605.16 136.29 604.49 138.95 597.39 136.07 605.16 136.29 Z" id="BD"/>
<path d="M 400.22 152.04 405.1 158.69 401.77 160.69 399.56 160.47 393.79 164.02 387.58 162.02 394.23 153.37 400.22 152.04 Z" id="BF"/>
<path d="M 407.76 159.14 405.77 170.89 403.33 171.33 401.77 160.69 405.1 158.69 407.76 159.14 Z" id="BJ"/>
<path d="M 467.65 190.41 464.98 194.84 464.1 191.07 467.65 190.41 Z" id="BI"/>
<path d="M 507.57 92.38 508.23 99.92 502.91 98.81 499.58 93.49 502.69 92.16 507.57 92.38 Z" id="AZ"/>
<path d="M 437.48 77.3 437.7 78.63 435.49 81.07 430.16 81.95 423.07 81.07 421.07 80.62 420.85 80.18 420.85 79.74 430.39 76.85 437.48 77.3 Z" id="AT"/>
<path d="M 717.38 211.7 724.7 227.45 739.56 242.75 738.89 254.73 732.24 268.26 713.39 270.25 706.07 260.94 700.53 262.49 690.54 254.95 679.01 256.72 661.71 262.71 651.73 244.08 651.95 235.21 667.92 228.78 672.58 221.46 681.23 215.47 686.77 217.02 694.09 210.59 700.3 218.35 712.06 223.68 717.38 211.7 Z" id="AU"/>
<g/>
<g/>
<path d="M 502.91 98.81 502.02 98.81 499.14 97.04 496.04 93.93 499.58 93.49 502.91 98.81 Z" id="AM"/>
<path d="M 260.72 234.32 278.68 241.86 272.03 252.07 270.7 257.17 272.25 269.59 262.05 271.36 249.85 287.77 253.84 291.32 248.07 301.3 240.31 300.42 239.87 280.46 243.19 255.17 250.74 235.65 260.72 234.32 Z" id="AR"/>
<path d="M 524.87 129.64 522.21 134.74 514.22 131.19 524.87 129.64 Z" id="AE"/>
<g/>
<g/>
<path d="M 444.36 90.82 445.47 92.16 446.35 94.6 444.14 97.04 442.58 92.16 444.36 90.82 Z" id="AL"/>
<g/>
<path d="M 426.84 197.95 426.39 196.18 428.83 195.29 426.84 197.95 Z M 453.01 209.26 448.57 213.92 451.68 224.12 425.73 223.23 430.39 211.26 428.83 198.17 438.59 203.05 448.13 201.28 453.01 209.26 Z" id="AO"/>
<path d="M 565.9 102.58 565.01 103.02 546.6 118.99 534.63 118.77 535.74 106.13 547.27 102.36 550.15 102.58 565.9 102.58 Z" id="AF"/>
<g/>
<g/>
</g>
</svg>
