<svg
  xmlns="http://www.w3.org/2000/svg"
  viewBox="0 0 348.6 261.1"
>
<defs>
  <style>
    .cls-1 {
    fill: #14181c;
    }
    .cls-2,
    .cls-7 {
    fill: #263156;
    }
    .cls-3 {
    fill: #ef932e;
    }
    .cls-3,
    .cls-4,
    .cls-6,
    .cls-7,
    .cls-8 {
    fill-rule: evenodd;
    }
    .cls-4 {
    fill: #00a1ff;
    }
    .cls-5,
    .cls-6 {
    fill: #3b4aec;
    }
    .cls-8,
    .cls-9 {
    fill: #00ffb8;
    }
    .cls-10 {
    fill: #f4c37d;
    }
    .cls-11 {
    fill: #00011b;
    }
    .cls-12 {
    fill: #fff8e5;
    }
    .cls-13 {
    fill: #222930;
    }
    .cls-14 {
    fill: #ff4f0e;
    }
    .cls-15 {
    fill: #253057;
    }
    .cls-16 {
    fill: #fff7e4;
    }
    .cls-17 {
    fill: #f3c377;
    }
    .cls-18 {
    fill: none;
    stroke: #0fffb8;
    stroke-linecap: round;
    stroke-miterlimit: 10;
    stroke-width: 35px;
    }
  </style>
</defs>
<g id="Layer_2" data-name="Layer 2">
<g id="Layer_1-2" data-name="Layer 1">
  <ellipse class="cls-1" cx="263.79" cy="243.93" rx="84.8" ry="15.43" />
  <ellipse
    id="torso-shadow"
    class="cls-1"
    cx="113.79"
    cy="243.93"
    rx="94.34"
    ry="17.16"
  />
  <rect
    class="cls-2"
    x="121.38"
    y="157.08"
    width="59.04"
    height="92.25"
    rx="29.52"
    transform="translate(301.8 406.42) rotate(180)"
  />
  <rect
    class="cls-2"
    x="47.62"
    y="157.92"
    width="59.04"
    height="92.25"
    rx="29.52"
    transform="translate(154.29 408.1) rotate(-180)"
  />
  <path
    class="cls-3"
    d="M252.11,181.8a62.7,62.7,0,0,0-.77,9.07c-.18,9.18.39,22.92,2.3,28.69,3,9.19,13.9,14.34,13.9,14.34l1.19-4.26c-17.13-5-11.77-34.28-11.07-48Z"
  />
  <path
    class="cls-4"
    d="M275,138.63s-2.53-.66-6.69,7.13-7.09,34.49-7.65,35.8S257,189.3,257,189.3s-5.56.28-5.62-.08-3.21-6.75-3.41-8.93,7.28-30.32,7.37-30.84,2.15-7.18,4.73-9.45S274.67,138.62,275,138.63Z"
  />
  <path
    class="cls-5"
    d="M275,138.63s-2.53-.66-6.69,7.13-7.09,34.49-7.65,35.8S257,189.3,257,189.3s-5.56.28-5.62-.08-3.21-6.75-3.41-8.93,7.28-30.32,7.37-30.84,2.15-7.18,4.73-9.45S274.67,138.62,275,138.63Z"
  />
  <path
    class="cls-6"
    d="M276.24,145.38c-7.17-4.24-16.13-11.46-20.94,4.07a22.49,22.49,0,0,1,4.76-10.22c2-2.64,5.24-2.87,11.21-2.77s7.26-.21,9.61,1.56,8.25,8.12,7.09,8.63S276.24,145.38,276.24,145.38Z"
  />
  <path
    class="cls-7"
    d="M222,189a63.58,63.58,0,0,0-.41,9.33c.2,9.42,1.36,23.49,3.55,29.33C228.6,237,240,241.8,240,241.8l1-4.41c-17.79-4.47-13.5-34.7-13.35-48.76Z"
  />
  <path
    class="cls-6"
    d="M243.13,146.25s-2.63-.58-6.57,7.59-5.83,35.65-6.34,37-3.43,8.09-3.43,8.09-5.69.5-5.76.14-3.58-6.8-3.87-9,6.2-31.39,6.27-31.93,1.9-7.45,4.45-9.88S242.84,146.25,243.13,146.25Z"
  />
  <path
    class="cls-6"
    d="M245.26,152.35c-7.52-4.06-17-11.1-21.3,5a23.07,23.07,0,0,1,4.45-10.67c2-2.79,5.25-3.15,11.38-3.3s7.44-.5,9.92,1.22,9.2,6.59,8,7.16S245.26,152.35,245.26,152.35Z"
  />
  <path
    class="cls-7"
    d="M251.81,146.26c-2.63.85-6.13,1.71-10.8,14.6s1.32,50.83,1.17,58.42-3.36,12.18-3.5,18.19,4.67,9.31,8.17,10.31,39.25,1.43,44.79-3.44,6.42-11.88,6.42-15.89,2.63-51.26.29-63.87C293.65,139.18,272.81,145.41,251.81,146.26Z"
  />
  <path
    class="cls-8"
    d="M260.09,168.34c-2.85.42-6.21-.29-6.57,13.18-.14,5.31-1.63,39.57-.47,43.15s4.52,6.11,12.83,7c6.43.72,30.47-1.71,32.18-3.25s6.13-35.8,2-51.55c-1.19-4.59-15.79-9-21.77-8.84S260.09,168.34,260.09,168.34Z"
  />
  <path
    class="cls-6"
    d="M288.83,230.28c.58-4.12,2.87-13.24,2.7-34.61.43,0,6.86-.31,6.86-.31-.78,11.24-.19,23.35-2.94,33.93a30.35,30.35,0,0,1-3.07.63A22.53,22.53,0,0,1,288.83,230.28Z"
  />
  <path
    class="cls-7"
    d="M289.78,179c1.85,8,1,13.55,2.21,19.92.47,2.52,3.5,5.25,3.84,5.14s2.41-5.47,2.45-5.92c.33-3.27,0-10.45-1.46-19.75Z"
  />
  <path
    class="cls-6"
    d="M264.29,231.5c.7-4.12,2.95-13,3.38-34.4.42,0,6.86-.31,6.86-.31-1.1,11.25-1,24.45-4,35a13.84,13.84,0,0,1-2.94.1A21.72,21.72,0,0,1,264.29,231.5Z"
  />
  <path
    class="cls-7"
    d="M266.38,180.42c1.63,8,.64,13.55,1.65,19.93.4,2.51,3.36,5.24,3.7,5.13s2.56-5.47,2.62-5.91c.41-3.28.25-10.45-.91-19.76Z"
  />
  <path
    class="cls-7"
    d="M243.2,155.46c.16,1.36,1.61-4,8-1s3.21,18,7.73,25.56c4.62,7.75,36.16,10.78,41.14-3.15,1.9-5.3-1.16-19.9-4.66-24.49s-5.33-5.94-14.52-7.08C271.17,144.11,241.45,140.27,243.2,155.46Z"
  />
  <g id="torso">
    <path
      class="cls-9"
      d="M19.58,197.21A17.2,17.2,0,0,0,36,174.77a28.74,28.74,0,0,1-.52-17c2.05-7.3,7.24-14.69,15.41-22A17.19,17.19,0,0,0,28,110.12C14.83,121.83,6.2,134.72,2.34,148.43a62.9,62.9,0,0,0,.87,36.82A17.21,17.21,0,0,0,19.58,197.21Z"
    />
    <g id="left-hand">
      <path
        class="cls-10"
        d="M7.11,196.09a13.88,13.88,0,0,1,6.72-18.82,14.78,14.78,0,0,1,19.31,6.95,13.87,13.87,0,0,1,.29,11.72c2.39-3.07,7.61.41,5.48,4-4.71,8-14.74,9.7-23,5.54A18.63,18.63,0,0,1,7.11,196.09Z"
      />
    </g>
    <path
      class="cls-9"
      d="M196.69,114.75s13.57,29.66,3.85,63.5c-4.91,17.12-14.47,27.91-30.92,33.58-31.17,10.75-69.68,12.79-98.16,3.53C55.05,210,46.6,199.42,40.63,185.48c-6.68-15.63-10.72-40.24.47-75.75Z"
    />
    <path
      class="cls-10"
      d="M196.69,114.75a158.88,158.88,0,0,1,7.71-18.47c5.14-10.55,17.83-60.19-47.91-74.56s-119.61-2.16-115.39,88C41.1,109.73,93.75,159.73,196.69,114.75Z"
    />
    <path
      class="cls-11"
      d="M40.88,101.14q0,4.17.22,8.58Q40.89,105.31,40.88,101.14Z"
    />
    <path
      class="cls-11"
      d="M41,92.9c-.09,2.3-.13,4.69-.13,7.11C40.89,97.58,40.93,95.2,41,92.9Z"
    />
    <path
      class="cls-5"
      d="M168.75,93.81l-.24-27.13C108.56,81.33,64.76,43.52,64.76,43.52S60.6,44,52.71,52.09c-1.61,1.66-3.53,3.73-5.32,5.68,1-3.63,2.09-5.64,4.39-9.77C68.9,17.18,107.24,2.77,154.18,13c65.75,14.37,59.24,71.34,54.1,81.89-3.17,6.5-9.24,13.37-10.45,16.63h0Z"
    />
    <path
      class="cls-11"
      d="M42.41,77.86a144.09,144.09,0,0,0-1.36,14.55A143.82,143.82,0,0,1,42.41,77.86Z"
    />
    <path class="cls-11" d="M197.31,113l0-.1Z" />
    <path class="cls-11" d="M196.76,114.56v0Z" />
    <path
      class="cls-12"
      d="M196.77,114.52c.09-.27.27-.8.54-1.56C197.05,113.71,196.86,114.24,196.77,114.52Z"
    />
    <path class="cls-12" d="M196.69,114.75l.07-.19Z" />
    <polygon
      class="cls-12"
      points="42.41 77.86 42.41 77.86 42.41 77.86 42.41 77.86"
    />
    <path
      class="cls-12"
      d="M40.89,100c0,.39,0,.75,0,1.13C40.87,100.76,40.89,100.4,40.89,100Z"
    />
    <path class="cls-12" d="M41.05,92.41l0,.49Z" />
    <path class="cls-12" d="M197.35,112.86c.14-.38.29-.82.48-1.31Z" />
    <g id="haircreast">
      <path
        class="cls-5"
        d="M49.65,1.6s-15.9,49.19,65.78,59.79l.71,0c16.72-.93,18-25.8,1.57-29C95.23,28.05,68,19.3,49.65,1.6Z"
      />
      <path
        class="cls-5"
        d="M73.24,0S58.18,46.63,115.55,53.74c19.7-.71,41.36-24,41.36-24S103.54,29.18,73.24,0Z"
      />
    </g>
    <ellipse
      class="cls-10"
      cx="176.46"
      cy="94.74"
      rx="9.8"
      ry="10.06"
    />
    <g id="eyes">
      <ellipse
        class="cls-13"
        cx="64.76"
        cy="71.84"
        rx="2.71"
        ry="2.78"
      />
      <ellipse
        class="cls-13"
        cx="121.86"
        cy="87.09"
        rx="2.71"
        ry="2.78"
      />
    </g>
    <path
      class="cls-11"
      d="M85.26,93c-.26.06-.51.12-.77.2l-.38.12-.1,0-.18.09a2.17,2.17,0,0,0-.33.19l-.09.06-.14.12-.13.14h0l-.06.08-.09.16s0,0,0,0l0,.07a.94.94,0,0,1,0,.16c0,.05,0,.05,0,0v.31c0-.07,0-.07,0,0A1.58,1.58,0,0,0,83,95c0,.06,0,.05,0,0L83,95l.08.13s.12.15,0,0l.1.11s0,0,0,0-.06,0,0,0l.12.07c-.12-.07,0,0,0,0l.07,0c-.08,0-.1,0,0,0s-.06,0,0,0l.14,0a.5.5,0,0,1,.63.36.52.52,0,0,1-.36.63c-1,.36-1.79-.53-2-1.4a2,2,0,0,1,.23-1.44,3,3,0,0,1,1.18-1A7.47,7.47,0,0,1,85,92a.51.51,0,0,1,.27,1Z"
    />
    <path
      class="cls-14"
      d="M89.42,115.27a32.67,32.67,0,0,0-7.37-1.67c-.65-.07-.66-1.11,0-1a33.28,33.28,0,0,1,7.64,1.71c.63.22.36,1.21-.27,1Z"
    />
    <path
      class="cls-12"
      d="M42.76,75.41l.14-.79s10,13.52,38.25,20.12c43.12,10.06,87.52-6,87.52-6h0c-.18,1.43.06,2.47-9.22,6.83a4.44,4.44,0,0,0-2.43,5,25.33,25.33,0,0,0,3.69,7.38c1.41,2.07,3.64,2,5.95,1.16,10.05-3.55,9.35-3.14,16.75-6.87a.72.72,0,0,1,1,.66h0a.77.77,0,0,1-.33.63C171.58,111.77,158,120,146.51,123.28c-41.84,11.78-77.1-2.29-89.17-7.56a57.2,57.2,0,0,1-16.48-11.61A104,104,0,0,1,42.76,75.41Z"
    />
    <path
      class="cls-2"
      d="M179.87,114.65c-4.45,3.69-27.24,22.16-85.34,17.46,0,.47.12,1.25.1,1.2a14.6,14.6,0,0,0,.36,1.62q.09.3.21.6c4.36,1.81,23.21,8.2,56-.25,28.08-7.23,38.24-17.57,38.24-17.57l6-7.54S184.34,111,179.87,114.65Z"
    />
    <path
      class="cls-2"
      d="M103.65,136.56c-4-2.91-6.78-4.5-6.78-4.5s-41.7-9.8-55.77-23c-1.5,5-2.18,8.17-2.18,8.17a104,104,0,0,0,20.94,11.66c9.13,3.8,24.88,7.51,34.32,8A25.1,25.1,0,0,1,103.65,136.56Z"
    />
    <circle class="cls-2" cx="93.71" cy="156.99" r="1.8" />
    <circle class="cls-2" cx="92.91" cy="180.87" r="1.8" />
    <g id="brows">
      <path
        id="right-brow"
        class="cls-13"
        d="M129,77a86.31,86.31,0,0,0-10.51-2.5c-2.61-.45-1.51-4.43,1.09-4A85.87,85.87,0,0,1,130.09,73c2.54.78,1.46,4.76-1.09,4Z"
      />
      <path
        id="left-brow"
        class="cls-13"
        d="M72,62.8a20.94,20.94,0,0,0-8.53-2.68c-2.63-.22-2.65-4.35,0-4.12a25.63,25.63,0,0,1,10.61,3.24c2.31,1.3.24,4.87-2.08,3.56Z"
      />
    </g>
    <g id="scarf">
      <path
        class="cls-15"
        d="M114.17,146a99,99,0,0,0-15.65-11.79c-.18.25-.35.51-.51.77a12.58,12.58,0,0,0-1.26,9.39c2.39,10.21,9.83,23.76,28.14,22.33C124.89,166.67,122.35,153.5,114.17,146Z"
      />
      <path
        class="cls-16"
        d="M103.9,158.72c2.52-3.47,7.33-8.95,13-9.77a35.17,35.17,0,0,1,3.42,5.28c-3.75,1.18-9.69,3.51-13.38,7.24A28.68,28.68,0,0,1,103.9,158.72Z"
      />
      <path
        class="cls-16"
        d="M110.73,143.06c1,.77,2,1.58,2.91,2.44-3.28,2-9.62,6.05-12.5,9.93-.52-.7-1-1.41-1.46-2.13C102.45,150.65,107.24,146.1,110.73,143.06Z"
      />
      <path
        class="cls-15"
        d="M97.73,134c-40.74,7.6-38.65,28.47-38.65,28.47s18.81,2.3,30.18-9.85S97.73,134,97.73,134Z"
      />
      <path
        class="cls-16"
        d="M66.82,147a44.06,44.06,0,0,1,10.44-6.6C81,143.1,86.8,148,88.68,153.18a29.39,29.39,0,0,1-9.42,6.27C77.62,156,73.57,149,66.82,147Z"
      />
    </g>
    <g id="right-hand">
      <g id="hand-down">
        <path
          class="cls-18"
          d="M 179.2, 179.46 s 38.65-1.29, 23.84-38.92"
        >
          <animate
            id="myanim"
            attributeName="d"
            dur="0.7s"
            calcMode="spline"
            keyTimes="0;1"
            fill="freeze"
            begin="2s; myanim2.end+25"
            keySplines="0.42, 0.0, 0.58, 1.0"
            from="M 179.2, 179.46 s 38.65-1.29, 23.84-38.92"
            to="M 201.51, 47.75 s 40.69, 39.86, 9, 83.5"
          />
          <animate
            id="myanim2"
            attributeName="d"
            dur="0.7s"
            calcMode="spline"
            keyTimes="0;1"
            fill="freeze"
            begin="myanim.end+1.3"
            keySplines="0.42, 0.0, 0.58, 1.0"
            to="M 179.2, 179.46 s 38.65-1.29, 23.84-38.92"
            from="M 201.51, 47.75 s 40.69, 39.86, 9, 83.5"
          />
        </path>

        <path
          id="palm"
          class="cls-17"
          d="M144,168.21a46.67,46.67,0,0,1,14.45-3.93,16.06,16.06,0,0,1,9.66.89,16.9,16.9,0,1,1-22,9.88c-.91-.87-1.82-1.73-2.76-2.57A2.56,2.56,0,0,1,144,168.21Z"
        />
      </g>
    </g>
  </g>
  <path
    class="cls-5"
    d="M288.5,195.26v-4.42a3.4,3.4,0,0,1,3.4-3.4h6a3.41,3.41,0,0,1,3.4,3.4v4.42a3.4,3.4,0,0,1-3.4,3.4h-6A3.4,3.4,0,0,1,288.5,195.26Zm3.4-6.06a1.64,1.64,0,0,0-1.65,1.64v4.42a1.64,1.64,0,0,0,1.65,1.64h6a1.63,1.63,0,0,0,1.64-1.64v-4.42a1.63,1.63,0,0,0-1.64-1.64Z"
  />
  <path
    class="cls-5"
    d="M264.8,195.47V191a3.39,3.39,0,0,1,3.39-3.39h6a3.4,3.4,0,0,1,3.4,3.39v4.43a3.4,3.4,0,0,1-3.4,3.39h-6A3.39,3.39,0,0,1,264.8,195.47Zm3.39-6.07a1.65,1.65,0,0,0-1.64,1.64v4.43a1.65,1.65,0,0,0,1.64,1.64h6a1.64,1.64,0,0,0,1.64-1.64V191a1.64,1.64,0,0,0-1.64-1.64Z"
  />
</g>
</g>
</svg>
