<svg xmlns="http://www.w3.org/2000/svg" viewBox="0 0 336.87 259.97"><defs><style>.cls-1,.cls-15{fill:#00ffb8;}.cls-2{fill:#f4c37d;}.cls-3{opacity:0.31;}.cls-4{fill:#010202;}.cls-14,.cls-5{fill:#263156;}.cls-6{fill:#00011b;}.cls-13,.cls-7{fill:#3b4aec;}.cls-8{fill:#fff8e5;}.cls-9{fill:#222930;}.cls-10{fill:#ff4f0e;}.cls-11{fill:#ef932e;}.cls-11,.cls-12,.cls-13,.cls-14,.cls-15{fill-rule:evenodd;}.cls-12{fill:#00a1ff;}</style></defs><g id="Layer_2" data-name="Layer 2"><g id="Layer_1-2" data-name="Layer 1"><path class="cls-1" d="M19.58,197.21A17.2,17.2,0,0,0,36,174.77a28.74,28.74,0,0,1-.52-17c2.05-7.3,7.24-14.69,15.41-22A17.19,17.19,0,0,0,28,110.12C14.83,121.83,6.2,134.72,2.34,148.43a62.9,62.9,0,0,0,.87,36.82A17.21,17.21,0,0,0,19.58,197.21Z"/><path class="cls-2" d="M7.11,196.09a13.88,13.88,0,0,1,6.72-18.82,14.78,14.78,0,0,1,19.31,6.95,13.87,13.87,0,0,1,.29,11.72c2.39-3.07,7.61.41,5.48,4-4.71,8-14.74,9.7-23,5.54A18.63,18.63,0,0,1,7.11,196.09Z"/><g class="cls-3"><path class="cls-4" d="M103.27,229.25c35.13,0,66,2.75,83.42,6.89,17.45-4.14,39.93-6.89,63.62-6.89,47.05,0,86.56,6.6,86.56,14.74s-40.16,16-86.81,16c-13.58,0-43.6-2.71-55.17-6a34.06,34.06,0,0,0-15.36-.67c-18.07,3.3-45.52,5.4-76.26,5.4-54.43,0-98.55-6.6-98.55-14.74S48.84,229.25,103.27,229.25Z"/></g><rect class="cls-5" x="121.38" y="158.08" width="59.04" height="92.25" rx="29.52" transform="translate(301.8 408.42) rotate(180)"/><rect class="cls-5" x="47.62" y="158.92" width="59.04" height="92.25" rx="29.52" transform="translate(154.29 410.1) rotate(-180)"/><path class="cls-1" d="M196.69,114.75s13.57,29.66,3.85,63.5c-4.91,17.12-14.47,27.91-30.92,33.58-31.17,10.75-69.68,12.79-98.16,3.53C55.05,210,46.6,199.42,40.63,185.48c-6.68-15.63-10.72-40.24.47-75.75Z"/><path class="cls-2" d="M196.69,114.75a158.88,158.88,0,0,1,7.71-18.47c5.14-10.55,17.83-60.19-47.91-74.56s-119.61-2.16-115.39,88C41.1,109.73,93.75,159.73,196.69,114.75Z"/><path class="cls-6" d="M40.88,101.14q0,4.17.22,8.58Q40.89,105.31,40.88,101.14Z"/><path class="cls-6" d="M41,92.9c-.09,2.3-.13,4.69-.13,7.11C40.89,97.58,40.93,95.2,41,92.9Z"/><path class="cls-7" d="M168.75,93.81l-.24-27.13C108.56,81.33,64.76,43.52,64.76,43.52S60.6,44,52.71,52.09c-1.61,1.66-3.53,3.73-5.32,5.68,1-3.63,2.09-5.64,4.39-9.77C68.9,17.18,107.24,2.77,154.18,13c65.75,14.37,59.24,71.34,54.1,81.89-3.17,6.5-9.24,13.37-10.45,16.63h0Z"/><path class="cls-6" d="M42.41,77.86a144.09,144.09,0,0,0-1.36,14.55A143.82,143.82,0,0,1,42.41,77.86Z"/><path class="cls-6" d="M197.31,113l0-.1Z"/><path class="cls-6" d="M196.76,114.56v0Z"/><path class="cls-8" d="M196.77,114.52c.09-.27.27-.8.54-1.56C197.05,113.71,196.86,114.24,196.77,114.52Z"/><path class="cls-8" d="M196.69,114.75l.07-.19Z"/><polygon class="cls-8" points="42.41 77.86 42.41 77.86 42.41 77.86 42.41 77.86"/><path class="cls-8" d="M40.89,100c0,.39,0,.75,0,1.13C40.87,100.76,40.89,100.4,40.89,100Z"/><path class="cls-8" d="M41.05,92.41l0,.49Z"/><path class="cls-8" d="M197.35,112.86c.14-.38.29-.82.48-1.31Z"/><path class="cls-7" d="M49.65,1.6s-15.9,49.19,65.78,59.79l.71,0c16.72-.93,18-25.8,1.57-29C95.23,28.05,68,19.3,49.65,1.6Z"/><path class="cls-7" d="M73.24,0S58.18,46.63,115.55,53.74c19.7-.71,41.36-24,41.36-24S103.54,29.18,73.24,0Z"/><ellipse class="cls-2" cx="176.46" cy="94.74" rx="9.8" ry="10.06"/><ellipse class="cls-9" cx="121.86" cy="87.09" rx="2.71" ry="2.78"/><ellipse class="cls-9" cx="64.76" cy="71.84" rx="2.71" ry="2.78"/><path class="cls-6" d="M85.26,93c-.26.06-.51.12-.77.2l-.38.12-.1,0-.18.09a2.17,2.17,0,0,0-.33.19l-.09.06-.14.12-.13.14h0l-.06.08-.09.16s0,0,0,0l0,.07a.94.94,0,0,1,0,.16c0,.05,0,.05,0,0v.31c0-.07,0-.07,0,0A1.58,1.58,0,0,0,83,95c0,.06,0,.05,0,0L83,95l.08.13s.12.15,0,0l.1.11s0,0,0,0-.06,0,0,0l.12.07c-.12-.07,0,0,0,0l.07,0c-.08,0-.1,0,0,0s-.06,0,0,0l.14,0a.5.5,0,0,1,.63.36.52.52,0,0,1-.36.63c-1,.36-1.79-.53-2-1.4a2,2,0,0,1,.23-1.44,3,3,0,0,1,1.18-1A7.47,7.47,0,0,1,85,92a.51.51,0,0,1,.27,1Z"/><path class="cls-10" d="M89.42,115.27a32.67,32.67,0,0,0-7.37-1.67c-.65-.07-.66-1.11,0-1a33.28,33.28,0,0,1,7.64,1.71c.63.22.36,1.21-.27,1Z"/><path class="cls-2" d="M165.59,29.25A46.39,46.39,0,0,1,177.39,20a16,16,0,0,1,9.25-2.92A16.67,16.67,0,0,1,203.08,34a16.44,16.44,0,1,1-32.87.75c-1.18-.46-2.35-.89-3.54-1.3A2.56,2.56,0,0,1,165.59,29.25Z"/><path class="cls-1" d="M194.82,153a17.14,17.14,0,0,0,11.57-4.48c20.61-18.76,31.55-38.69,32.5-59.23.84-18.21-6.34-36.2-20.78-52a17.19,17.19,0,0,0-25.4,23.18C201,69.48,205,78.65,204.54,87.67c-.51,11.09-7.68,23-21.29,35.39A17.19,17.19,0,0,0,194.82,153Z"/><path class="cls-8" d="M42.76,75.41l.14-.79s10,13.52,38.25,20.12c43.12,10.06,87.52-6,87.52-6h0c-.18,1.43.06,2.47-9.22,6.83a4.44,4.44,0,0,0-2.43,5,25.33,25.33,0,0,0,3.69,7.38c1.41,2.07,3.64,2,5.95,1.16,10.05-3.55,9.35-3.14,16.75-6.87a.72.72,0,0,1,1,.66h0a.77.77,0,0,1-.33.63C171.58,111.77,158,120,146.51,123.28c-41.84,11.78-77.1-2.29-89.17-7.56a57.2,57.2,0,0,1-16.48-11.61A104,104,0,0,1,42.76,75.41Z"/><path class="cls-11" d="M252.11,182.8a62.7,62.7,0,0,0-.77,9.07c-.18,9.18.39,22.92,2.3,28.69,3,9.19,13.9,14.34,13.9,14.34l1.19-4.26c-17.13-5-11.77-34.28-11.07-48Z"/><path class="cls-12" d="M275,139.63s-2.53-.66-6.69,7.13-7.09,34.49-7.65,35.8S257,190.3,257,190.3s-5.56.28-5.62-.08-3.21-6.75-3.41-8.93,7.28-30.32,7.37-30.84,2.15-7.18,4.73-9.45S274.67,139.62,275,139.63Z"/><path class="cls-7" d="M275,139.63s-2.53-.66-6.69,7.13-7.09,34.49-7.65,35.8S257,190.3,257,190.3s-5.56.28-5.62-.08-3.21-6.75-3.41-8.93,7.28-30.32,7.37-30.84,2.15-7.18,4.73-9.45S274.67,139.62,275,139.63Z"/><path class="cls-13" d="M276.24,146.38c-7.17-4.24-16.13-11.46-20.94,4.07a22.49,22.49,0,0,1,4.76-10.22c2-2.64,5.24-2.87,11.21-2.77s7.26-.21,9.61,1.56,8.25,8.12,7.09,8.63S276.24,146.38,276.24,146.38Z"/><path class="cls-14" d="M222,190a63.58,63.58,0,0,0-.41,9.33c.2,9.42,1.36,23.49,3.55,29.33C228.6,238,240,242.8,240,242.8l1-4.41c-17.79-4.47-13.5-34.7-13.35-48.76Z"/><path class="cls-13" d="M243.13,147.25s-2.63-.58-6.57,7.59-5.83,35.65-6.34,37-3.43,8.09-3.43,8.09-5.69.5-5.76.14-3.58-6.8-3.87-9,6.2-31.39,6.27-31.93,1.9-7.45,4.45-9.88S242.84,147.25,243.13,147.25Z"/><path class="cls-13" d="M245.26,153.35c-7.52-4.06-17-11.1-21.3,5a23.07,23.07,0,0,1,4.45-10.67c2-2.79,5.25-3.15,11.38-3.3s7.44-.5,9.92,1.22,9.2,6.59,8,7.16S245.26,153.35,245.26,153.35Z"/><path class="cls-14" d="M251.81,147.26c-2.63.85-6.13,1.71-10.8,14.6s1.32,50.83,1.17,58.42-3.36,12.18-3.5,18.19,4.67,9.31,8.17,10.31,39.25,1.43,44.79-3.44,6.42-11.88,6.42-15.89,2.63-51.26.29-63.87C293.65,140.18,272.81,146.41,251.81,147.26Z"/><path class="cls-15" d="M260.09,169.34c-2.85.42-6.21-.29-6.57,13.18-.14,5.31-1.63,39.57-.47,43.15s4.52,6.11,12.83,7c6.43.72,30.47-1.71,32.18-3.25s6.13-35.8,2-51.55c-1.19-4.59-15.79-9-21.77-8.84S260.09,169.34,260.09,169.34Z"/><path class="cls-13" d="M288.83,231.28c.58-4.12,2.87-13.24,2.7-34.61.43,0,6.86-.31,6.86-.31-.78,11.24-.19,23.35-2.94,33.93a30.35,30.35,0,0,1-3.07.63A22.53,22.53,0,0,1,288.83,231.28Z"/><path class="cls-14" d="M289.78,180c1.85,8,1,13.55,2.21,19.92.47,2.52,3.5,5.25,3.84,5.14s2.41-5.47,2.45-5.92c.33-3.27,0-10.45-1.46-19.75Z"/><path class="cls-13" d="M264.29,232.5c.7-4.12,2.95-13,3.38-34.4.42,0,6.86-.31,6.86-.31-1.1,11.25-1,24.45-4,35a13.84,13.84,0,0,1-2.94.1A21.72,21.72,0,0,1,264.29,232.5Z"/><path class="cls-14" d="M266.38,181.42c1.63,8,.64,13.55,1.65,19.93.4,2.51,3.36,5.24,3.7,5.13s2.56-5.47,2.62-5.91c.41-3.28.25-10.45-.91-19.76Z"/><path class="cls-14" d="M243.2,156.46c.16,1.36,1.61-4,8-1s3.21,18,7.73,25.56c4.62,7.75,36.16,10.78,41.14-3.15,1.9-5.3-1.16-19.9-4.66-24.49s-5.33-5.94-14.52-7.08C271.17,145.11,241.45,141.27,243.2,156.46Z"/><path class="cls-5" d="M195.33,110s-8.44-.48-12.91,3.22S155.47,137,96.87,132.06c-41.23,8.39-38.16,28.33-38.16,28.33s18.81,2.3,30.19-9.85,8.31-15.45,8.31-15.45,19.28,9.9,57,.19c28.08-7.23,35.63-18.71,35.63-18.71Z"/><path class="cls-5" d="M123.38,164.63s-2.54-13.17-10.72-20.7a97.36,97.36,0,0,0-15.79-11.87s-41.7-9.8-55.77-23c-1.5,5-2.18,8.17-2.18,8.17a104,104,0,0,0,20.94,11.66c9.19,3.82,25.08,7.56,34.5,8C95.16,146.69,101.52,166.34,123.38,164.63Z"/><circle class="cls-5" cx="93.71" cy="156.99" r="1.8"/><circle class="cls-5" cx="92.91" cy="180.87" r="1.8"/><path class="cls-8" d="M102.39,156.68c2.52-3.47,7.33-9,13-9.77a34.48,34.48,0,0,1,3.43,5.28c-3.76,1.18-9.7,3.51-13.39,7.24A28.57,28.57,0,0,1,102.39,156.68Z"/><path class="cls-8" d="M109.22,141c1,.77,2,1.58,2.91,2.44-3.28,2-9.62,6-12.51,9.93-.51-.7-1-1.41-1.45-2.13C100.94,148.61,105.73,144.06,109.22,141Z"/><path class="cls-8" d="M66.45,144.91a43.31,43.31,0,0,1,10.45-6.6c3.72,2.75,9.54,7.68,11.42,12.83a29.39,29.39,0,0,1-9.42,6.27C77.25,153.94,73.21,147,66.45,144.91Z"/><path class="cls-9" d="M129,77a86.31,86.31,0,0,0-10.51-2.5c-2.61-.45-1.51-4.43,1.09-4A85.87,85.87,0,0,1,130.09,73c2.54.78,1.46,4.76-1.09,4Z"/><path class="cls-9" d="M72,62.8a20.94,20.94,0,0,0-8.53-2.68c-2.63-.22-2.65-4.35,0-4.12a25.63,25.63,0,0,1,10.61,3.24c2.31,1.3.24,4.87-2.08,3.56Z"/><path class="cls-7" d="M288.5,196.26v-4.42a3.4,3.4,0,0,1,3.4-3.4h6a3.41,3.41,0,0,1,3.4,3.4v4.42a3.4,3.4,0,0,1-3.4,3.4h-6A3.4,3.4,0,0,1,288.5,196.26Zm3.4-6.06a1.64,1.64,0,0,0-1.65,1.64v4.42a1.64,1.64,0,0,0,1.65,1.64h6a1.63,1.63,0,0,0,1.64-1.64v-4.42a1.63,1.63,0,0,0-1.64-1.64Z"/><path class="cls-7" d="M264.8,196.47V192a3.39,3.39,0,0,1,3.39-3.39h6a3.4,3.4,0,0,1,3.4,3.39v4.43a3.4,3.4,0,0,1-3.4,3.39h-6A3.39,3.39,0,0,1,264.8,196.47Zm3.39-6.07a1.65,1.65,0,0,0-1.64,1.64v4.43a1.65,1.65,0,0,0,1.64,1.64h6a1.64,1.64,0,0,0,1.64-1.64V192a1.64,1.64,0,0,0-1.64-1.64Z"/></g></g></svg>